<svg width="18" height="18" viewBox="0 0 18 18" fill="none" xmlns="http://www.w3.org/2000/svg">
<g clip-path="url(#clip0_3913_7912)">
<path d="M16.8055 15.0754L12.7481 11.0254C13.4784 9.97239 13.8842 8.75739 13.8842 7.38039C13.8842 3.81639 10.9628 0.900391 7.39229 0.900391C3.82174 0.900391 0.900391 3.81639 0.900391 7.38039C0.900391 10.9444 3.82174 13.8604 7.39229 13.8604C8.77181 13.8604 9.98904 13.4554 11.044 12.7264L15.1014 16.7764C15.3449 17.0194 15.5883 17.1004 15.9129 17.1004C16.2375 17.1004 16.5621 16.9384 16.7244 16.7764C17.2113 16.2904 17.2113 15.5614 16.8055 15.0754ZM10.8817 11.8354C9.90789 12.5644 8.69066 13.0504 7.39229 13.0504C4.22749 13.0504 1.71188 10.5394 1.71188 7.38039C1.71188 4.22139 4.22749 1.71039 7.39229 1.71039C10.5571 1.71039 13.0727 4.22139 13.0727 7.38039C13.0727 8.67639 12.5858 9.89139 11.8555 10.8634C11.612 11.1874 11.2874 11.5924 10.8817 11.8354ZM16.2375 16.2094C16.0752 16.3714 15.8317 16.3714 15.6695 16.2094L11.6932 12.2404C11.6932 12.2404 11.6932 12.1594 11.7743 12.1594C11.9366 11.9974 12.0989 11.9164 12.1801 11.7544C12.1801 11.7544 12.1801 11.7544 12.2612 11.6734L16.2375 15.6424C16.3186 15.7234 16.3186 15.8044 16.3186 15.8854C16.3186 16.0474 16.3186 16.1284 16.2375 16.2094Z" fill="#B3B3B3"/>
</g>
<defs>
<clipPath id="clip0_3913_7912">
<rect width="18" height="18" fill="white"/>
</clipPath>
</defs>
</svg>
