<svg width="24" height="24" viewBox="0 0 24 24" fill="none" xmlns="http://www.w3.org/2000/svg">
<path fill-rule="evenodd" clip-rule="evenodd" d="M14 4.99501C14 6.09825 13.106 7 12 7C10.894 7 10 6.11621 10 5.01496V4.99501C10 3.89177 10.894 3 12 3C13.106 3 14 3.89177 14 4.99501Z" fill="#646464"/>
<path fill-rule="evenodd" clip-rule="evenodd" d="M14 11.996C14 13.0998 13.106 14 12 14C10.894 14 10 13.1178 10 12.014V11.996C10 10.8922 10.894 10 12 10C13.106 10 14 10.8922 14 11.996Z" fill="#646464"/>
<path fill-rule="evenodd" clip-rule="evenodd" d="M14 18.995C14 20.0983 13.106 21 12 21C10.894 21 10 20.1162 10 19.013V18.995C10 17.8918 10.894 17 12 17C13.106 17 14 17.8918 14 18.995Z" fill="#646464"/>
</svg>
