<svg width="28" height="28" viewBox="0 0 28 28" fill="none" xmlns="http://www.w3.org/2000/svg">
<path d="M12.7404 19.0106C12.7404 19.2943 12.5136 19.5264 12.2364 19.5264H3.41639C2.30759 19.5264 1.40039 18.598 1.40039 17.4633V7.66326C1.40039 6.52852 2.30759 5.6001 3.41639 5.6001H19.0404C20.1492 5.6001 21.0564 6.52852 21.0564 7.66326V10.5001C21.0564 10.7838 20.8296 11.0159 20.5524 11.0159C20.2752 11.0159 20.0484 10.7838 20.0484 10.5001V7.66326C20.0484 7.09589 19.5948 6.63168 19.0404 6.63168H3.41639C2.86199 6.63168 2.40839 7.09589 2.40839 7.66326V17.4633C2.40839 18.0306 2.86199 18.4948 3.41639 18.4948H12.2364C12.5136 18.4948 12.7404 18.7269 12.7404 19.0106ZM18.7884 7.66326H17.7804V8.69483H18.7884V7.66326ZM16.7724 7.66326H15.7644V8.69483H16.7724V7.66326ZM14.7564 8.69483V7.66326H13.7484V8.69483H14.7564ZM12.7404 8.69483V7.66326H11.7324V8.69483H12.7404ZM10.7244 8.69483V7.66326H9.71639V8.69483H10.7244ZM8.70839 7.66326H7.70039V8.69483H8.70839V7.66326ZM6.69239 7.66326H5.68439V8.69483H6.69239V7.66326ZM4.67639 7.66326H3.66839V8.69483H4.67639V7.66326ZM17.7804 17.4633H18.7884V16.4317H17.7804V17.4633ZM15.7644 17.4633H16.7724V16.4317H15.7644V17.4633ZM14.7564 16.4317H13.7484V17.4633H14.7564V16.4317ZM11.7324 17.4633H12.7404V16.4317H11.7324V17.4633ZM9.71639 16.4317V17.4633H10.7244V16.4317H9.71639ZM7.70039 17.4633H8.70839V16.4317H7.70039V17.4633ZM5.68439 17.4633H6.69239V16.4317H5.68439V17.4633ZM3.66839 17.4633H4.67639V16.4317H3.66839V17.4633ZM13.4964 12.5633C13.4964 12.7438 13.3956 12.8985 13.2696 13.0017L10.2456 14.9359C10.17 14.9875 10.0692 15.0133 9.96839 15.0133C9.89279 15.0133 9.79199 14.9875 9.71639 14.9359C9.56519 14.8327 9.46439 14.678 9.46439 14.4975V10.629C9.46439 10.4485 9.56519 10.268 9.71639 10.1906C9.86759 10.0875 10.0692 10.1133 10.2204 10.2164L13.2444 12.1506C13.3956 12.228 13.4964 12.3827 13.4964 12.5633ZM12.0348 12.5633L10.4724 11.5575V13.569L12.0348 12.5633ZM26.6004 19.0106C26.6004 20.3001 25.5924 21.3317 24.3324 21.3317C23.3496 21.3317 22.518 20.6869 22.1904 19.7843H21.3084V20.6869C22.1904 20.9964 22.8204 21.8733 22.8204 22.879C22.8204 24.1685 21.8124 25.2001 20.5524 25.2001C19.2924 25.2001 18.2844 24.1685 18.2844 22.879C18.2844 21.8733 18.9144 21.0222 19.7964 20.6869V19.7843H15.5124C14.2524 19.7843 14.2524 18.2369 14.2524 18.2369H19.7964V12.5633C19.7964 12.5633 21.3084 12.5633 21.3084 13.8527V18.2369H22.1904C22.4928 17.3343 23.3496 16.6896 24.3324 16.6896C25.5924 16.6896 26.6004 17.7212 26.6004 19.0106ZM20.0484 19.0106C20.0484 19.2943 20.2752 19.5264 20.5524 19.5264C20.8296 19.5264 21.0564 19.2943 21.0564 19.0106C21.0564 18.7269 20.8296 18.4948 20.5524 18.4948C20.2752 18.4948 20.0484 18.7269 20.0484 19.0106ZM20.5524 21.5896C19.8468 21.5896 19.2924 22.1569 19.2924 22.879C19.2924 23.6012 19.8468 24.1685 20.5524 24.1685C21.258 24.1685 21.8124 23.6012 21.8124 22.879C21.8124 22.1569 21.258 21.5896 20.5524 21.5896ZM25.5924 19.0106C25.5924 18.2885 25.038 17.7212 24.3324 17.7212C23.6268 17.7212 23.0724 18.2885 23.0724 19.0106C23.0724 19.7327 23.6268 20.3001 24.3324 20.3001C25.038 20.3001 25.5924 19.7327 25.5924 19.0106Z" fill="#646464"/>
</svg>
