<?xml version="1.0" encoding="utf-8"?>
<!-- Generator: Adobe Illustrator 28.0.0, SVG Export Plug-In . SVG Version: 6.00 Build 0)  -->
<svg version="1.1" id="Layer_1" xmlns="http://www.w3.org/2000/svg" xmlns:xlink="http://www.w3.org/1999/xlink" x="0px" y="0px"
	 viewBox="0 0 24 24" style="enable-background:new 0 0 24 24;" xml:space="preserve">
<style type="text/css">
	.st0{fill:#69696F;}
</style>
<g>
	<path class="st0" d="M13.781,17.448c-0.099,0.099-0.181,0.208-0.262,0.319l-0.787-1.738l3.209-7.087
		c0.152-0.336,0.003-0.73-0.333-0.882c-0.337-0.151-0.73-0.002-0.882,0.332L12,14.413L9.274,8.392
		C9.122,8.056,8.726,7.908,8.392,8.059C8.056,8.211,7.908,8.606,8.059,8.942l3.209,7.087l-0.787,1.738
		c-0.081-0.111-0.164-0.221-0.263-0.319c-1.007-1.008-2.764-1.008-3.771,0c-0.504,0.503-0.781,1.173-0.781,1.885
		c0,0.712,0.278,1.382,0.781,1.885C6.951,21.723,7.621,22,8.333,22c0.712,0,1.382-0.277,1.885-0.781
		c0.299-0.298,0.506-0.659,0.635-1.049c0.003-0.006,0.008-0.01,0.01-0.016L12,17.645l1.136,2.509
		c0.002,0.005,0.007,0.009,0.009,0.015c0.129,0.39,0.337,0.751,0.636,1.05C14.285,21.723,14.954,22,15.667,22
		c0.712,0,1.382-0.277,1.885-0.781c0.504-0.503,0.781-1.173,0.781-1.885c0-0.712-0.277-1.382-0.781-1.885
		C16.546,16.44,14.788,16.44,13.781,17.448z M7.391,20.276C7.139,20.024,7,19.689,7,19.333c0-0.356,0.139-0.691,0.391-0.943
		S7.977,18,8.333,18c0.356,0,0.691,0.139,0.943,0.391s0.391,0.587,0.391,0.943c0,0.356-0.139,0.691-0.391,0.943
		C8.772,20.78,7.895,20.78,7.391,20.276z M16.609,20.276c-0.504,0.504-1.382,0.504-1.885,0c-0.252-0.252-0.391-0.587-0.391-0.943
		c0-0.356,0.139-0.691,0.391-0.943S15.311,18,15.667,18s0.691,0.139,0.943,0.391S17,18.977,17,19.333
		C17,19.689,16.861,20.024,16.609,20.276z"/>
	<path class="st0" d="M21.585,4.468c-0.277-1.007-1.092-1.8-2.125-2.068C17.966,2.011,12.606,2,12,2S6.034,2.011,4.54,2.4
		C3.507,2.668,2.692,3.46,2.414,4.467C2.005,5.948,2,8.876,2,9s0.005,3.052,0.414,4.533C2.693,14.54,3.507,15.333,4.54,15.6
		c0.569,0.148,1.692,0.253,3.434,0.321c0.369,0.031,0.678-0.272,0.692-0.64c0.015-0.368-0.272-0.678-0.64-0.692
		c-2.127-0.083-2.887-0.211-3.151-0.279c-0.573-0.148-1.023-0.583-1.175-1.132C3.338,11.871,3.333,9.029,3.333,9
		S3.338,6.131,3.7,4.822C3.851,4.273,4.302,3.839,4.875,3.69C6.001,3.397,10.4,3.333,12,3.333c1.6,0,5.999,0.064,7.125,0.357
		c0.574,0.149,1.023,0.583,1.175,1.132C20.661,6.129,20.667,8.972,20.667,9c0,0.029-0.005,2.871-0.367,4.178
		c-0.152,0.549-0.602,0.983-1.176,1.132c-0.264,0.068-1.023,0.196-3.15,0.279c-0.368,0.014-0.654,0.324-0.64,0.692
		c0.014,0.359,0.309,0.641,0.665,0.641c0.009,0,0.018,0,0.027-0.001c1.742-0.068,2.865-0.173,3.434-0.321
		c1.033-0.268,1.848-1.06,2.126-2.067C21.995,12.052,22,9.124,22,9C22,8.876,21.994,5.948,21.585,4.468z"/>
</g>
</svg>
