<svg width="25" height="24" viewBox="0 0 25 24" fill="none" xmlns="http://www.w3.org/2000/svg">
<path d="M21.9302 6.66657H3.5702C2.7062 6.66657 1.9502 7.41324 1.9502 8.26657V19.9999C1.9502 20.8532 2.7062 21.5999 3.5702 21.5999H21.9302C22.7942 21.5999 23.5502 20.8532 23.5502 19.9999V8.26657C23.5502 7.41324 22.7942 6.66657 21.9302 6.66657ZM22.4702 19.9999C22.4702 20.3199 22.2542 20.5332 21.9302 20.5332H3.5702C3.2462 20.5332 3.0302 20.3199 3.0302 19.9999V8.26657C3.0302 7.94657 3.2462 7.73324 3.5702 7.73324H21.9302C22.2542 7.73324 22.4702 7.94657 22.4702 8.26657V19.9999ZM11.4542 11.0399C11.2382 10.9332 11.0222 10.9332 10.9142 11.0399C10.6982 11.1466 10.5902 11.2532 10.5902 11.4666V16.7999C10.5902 17.0132 10.6982 17.1199 10.9142 17.2266C10.9142 17.3332 11.0222 17.3332 11.1302 17.3332C11.2382 17.3332 11.3462 17.3332 11.4542 17.2266L15.7742 14.5599C15.8822 14.4532 15.9902 14.2399 15.9902 14.1332C15.9902 14.0266 15.8822 13.8132 15.7742 13.7066L11.4542 11.0399ZM11.6702 15.8399V12.4266L14.4782 14.1332L11.6702 15.8399ZM4.1102 5.06657C4.1102 4.74657 4.3262 4.53324 4.6502 4.53324H20.8502C21.1742 4.53324 21.3902 4.74657 21.3902 5.06657C21.3902 5.38657 21.1742 5.5999 20.8502 5.5999H4.6502C4.3262 5.5999 4.1102 5.38657 4.1102 5.06657ZM6.2702 2.93324C6.2702 2.61324 6.4862 2.3999 6.8102 2.3999H18.6902C19.0142 2.3999 19.2302 2.61324 19.2302 2.93324C19.2302 3.25324 19.0142 3.46657 18.6902 3.46657H6.8102C6.4862 3.46657 6.2702 3.25324 6.2702 2.93324Z" fill="#646464"/>
</svg>
