<?xml version="1.0" encoding="utf-8"?>
<!-- Generator: Adobe Illustrator 28.0.0, SVG Export Plug-In . SVG Version: 6.00 Build 0)  -->
<svg version="1.1" id="Layer_1" xmlns="http://www.w3.org/2000/svg" xmlns:xlink="http://www.w3.org/1999/xlink" x="0px" y="0px"
	 viewBox="0 0 24 24" style="enable-background:new 0 0 24 24;" xml:space="preserve">
<style type="text/css">
	.st0{fill:#69696F;}
</style>
<g>
	<path class="st0" d="M15.293,11.085l-4.412-2.647C10.52,8.221,10.128,8.2,9.806,8.383C9.484,8.565,9.3,8.911,9.3,9.333v5.333
		c0,0.422,0.185,0.768,0.506,0.951c0.146,0.082,0.306,0.123,0.471,0.123c0.2,0,0.406-0.06,0.604-0.178l4.412-2.647
		c0.355-0.214,0.559-0.547,0.559-0.915S15.648,11.299,15.293,11.085z M10.632,14.156V9.844L14.226,12L10.632,14.156z"/>
	<path class="st0" d="M12,2C6.486,2,2,6.486,2,12s4.486,10,10,10s10-4.486,10-10S17.514,2,12,2z M12,20.667
		c-4.779,0-8.667-3.888-8.667-8.667S7.221,3.333,12,3.333S20.667,7.221,20.667,12S16.779,20.667,12,20.667z"/>
</g>
</svg>
