<?xml version="1.0" encoding="utf-8"?>
<!-- Generator: Adobe Illustrator 28.0.0, SVG Export Plug-In . SVG Version: 6.00 Build 0)  -->
<svg version="1.1" id="AddOns" xmlns="http://www.w3.org/2000/svg" xmlns:xlink="http://www.w3.org/1999/xlink" x="0px" y="0px"
	 viewBox="0 0 24 24" style="enable-background:new 0 0 24 24;" xml:space="preserve">
<style type="text/css">
</style>
<g>
	<path class="st0" d="M20,2.667H6.667C5.931,2.667,5.333,3.265,5.333,4v1.333H4.067c-0.772,0-1.4,0.628-1.4,1.4v13.2
		c0,0.772,0.628,1.4,1.4,1.4h13.2c0.772,0,1.4-0.628,1.4-1.4v-1.267H20c0.735,0,1.333-0.598,1.333-1.333V4
		C21.333,3.265,20.735,2.667,20,2.667z M17.333,19.934c0,0.035-0.032,0.066-0.066,0.066h-13.2C4.032,20,4,19.968,4,19.934v-13.2
		c0-0.035,0.032-0.067,0.067-0.067h1.267v10.667c0,0.735,0.598,1.333,1.333,1.333h10.667L17.333,19.934L17.333,19.934z M20,17.333
		H6.667V4H20V17.333z"/>
	<path class="st0" d="M10,11.333h2.667V14c0,0.368,0.298,0.667,0.667,0.667C13.702,14.667,14,14.368,14,14v-2.667h2.667
		c0.368,0,0.667-0.299,0.667-0.667S17.035,10,16.667,10H14V7.333c0-0.368-0.298-0.667-0.667-0.667c-0.368,0-0.667,0.299-0.667,0.667
		V10H10c-0.368,0-0.667,0.299-0.667,0.667S9.632,11.333,10,11.333z"/>
</g>
</svg>
