<?xml version="1.0" encoding="utf-8"?>
<!-- Generator: Adobe Illustrator 28.0.0, SVG Export Plug-In . SVG Version: 6.00 Build 0)  -->
<svg id='Home' version="1.1" xmlns="http://www.w3.org/2000/svg" xmlns:xlink="http://www.w3.org/1999/xlink" x="0px" y="0px"
	 viewBox="0 0 24 24" style="enable-background:new 0 0 24 24;" xml:space="preserve">
<style type="text/css">
</style>
<g>
	<path class="st0" d="M20.662,9.519c-0.002-0.048-0.016-0.093-0.028-0.139c-0.01-0.038-0.015-0.078-0.031-0.113
		S20.56,9.202,20.537,9.17c-0.027-0.039-0.052-0.079-0.087-0.112c-0.006-0.006-0.009-0.014-0.015-0.02l-8-6.877
		c-0.25-0.215-0.619-0.215-0.869,0l-8,6.877c-0.007,0.006-0.01,0.014-0.016,0.02C3.515,9.091,3.49,9.131,3.463,9.17
		C3.44,9.203,3.413,9.232,3.397,9.267s-0.02,0.074-0.03,0.112C3.354,9.426,3.34,9.471,3.338,9.519c0,0.009-0.005,0.016-0.005,0.024
		v11.123C3.333,21.402,3.931,22,4.667,22h14.667c0.735,0,1.333-0.598,1.333-1.333V9.544C20.667,9.535,20.662,9.528,20.662,9.519z
		 M4.667,20.667V9.85L12,3.546l7.333,6.304v10.816L4.667,20.667L4.667,20.667z"/>
	<path class="st0" d="M16,17.333H8c-0.368,0-0.667,0.298-0.667,0.667c0,0.368,0.299,0.667,0.667,0.667h8
		c0.368,0,0.667-0.298,0.667-0.667C16.667,17.632,16.368,17.333,16,17.333z"/>
</g>
</svg>
