<?xml version="1.0" encoding="utf-8"?>
<!-- Generator: Adobe Illustrator 28.0.0, SVG Export Plug-In . SVG Version: 6.00 Build 0)  -->
<svg version="1.1" id="Inspiration" xmlns="http://www.w3.org/2000/svg" xmlns:xlink="http://www.w3.org/1999/xlink" x="0px" y="0px"
	 viewBox="0 0 24 24" style="enable-background:new 0 0 24 24;" xml:space="preserve">
<style type="text/css">
</style>
<path class="st0" d="M4.806,23c-0.187,0-0.33-0.079-0.422-0.153c-0.184-0.146-0.439-0.487-0.08-1.125l4.807-8.548H6.646
	c-0.427,0-0.772-0.187-0.948-0.513s-0.143-0.717,0.092-1.074l6.384-9.73C12.499,1.36,13.167,1,13.76,1h5.071
	c0.434,0,0.78,0.19,0.948,0.523s0.116,0.723-0.141,1.073l-5.225,7.079h2.996c0.66,0,0.881,0.39,0.946,0.557
	c0.064,0.168,0.162,0.605-0.326,1.048L5.498,22.674C5.227,22.92,4.994,23,4.806,23z M7.214,11.843h2.37
	c0.417,0,0.763,0.182,0.949,0.5s0.175,0.708-0.029,1.072l-3.348,5.953l9.197-8.362h-2.592c-0.435,0-0.781-0.191-0.948-0.523
	c-0.168-0.332-0.116-0.724,0.142-1.074l5.224-7.078h-4.418c-0.143,0-0.396,0.136-0.474,0.256L7.214,11.843z M9.588,13.174h0.006
	H9.588z"/>
</svg>
