<?xml version="1.0" encoding="utf-8"?>
<!-- Generator: Adobe Illustrator 28.0.0, SVG Export Plug-In . SVG Version: 6.00 Build 0)  -->
<svg version="1.1" id="Learn" xmlns="http://www.w3.org/2000/svg" xmlns:xlink="http://www.w3.org/1999/xlink" x="0px" y="0px"
	 viewBox="0 0 24 24" style="enable-background:new 0 0 24 24;" xml:space="preserve">
<style type="text/css">
</style>
<path class="st0" d="M23.296,7.117L12.842,3.388c-0.494-0.176-1.212-0.179-1.707-0.004L0.708,7.049C0.07,7.272,0,7.719,0,7.901
	S0.067,8.53,0.704,8.756l4.172,1.488v4.794c0,0.21,0.098,0.407,0.266,0.534c0.047,0.036,3.196,2.361,7.231,2.361
	c2.038,0,4.301-0.594,6.505-2.374c0.157-0.127,0.248-0.318,0.248-0.52v-4.748l1.891-0.665v3.724
	c-0.362,0.225-0.605,0.623-0.605,1.079c0,0.491,0.282,0.914,0.691,1.126c-0.025,0.047-0.051,0.093-0.065,0.146
	c-0.828,3.245-0.828,3.381-0.828,3.48c0,0.863,0.662,1.565,1.475,1.565s1.476-0.702,1.476-1.565c0-0.096,0-0.274-0.828-3.482
	c-0.014-0.052-0.04-0.098-0.064-0.144c0.408-0.212,0.691-0.635,0.691-1.126c0-0.457-0.243-0.855-0.605-1.08V9.154l0.94-0.33
	C23.93,8.6,24,8.153,24,7.972C24.001,7.79,23.933,7.344,23.296,7.117z M11.578,4.646c0.202-0.071,0.613-0.07,0.814,0.002
	l9.306,3.319l-9.275,3.259c-0.203,0.071-0.614,0.07-0.815-0.001l-9.305-3.32L11.578,4.646z M17.787,14.712
	c-5.065,3.859-10.33,0.808-11.575-0.023V10.72l4.946,1.764c0.249,0.088,0.555,0.133,0.86,0.133c0.3,0,0.6-0.042,0.846-0.129
	l4.922-1.73v3.954H17.787z"/>
</svg>
