<?xml version="1.0" encoding="utf-8"?>
<!-- Generator: Adobe Illustrator 28.0.0, SVG Export Plug-In . SVG Version: 6.00 Build 0)  -->
<svg version="1.1" id="NewRequest" xmlns="http://www.w3.org/2000/svg" xmlns:xlink="http://www.w3.org/1999/xlink" x="0px" y="0px"
	 viewBox="0 0 24 24" style="enable-background:new 0 0 24 24;" xml:space="preserve">
<style type="text/css">
</style>
<g>
	<path class="st0" d="M12,2C6.486,2,2,6.486,2,12s4.486,10,10,10s10-4.486,10-10S17.514,2,12,2z M12,20.667
		c-4.779,0-8.667-3.888-8.667-8.667S7.221,3.333,12,3.333S20.667,7.221,20.667,12S16.779,20.667,12,20.667z"/>
	<path class="st0" d="M16.148,11.333h-3.482V7.852c0-0.368-0.299-0.667-0.667-0.667s-0.666,0.299-0.666,0.667v3.481H7.852
		c-0.368,0-0.667,0.299-0.667,0.667s0.299,0.667,0.667,0.667h3.481v3.482c0,0.368,0.299,0.667,0.667,0.667s0.667-0.298,0.667-0.667
		v-3.482h3.482c0.368,0,0.667-0.299,0.667-0.667S16.517,11.333,16.148,11.333z"/>
</g>
</svg>
