<svg width="18" height="18" viewBox="0 0 18 18" fill="none" xmlns="http://www.w3.org/2000/svg">
<path d="M14.4 7.2C14.4 4.86 12.87 2.88 10.8 2.07C10.8 1.98 10.8 1.89 10.8 1.8C10.8 0.81 9.99 0 9 0C8.01 0 7.2 0.81 7.2 1.8C7.2 1.89 7.2 1.98 7.2 2.07C5.13 2.88 3.6 4.86 3.6 7.2C3.6 12.33 1.53 14.49 1.44 14.49C1.35 14.58 1.26 14.85 1.35 14.94C1.44 15.03 1.62 15.3 1.8 15.3H6.3C6.3 16.83 7.47 18 9 18C10.53 18 11.7 16.83 11.7 15.3H16.2C16.38 15.3 16.56 15.21 16.65 15.03C16.74 14.85 16.65 14.67 16.56 14.58C16.47 14.49 14.4 12.33 14.4 7.2ZM8.1 1.8C8.1 1.26 8.46 0.9 9 0.9C9.54 0.9 9.9 1.26 9.9 1.8V1.89C9.63 1.8 9.27 1.8 9 1.8C8.73 1.8 8.37 1.8 8.1 1.8ZM9 2.7C11.52 2.7 13.5 4.68 13.5 7.2C13.5 9.09 13.77 10.53 14.13 11.7H3.87C4.23 10.53 4.5 9.09 4.5 7.2C4.5 4.68 6.48 2.7 9 2.7ZM9 17.1C8.01 17.1 7.2 16.29 7.2 15.3H10.8C10.8 16.29 9.99 17.1 9 17.1ZM2.7 14.4C2.97 13.95 3.33 13.41 3.6 12.6H14.4C14.67 13.41 15.03 13.95 15.3 14.4H2.7ZM3.51 1.26C2.07 2.61 1.17 4.41 0.9 6.39C0.9 6.66 0.9 6.93 0.9 7.2C0.9 7.47 0.72 7.65 0.45 7.65C0.18 7.65 0 7.47 0 7.2C0 6.84 0 6.57 0.09 6.21C0.36 4.05 1.35 1.98 2.97 0.54C3.15 0.36 3.42 0.36 3.6 0.54C3.69 0.81 3.69 1.08 3.51 1.26ZM3.6 2.43C3.78 2.25 4.05 2.25 4.23 2.43C4.41 2.61 4.41 2.88 4.23 3.06C3.42 3.96 2.88 5.13 2.79 6.39C2.79 6.66 2.61 6.75 2.34 6.75C2.34 6.75 2.34 6.75 2.25 6.75C1.98 6.75 1.8 6.48 1.89 6.21C2.07 4.77 2.7 3.51 3.6 2.43ZM18 7.2C18 7.47 17.82 7.65 17.55 7.65C17.28 7.65 17.1 7.47 17.1 7.2C17.1 6.93 17.1 6.66 17.1 6.39C16.92 4.41 16.02 2.61 14.49 1.26C14.31 1.08 14.31 0.81 14.49 0.63C14.67 0.45 14.94 0.45 15.12 0.63C16.74 2.16 17.73 4.14 18 6.3C18 6.57 18 6.84 18 7.2ZM13.68 2.97C13.5 2.79 13.5 2.52 13.68 2.34C13.86 2.16 14.13 2.16 14.31 2.34C15.3 3.42 15.93 4.77 16.11 6.21C16.11 6.48 15.93 6.66 15.75 6.75C15.75 6.75 15.75 6.75 15.66 6.75C15.48 6.75 15.21 6.57 15.21 6.39C15.12 5.13 14.58 3.96 13.68 2.97Z" fill="white"/>
</svg>
