<?xml version="1.0" encoding="utf-8"?>
<!-- Generator: Adobe Illustrator 28.0.0, SVG Export Plug-In . SVG Version: 6.00 Build 0)  -->
<svg version="1.1" id="Projects" xmlns="http://www.w3.org/2000/svg" xmlns:xlink="http://www.w3.org/1999/xlink" x="0px" y="0px"
	 viewBox="0 0 24 24" style="enable-background:new 0 0 24 24;" xml:space="preserve">
<style type="text/css">
</style>
<g>
	<path class="st0" d="M20,8H4C3.265,8,2.667,8.598,2.667,9.333V20c0,0.735,0.598,1.333,1.333,1.333h16
		c0.735,0,1.333-0.598,1.333-1.333V9.333C21.333,8.598,20.735,8,20,8z M20,20H4V9.333h16V20z"/>
	<path class="st0" d="M10.352,17.921C10.451,17.974,10.559,18,10.667,18c0.129,0,0.258-0.038,0.37-0.112l4-2.667
		c0.186-0.124,0.297-0.332,0.297-0.555s-0.111-0.431-0.297-0.555l-4-2.667c-0.205-0.136-0.469-0.148-0.685-0.032
		C10.135,11.528,10,11.754,10,12v5.333C10,17.579,10.135,17.805,10.352,17.921z M11.333,13.245l2.132,1.421l-2.132,1.421V13.245z"/>
	<path class="st0" d="M5.333,6.667h13.333c0.368,0,0.667-0.299,0.667-0.667s-0.298-0.667-0.667-0.667H5.333
		C4.965,5.333,4.667,5.632,4.667,6S4.965,6.667,5.333,6.667z"/>
	<path class="st0" d="M7.333,4h9.333c0.368,0,0.667-0.299,0.667-0.667s-0.298-0.667-0.667-0.667H7.333
		c-0.368,0-0.667,0.299-0.667,0.667S6.965,4,7.333,4z"/>
</g>
</svg>
