<?xml version="1.0" encoding="utf-8"?>
<!-- Generator: Adobe Illustrator 28.0.0, SVG Export Plug-In . SVG Version: 6.00 Build 0)  -->
<svg version="1.1" id="Settings" xmlns="http://www.w3.org/2000/svg" xmlns:xlink="http://www.w3.org/1999/xlink" x="0px" y="0px"
	 viewBox="0 0 24 24" style="enable-background:new 0 0 24 24;" xml:space="preserve">
<style type="text/css">
</style>
<g>
	<path class="st0" d="M12,7.895c-2.264,0-4.105,1.841-4.105,4.105S9.736,16.105,12,16.105s4.105-1.842,4.105-4.105
		S14.264,7.895,12,7.895z M12,14.772c-1.528,0-2.772-1.243-2.772-2.772c0-1.528,1.243-2.772,2.772-2.772s2.772,1.243,2.772,2.772
		S13.529,14.772,12,14.772z"/>
	<path class="st0" d="M21.333,9.86h-1.587c-0.176-0.636-0.429-1.245-0.757-1.822l1.124-1.124c0.125-0.125,0.195-0.295,0.195-0.471
		s-0.07-0.346-0.195-0.471l-2.085-2.084c-0.26-0.26-0.682-0.26-0.943,0l-1.124,1.124c-0.577-0.328-1.186-0.582-1.821-0.757V2.667
		C14.141,2.299,13.842,2,13.474,2h-2.948C10.158,2,9.86,2.299,9.86,2.667v1.587C9.224,4.429,8.615,4.683,8.038,5.011L6.914,3.887
		c-0.26-0.26-0.682-0.26-0.943,0L3.887,5.971c-0.26,0.26-0.26,0.682,0,0.943l1.124,1.124C4.683,8.615,4.429,9.224,4.254,9.86H2.667
		C2.299,9.86,2,10.158,2,10.526v2.948c0,0.368,0.299,0.667,0.667,0.667h1.587c0.175,0.635,0.429,1.244,0.757,1.821l-1.124,1.124
		c-0.26,0.26-0.26,0.682,0,0.943l2.084,2.085c0.25,0.25,0.693,0.25,0.943,0l1.124-1.124c0.576,0.328,1.186,0.581,1.822,0.757v1.587
		c0,0.368,0.298,0.666,0.666,0.666h2.948c0.368,0,0.667-0.298,0.667-0.667v-1.587c0.636-0.176,1.245-0.429,1.821-0.757l1.124,1.124
		c0.125,0.125,0.294,0.195,0.471,0.195s0.346-0.07,0.471-0.195l2.085-2.085c0.125-0.125,0.195-0.294,0.195-0.471
		c0-0.177-0.07-0.346-0.195-0.471l-1.124-1.124c0.328-0.576,0.581-1.186,0.757-1.821h1.587c0.368,0,0.667-0.298,0.667-0.667v-2.948
		C22,10.158,21.702,9.86,21.333,9.86z M20.667,12.807h-1.446c-0.317,0-0.59,0.223-0.653,0.534c-0.171,0.839-0.5,1.63-0.979,2.352
		c-0.175,0.265-0.139,0.616,0.085,0.84l1.025,1.025L17.557,18.7l-1.025-1.025c-0.225-0.225-0.576-0.26-0.84-0.084
		c-0.721,0.478-1.512,0.807-2.352,0.978c-0.311,0.063-0.534,0.336-0.534,0.653v1.446h-1.613v-1.446c0-0.317-0.223-0.59-0.534-0.653
		c-0.839-0.171-1.631-0.5-2.353-0.979c-0.264-0.174-0.616-0.139-0.84,0.085L6.441,18.7L5.3,17.558l1.025-1.025
		c0.224-0.224,0.259-0.575,0.085-0.839c-0.479-0.723-0.808-1.514-0.978-2.352c-0.063-0.311-0.336-0.534-0.653-0.534H3.333v-1.615
		H4.78c0.317,0,0.59-0.223,0.653-0.534c0.17-0.838,0.499-1.63,0.978-2.352c0.175-0.264,0.14-0.616-0.085-0.84L5.301,6.442
		l1.141-1.141l1.025,1.025C7.692,6.55,8.043,6.585,8.307,6.41c0.722-0.478,1.514-0.807,2.352-0.977
		c0.311-0.063,0.534-0.336,0.534-0.653V3.333h1.614V4.78c0,0.317,0.223,0.59,0.534,0.653c0.838,0.17,1.629,0.499,2.352,0.978
		c0.263,0.174,0.615,0.14,0.839-0.085l1.025-1.025l1.142,1.141l-1.025,1.025c-0.224,0.224-0.26,0.575-0.085,0.84
		c0.479,0.722,0.807,1.513,0.979,2.353c0.063,0.311,0.336,0.534,0.653,0.534h1.446C20.667,11.194,20.667,12.807,20.667,12.807z"/>
</g>
</svg>
