<svg width="20" height="20" viewBox="0 0 20 20" fill="none" xmlns="http://www.w3.org/2000/svg">
<path d="M9.95522 6.4C7.98507 6.4 6.37313 8.02 6.37313 10C6.37313 11.98 7.98507 13.6 9.95522 13.6C11.9254 13.6 13.5373 11.98 13.5373 10C13.5373 8.02 11.9254 6.4 9.95522 6.4ZM9.95522 12.7C8.43284 12.7 7.26866 11.53 7.26866 10C7.26866 8.47 8.43284 7.3 9.95522 7.3C11.4776 7.3 12.6418 8.47 12.6418 10C12.6418 11.53 11.4776 12.7 9.95522 12.7ZM18.4627 8.2H16.8507C16.6716 7.57 16.403 6.94 16.0448 6.31L17.1194 5.23C17.209 5.14 17.209 5.05 17.209 4.87C17.209 4.78 17.1194 4.6 17.1194 4.51L15.3284 2.71C15.1493 2.53 14.8806 2.53 14.7015 2.71L13.6269 3.79C13.0896 3.43 12.4627 3.16 11.7463 2.98V1.45C11.7463 1.18 11.5672 1 11.2985 1H8.61194C8.34328 1 8.16418 1.18 8.16418 1.45V3.07C7.53731 3.16 6.91045 3.43 6.28358 3.79L5.20895 2.71C5.02985 2.53 4.76119 2.53 4.58209 2.71L2.70149 4.6C2.61194 4.69 2.52239 4.78 2.52239 4.87C2.52239 4.96 2.61194 5.14 2.61194 5.23L3.68657 6.31C3.41791 6.94 3.14925 7.57 3.0597 8.2H1.44776C1.1791 8.2 1 8.38 1 8.65V11.35C1 11.62 1.1791 11.8 1.44776 11.8H3.0597C3.23881 12.43 3.50746 13.06 3.86567 13.69L2.79104 14.77C2.70149 14.86 2.70149 14.95 2.70149 15.13C2.70149 15.22 2.79104 15.4 2.79104 15.49L4.58209 17.29C4.76119 17.47 5.02985 17.47 5.20895 17.29L6.28358 16.21C6.8209 16.57 7.44776 16.84 8.16418 17.02V18.64C8.16418 18.82 8.34328 19 8.61194 19H11.2985C11.5672 19 11.7463 18.82 11.7463 18.55V16.93C12.3731 16.75 13 16.48 13.6269 16.12L14.7015 17.2C14.8806 17.38 15.1493 17.38 15.3284 17.2L17.209 15.31C17.2985 15.22 17.2985 15.13 17.2985 14.95C17.2985 14.86 17.209 14.68 17.209 14.59L16.1343 13.51C16.4925 12.97 16.7612 12.34 16.9403 11.62H18.5522C18.8209 11.62 19 11.44 19 11.17V8.47C18.9104 8.38 18.7313 8.2 18.4627 8.2ZM18.0149 10.9H16.4925C16.3134 10.9 16.1343 11.08 16.0448 11.26C15.8657 12.07 15.597 12.79 15.1493 13.51C15.0597 13.69 15.0597 13.96 15.2388 14.05L16.3134 15.13L15.0597 16.39L13.9851 15.31C13.806 15.13 13.6269 15.13 13.4478 15.22C12.7313 15.67 12.0149 15.94 11.209 16.12C11.0299 16.12 10.8507 16.39 10.8507 16.57V18.1H9.0597V16.57C9.0597 16.39 8.8806 16.21 8.70149 16.12C7.89552 15.94 7.1791 15.67 6.46269 15.22C6.28358 15.13 6.01493 15.13 5.92537 15.31L4.85075 16.39L3.59701 15.13L4.67164 14.05C4.85075 13.87 4.85075 13.69 4.76119 13.51C4.31343 12.79 4.04478 12.07 3.86567 11.26C3.86567 11.08 3.59701 10.9 3.41791 10.9H1.89552V9.1H3.41791C3.59701 9.1 3.77612 8.92 3.86567 8.74C4.04478 7.93 4.31343 7.21 4.76119 6.49C4.85075 6.31 4.85075 6.04 4.67164 5.95L3.59701 4.87L4.85075 3.61L5.92537 4.69C6.10448 4.87 6.28358 4.87 6.46269 4.78C7.1791 4.33 7.89552 4.06 8.70149 3.88C8.8806 3.79 9.0597 3.61 9.0597 3.43V1.9H10.8507V3.43C10.8507 3.61 11.0299 3.79 11.209 3.88C12.0149 4.06 12.7313 4.33 13.4478 4.78C13.6269 4.87 13.8955 4.87 13.9851 4.69L15.0597 3.61L16.3134 4.87L15.2388 5.95C15.0597 6.13 15.0597 6.31 15.1493 6.49C15.597 7.21 15.8657 7.93 16.0448 8.74C16.0448 8.92 16.3134 9.1 16.4925 9.1H18.0149V10.9Z" fill="#1d7b1e"/>
</svg>
