<?xml version="1.0" encoding="utf-8"?>
<!-- Generator: Adobe Illustrator 28.0.0, SVG Export Plug-In . SVG Version: 6.00 Build 0)  -->
<svg version="1.1" id="Support" xmlns="http://www.w3.org/2000/svg" xmlns:xlink="http://www.w3.org/1999/xlink" x="0px" y="0px"
	 viewBox="0 0 24 24" style="enable-background:new 0 0 24 24;" xml:space="preserve">
<style type="text/css">
</style>
<g>
	<path class="st0" d="M12.334,2c-5.33,0-9.666,4.336-9.666,9.665c0,1.715,0.458,3.393,1.327,4.875l-1.942,4.531
		c-0.107,0.25-0.051,0.541,0.141,0.734C2.323,21.932,2.494,22,2.667,22c0.089,0,0.178-0.018,0.263-0.054l4.531-1.942
		c1.482,0.869,3.159,1.327,4.874,1.327c5.33,0,9.666-4.336,9.666-9.665S17.664,2,12.334,2z M12.334,19.997
		c-1.578,0-3.121-0.451-4.462-1.304c-0.186-0.118-0.418-0.138-0.62-0.05l-3.316,1.421l1.421-3.315
		c0.087-0.202,0.068-0.434-0.05-0.62c-0.854-1.34-1.305-2.884-1.305-4.463c0-4.594,3.738-8.332,8.332-8.332
		c4.595,0,8.332,3.738,8.332,8.332S16.929,19.997,12.334,19.997z"/>
	<path class="st0" d="M12.136,15.694c-0.275,0-0.513,0.101-0.714,0.302c-0.202,0.201-0.302,0.444-0.302,0.73
		c0,0.275,0.101,0.513,0.302,0.714c0.201,0.202,0.439,0.302,0.714,0.302c0.285,0,0.528-0.1,0.73-0.302
		c0.201-0.201,0.302-0.439,0.302-0.714c0-0.285-0.101-0.528-0.302-0.73C12.664,15.795,12.421,15.694,12.136,15.694z"/>
	<path class="st0" d="M13.985,6.405C13.489,6.135,12.922,6,12.283,6c-0.727,0-1.363,0.15-1.908,0.449
		c-0.545,0.3-0.968,0.71-1.267,1.23C8.808,8.2,8.659,8.804,8.659,9.492c0,0.216,0.071,0.396,0.214,0.538
		c0.142,0.142,0.321,0.213,0.537,0.213c0.226,0,0.408-0.071,0.545-0.214c0.137-0.142,0.206-0.321,0.206-0.538
		c0-0.422,0.076-0.79,0.228-1.105c0.152-0.314,0.385-0.56,0.7-0.737c0.314-0.177,0.712-0.265,1.194-0.265
		c0.393,0,0.725,0.086,0.994,0.258c0.27,0.172,0.479,0.396,0.626,0.67c0.147,0.275,0.221,0.57,0.221,0.884
		c0,0.432-0.071,0.798-0.214,1.097c-0.143,0.3-0.329,0.565-0.56,0.796c-0.23,0.231-0.484,0.464-0.759,0.7
		c-0.412,0.354-0.717,0.759-0.913,1.216c-0.197,0.457-0.295,0.876-0.295,1.26c0,0.216,0.071,0.395,0.214,0.537
		c0.142,0.143,0.321,0.214,0.537,0.214c0.226,0,0.407-0.071,0.545-0.214c0.138-0.142,0.206-0.321,0.206-0.537
		c0-0.207,0.049-0.474,0.148-0.803c0.097-0.329,0.275-0.597,0.53-0.803c0.393-0.314,0.742-0.631,1.046-0.95s0.545-0.68,0.722-1.083
		s0.266-0.879,0.266-1.429c0-0.638-0.145-1.196-0.435-1.672C14.874,7.048,14.481,6.676,13.985,6.405z"/>
</g>
</svg>
