<svg width="36" height="36" viewBox="0 0 36 36" fill="none" xmlns="http://www.w3.org/2000/svg">
<path d="M13.7078 13.9214L12.7816 19.2667C12.7583 19.3889 12.7705 19.5153 12.8167 19.6309C12.863 19.7465 12.9413 19.8464 13.0425 19.9189C13.1408 19.9899 13.257 20.0322 13.378 20.0408C13.499 20.0495 13.62 20.0242 13.7274 19.9679L18.5313 17.4436L23.3417 19.9548C23.4348 20.0052 23.5391 20.031 23.645 20.0298C23.7831 20.0303 23.9179 19.987 24.0298 19.9059C24.1304 19.833 24.2081 19.7329 24.2537 19.6173C24.2994 19.5018 24.3111 19.3756 24.2875 19.2537L23.371 13.9084L27.2552 10.1221C27.3423 10.0371 27.4038 9.92935 27.4328 9.81122C27.4619 9.69308 27.4574 9.56924 27.4197 9.45356C27.382 9.33787 27.3128 9.23496 27.2198 9.15657C27.1267 9.07818 27.0136 9.02739 26.8932 9.00991L21.5251 8.23049L19.1248 3.36459C19.0711 3.25518 18.9877 3.1631 18.8843 3.09865C18.7808 3.03421 18.6613 3 18.5394 3C18.4175 3 18.2981 3.03421 18.1946 3.09865C18.0911 3.1631 18.0078 3.25518 17.954 3.36459L15.5537 8.23049L10.1726 9.02296C10.0522 9.04045 9.93908 9.09124 9.84605 9.16963C9.75301 9.24801 9.68375 9.35085 9.6461 9.46653C9.60844 9.58221 9.60389 9.70614 9.63295 9.82427C9.66202 9.94241 9.72354 10.05 9.81057 10.135L13.7078 13.9214ZM16.082 9.48278C16.1862 9.46741 16.2851 9.42708 16.3703 9.36518C16.4555 9.30327 16.5244 9.22169 16.5712 9.12735L18.528 5.13879L20.4848 9.12735C20.5319 9.2221 20.6013 9.30396 20.6871 9.36589C20.7729 9.42782 20.8725 9.46791 20.9772 9.48278L25.3767 10.135L22.1904 13.2398C22.115 13.3138 22.0587 13.4049 22.0263 13.5055C21.9939 13.606 21.9865 13.713 22.0045 13.817L22.7546 18.197L18.8215 16.1293C18.728 16.0802 18.6239 16.0545 18.5182 16.0545C18.4126 16.0545 18.3085 16.0802 18.2149 16.1293L14.2785 18.2003L15.0645 13.804C15.0822 13.6996 15.0742 13.5926 15.0412 13.492C15.0083 13.3915 14.9514 13.3005 14.8754 13.2268L11.6923 10.1221L16.082 9.48278ZM28.4586 23.2161C26.6344 21.5331 24.2387 20.6063 21.7567 20.6234C21.6404 20.627 21.5274 20.6632 21.4306 20.7278L17.9997 22.9683L14.5688 20.7342C14.472 20.6697 14.359 20.6336 14.2427 20.6299C11.7616 20.611 9.36595 21.5354 7.54071 23.2161C5.39152 25.2707 4.30225 28.3461 4.30225 32.3477C4.30225 32.5207 4.37097 32.6867 4.49329 32.809C4.61561 32.9313 4.78151 33 4.9545 33H31.0448C31.2178 33 31.3837 32.9313 31.5061 32.809C31.6284 32.6867 31.6971 32.5207 31.6971 32.3477C31.6971 28.3527 30.6078 25.2773 28.4586 23.2161ZM21.9817 21.9116C22.1415 21.9116 22.4089 21.9279 22.7449 21.967L21.3555 26.5622L18.9194 23.9043L21.9817 21.9116ZM16.1994 31.6955L15.0841 28.0135L17.9997 24.8468L20.9153 28.0265L19.7999 31.7085L16.1994 31.6955ZM17.08 23.9043L14.6438 26.5622L13.2545 21.967C13.5806 21.9279 13.8611 21.9149 14.0176 21.9116L17.08 23.9043ZM8.42778 24.1586C9.42592 23.2294 10.6434 22.5686 11.9663 22.2377L14.8362 31.7151H5.60676C5.72417 28.3983 6.66994 25.8676 8.42778 24.1945V24.1586ZM21.1631 31.6955L24.0331 22.2377C25.36 22.578 26.578 23.2515 27.5716 24.1945C29.3294 25.8806 30.2752 28.4114 30.3828 31.7281L21.1631 31.6955Z" fill="#69696F"/>
</svg>
