<svg width="80" height="80" viewBox="0 0 80 80" fill="none" xmlns="http://www.w3.org/2000/svg">
<circle cx="40" cy="40" r="31" stroke="#DCDCDC" stroke-width="2"/>
<path d="M40 45.0001C45.5229 45.0001 50 40.523 50 35.0001C50 29.4773 45.5229 25.0001 40 25.0001C34.4772 25.0001 30 29.4773 30 35.0001C30 40.523 34.4772 45.0001 40 45.0001Z" fill="#DCDCDC"/>
<path d="M40 49.9999C29.98 49.9999 21.82 56.7199 21.82 64.9999C21.82 65.5599 22.26 65.9999 22.82 65.9999C22.82 65.9999 33.0932 70.2 40 70.2C46.9068 70.2 57.18 65.9999 57.18 65.9999C57.74 65.9999 58.18 65.5599 58.18 64.9999C58.18 56.7199 50.02 49.9999 40 49.9999Z" fill="#DCDCDC"/>
</svg>
