<svg width="36" height="36" viewBox="0 0 36 36" fill="none" xmlns="http://www.w3.org/2000/svg">
<path d="M30.0652 26.4776C30.0652 26.6506 29.9965 26.8165 29.8742 26.9388C29.7519 27.0611 29.586 27.1298 29.413 27.1298H27.1304V29.4123C27.1304 29.5853 27.0617 29.7512 26.9394 29.8735C26.8171 29.9958 26.6512 30.0645 26.4783 30.0645C26.3053 30.0645 26.1394 29.9958 26.0171 29.8735C25.8948 29.7512 25.8261 29.5853 25.8261 29.4123V27.1298H23.5435C23.3705 27.1298 23.2046 27.0611 23.0823 26.9388C22.96 26.8165 22.8913 26.6506 22.8913 26.4776C22.8913 26.3047 22.96 26.1388 23.0823 26.0165C23.2046 25.8942 23.3705 25.8255 23.5435 25.8255H25.8261V23.5429C25.8261 23.37 25.8948 23.2041 26.0171 23.0818C26.1394 22.9595 26.3053 22.8908 26.4783 22.8908C26.6512 22.8908 26.8171 22.9595 26.9394 23.0818C27.0617 23.2041 27.1304 23.37 27.1304 23.5429V25.8255H29.413C29.586 25.8255 29.7519 25.8942 29.8742 26.0165C29.9965 26.1388 30.0652 26.3047 30.0652 26.4776ZM20.9348 17.6735C20.9346 17.7826 20.907 17.89 20.8546 17.9857C20.8022 18.0814 20.7266 18.1624 20.6348 18.2213L16.0696 21.156C15.9646 21.2238 15.8424 21.26 15.7174 21.2604C15.6033 21.2631 15.4907 21.2349 15.3913 21.1788C15.2913 21.1211 15.2084 21.0379 15.1511 20.9376C15.0938 20.8374 15.0642 20.7237 15.0652 20.6082V14.7388C15.0648 14.6216 15.0961 14.5064 15.1556 14.4054C15.2152 14.3044 15.3009 14.2213 15.4037 14.1649C15.5065 14.1085 15.6226 14.0808 15.7398 14.0849C15.8569 14.0889 15.9709 14.1244 16.0696 14.1877L20.6348 17.1224C20.7271 17.1817 20.803 17.2632 20.8554 17.3595C20.9079 17.4558 20.9351 17.5638 20.9348 17.6735ZM19.0761 17.6735L16.3696 15.9323V19.4115L19.0761 17.6735ZM6.68478 6.91294H29.3283C29.5012 6.91294 29.6671 6.84423 29.7894 6.72192C29.9117 6.59962 29.9804 6.43374 29.9804 6.26078C29.9804 6.08782 29.9117 5.92194 29.7894 5.79964C29.6671 5.67733 29.5012 5.60862 29.3283 5.60862H6.67174C6.49877 5.60862 6.33289 5.67733 6.21058 5.79964C6.08828 5.92194 6.01957 6.08782 6.01957 6.26078C6.01957 6.43374 6.08828 6.59962 6.21058 6.72192C6.33289 6.84423 6.49877 6.91294 6.67174 6.91294H6.68478ZM9.84783 4.30431H26.1522C26.3251 4.30431 26.491 4.2356 26.6133 4.1133C26.7356 3.991 26.8043 3.82512 26.8043 3.65216C26.8043 3.47919 26.7356 3.31332 26.6133 3.19101C26.491 3.06871 26.3251 3 26.1522 3H9.84783C9.67486 3 9.50898 3.06871 9.38667 3.19101C9.26436 3.31332 9.19565 3.47919 9.19565 3.65216C9.19565 3.82512 9.26436 3.991 9.38667 4.1133C9.50898 4.2356 9.67486 4.30431 9.84783 4.30431ZM33 24.5211C32.9993 24.7776 32.9609 25.0325 32.8859 25.2776C32.9605 25.6733 32.9987 26.075 33 26.4776C33.0002 28.1509 32.3573 29.7602 31.2041 30.9727C30.051 32.1852 28.476 32.908 26.8048 32.9918C25.1336 33.0756 23.4941 32.5138 22.2255 31.4227C20.9569 30.3316 20.1562 28.7947 19.9891 27.1298H5.6087C4.91683 27.1298 4.25329 26.8549 3.76407 26.3657C3.27484 25.8765 3 25.213 3 24.5211V10.8259C3 10.134 3.27484 9.47051 3.76407 8.9813C4.25329 8.49208 4.91683 8.21725 5.6087 8.21725H30.3913C31.0832 8.21725 31.7467 8.49208 32.2359 8.9813C32.7252 9.47051 33 10.134 33 10.8259V24.5211ZM31.6957 26.4776C31.694 26.0812 31.647 25.6862 31.5554 25.3005C31.5009 25.0593 31.4279 24.8228 31.337 24.5929C31.337 24.5635 31.3174 24.5309 31.3043 24.5016C31.2652 24.4038 31.2163 24.3092 31.1707 24.2114C31.1478 24.169 31.1283 24.1233 31.1054 24.0809C31.0565 23.9831 31.0011 23.8918 30.9457 23.7973C30.9228 23.7614 30.9033 23.7223 30.8772 23.6864C30.8152 23.5886 30.75 23.494 30.6848 23.4027L30.6261 23.3244C30.5511 23.2266 30.4696 23.1288 30.388 23.0342L30.362 23.0049C29.7915 22.3715 29.0768 21.8849 28.2783 21.5864L28.1935 21.5571C28.0866 21.5179 27.9777 21.4842 27.8674 21.456L27.7076 21.4136L27.4304 21.3517L27.1793 21.3158L26.9641 21.2865C26.8027 21.2696 26.6406 21.2609 26.4783 21.2604C25.4464 21.2604 24.4376 21.5664 23.5796 22.1396C22.7216 22.7129 22.0529 23.5277 21.658 24.4811C21.2631 25.4344 21.1598 26.4834 21.3611 27.4955C21.5624 28.5075 22.0593 29.4371 22.789 30.1668C23.5187 30.8964 24.4483 31.3933 25.4604 31.5946C26.4725 31.7959 27.5215 31.6926 28.4749 31.2977C29.4282 30.9028 30.2431 30.2341 30.8164 29.3762C31.3897 28.5182 31.6957 27.5095 31.6957 26.4776ZM31.6435 22.5125L31.6957 22.5647V10.8259C31.6957 10.4799 31.5582 10.1482 31.3136 9.90358C31.069 9.65898 30.7372 9.52156 30.3913 9.52156H5.6087C5.26276 9.52156 4.931 9.65898 4.68638 9.90358C4.44177 10.1482 4.30435 10.4799 4.30435 10.8259V24.5211C4.30435 24.8671 4.44177 25.1988 4.68638 25.4434C4.931 25.688 5.26276 25.8255 5.6087 25.8255H19.9891C19.9891 25.7733 19.9891 25.7244 20.012 25.6722C20.0315 25.5124 20.0543 25.3461 20.087 25.1994C20.1033 25.1179 20.1261 25.0396 20.1424 24.9614C20.1587 24.8831 20.2011 24.7135 20.2402 24.5929C20.2793 24.4722 20.2989 24.4233 20.3283 24.3385C20.3576 24.2538 20.4033 24.1168 20.4489 24.0125C20.4946 23.9081 20.5239 23.8429 20.563 23.7581C20.6022 23.6733 20.6576 23.556 20.7098 23.4549C20.762 23.3538 20.8011 23.2918 20.85 23.2103C20.8989 23.1288 20.9609 23.0212 21.0196 22.9299L21.1826 22.6951C21.2446 22.6071 21.3098 22.5223 21.375 22.4375L21.5609 22.219C21.6293 22.1375 21.7011 22.056 21.7761 21.9777C21.8511 21.8995 21.9098 21.844 21.9783 21.7788C22.0467 21.7136 22.138 21.6321 22.2196 21.5604C22.3011 21.4886 22.363 21.4365 22.438 21.3778C22.513 21.3191 22.6076 21.2473 22.6989 21.1821L22.9304 21.0223C23.0217 20.9636 23.1163 20.9049 23.2141 20.8495C23.312 20.7941 23.3739 20.7549 23.4587 20.7126C23.5435 20.6702 23.6576 20.6147 23.762 20.5658L24.013 20.4517L24.3391 20.331L24.5935 20.2463C24.7109 20.2104 24.8348 20.181 24.9554 20.1517C25.0761 20.1224 25.1185 20.1093 25.2 20.093C25.337 20.0669 25.4772 20.0474 25.6174 20.0278C25.6891 20.0278 25.7576 20.005 25.8293 19.9984C26.0413 19.9789 26.2565 19.9658 26.4815 19.9658C26.7065 19.9658 26.8761 19.9658 27.0685 19.9952H27.1989C27.3685 20.0147 27.525 20.0408 27.7043 20.0702L27.9163 20.1158L28.2424 20.1974C28.3794 20.2365 28.5163 20.2821 28.6533 20.3278L28.8 20.3832C29.9266 20.8162 30.9109 21.5533 31.6435 22.5125Z" fill="#69696F"/>
</svg>
