<svg width="36" height="36" viewBox="0 0 36 36" fill="none" xmlns="http://www.w3.org/2000/svg">
<path d="M22.4831 16.9277L22.0271 19.6034C22.0073 19.723 22.0211 19.8458 22.0672 19.9579C22.1132 20.0701 22.1896 20.1671 22.2877 20.2382C22.3858 20.3093 22.5018 20.3517 22.6226 20.3604C22.7435 20.3692 22.8644 20.3441 22.9717 20.2879L25.3723 19.0266L27.7892 20.2879C27.8821 20.3382 27.9864 20.364 28.0921 20.3628C28.229 20.3626 28.3623 20.3193 28.4732 20.239C28.5714 20.1678 28.6479 20.0706 28.6939 19.9583C28.74 19.8461 28.7538 19.7232 28.7338 19.6034L28.2745 16.9244L30.2288 15.0308C30.3158 14.9459 30.3772 14.8383 30.4062 14.7202C30.4353 14.6022 30.4307 14.4784 30.3931 14.3627C30.3555 14.2471 30.2863 14.1444 30.1934 14.066C30.1005 13.9877 29.9875 13.9369 29.8673 13.9194L27.1801 13.5283L25.9814 11.0937C25.9277 10.9844 25.8445 10.8923 25.7411 10.8279C25.6378 10.7635 25.5185 10.7294 25.3967 10.7294C25.275 10.7294 25.1557 10.7635 25.0523 10.8279C24.949 10.8923 24.8658 10.9844 24.8121 11.0937L23.6101 13.5283L20.9262 13.9194C20.8059 13.9369 20.693 13.9877 20.6001 14.066C20.5071 14.1444 20.438 14.2471 20.4004 14.3627C20.3628 14.4784 20.3582 14.6022 20.3872 14.7202C20.4163 14.8383 20.4777 14.9459 20.5646 15.0308L22.4831 16.9277ZM24.1118 14.7701C24.2161 14.7544 24.3151 14.7136 24.4002 14.6511C24.4853 14.5887 24.554 14.5065 24.6003 14.4116L25.369 12.8537L26.1378 14.4116C26.1844 14.5069 26.2536 14.5893 26.3393 14.6518C26.425 14.7143 26.5246 14.7549 26.6296 14.7701L28.3462 15.0178L27.1052 16.2302C27.0298 16.3041 26.9736 16.3952 26.9412 16.4957C26.9089 16.5962 26.9014 16.7031 26.9195 16.8071L27.2126 18.5214L25.6752 17.7131C25.5818 17.664 25.4778 17.6384 25.3723 17.6384C25.2668 17.6384 25.1628 17.664 25.0694 17.7131L23.532 18.5214L23.8251 16.8071C23.8432 16.7031 23.8357 16.5962 23.8034 16.4957C23.771 16.3952 23.7148 16.3041 23.6395 16.2302L22.3952 15.0178L24.1118 14.7701ZM4.184 6.78184L3.95925 8.08551C3.93867 8.20534 3.95199 8.32855 3.99771 8.44121C4.04344 8.55386 4.11975 8.65147 4.21801 8.72301C4.31628 8.79455 4.43258 8.83716 4.55377 8.84603C4.67497 8.85489 4.79623 8.82967 4.90385 8.7732L6.07971 8.15395L7.25557 8.7732C7.36319 8.82967 7.48445 8.85489 7.60565 8.84603C7.72684 8.83716 7.84314 8.79455 7.94141 8.72301C8.03967 8.65147 8.11598 8.55386 8.16171 8.44121C8.20743 8.32855 8.22075 8.20534 8.20017 8.08551L7.97542 6.78184L8.92979 5.85297C9.01203 5.76771 9.0695 5.66162 9.09599 5.54613C9.12249 5.43063 9.11702 5.3101 9.08017 5.19748C9.04333 5.08486 8.9765 4.98442 8.88687 4.90697C8.79724 4.82951 8.68821 4.77797 8.57149 4.75788L7.2686 4.56559L6.67904 3.37273C6.62501 3.26426 6.54183 3.17301 6.43884 3.10923C6.33584 3.04545 6.21712 3.01166 6.096 3.01166C5.97487 3.01166 5.85615 3.04545 5.75315 3.10923C5.65016 3.17301 5.56698 3.26426 5.51295 3.37273L4.92339 4.56559L3.6205 4.75788C3.50026 4.77536 3.38729 4.82613 3.29438 4.90447C3.20146 4.98281 3.13229 5.08559 3.09468 5.20119C3.05707 5.3168 3.05252 5.44062 3.08155 5.55868C3.11058 5.67674 3.17202 5.78432 3.25895 5.86927L4.184 6.78184ZM5.43478 5.80408C5.53883 5.78873 5.63762 5.7484 5.7227 5.68653C5.80778 5.62467 5.87663 5.54311 5.92336 5.44883L6.07971 5.12291L6.23606 5.44883C6.28279 5.54311 6.35164 5.62467 6.43672 5.68653C6.5218 5.7484 6.62059 5.78873 6.72464 5.80408L7.07317 5.85297L6.82236 6.10066C6.74646 6.17427 6.6896 6.26525 6.65669 6.36576C6.62377 6.46626 6.6158 6.57326 6.63344 6.67754L6.69533 7.02301L6.3696 6.86005C6.27617 6.81095 6.17222 6.7853 6.06668 6.7853C5.96115 6.7853 5.85719 6.81095 5.76376 6.86005L5.43804 7.02301L5.49992 6.67754C5.51757 6.57326 5.50959 6.46626 5.47667 6.36576C5.44376 6.26525 5.3869 6.17427 5.311 6.10066L5.0602 5.85297L5.43478 5.80408ZM32.9193 27.6406C32.8524 27.518 32.7479 27.4202 32.6213 27.3615C32.4946 27.3028 32.3524 27.2864 32.2158 27.3147C30.0037 27.7704 27.7141 27.6798 25.5449 27.0507C23.7984 26.5428 22.169 25.6954 20.7502 24.5568C19.3313 23.4181 18.1508 22.0107 17.2761 20.4151C16.4015 18.8194 15.8499 17.0669 15.6529 15.2577C15.456 13.4485 15.6175 11.6182 16.1283 9.87154C16.7632 7.70537 17.9158 5.72652 19.4865 4.10605C19.5838 4.00581 19.6464 3.87692 19.6649 3.7384C19.6835 3.59988 19.657 3.45906 19.5895 3.33672C19.522 3.21438 19.417 3.117 19.2899 3.05893C19.1629 3.00086 19.0205 2.98519 18.8839 3.01422C15.034 3.8116 11.6457 6.07744 9.43675 9.33166C7.22783 12.5859 6.37192 16.5728 7.05037 20.4476C6.14712 20.8169 5.33832 21.3845 4.68369 22.1085C4.02907 22.8324 3.54534 23.6943 3.26823 24.6304C2.99113 25.5666 2.92772 26.553 3.08269 27.5169C3.23767 28.4809 3.60707 29.3977 4.16361 30.1996C4.72016 31.0015 5.44963 31.6681 6.29815 32.1501C7.14668 32.6322 8.09258 32.9173 9.066 32.9845C10.0394 33.0517 11.0155 32.8993 11.9222 32.5385C12.8288 32.1776 13.6429 31.6176 14.3042 30.8998C16.6288 32.2595 19.2726 32.9771 21.9652 32.9791C23.9893 32.9786 25.9927 32.5713 27.8565 31.7813C29.7203 30.9914 31.4065 29.8349 32.8151 28.3804C32.9126 28.2803 32.9753 28.1515 32.9941 28.013C33.0129 27.8746 32.9866 27.7337 32.9193 27.6112V27.6406ZM9.54866 31.6754C8.51791 31.6754 7.51031 31.3696 6.65327 30.7966C5.79623 30.2236 5.12825 29.4092 4.7338 28.4563C4.33935 27.5035 4.23614 26.455 4.43723 25.4434C4.63832 24.4319 5.13467 23.5027 5.86352 22.7734C6.59238 22.0441 7.52099 21.5475 8.53194 21.3463C9.54288 21.1451 10.5908 21.2483 11.543 21.643C12.4953 22.0377 13.3093 22.7061 13.8819 23.5636C14.4546 24.4212 14.7602 25.4294 14.7602 26.4608C14.7602 27.8438 14.2112 29.1702 13.2338 30.1481C12.2564 31.126 10.9309 31.6754 9.54866 31.6754ZM18.0924 31.1214C17.0499 30.8162 16.0465 30.3908 15.1022 29.8536C15.7359 28.8375 16.0742 27.6649 16.0794 26.4673C16.0788 25.5047 15.8652 24.5541 15.4538 23.684C15.0425 22.8138 14.4436 22.0456 13.7003 21.4345C12.9569 20.8235 12.0875 20.3848 11.1546 20.1499C10.2216 19.915 9.24825 19.8898 8.3044 20.076C7.78886 16.9085 8.38933 13.6602 10.0031 10.8867C11.6168 8.1133 14.1436 5.98713 17.151 4.87196C15.4713 7.19573 14.4854 9.94896 14.3082 12.8114C14.1309 15.6738 14.7695 18.5278 16.1497 21.0413C17.5299 23.5548 19.595 25.6245 22.1047 27.0097C24.6144 28.3949 27.4656 29.0386 30.3266 28.866C28.6059 30.1735 26.6026 31.0587 24.4777 31.4504C22.3528 31.8422 20.1658 31.7295 18.0924 31.1214ZM12.6202 28.5499C12.6863 28.6082 12.7399 28.6793 12.7777 28.759C12.8155 28.8386 12.8368 28.9251 12.8402 29.0131C12.8437 29.1012 12.8292 29.1891 12.7978 29.2714C12.7663 29.3538 12.7185 29.4289 12.6572 29.4922C12.5959 29.5555 12.5224 29.6058 12.4411 29.6398C12.3599 29.6739 12.2726 29.6912 12.1845 29.6905C12.0964 29.6899 12.0093 29.6713 11.9286 29.6361C11.8478 29.6008 11.7751 29.5495 11.7147 29.4853L9.10894 26.9594C9.04459 26.8964 8.99399 26.8207 8.96036 26.7371C8.92672 26.6535 8.91076 26.5639 8.9135 26.4738C8.9135 26.4738 8.9135 26.4575 8.9135 26.451V24.0685C8.9135 23.8956 8.98214 23.7298 9.10431 23.6076C9.22648 23.4854 9.39218 23.4167 9.56495 23.4167C9.73772 23.4167 9.90342 23.4854 10.0256 23.6076C10.1478 23.7298 10.2164 23.8956 10.2164 24.0685V26.2131L12.6202 28.5499Z" fill="#69696F"/>
</svg>
