<svg width="36" height="36" viewBox="0 0 36 36" fill="none" xmlns="http://www.w3.org/2000/svg">
<path d="M5.76068 30.6924C5.7795 30.7787 5.7705 30.8686 5.73497 30.9495C5.69592 31.0404 5.62819 31.1161 5.54212 31.1649C5.36201 31.2789 5.16438 31.3625 4.95714 31.4124C4.73023 31.47 4.49701 31.4991 4.26288 31.4991C3.82762 31.5107 3.39646 31.4124 3.00935 31.213C2.66572 31.0276 2.38576 30.7432 2.2058 30.3966C2.0146 30.0138 1.91972 29.5902 1.92938 29.1624C1.92421 28.8342 1.97754 28.5077 2.08688 28.1982C2.18674 27.9224 2.34332 27.6705 2.5465 27.4589C2.75463 27.2483 3.00721 27.0869 3.28577 26.9864C3.59537 26.8771 3.9217 26.8227 4.25002 26.8257C4.47296 26.8258 4.69514 26.8517 4.91214 26.9029C5.11328 26.948 5.30625 27.0239 5.48427 27.1278C5.58055 27.1799 5.65811 27.2608 5.70604 27.3592C5.743 27.4419 5.75527 27.5334 5.7414 27.6228C5.7267 27.7091 5.68767 27.7894 5.6289 27.8542C5.57361 27.9201 5.49775 27.9653 5.41355 27.9828C5.31288 27.9993 5.20968 27.9775 5.12428 27.9217C4.99918 27.8468 4.86384 27.7905 4.7225 27.7546C4.58056 27.7195 4.4348 27.7023 4.28859 27.7032C4.03568 27.695 3.78509 27.7538 3.56219 27.8736C3.36783 27.9853 3.21457 28.1566 3.12506 28.3621C3.02095 28.6146 2.97165 28.8863 2.98042 29.1592C2.97323 29.43 3.02249 29.6992 3.12506 29.9499C3.21323 30.1596 3.36648 30.3354 3.56219 30.4513C3.78509 30.5711 4.03568 30.6298 4.28859 30.6216C4.43039 30.6198 4.57157 30.6026 4.70965 30.5702C4.8541 30.5344 4.99343 30.4804 5.12428 30.4095C5.21325 30.3567 5.31736 30.3352 5.41998 30.3485C5.50333 30.3599 5.57977 30.4009 5.63533 30.4641C5.69983 30.5253 5.74365 30.6051 5.76068 30.6924ZM10.3891 27.9282C10.5826 28.3079 10.6787 28.7299 10.6687 29.156C10.674 29.4842 10.6207 29.8108 10.5112 30.1203C10.4138 30.3984 10.2582 30.6526 10.0548 30.8659C9.85629 31.0744 9.61358 31.2359 9.3445 31.3384C9.04957 31.4484 8.7368 31.5029 8.42203 31.4991C8.01142 31.5065 7.60596 31.4069 7.24564 31.2098C6.90786 31.0205 6.63381 30.7353 6.45816 30.3902C6.26574 30.0101 6.17075 29.5883 6.18174 29.1624C6.17657 28.8342 6.2299 28.5077 6.33924 28.1982C6.43804 27.9233 6.5923 27.6717 6.79244 27.4589C6.9919 27.25 7.23575 27.0885 7.50599 26.9864C7.79883 26.8769 8.10939 26.8224 8.42203 26.8257C8.83443 26.8169 9.24205 26.9154 9.60485 27.1118C9.93969 27.3023 10.2121 27.5859 10.3891 27.9282ZM9.64342 29.1624C9.66689 28.7698 9.55327 28.3812 9.322 28.0631C9.21265 27.9331 9.07416 27.8307 8.91778 27.7642C8.7614 27.6978 8.59155 27.6691 8.42203 27.6807C8.19544 27.6749 7.97206 27.7352 7.77919 27.8542C7.59318 27.9767 7.44863 28.1527 7.36456 28.3589C7.26423 28.6169 7.21616 28.8921 7.22314 29.1688C7.19961 29.5604 7.31327 29.948 7.54456 30.2649C7.64878 30.3961 7.78269 30.5006 7.93525 30.5699C8.08781 30.6392 8.25465 30.6713 8.42203 30.6634C8.64938 30.6683 8.87308 30.6056 9.06486 30.4834C9.2489 30.3541 9.39174 30.1744 9.47628 29.966C9.58705 29.7126 9.64397 29.439 9.64342 29.1624ZM15.7279 26.8417C15.6162 26.8346 15.5048 26.8592 15.4064 26.9125C15.3196 26.9757 15.25 27.0597 15.2039 27.1568L13.8218 29.6895L12.4365 27.1568C12.3993 27.0546 12.3293 26.9676 12.2374 26.9095C12.1455 26.8513 12.037 26.8253 11.9287 26.8354C11.8035 26.8284 11.6803 26.8698 11.5848 26.951C11.5405 26.9968 11.5065 27.0514 11.4849 27.1112C11.4633 27.171 11.4546 27.2348 11.4594 27.2982V31.0169C11.4551 31.0791 11.4631 31.1415 11.483 31.2005C11.5028 31.2595 11.5341 31.314 11.5751 31.3609C11.6181 31.401 11.6687 31.4323 11.7239 31.4527C11.7791 31.4731 11.8378 31.4823 11.8966 31.4799C11.958 31.485 12.0199 31.477 12.078 31.4565C12.1362 31.436 12.1894 31.4034 12.234 31.3609C12.3145 31.265 12.3548 31.1418 12.3465 31.0169V28.6739L13.404 30.5606C13.4446 30.6301 13.4994 30.6903 13.5647 30.7374C13.6365 30.7802 13.7191 30.8014 13.8026 30.7984C13.8806 30.8016 13.9578 30.7815 14.0243 30.7406C14.0902 30.6937 14.1441 30.632 14.1818 30.5606L15.2457 28.6674V31.0169C15.2413 31.0793 15.2495 31.142 15.27 31.2011C15.2904 31.2602 15.3226 31.3146 15.3647 31.3609C15.4077 31.401 15.4582 31.4323 15.5134 31.4527C15.5686 31.4731 15.6273 31.4823 15.6861 31.4799C15.7485 31.4843 15.8111 31.476 15.8702 31.4556C15.9293 31.4352 15.9837 31.4029 16.03 31.3609C16.071 31.314 16.1023 31.2595 16.1222 31.2005C16.142 31.1415 16.15 31.0791 16.1457 31.0169V27.2982C16.15 27.2353 16.1417 27.1722 16.1213 27.1126C16.1009 27.053 16.0687 26.998 16.0268 26.951C15.9392 26.8765 15.8268 26.8375 15.7118 26.8417H15.7279ZM20.7581 28.3428C20.7689 28.5409 20.7375 28.739 20.666 28.924C20.5945 29.1091 20.4846 29.2769 20.3434 29.4163C20.0199 29.6927 19.6014 29.8323 19.1767 29.8053H18.0839V30.9784C18.0933 31.1154 18.0482 31.2505 17.9585 31.3545C17.8528 31.4395 17.7213 31.4859 17.5857 31.4859C17.45 31.4859 17.3185 31.4395 17.2128 31.3545C17.1219 31.251 17.0757 31.1158 17.0842 30.9784V27.4042C17.0792 27.3349 17.0883 27.2652 17.1109 27.1995C17.1336 27.1337 17.1693 27.0733 17.216 27.0217C17.3188 26.932 17.4526 26.8859 17.5889 26.8932H19.1606C19.5847 26.8666 20.0027 27.0048 20.3274 27.2789C20.4684 27.4163 20.5784 27.5824 20.65 27.7659C20.7215 27.9494 20.7529 28.1461 20.742 28.3428H20.7581ZM19.7938 28.3428C19.8006 28.2493 19.7858 28.1555 19.7507 28.0686C19.7156 27.9816 19.6611 27.9039 19.5913 27.8414C19.4209 27.7185 19.2127 27.6593 19.0031 27.6742H18.0839V29.0274H18.9935C19.204 29.0419 19.4127 28.9803 19.5817 28.8538C19.6511 28.7889 19.7053 28.7094 19.7403 28.6211C19.7753 28.5327 19.7903 28.4377 19.7842 28.3428H19.7938ZM25.0715 30.8691C25.1256 30.967 25.147 31.0796 25.1326 31.1905C25.1263 31.2343 25.1111 31.2763 25.0878 31.3139C25.0646 31.3515 25.0339 31.384 24.9976 31.4091C24.9156 31.4657 24.8174 31.4939 24.7179 31.4895C24.6026 31.4938 24.4892 31.4586 24.3965 31.3898C24.3027 31.3005 24.2312 31.1904 24.1876 31.0684L23.9208 30.4481H21.793L21.5295 31.0684C21.4796 31.1864 21.41 31.2951 21.3237 31.3898C21.2796 31.4272 21.2284 31.4552 21.1732 31.4723C21.118 31.4894 21.0598 31.4953 21.0023 31.4895C20.8987 31.4951 20.7961 31.4669 20.7098 31.4091C20.6726 31.3839 20.641 31.3511 20.6172 31.3129C20.5934 31.2747 20.5779 31.2319 20.5716 31.1873C20.5545 31.0778 20.5713 30.9656 20.6198 30.8659L22.2784 27.2435C22.3296 27.1156 22.4152 27.0043 22.5259 26.9221C22.621 26.8587 22.7329 26.8252 22.8473 26.8257C22.9617 26.8244 23.0739 26.858 23.1687 26.9221C23.2784 27.0045 23.3629 27.1158 23.413 27.2435L25.0715 30.8691ZM22.1144 29.6702H23.5737L22.8505 27.9571L22.1144 29.6702ZM29.1856 26.8417C29.1215 26.8375 29.0572 26.8462 28.9965 26.8672C28.9358 26.8881 28.8799 26.921 28.8321 26.9639C28.7896 27.0094 28.7568 27.063 28.7358 27.1216C28.7148 27.1802 28.706 27.2425 28.7099 27.3046V29.7763L26.6271 27.1182C26.5656 27.0378 26.4931 26.9664 26.4118 26.9061C26.3312 26.8587 26.2383 26.8363 26.145 26.8417C26.0856 26.8387 26.0263 26.8484 25.9709 26.87C25.9155 26.8916 25.8653 26.9247 25.8236 26.9671C25.7375 27.0702 25.6948 27.2028 25.7047 27.3367V31.0169C25.6999 31.0803 25.708 31.1441 25.7284 31.2043C25.7489 31.2645 25.7812 31.3199 25.8236 31.3673C25.8699 31.4094 25.9243 31.4416 25.9834 31.462C26.0425 31.4825 26.1051 31.4907 26.1675 31.4863C26.2299 31.4911 26.2927 31.483 26.3518 31.4626C26.411 31.4421 26.4653 31.4097 26.5114 31.3673C26.5538 31.3199 26.5862 31.2645 26.6066 31.2043C26.627 31.1441 26.6351 31.0803 26.6304 31.0169V28.5388L28.7132 31.2034C28.7801 31.2865 28.8592 31.3591 28.9478 31.4187C29.0347 31.4681 29.134 31.4915 29.2338 31.4863C29.2891 31.4887 29.3441 31.479 29.3952 31.4579C29.4463 31.4368 29.4921 31.4048 29.5296 31.3641C29.6043 31.2741 29.6432 31.1596 29.6388 31.0427V27.3175C29.6425 27.2557 29.6338 27.1937 29.6134 27.1352C29.593 27.0767 29.5612 27.0229 29.5199 26.9768C29.4388 26.8948 29.3297 26.8466 29.2146 26.8417H29.1856ZM34.0423 27.205C34.0411 27.1555 34.0296 27.1067 34.0086 27.0619C33.9876 27.0171 33.9574 26.9772 33.9201 26.9446C33.8292 26.8722 33.7148 26.8356 33.5987 26.8417C33.4994 26.8397 33.4015 26.8654 33.3159 26.9157C33.223 26.9826 33.1416 27.064 33.0748 27.1568L32.1459 28.4939L31.2202 27.1568C31.1569 27.0611 31.0749 26.9791 30.9791 26.9157C30.8942 26.8666 30.7977 26.841 30.6995 26.8417C30.5821 26.8377 30.4674 26.8778 30.3781 26.9543C30.3009 27.0238 30.2537 27.1206 30.2463 27.2243C30.236 27.3309 30.2684 27.4372 30.3363 27.52L31.6445 29.3874V30.972C31.6394 31.0411 31.6481 31.1105 31.6702 31.1762C31.6923 31.2418 31.7272 31.3025 31.773 31.3545C31.8217 31.4005 31.8794 31.4361 31.9425 31.4587C32.0055 31.4814 32.0726 31.4908 32.1395 31.4863C32.2085 31.495 32.2787 31.4876 32.3444 31.4646C32.4101 31.4417 32.4696 31.4038 32.5182 31.354C32.5668 31.3041 32.6032 31.2437 32.6245 31.1774C32.6458 31.1111 32.6514 31.0408 32.6409 30.972V29.3971L33.9491 27.5328C34.0223 27.4386 34.0649 27.3242 34.0712 27.205H34.0423ZM31.1495 8.35702C31.1534 9.18715 30.8894 9.99642 30.3967 10.6645C29.904 11.3327 29.2089 11.824 28.4147 12.0655C27.6204 12.307 26.7695 12.2858 25.9882 12.0051C25.207 11.7244 24.5372 11.1991 24.0783 10.5073L24.0429 10.533C23.8244 10.6487 18.9195 13.3679 18.9195 20.5709C18.9197 20.7365 18.856 20.8958 18.7416 21.0156C18.6272 21.1353 18.4711 21.2062 18.3056 21.2137H18.3217C18.1608 21.2144 18.0055 21.1546 17.8864 21.0463C17.7674 20.938 17.6933 20.789 17.6789 20.6288C17.6789 20.5645 17.036 14.1425 13.179 14.1425C13.0085 14.1425 12.845 14.0748 12.7245 13.9542C12.6039 13.8337 12.5362 13.6702 12.5362 13.4997C12.5362 13.3292 12.6039 13.1657 12.7245 13.0452C12.845 12.9246 13.0085 12.8569 13.179 12.8569C15.3004 12.8569 16.9782 14.2165 18.0324 16.7911L18.0967 16.9518C19.3824 11.6259 23.2876 9.50126 23.4869 9.39519C23.523 9.3769 23.5606 9.36183 23.5994 9.35019C23.5103 9.02663 23.4649 8.69262 23.4644 8.35702C23.4644 7.33407 23.8708 6.35304 24.5941 5.62971C25.3174 4.90638 26.2985 4.5 27.3214 4.5C28.3444 4.5 29.3254 4.90638 30.0487 5.62971C30.7721 6.35304 31.1784 7.33407 31.1784 8.35702H31.1495ZM29.8638 8.35702C29.8638 7.84845 29.713 7.3513 29.4305 6.92845C29.1479 6.50559 28.7463 6.17604 28.2765 5.98142C27.8066 5.7868 27.2896 5.73585 26.7908 5.83507C26.292 5.93429 25.8339 6.17919 25.4743 6.5388C25.1147 6.89841 24.8698 7.3566 24.7705 7.85539C24.6713 8.35418 24.7222 8.87119 24.9169 9.34105C25.1115 9.8109 25.4411 10.2125 25.8639 10.495C26.2868 10.7775 26.7839 10.9284 27.2925 10.9284C27.6326 10.9322 27.9701 10.8685 28.2854 10.741C28.6007 10.6135 28.8876 10.4247 29.1294 10.1856C29.3713 9.9464 29.5633 9.66162 29.6943 9.34775C29.8253 9.03388 29.8928 8.69714 29.8928 8.35702H29.8638ZM9.61449 14.7854C9.74163 14.7854 9.86591 14.7477 9.97163 14.677C10.0773 14.6064 10.1597 14.506 10.2084 14.3885C10.257 14.2711 10.2698 14.1418 10.245 14.0171C10.2202 13.8924 10.1589 13.7779 10.069 13.688C9.97914 13.5981 9.8646 13.5369 9.7399 13.5121C9.6152 13.4873 9.48595 13.5 9.36848 13.5486C9.25102 13.5973 9.15062 13.6797 9.07999 13.7854C9.00935 13.8911 8.97165 14.0154 8.97165 14.1425C8.97156 14.2295 8.9891 14.3155 9.0232 14.3954C9.0573 14.4754 9.10725 14.5476 9.17004 14.6076C9.23283 14.6677 9.30716 14.7145 9.38852 14.745C9.46988 14.7756 9.55659 14.7893 9.64342 14.7854H9.61449ZM7.04314 17.6781C7.17028 17.6781 7.29457 17.6404 7.40028 17.5698C7.506 17.4992 7.58839 17.3987 7.63705 17.2813C7.6857 17.1638 7.69843 17.0346 7.67363 16.9099C7.64882 16.7852 7.5876 16.6707 7.4977 16.5808C7.40779 16.4909 7.29325 16.4296 7.16855 16.4048C7.04386 16.38 6.9146 16.3927 6.79714 16.4414C6.67968 16.49 6.57928 16.5724 6.50864 16.6781C6.43801 16.7839 6.40031 16.9081 6.40031 17.0353C6.40022 17.1222 6.41775 17.2082 6.45185 17.2882C6.48595 17.3681 6.53591 17.4403 6.5987 17.5004C6.66149 17.5605 6.73581 17.6072 6.81717 17.6378C6.89854 17.6683 6.98525 17.682 7.07207 17.6781H7.04314ZM6.72172 20.5709C6.72172 20.4437 6.68402 20.3195 6.61339 20.2137C6.54275 20.108 6.44235 20.0256 6.32489 19.977C6.20743 19.9283 6.07818 19.9156 5.95348 19.9404C5.82878 19.9652 5.71424 20.0265 5.62434 20.1164C5.53443 20.2063 5.47321 20.3208 5.4484 20.4455C5.4236 20.5702 5.43633 20.6994 5.48499 20.8169C5.53364 20.9343 5.61603 21.0348 5.72175 21.1054C5.82746 21.176 5.95175 21.2137 6.07889 21.2137C6.16571 21.2176 6.25242 21.2039 6.33378 21.1734C6.41515 21.1428 6.48947 21.096 6.55226 21.036C6.61505 20.9759 6.66501 20.9037 6.69911 20.8238C6.7332 20.7438 6.75074 20.6578 6.75065 20.5709H6.72172Z" fill="#69696F"/>
</svg>
