<svg width="20" height="20" viewBox="0 0 20 20" fill="none" xmlns="http://www.w3.org/2000/svg">
<path d="M1 1.00002L3.02379 1.35919L3.96076 12.8057C4.03568 13.7406 4.79752 14.4579 5.71212 14.4549H16.3263C17.1991 14.4569 17.9395 13.7984 18.0631 12.9125L18.9864 6.36961C19.0895 5.6383 18.5943 4.95986 17.8821 4.85411C17.8198 4.84513 3.34876 4.84014 3.34876 4.84014" stroke="#69696F" stroke-width="1.5" stroke-linecap="round" stroke-linejoin="round"/>
<path fill-rule="evenodd" clip-rule="evenodd" d="M5.2832 17.9136C5.57607 17.9136 5.8125 18.157 5.8125 18.4563C5.8125 18.7566 5.57607 19.0001 5.2832 19.0001C4.99034 19.0001 4.75391 18.7566 4.75391 18.4563C4.75391 18.157 4.99034 17.9136 5.2832 17.9136Z" fill="#69696F" stroke="#69696F" stroke-width="1.5" stroke-linecap="round" stroke-linejoin="round"/>
<path fill-rule="evenodd" clip-rule="evenodd" d="M16.2598 17.9136C16.5526 17.9136 16.79 18.157 16.79 18.4563C16.79 18.7566 16.5526 19.0001 16.2598 19.0001C15.9669 19.0001 15.7305 18.7566 15.7305 18.4563C15.7305 18.157 15.9669 17.9136 16.2598 17.9136Z" fill="#69696F" stroke="#69696F" stroke-width="1.5" stroke-linecap="round" stroke-linejoin="round"/>
</svg>
