<svg width="36" height="36" viewBox="0 0 36 36" fill="none" xmlns="http://www.w3.org/2000/svg">
<path d="M30.3913 12.1304H23.325L21.8641 8.61848C21.8145 8.49948 21.7307 8.39787 21.6233 8.32648C21.5159 8.25509 21.3898 8.21712 21.2609 8.21739H14.7391C14.6102 8.21712 14.4841 8.25509 14.3767 8.32648C14.2693 8.39787 14.1855 8.49948 14.1359 8.61848L12.675 12.1304H5.6087C4.91683 12.1304 4.25329 12.4053 3.76407 12.8945C3.27484 13.3837 3 14.0473 3 14.7391V30.3913C3 31.0832 3.27484 31.7467 3.76407 32.2359C4.25329 32.7252 4.91683 33 5.6087 33H30.3913C31.0832 33 31.7467 32.7252 32.2359 32.2359C32.7252 31.7467 33 31.0832 33 30.3913V14.7391C33 14.0473 32.7252 13.3837 32.2359 12.8945C31.7467 12.4053 31.0832 12.1304 30.3913 12.1304ZM15.1728 9.52174H20.8272L21.913 12.1304H14.087L15.1728 9.52174ZM31.6957 30.3913C31.6957 30.7372 31.5582 31.069 31.3136 31.3136C31.069 31.5582 30.7372 31.6957 30.3913 31.6957H5.6087C5.26276 31.6957 4.931 31.5582 4.68638 31.3136C4.44177 31.069 4.30435 30.7372 4.30435 30.3913V14.7391C4.30435 14.3932 4.44177 14.0614 4.68638 13.8168C4.931 13.5722 5.26276 13.4348 5.6087 13.4348H30.3913C30.7372 13.4348 31.069 13.5722 31.3136 13.8168C31.5582 14.0614 31.6957 14.3932 31.6957 14.7391V30.3913ZM28.1087 15.0652C27.7217 15.0652 27.3435 15.18 27.0217 15.395C26.7 15.6099 26.4492 15.9155 26.3011 16.273C26.153 16.6305 26.1143 17.0239 26.1898 17.4034C26.2653 17.783 26.4516 18.1316 26.7252 18.4052C26.9989 18.6788 27.3475 18.8652 27.727 18.9407C28.1065 19.0162 28.4999 18.9774 28.8574 18.8293C29.2149 18.6812 29.5205 18.4305 29.7355 18.1087C29.9505 17.787 30.0652 17.4087 30.0652 17.0217C30.0652 16.5028 29.8591 16.0052 29.4922 15.6383C29.1252 15.2713 28.6276 15.0652 28.1087 15.0652ZM28.1087 17.6739C27.9797 17.6739 27.8536 17.6357 27.7464 17.564C27.6391 17.4923 27.5555 17.3905 27.5062 17.2713C27.4568 17.1522 27.4439 17.021 27.4691 16.8945C27.4942 16.768 27.5563 16.6518 27.6475 16.5606C27.7387 16.4694 27.855 16.4073 27.9815 16.3821C28.108 16.3569 28.2391 16.3699 28.3583 16.4192C28.4774 16.4686 28.5793 16.5522 28.651 16.6594C28.7226 16.7667 28.7609 16.8928 28.7609 17.0217C28.7609 17.1947 28.6922 17.3606 28.5699 17.4829C28.4475 17.6052 28.2817 17.6739 28.1087 17.6739ZM20.6087 22.5652C20.6087 22.7382 20.54 22.9041 20.4177 23.0264C20.2954 23.1487 20.1295 23.2174 19.9565 23.2174C19.7836 23.2174 19.6177 23.1487 19.4954 23.0264C19.3731 22.9041 19.3043 22.7382 19.3043 22.5652C19.3043 22.2193 19.1669 21.8875 18.9223 21.6429C18.6777 21.3983 18.3459 21.2609 18 21.2609C17.827 21.2609 17.6611 21.1922 17.5388 21.0699C17.4165 20.9475 17.3478 20.7817 17.3478 20.6087C17.3478 20.4357 17.4165 20.2698 17.5388 20.1475C17.6611 20.0252 17.827 19.9565 18 19.9565C18.6919 19.9565 19.3554 20.2314 19.8446 20.7206C20.3339 21.2098 20.6087 21.8733 20.6087 22.5652ZM18 17.6739C17.0326 17.6739 16.0869 17.9608 15.2825 18.4982C14.4782 19.0357 13.8512 19.7996 13.481 20.6934C13.1108 21.5872 13.0139 22.5706 13.2027 23.5195C13.3914 24.4683 13.8573 25.3398 14.5413 26.0239C15.2254 26.708 16.0969 27.1738 17.0458 27.3625C17.9946 27.5513 18.9781 27.4544 19.8718 27.0842C20.7656 26.714 21.5295 26.0871 22.067 25.2827C22.6044 24.4783 22.8913 23.5326 22.8913 22.5652C22.8913 21.268 22.376 20.0238 21.4587 19.1065C20.5414 18.1892 19.2973 17.6739 18 17.6739ZM18 26.1522C17.2906 26.1522 16.5971 25.9418 16.0072 25.5477C15.4173 25.1535 14.9576 24.5933 14.6861 23.9379C14.4146 23.2825 14.3436 22.5612 14.482 21.8654C14.6204 21.1696 14.962 20.5305 15.4636 20.0289C15.9653 19.5272 16.6044 19.1856 17.3002 19.0472C17.996 18.9088 18.7172 18.9798 19.3727 19.2513C20.0281 19.5228 20.5883 19.9825 20.9824 20.5724C21.3766 21.1623 21.587 21.8558 21.587 22.5652C21.587 23.5165 21.209 24.4289 20.5364 25.1016C19.8637 25.7743 18.9513 26.1522 18 26.1522ZM18 15.0652C16.5166 15.0652 15.0666 15.5051 13.8332 16.3292C12.5999 17.1533 11.6386 18.3247 11.0709 19.6951C10.5032 21.0655 10.3547 22.5735 10.6441 24.0284C10.9335 25.4833 11.6478 26.8196 12.6967 27.8685C13.7456 28.9174 15.082 29.6317 16.5368 29.9211C17.9917 30.2105 19.4997 30.062 20.8701 29.4943C22.2406 28.9267 23.4119 27.9654 24.236 26.732C25.0601 25.4986 25.5 24.0486 25.5 22.5652C25.5 20.5761 24.7098 18.6684 23.3033 17.2619C21.8968 15.8554 19.9891 15.0652 18 15.0652ZM18 28.7609C16.7746 28.7609 15.5767 28.3975 14.5579 27.7167C13.539 27.0359 12.7449 26.0683 12.276 24.9362C11.807 23.8041 11.6843 22.5584 11.9234 21.3565C12.1625 20.1547 12.7525 19.0507 13.619 18.1842C14.4855 17.3178 15.5894 16.7277 16.7913 16.4886C17.9931 16.2496 19.2389 16.3722 20.371 16.8412C21.5031 17.3101 22.4707 18.1042 23.1515 19.1231C23.8323 20.142 24.1957 21.3398 24.1957 22.5652C24.1957 24.2084 23.5429 25.7843 22.381 26.9462C21.2191 28.1081 19.6432 28.7609 18 28.7609ZM9.10435 8.93805C9.17069 8.77864 9.29755 8.65205 9.45709 8.58603C9.61664 8.52001 9.79585 8.51995 9.95543 8.58587L11.912 9.39131C12.0519 9.4488 12.1676 9.5532 12.239 9.68659C12.3105 9.81999 12.3334 9.97408 12.3037 10.1225C12.274 10.2709 12.1936 10.4043 12.0764 10.5C11.9591 10.5956 11.8122 10.6475 11.6609 10.6467C11.5755 10.6467 11.4911 10.6289 11.413 10.5946L9.45652 9.78913C9.29711 9.72279 9.17052 9.59593 9.1045 9.43639C9.03849 9.27684 9.03843 9.09764 9.10435 8.93805ZM12.45 5.67718C12.4025 5.60588 12.3694 5.52591 12.3528 5.44185C12.3362 5.35779 12.3363 5.27127 12.3531 5.18724C12.3699 5.10322 12.4031 5.02333 12.4508 4.95213C12.4984 4.88093 12.5597 4.81981 12.631 4.77228C12.775 4.67629 12.9512 4.64143 13.1209 4.67537C13.2049 4.69217 13.2848 4.72537 13.356 4.77305C13.4272 4.82073 13.4883 4.88197 13.5359 4.95327L14.7033 6.70435C14.7687 6.80248 14.8064 6.91652 14.8121 7.03434C14.8179 7.15216 14.7916 7.26934 14.7361 7.3734C14.6805 7.47747 14.5978 7.56452 14.4967 7.62528C14.3956 7.68605 14.2799 7.71826 14.162 7.71848C14.0548 7.71828 13.9494 7.6917 13.855 7.64109C13.7606 7.59047 13.6801 7.51738 13.6207 7.42827L12.45 5.67718ZM21.2967 6.70435L22.4641 4.95327C22.5679 4.83446 22.7111 4.75727 22.8674 4.736C23.0237 4.71473 23.1824 4.7508 23.3141 4.83755C23.4458 4.9243 23.5416 5.05585 23.5838 5.20782C23.626 5.3598 23.6117 5.52191 23.5435 5.66413L22.3728 7.41522C22.2726 7.54845 22.1252 7.63825 21.9608 7.66616C21.7965 7.69408 21.6277 7.658 21.4891 7.56534C21.3505 7.47267 21.2527 7.33046 21.2157 7.16791C21.1787 7.00536 21.2054 6.83481 21.2902 6.69131L21.2967 6.70435ZM23.7457 10.2554C23.6797 10.0958 23.6798 9.91664 23.7458 9.7571C23.8118 9.59756 23.9384 9.4707 24.0978 9.40435L26.0543 8.59892C26.1348 8.54911 26.2252 8.51742 26.3192 8.50605C26.4132 8.49468 26.5085 8.50391 26.5986 8.53309C26.6886 8.56227 26.7712 8.61072 26.8407 8.67505C26.9101 8.73937 26.9648 8.81804 27.0007 8.9056C27.0367 8.99316 27.0532 9.08751 27.0491 9.18208C27.0449 9.27665 27.0202 9.36919 26.9767 9.45326C26.9332 9.53734 26.8719 9.61093 26.7971 9.66893C26.7223 9.72693 26.6357 9.76795 26.5435 9.78913L24.587 10.5946C24.5089 10.6289 24.4245 10.6467 24.3391 10.6467C24.2115 10.6448 24.0872 10.6055 23.9817 10.5336C23.8762 10.4617 23.7941 10.3605 23.7457 10.2424V10.2554ZM17.3478 5.77174V3.65217C17.3478 3.47921 17.4165 3.31332 17.5388 3.19102C17.6611 3.06871 17.827 3 18 3C18.173 3 18.3389 3.06871 18.4612 3.19102C18.5835 3.31332 18.6522 3.47921 18.6522 3.65217V5.77174C18.6522 5.94471 18.5835 6.11059 18.4612 6.2329C18.3389 6.3552 18.173 6.42391 18 6.42391C17.827 6.42391 17.6611 6.3552 17.5388 6.2329C17.4165 6.11059 17.3478 5.94471 17.3478 5.77174Z" fill="#69696F"/>
</svg>
