<svg width="24" height="18" viewBox="0 0 24 18" fill="none" xmlns="http://www.w3.org/2000/svg">
<path d="M23.6603 7.17778C23.6458 5.34911 22.4331 4.1255 20.5939 4.11437C19.1791 4.10583 17.7645 4.10284 16.3498 4.10364C16.3504 4.12748 16.3515 4.15093 16.3515 4.17477V5.07729C17.729 5.07709 19.1062 5.07828 20.4836 5.08205C21.9514 5.08603 22.7037 5.84627 22.717 7.33734C22.7279 8.57367 22.7208 9.8104 22.719 11.0469C22.7164 12.7691 22.0301 13.4693 20.3107 13.5124C20.1674 13.516 20.0246 13.5343 19.8044 13.552C19.7814 13.9963 19.7617 14.3746 19.7418 14.7589C19.6649 14.7414 19.5978 14.7442 19.587 14.721C19.0889 13.645 18.2353 13.4073 17.1094 13.4898C15.7588 13.5885 14.3955 13.5174 13.038 13.5118C12.0007 13.5075 11.3152 13.1715 10.9671 12.4989H9.93164C10.329 13.71 11.3776 14.438 12.8349 14.4481C14.3144 14.4583 15.7956 14.4905 17.2729 14.4332C17.9597 14.4066 18.3837 14.6123 18.7541 15.1911C19.316 16.0698 19.9705 16.889 20.5857 17.7335C20.6336 17.7095 20.6817 17.6854 20.7296 17.6616C20.7296 16.6271 20.7296 15.5929 20.7296 14.5167C22.875 14.0853 23.662 13.1268 23.6632 11.0344C23.6634 9.7488 23.6706 8.46319 23.6603 7.17778Z" fill="white"/>
<path d="M12.5449 0.333008H3.54089C1.76866 0.333008 0.332031 1.76963 0.332031 3.54187V8.65689C0.332031 10.4291 1.76866 11.8658 3.54089 11.8658H3.59991V15.5068L5.86234 11.8658H12.5447C14.317 11.8658 15.7536 10.4291 15.7536 8.65689V3.54187C15.7536 1.76963 14.317 0.333008 12.5449 0.333008ZM4.9185 7.03388C4.49189 7.03388 4.14614 6.68814 4.14614 6.26152C4.14614 5.83491 4.49189 5.48916 4.9185 5.48916C5.34512 5.48916 5.69086 5.83491 5.69086 6.26152C5.69086 6.68814 5.34512 7.03388 4.9185 7.03388ZM8.05802 7.03388C7.6314 7.03388 7.28566 6.68814 7.28566 6.26152C7.28566 5.83491 7.6314 5.48916 8.05802 5.48916C8.48463 5.48916 8.83038 5.83491 8.83038 6.26152C8.83038 6.68814 8.48463 7.03388 8.05802 7.03388ZM11.1671 7.03388C10.7405 7.03388 10.3948 6.68814 10.3948 6.26152C10.3948 5.83491 10.7405 5.48916 11.1671 5.48916C11.5937 5.48916 11.9395 5.83491 11.9395 6.26152C11.9395 6.68814 11.5937 7.03388 11.1671 7.03388Z" fill="white"/>
</svg>
