<svg width="24" height="24" viewBox="0 0 24 24" fill="none" xmlns="http://www.w3.org/2000/svg">
<path d="M18.667 2H8.667C7.931 2 7.333 2.598 7.333 3.333V5.333H5.333C4.598 5.333 4 5.931 4 6.667V20.667C4 21.402 4.598 22 5.333 22H15.333C16.068 22 16.666 21.402 16.666 20.667V18.667H18.666C19.401 18.667 19.999 18.069 19.999 17.334V3.334C20 2.598 19.402 2 18.667 2ZM15.333 20.667H5.333V6.667H15.333V20.667ZM18.667 17.333H16.667V6.667C16.667 5.932 16.069 5.334 15.334 5.334H8.667V3.334H18.667V17.333Z" fill="#69696F"/>
</svg>
