<svg width="24" height="24" viewBox="0 0 24 24" fill="none" xmlns="http://www.w3.org/2000/svg">
<path d="M16 12.9V15.9V19.5C16 20.6046 15.1046 21.5 14 21.5H6.6H5C3.89543 21.5 3 20.6046 3 19.5V10V8.5C3 7.39543 3.89543 6.5 5 6.5H9.6" stroke="#69696F" stroke-width="1.5" stroke-linecap="round" stroke-linejoin="round"/>
<path d="M15.9996 12.9H11.5996C10.4951 12.9 9.59964 12.0046 9.59962 10.9L9.59961 9.7V6.5L15.9996 12.9Z" stroke="#69696F" stroke-width="1.5" stroke-linecap="round" stroke-linejoin="round"/>
<path d="M10.5996 1.5H14.5996" stroke="#69696F" stroke-width="1.5" stroke-linecap="round" stroke-linejoin="round"/>
<path d="M8 4.5V3.5C8 2.39543 8.89543 1.5 10 1.5H11.62" stroke="#69696F" stroke-width="1.5" stroke-linecap="round" stroke-linejoin="round"/>
<path d="M20.9995 7.5L20.9999 14.4999C20.9999 15.6045 20.1045 16.5 18.9999 16.5H18.1895" stroke="#69696F" stroke-width="1.5" stroke-linecap="round" stroke-linejoin="round"/>
<path d="M21 7.5H17C15.8954 7.5 15 6.60457 15 5.5V4.5V1.5L21 7.5Z" stroke="#69696F" stroke-width="1.5" stroke-linecap="round" stroke-linejoin="round"/>
</svg>
