<svg width="24" height="24" viewBox="0 0 24 24" fill="none" xmlns="http://www.w3.org/2000/svg">
<path d="M17.9789 9.59814C17.9789 9.59814 17.5264 15.2106 17.2639 17.5748C17.1389 18.704 16.4414 19.3656 15.2989 19.3865C13.1247 19.4256 10.9481 19.4281 8.77474 19.3823C7.67558 19.3598 6.98974 18.6898 6.86724 17.5806C6.60308 15.1956 6.15308 9.59814 6.15308 9.59814" stroke="#9F1616" stroke-width="1.5" stroke-linecap="round" stroke-linejoin="round"/>
<path d="M19.1317 6.90739H5" stroke="#9F1616" stroke-width="1.5" stroke-linecap="round" stroke-linejoin="round"/>
<path d="M16.4087 6.9075C15.7545 6.9075 15.1912 6.445 15.0628 5.80417L14.8603 4.79083C14.7353 4.32333 14.312 4 13.8295 4H10.302C9.81951 4 9.39617 4.32333 9.27117 4.79083L9.06867 5.80417C8.94034 6.445 8.37701 6.9075 7.72284 6.9075" stroke="#9F1616" stroke-width="1.5" stroke-linecap="round" stroke-linejoin="round"/>
</svg>
