<svg width="36" height="36" viewBox="0 0 36 36" fill="none" xmlns="http://www.w3.org/2000/svg">
<path d="M23.9782 15.5977C23.9782 15.5977 23.5257 21.2102 23.2632 23.5743C23.1382 24.7035 22.4407 25.3652 21.2982 25.386C19.124 25.4252 16.9473 25.4277 14.774 25.3818C13.6748 25.3593 12.989 24.6893 12.8665 23.5802C12.6023 21.1952 12.1523 15.5977 12.1523 15.5977" stroke="#69696F" stroke-width="1.5" stroke-linecap="round" stroke-linejoin="round"/>
<path d="M25.1317 12.9079H11" stroke="#69696F" stroke-width="1.5" stroke-linecap="round" stroke-linejoin="round"/>
<path d="M22.4085 12.9075C21.7543 12.9075 21.191 12.445 21.0627 11.8042L20.8602 10.7908C20.7352 10.3233 20.3118 10 19.8293 10H16.3018C15.8193 10 15.396 10.3233 15.271 10.7908L15.0685 11.8042C14.9402 12.445 14.3768 12.9075 13.7227 12.9075" stroke="#69696F" stroke-width="1.5" stroke-linecap="round" stroke-linejoin="round"/>
</svg>
