<svg width="24" height="24" viewBox="0 0 24 24" fill="none" xmlns="http://www.w3.org/2000/svg">
<path d="M21.001 4.66699H19.001H5.667H3.667C3.299 4.66699 3 4.96599 3 5.33399C3 5.70199 3.299 5.99999 3.667 5.99999H4.395C4.396 6.01899 4.393 6.03699 4.394 6.05499L5.675 20.726C5.737 21.441 6.347 22 7.064 22H17.604C18.32 22 18.93 21.441 18.993 20.727L20.274 6.05499C20.275 6.03699 20.272 6.01899 20.273 5.99999H21.001C21.369 5.99999 21.668 5.70099 21.668 5.33299C21.668 4.96499 21.369 4.66699 21.001 4.66699ZM17.664 20.611C17.662 20.632 17.624 20.666 17.603 20.666H7.064C7.043 20.666 7.005 20.631 7.003 20.611L5.728 5.99999H18.94L17.664 20.611Z" fill="#9F1616"/>
<path d="M9.66698 3.333H15C15.368 3.333 15.667 3.034 15.667 2.666C15.667 2.298 15.369 2 15.001 2H9.66698C9.29898 2 9.00098 2.299 9.00098 2.667C9.00098 3.035 9.29898 3.333 9.66698 3.333Z" fill="#9F1616"/>
<path d="M10.334 18C10.702 18 11.001 17.702 11.001 17.333V9.33302C11.001 8.96502 10.702 8.66602 10.334 8.66602C9.96599 8.66602 9.66699 8.96502 9.66699 9.33302V17.333C9.66699 17.702 9.96599 18 10.334 18Z" fill="#9F1616"/>
<path d="M14.334 18C14.702 18 15.001 17.702 15.001 17.333V9.33302C15.001 8.96502 14.703 8.66602 14.334 8.66602C13.965 8.66602 13.667 8.96502 13.667 9.33302V17.333C13.667 17.702 13.966 18 14.334 18Z" fill="#9F1616"/>
</svg>
