<svg width="36" height="36" viewBox="0 0 36 36" fill="none" xmlns="http://www.w3.org/2000/svg">
<path d="M18 16.2857C17.555 16.2857 17.12 16.4177 16.75 16.6649C16.38 16.9121 16.0916 17.2635 15.9213 17.6746C15.751 18.0858 15.7065 18.5382 15.7933 18.9746C15.8801 19.4111 16.0944 19.812 16.4091 20.1267C16.7237 20.4413 17.1246 20.6556 17.5611 20.7424C17.9976 20.8293 18.45 20.7847 18.8611 20.6144C19.2722 20.4441 19.6236 20.1557 19.8708 19.7857C20.1181 19.4157 20.25 18.9807 20.25 18.5357C20.25 17.9389 20.013 17.3667 19.591 16.9447C19.1691 16.5227 18.5968 16.2857 18 16.2857ZM18 19.4999C17.8093 19.4999 17.6229 19.4434 17.4643 19.3375C17.3057 19.2315 17.1822 19.0809 17.1092 18.9047C17.0362 18.7285 17.0171 18.5346 17.0543 18.3475C17.0915 18.1605 17.1833 17.9887 17.3182 17.8538C17.4531 17.719 17.6249 17.6271 17.8119 17.5899C17.999 17.5527 18.1929 17.5718 18.3691 17.6448C18.5453 17.7178 18.6959 17.8414 18.8018 18C18.9078 18.1585 18.9643 18.345 18.9643 18.5357C18.9643 18.7914 18.8627 19.0367 18.6819 19.2175C18.5011 19.3984 18.2558 19.4999 18 19.4999ZM33.4285 11.7857H29.8928V11.1429C29.8928 10.9724 29.8251 10.8089 29.7046 10.6883C29.584 10.5677 29.4205 10.5 29.25 10.5C29.0795 10.5 28.916 10.5677 28.7954 10.6883C28.6749 10.8089 28.6071 10.9724 28.6071 11.1429V11.7857H25.0714C24.9009 11.7857 24.7374 11.8534 24.6169 11.974C24.4963 12.0946 24.4286 12.2581 24.4286 12.4286C24.4286 12.5991 24.4963 12.7626 24.6169 12.8831C24.7374 13.0037 24.9009 13.0714 25.0714 13.0714H28.6071V15.3214H22.8215V14.6785C22.8215 14.5081 22.7537 14.3445 22.6332 14.224C22.5126 14.1034 22.3491 14.0357 22.1786 14.0357H13.8215C13.651 14.0357 13.4875 14.1034 13.3669 14.224C13.2464 14.3445 13.1786 14.5081 13.1786 14.6785V15.3214H7.39297V13.0714H10.9287C11.0992 13.0714 11.2627 13.0037 11.3832 12.8831C11.5038 12.7626 11.5715 12.5991 11.5715 12.4286C11.5715 12.2581 11.5038 12.0946 11.3832 11.974C11.2627 11.8534 11.0992 11.7857 10.9287 11.7857H7.39297V11.1429C7.39297 10.9724 7.32524 10.8089 7.20468 10.6883C7.08412 10.5677 6.92061 10.5 6.75011 10.5C6.57962 10.5 6.41611 10.5677 6.29555 10.6883C6.17499 10.8089 6.10726 10.9724 6.10726 11.1429V11.7857H2.57156C2.40107 11.7857 2.23756 11.8534 2.117 11.974C1.99644 12.0946 1.92871 12.2581 1.92871 12.4286C1.92871 12.5991 1.99644 12.7626 2.117 12.8831C2.23756 13.0037 2.40107 13.0714 2.57156 13.0714H6.10726V15.3214H4.82155C4.65106 15.3214 4.48754 15.3891 4.36699 15.5097C4.24643 15.6303 4.1787 15.7938 4.1787 15.9643V17.5714C4.17782 17.7308 4.2362 17.8849 4.34252 18.0037C4.44884 18.1225 4.59551 18.1975 4.75405 18.2142L6.18119 18.3685L7.07154 23.4696C7.09824 23.6199 7.1776 23.7559 7.29539 23.853C7.41317 23.9502 7.56171 24.0023 7.71439 23.9999H7.82689C7.9119 23.9864 7.99332 23.9559 8.06633 23.9103C8.13934 23.8647 8.20244 23.8049 8.25191 23.7345C8.30137 23.664 8.33618 23.5844 8.35428 23.5002C8.37237 23.4161 8.37338 23.3291 8.35725 23.2446L7.52154 18.5035L13.1786 19.1143V19.8214C13.1786 20.6739 13.5173 21.4914 14.1201 22.0942C14.7229 22.697 15.5404 23.0356 16.3929 23.0356H19.6072C20.4597 23.0356 21.2772 22.697 21.88 22.0942C22.4828 21.4914 22.8215 20.6739 22.8215 19.8214V19.1143L28.4882 18.5068L27.6429 23.2446C27.628 23.3277 27.6298 23.413 27.6479 23.4955C27.6661 23.578 27.7003 23.6561 27.7487 23.7253C27.797 23.7946 27.8586 23.8536 27.9298 23.8991C28.0009 23.9446 28.0804 23.9756 28.1636 23.9903H28.2761C28.4287 23.9926 28.5773 23.9406 28.6951 23.8434C28.8129 23.7462 28.8922 23.6103 28.9189 23.4599L29.8189 18.3557L31.246 18.2014C31.4046 18.1847 31.5513 18.1096 31.6576 17.9908C31.7639 17.872 31.8223 17.718 31.8214 17.5585V15.9514C31.8214 15.7809 31.7537 15.6174 31.6331 15.4968C31.5126 15.3763 31.349 15.3086 31.1785 15.3086H29.8928V13.0586H33.4285C33.599 13.0586 33.7625 12.9908 33.8831 12.8703C34.0037 12.7497 34.0714 12.5862 34.0714 12.4157C34.0714 12.2452 34.0037 12.0817 33.8831 11.9612C33.7625 11.8406 33.599 11.7729 33.4285 11.7729V11.7857ZM5.46441 16.996V16.6071H13.1786V17.8221L5.46441 16.996ZM21.5357 19.8214C21.5357 20.3329 21.3326 20.8234 20.9709 21.1851C20.6092 21.5468 20.1187 21.7499 19.6072 21.7499H16.3929C15.8814 21.7499 15.3909 21.5468 15.0292 21.1851C14.6675 20.8234 14.4644 20.3329 14.4644 19.8214V15.3214H21.5357V19.8214ZM30.5357 16.996L22.8215 17.8221V16.6071H30.5357V16.996Z" fill="#69696F"/>
</svg>
