<svg width="223" height="100" viewBox="0 0 223 100" fill="none" xmlns="http://www.w3.org/2000/svg">
<rect x="27" width="164" height="100" rx="8" fill="#F2F2F6"/>
<g filter="url(#filter0_d_5113_21351)">
<rect x="68" y="54" width="147" height="32" rx="6" fill="white" shape-rendering="crispEdges"/>
<rect x="70" y="56" width="28" height="28" rx="4" fill="#4072C2"/>
<path d="M92.3346 69.166V74.166C92.3346 77.4993 91.5013 78.3327 88.168 78.3327H79.8346C76.5013 78.3327 75.668 77.4993 75.668 74.166V65.8327C75.668 62.4993 76.5013 61.666 79.8346 61.666H81.0846C82.3346 61.666 82.6096 62.0327 83.0846 62.666L84.3346 64.3327C84.6513 64.7493 84.8346 64.9993 85.668 64.9993H88.168C91.5013 64.9993 92.3346 65.8327 92.3346 69.166Z" stroke="white" stroke-width="1.25" stroke-miterlimit="10"/>
<rect opacity="0.3" x="104" y="60" width="62" height="10" rx="5" fill="#4072C2"/>
<rect opacity="0.15" x="104" y="74" width="103" height="6" rx="3" fill="#4072C2"/>
</g>
<g filter="url(#filter1_d_5113_21351)">
<rect x="8" y="14" width="147" height="32" rx="6" fill="white" shape-rendering="crispEdges"/>
<rect x="10" y="16" width="28" height="28" rx="4" fill="#4072C2"/>
<path d="M32.3346 29.166V34.166C32.3346 37.4993 31.5013 38.3327 28.168 38.3327H19.8346C16.5013 38.3327 15.668 37.4993 15.668 34.166V25.8327C15.668 22.4993 16.5013 21.666 19.8346 21.666H21.0846C22.3346 21.666 22.6096 22.0327 23.0846 22.666L24.3346 24.3327C24.6513 24.7493 24.8346 24.9993 25.668 24.9993H28.168C31.5013 24.9993 32.3346 25.8327 32.3346 29.166Z" stroke="white" stroke-width="1.25" stroke-miterlimit="10"/>
<rect opacity="0.3" x="44" y="20" width="62" height="10" rx="5" fill="#4072C2"/>
<rect opacity="0.15" x="44" y="34" width="103" height="6" rx="3" fill="#4072C2"/>
</g>
<defs>
<filter id="filter0_d_5113_21351" x="60" y="50" width="163" height="48" filterUnits="userSpaceOnUse" color-interpolation-filters="sRGB">
<feFlood flood-opacity="0" result="BackgroundImageFix"/>
<feColorMatrix in="SourceAlpha" type="matrix" values="0 0 0 0 0 0 0 0 0 0 0 0 0 0 0 0 0 0 127 0" result="hardAlpha"/>
<feOffset dy="4"/>
<feGaussianBlur stdDeviation="4"/>
<feComposite in2="hardAlpha" operator="out"/>
<feColorMatrix type="matrix" values="0 0 0 0 0.216257 0 0 0 0 0.21474 0 0 0 0 0.2375 0 0 0 0.05 0"/>
<feBlend mode="normal" in2="BackgroundImageFix" result="effect1_dropShadow_5113_21351"/>
<feBlend mode="normal" in="SourceGraphic" in2="effect1_dropShadow_5113_21351" result="shape"/>
</filter>
<filter id="filter1_d_5113_21351" x="0" y="10" width="163" height="48" filterUnits="userSpaceOnUse" color-interpolation-filters="sRGB">
<feFlood flood-opacity="0" result="BackgroundImageFix"/>
<feColorMatrix in="SourceAlpha" type="matrix" values="0 0 0 0 0 0 0 0 0 0 0 0 0 0 0 0 0 0 127 0" result="hardAlpha"/>
<feOffset dy="4"/>
<feGaussianBlur stdDeviation="4"/>
<feComposite in2="hardAlpha" operator="out"/>
<feColorMatrix type="matrix" values="0 0 0 0 0.216257 0 0 0 0 0.21474 0 0 0 0 0.2375 0 0 0 0.05 0"/>
<feBlend mode="normal" in2="BackgroundImageFix" result="effect1_dropShadow_5113_21351"/>
<feBlend mode="normal" in="SourceGraphic" in2="effect1_dropShadow_5113_21351" result="shape"/>
</filter>
</defs>
</svg>
