<svg width="24" height="24" viewBox="0 0 24 24" fill="none" xmlns="http://www.w3.org/2000/svg">
<path d="M8.69336 6.80566H20.2638" stroke="#69696F" stroke-width="1.2" stroke-linecap="square"/>
<path fill-rule="evenodd" clip-rule="evenodd" d="M8.71188 6.73377C8.71188 5.00328 7.29859 3.6001 5.55565 3.6001C3.8127 3.6001 2.39941 5.00328 2.39941 6.73377C2.39941 8.46426 3.8127 9.86744 5.55565 9.86744C7.29859 9.86744 8.71188 8.46426 8.71188 6.73377Z" stroke="#69696F" stroke-width="1.2" stroke-linecap="square"/>
<path d="M15.3057 18.3413H3.73522" stroke="#69696F" stroke-width="1.2" stroke-linecap="square"/>
<path fill-rule="evenodd" clip-rule="evenodd" d="M15.2871 18.2684C15.2871 16.538 16.7004 15.1348 18.4434 15.1348C20.1863 15.1348 21.5996 16.538 21.5996 18.2684C21.5996 19.9989 20.1863 21.4021 18.4434 21.4021C16.7004 21.4021 15.2871 19.9989 15.2871 18.2684Z" stroke="#69696F" stroke-width="1.2" stroke-linecap="square"/>
</svg>
