<svg width="36" height="36" viewBox="0 0 36 36" fill="none" xmlns="http://www.w3.org/2000/svg">
<path d="M18.0037 3C16.0456 2.99878 14.1183 3.48763 12.3976 4.42204C10.6768 5.35644 9.21724 6.70669 8.15195 8.34966C7.08666 9.99263 6.44951 11.8761 6.29858 13.8284C6.14765 15.7807 6.48774 17.7397 7.28784 19.5268V19.5464C8.08306 21.5638 15.4128 31.0445 16.2569 32.133C16.4611 32.4024 16.725 32.6209 17.0277 32.7713C17.3305 32.9217 17.664 33 18.0021 33C18.3402 33 18.6737 32.9217 18.9765 32.7713C19.2793 32.6209 19.5431 32.4024 19.7474 32.133C20.5817 31.0575 27.9114 21.5768 28.7066 19.5594C28.708 19.553 28.708 19.5463 28.7066 19.5399C29.5091 17.7531 29.8516 15.7939 29.7027 13.8409C29.5538 11.8878 28.9183 10.0031 27.8542 8.35865C26.7901 6.7142 25.3312 5.36234 23.6106 4.42633C21.89 3.49033 19.9624 2.99998 18.0037 3ZM27.5105 19.0282C27.4999 19.0513 27.4912 19.0753 27.4844 19.0999C26.7837 20.749 20.9369 28.4568 18.737 31.2954C18.6504 31.4093 18.5398 31.5027 18.4131 31.5692C18.2864 31.6356 18.1467 31.6735 18.0037 31.68C17.864 31.6755 17.7269 31.6402 17.6024 31.5765C17.4779 31.5128 17.369 31.4224 17.2835 31.3117C15.0706 28.4568 9.22374 20.7522 8.52304 19.0999C8.51632 19.0753 8.5076 19.0513 8.49697 19.0282C7.88521 17.679 7.57067 16.2141 7.57464 14.7327C7.57464 11.9668 8.67342 9.31408 10.6293 7.35824C12.5851 5.40241 15.2378 4.30364 18.0037 4.30364C20.7697 4.30364 23.4224 5.40241 25.3782 7.35824C27.3341 9.31408 28.4328 11.9668 28.4328 14.7327C28.4368 16.2141 28.1223 17.679 27.5105 19.0282ZM22.3709 12.2656C21.996 12.0742 21.5794 11.979 21.1585 11.9886C20.5887 11.9794 20.0265 12.1211 19.529 12.3992C19.0542 12.6681 18.6663 13.0674 18.4111 13.5497C18.1383 14.0699 18.0015 14.6506 18.0135 15.2379C18.0044 15.6455 18.101 16.0486 18.2938 16.4079C18.4772 16.7432 18.7548 17.0174 19.0923 17.1966C19.4581 17.3912 19.8676 17.4888 20.2818 17.4801C20.8615 17.4919 21.4336 17.3467 21.9375 17.0597C22.4147 16.7874 22.8046 16.385 23.0618 15.8995C23.3356 15.3806 23.4746 14.8012 23.466 14.2145C23.4749 13.8075 23.3771 13.4053 23.1824 13.0478C22.9946 12.713 22.7123 12.441 22.3709 12.2656ZM21.8006 15.2346C21.6876 15.4862 21.5085 15.7025 21.2824 15.8604C21.0515 16.0187 20.7768 16.1008 20.4969 16.095C20.3581 16.1042 20.2188 16.0843 20.088 16.0366C19.9573 15.9889 19.8379 15.9144 19.7376 15.818C19.5533 15.612 19.4583 15.3412 19.4736 15.0652C19.4691 14.7715 19.5315 14.4805 19.6561 14.2145C19.7696 13.964 19.95 13.7497 20.1776 13.5953C20.4114 13.4384 20.688 13.3575 20.9695 13.3639C21.1057 13.3539 21.2424 13.3724 21.371 13.4185C21.4995 13.4645 21.617 13.537 21.7158 13.6312C21.8075 13.7336 21.878 13.8531 21.9233 13.9828C21.9686 14.1126 21.9878 14.25 21.9798 14.3873C21.9812 14.6793 21.9201 14.9682 21.8006 15.2346ZM13.9788 14.736C13.9578 14.8621 13.9459 14.9895 13.9429 15.1173C13.9321 15.2586 13.9522 15.4006 14.0017 15.5334C14.0512 15.6662 14.129 15.7867 14.2297 15.8864C14.4698 16.0786 14.7736 16.1729 15.0803 16.1504C15.3319 16.1536 15.5799 16.0898 15.7987 15.9655C16.0175 15.8412 16.1992 15.661 16.3253 15.4432H14.8163L15.0086 14.3742H17.7854L17.5279 15.8147C17.2466 16.2853 16.8594 16.6837 16.397 16.9783C15.8908 17.3055 15.2985 17.4746 14.6958 17.4639C14.2703 17.4753 13.8484 17.3824 13.4671 17.1933C13.1335 17.0261 12.8576 16.7627 12.6751 16.4372C12.4876 16.0938 12.3932 15.7073 12.4014 15.3161C12.4009 15.1224 12.4195 14.9293 12.4568 14.7393C12.5394 14.2301 12.7391 13.747 13.0401 13.328C13.3321 12.9175 13.7175 12.5824 14.1645 12.3503C14.6233 12.1193 15.1305 12.0009 15.6442 12.0049C16.2138 11.9712 16.7765 12.1449 17.2281 12.4937C17.4187 12.6572 17.5705 12.861 17.6726 13.0905C17.7746 13.3199 17.8243 13.5692 17.818 13.8202H16.2145C16.1589 13.682 16.0577 13.5669 15.9277 13.4943C15.7673 13.4133 15.5891 13.3741 15.4095 13.3802C15.0589 13.3741 14.7198 13.5051 14.4644 13.7452C14.1913 14.0099 14.0156 14.359 13.9657 14.736H13.9788ZM24.297 12.875H24.1895V12.0603H24.3068L24.6067 12.7316L24.9065 12.0603H25.0206V12.875H24.913V12.2688L24.6425 12.875H24.5545L24.284 12.2656V12.875H24.297ZM18.0037 5.60728C16.1989 5.60728 14.4346 6.14248 12.9339 7.1452C11.4332 8.14792 10.2636 9.57309 9.57291 11.2405C8.88223 12.908 8.70151 14.7429 9.05362 16.513C9.40573 18.2832 10.2748 19.9092 11.5511 21.1854C12.8273 22.4616 14.4533 23.3307 16.2234 23.6828C17.9936 24.0349 19.8284 23.8542 21.4959 23.1635C23.1634 22.4728 24.5886 21.3032 25.5913 19.8025C26.594 18.3019 27.1292 16.5376 27.1292 14.7327C27.1292 12.3125 26.1678 9.99139 24.4564 8.28003C22.7451 6.56868 20.424 5.60728 18.0037 5.60728ZM18.0037 22.5546C16.4567 22.5546 14.9445 22.0958 13.6582 21.2363C12.3719 20.3768 11.3693 19.1552 10.7773 17.726C10.1853 16.2967 10.0304 14.724 10.3322 13.2067C10.634 11.6895 11.379 10.2958 12.4729 9.20187C13.5668 8.10796 14.9605 7.36298 16.4778 7.06118C17.9951 6.75937 19.5678 6.9143 20.997 7.50632C22.4263 8.09833 23.6479 9.10085 24.5073 10.3871C25.3668 11.6734 25.8256 13.1857 25.8256 14.7327C25.8256 16.8072 25.0015 18.7967 23.5346 20.2636C22.0677 21.7305 20.0782 22.5546 18.0037 22.5546ZM23.492 12.0537H24.0461V12.1417H23.8245V12.875H23.7169V12.1417H23.492V12.0537Z" fill="#69696F"/>
</svg>
