<svg width="36" height="36" viewBox="0 0 36 36" fill="none" xmlns="http://www.w3.org/2000/svg">
<path d="M17.8986 23.9199C17.8986 24.0874 17.8311 24.248 17.7111 24.3665C17.5911 24.4849 17.4283 24.5514 17.2586 24.5514H6.05974C5.38086 24.5514 4.72978 24.2853 4.24973 23.8115C3.76969 23.3378 3.5 22.6953 3.5 22.0253V10.0261C3.5 9.35617 3.76969 8.71363 4.24973 8.23989C4.72978 7.76614 5.38086 7.5 6.05974 7.5H25.8978C26.5766 7.5 27.2277 7.76614 27.7078 8.23989C28.1878 8.71363 28.4575 9.35617 28.4575 10.0261V13.4996C28.4575 13.6671 28.3901 13.8277 28.2701 13.9462C28.1501 14.0646 27.9873 14.1311 27.8176 14.1311C27.6478 14.1311 27.4851 14.0646 27.3651 13.9462C27.2451 13.8277 27.1776 13.6671 27.1776 13.4996V10.0261C27.1776 9.69115 27.0428 9.36988 26.8028 9.13301C26.5627 8.89614 26.2372 8.76307 25.8978 8.76307H6.05974C5.7203 8.76307 5.39476 8.89614 5.15474 9.13301C4.91472 9.36988 4.77987 9.69115 4.77987 10.0261V22.0253C4.77987 22.3603 4.91472 22.6816 5.15474 22.9184C5.39476 23.1553 5.7203 23.2884 6.05974 23.2884H17.2586C17.4283 23.2884 17.5911 23.3549 17.7111 23.4733C17.8311 23.5918 17.8986 23.7524 17.8986 23.9199ZM25.5778 10.0261H24.2979V11.2892H25.5778V10.0261ZM23.018 10.0261H21.7382V11.2892H23.018V10.0261ZM20.4583 11.2892V10.0261H19.1784V11.2892H20.4583ZM17.8986 11.2892V10.0261H16.6187V11.2892H17.8986ZM15.3388 10.0261H14.0589V11.2892H15.3388V10.0261ZM12.7791 10.0261H11.4992V11.2892H12.7791V10.0261ZM10.2193 10.0261H8.93946V11.2892H10.2193V10.0261ZM7.65958 10.0261H6.37971V11.2892H7.65958V10.0261ZM24.2979 22.0253H25.5778V20.7622H24.2979V22.0253ZM21.7382 22.0253H23.018V20.7622H21.7382V22.0253ZM20.4583 20.7622H19.1784V22.0253H20.4583V20.7622ZM16.6187 22.0253H17.8986V20.7622H16.6187V22.0253ZM14.0589 22.0253H15.3388V20.7622H14.0589V22.0253ZM11.4992 22.0253H12.7791V20.7622H11.4992V22.0253ZM8.93946 22.0253H10.2193V20.7622H8.93946V22.0253ZM6.37971 22.0253H7.65958V20.7622H6.37971V22.0253ZM35.4968 23.9199C35.4957 24.5894 35.255 25.2371 34.8173 25.7487C34.3796 26.2603 33.7729 26.6029 33.1042 26.7162C32.4355 26.8294 31.7478 26.706 31.1622 26.3678C30.5767 26.0295 30.131 25.4981 29.9038 24.8672H28.7775V25.9787C29.4179 26.2022 29.9577 26.6419 30.3014 27.2201C30.6452 27.7984 30.7707 28.4779 30.6558 29.1386C30.5409 29.7994 30.1931 30.3988 29.6737 30.8309C29.1543 31.263 28.4969 31.5 27.8176 31.5C27.1383 31.5 26.4808 31.263 25.9614 30.8309C25.4421 30.3988 25.0942 29.7994 24.9793 29.1386C24.8645 28.4779 24.99 27.7984 25.3337 27.2201C25.6774 26.6419 26.2172 26.2022 26.8577 25.9787V24.8672H21.4182C19.8184 24.8672 19.8184 22.9726 19.8184 22.9726H26.8577V16.0257C26.8577 16.0257 28.7775 16.0257 28.7775 17.6045V22.9726H29.907C30.1342 22.3417 30.5799 21.8103 31.1654 21.472C31.751 21.1338 32.4387 21.0104 33.1074 21.1237C33.7761 21.2369 34.3828 21.5795 34.8205 22.0911C35.2582 22.6027 35.4989 23.2503 35.5 23.9199H35.4968ZM27.1776 23.9199C27.1776 24.0448 27.2152 24.1669 27.2855 24.2708C27.3558 24.3746 27.4557 24.4556 27.5727 24.5034C27.6896 24.5512 27.8183 24.5637 27.9424 24.5393C28.0665 24.5149 28.1806 24.4548 28.2701 24.3665C28.3596 24.2782 28.4205 24.1656 28.4452 24.0431C28.4699 23.9206 28.4572 23.7936 28.4088 23.6782C28.3604 23.5628 28.2783 23.4642 28.1731 23.3948C28.0679 23.3254 27.9441 23.2884 27.8176 23.2884C27.6478 23.2884 27.4851 23.3549 27.3651 23.4733C27.2451 23.5918 27.1776 23.7524 27.1776 23.9199ZM27.8176 27.0776C27.5011 27.0776 27.1918 27.1702 26.9287 27.3436C26.6656 27.5171 26.4606 27.7637 26.3395 28.0522C26.2184 28.3407 26.1867 28.6582 26.2485 28.9644C26.3102 29.2707 26.4626 29.552 26.6863 29.7728C26.91 29.9936 27.1951 30.144 27.5055 30.2049C27.8158 30.2658 28.1375 30.2346 28.4298 30.1151C28.7221 29.9956 28.972 29.7932 29.1478 29.5336C29.3236 29.2739 29.4174 28.9687 29.4174 28.6564C29.4174 28.2377 29.2489 27.8361 28.9488 27.54C28.6488 27.2439 28.2419 27.0776 27.8176 27.0776ZM34.2169 23.9199C34.2169 23.6076 34.1231 23.3024 33.9473 23.0427C33.7715 22.7831 33.5217 22.5807 33.2293 22.4612C32.937 22.3417 32.6153 22.3105 32.305 22.3714C31.9946 22.4323 31.7096 22.5827 31.4858 22.8035C31.2621 23.0243 31.1097 23.3056 31.048 23.6119C30.9863 23.9182 31.0179 24.2356 31.139 24.5241C31.2601 24.8126 31.4652 25.0592 31.7283 25.2326C31.9914 25.4061 32.3007 25.4987 32.6171 25.4987C33.0381 25.4988 33.4421 25.335 33.7416 25.043C34.0411 24.751 34.2119 24.3543 34.2169 23.9389V23.9199ZM15.4284 14.0869C15.4337 14.0132 15.424 13.9391 15.3998 13.8691C15.3757 13.7992 15.3375 13.7347 15.2876 13.6796C15.234 13.632 15.1713 13.5954 15.1031 13.5721C15.035 13.5488 14.9628 13.5392 14.8909 13.5438C14.8169 13.5385 14.7426 13.5478 14.6723 13.5711C14.602 13.5944 14.5371 13.6313 14.4813 13.6796C14.4302 13.7341 14.3911 13.7984 14.3663 13.8684C14.3415 13.9385 14.3317 14.0129 14.3373 14.0869V15.5552H12.0559V14.0869C12.0613 14.0132 12.0516 13.9391 12.0274 13.8691C12.0032 13.7992 11.965 13.7347 11.9152 13.6796C11.8014 13.5891 11.6597 13.5398 11.5136 13.5398C11.3675 13.5398 11.2258 13.5891 11.112 13.6796C11.0627 13.735 11.0251 13.7996 11.0015 13.8695C10.9779 13.9395 10.9687 14.0134 10.9745 14.0869V17.9645C10.9691 18.0375 10.9785 18.1109 11.0022 18.1803C11.0258 18.2496 11.0631 18.3137 11.112 18.3687C11.1654 18.418 11.2284 18.456 11.2972 18.4805C11.3659 18.5049 11.439 18.5152 11.512 18.5108C11.5861 18.5167 11.6605 18.5071 11.7305 18.4826C11.8006 18.4581 11.8646 18.4193 11.9184 18.3687C11.9673 18.3137 12.0046 18.2496 12.0282 18.1803C12.0519 18.1109 12.0613 18.0375 12.0559 17.9645V16.4362H14.3373V17.9645C14.3292 18.0382 14.338 18.1128 14.3629 18.1827C14.3879 18.2526 14.4284 18.3161 14.4815 18.3685C14.5346 18.4209 14.599 18.4609 14.6698 18.4855C14.7407 18.5102 14.8162 18.5188 14.8909 18.5108C14.9633 18.5152 15.0359 18.5048 15.1042 18.4803C15.1724 18.4559 15.2348 18.4179 15.2876 18.3687C15.337 18.3138 15.3748 18.2499 15.399 18.1805C15.4231 18.1112 15.4331 18.0377 15.4284 17.9645V14.0869ZM19.4664 18.2929C19.1044 18.4059 18.7262 18.4603 18.3465 18.454H16.9835C16.9073 18.4591 16.8308 18.4488 16.7587 18.4239C16.6867 18.3989 16.6205 18.3597 16.5643 18.3087C16.5127 18.2519 16.4732 18.1854 16.4479 18.1133C16.4226 18.0412 16.4122 17.9649 16.4171 17.8887V14.1501C16.4122 14.0739 16.4226 13.9976 16.4479 13.9255C16.4732 13.8533 16.5127 13.787 16.5643 13.7301C16.6205 13.6791 16.6867 13.6399 16.7587 13.615C16.8308 13.59 16.9073 13.5797 16.9835 13.5848H18.3465C19.053 13.5418 19.7493 13.7678 20.2919 14.2164C20.5302 14.4493 20.7152 14.7299 20.8344 15.0392C20.9536 15.3486 21.0043 15.6796 20.9831 16.0099C20.9897 16.3619 20.93 16.712 20.8071 17.0425C20.696 17.3331 20.5186 17.5945 20.2887 17.8066C20.054 18.0262 19.7733 18.1922 19.4664 18.2929ZM19.4664 17.1909C19.6023 17.056 19.7023 16.89 19.7576 16.7078C19.8282 16.4862 19.8617 16.2548 19.8568 16.0226C19.8742 15.812 19.8487 15.6 19.7816 15.3993C19.7146 15.1986 19.6074 15.0133 19.4664 14.8542C19.3039 14.7163 19.1154 14.6115 18.9116 14.546C18.7079 14.4804 18.493 14.4553 18.2793 14.4721H17.5018V17.5793H18.2761C18.5117 17.5848 18.7465 17.5506 18.9705 17.4783C19.1546 17.4204 19.323 17.3222 19.4632 17.1909H19.4664Z" fill="#69696F"/>
</svg>
