<svg width="36" height="36" viewBox="0 0 36 36" fill="none" xmlns="http://www.w3.org/2000/svg">
<path d="M12.6161 25.921C12.5588 25.8558 12.5151 25.7799 12.4873 25.6977C12.4596 25.6156 12.4484 25.5287 12.4544 25.4422V20.8501C12.4479 20.7636 12.4588 20.6766 12.4866 20.5943C12.5143 20.512 12.5584 20.4362 12.6161 20.3713C12.6781 20.3138 12.7511 20.2696 12.8307 20.2412C12.9104 20.2129 12.995 20.2011 13.0793 20.2066C13.1662 20.1958 13.2543 20.2051 13.3369 20.2338C13.4196 20.2624 13.4946 20.3096 13.5561 20.3718C13.6177 20.4339 13.6642 20.5094 13.692 20.5923C13.7198 20.6752 13.7283 20.7634 13.7167 20.8501V22.5881H16.3842V20.8501C16.3781 20.7634 16.3895 20.6762 16.4178 20.594C16.4461 20.5117 16.4907 20.436 16.549 20.3713C16.614 20.3137 16.6898 20.2694 16.7719 20.2412C16.8541 20.2129 16.9411 20.2011 17.0278 20.2066C17.1122 20.2011 17.1967 20.2129 17.2764 20.2412C17.356 20.2696 17.4291 20.3138 17.491 20.3713C17.5493 20.436 17.5939 20.5117 17.6222 20.594C17.6505 20.6762 17.662 20.7634 17.6558 20.8501V25.4422C17.6613 25.5289 17.6495 25.6158 17.6212 25.698C17.593 25.7802 17.5487 25.856 17.491 25.921C17.4291 25.9785 17.356 26.0227 17.2764 26.0511C17.1967 26.0794 17.1122 26.0912 17.0278 26.0857C16.9407 26.0963 16.8524 26.0869 16.7696 26.0582C16.6867 26.0296 16.6114 25.9825 16.5494 25.9206C16.4874 25.8586 16.4403 25.7833 16.4117 25.7004C16.3831 25.6175 16.3737 25.5292 16.3842 25.4422V23.6327H13.7167V25.4422C13.7284 25.6163 13.6715 25.7882 13.5581 25.921C13.4938 25.9797 13.4181 26.0246 13.3358 26.0529C13.2535 26.0813 13.1662 26.0924 13.0793 26.0857C12.995 26.0912 12.9104 26.0794 12.8307 26.0511C12.7511 26.0227 12.6781 25.9785 12.6161 25.921ZM18.9834 25.8494C18.9226 25.7825 18.876 25.7039 18.8466 25.6183C18.8172 25.5328 18.8056 25.4422 18.8124 25.352V20.9403C18.8009 20.8503 18.81 20.7589 18.8392 20.673C18.8683 20.5871 18.9166 20.509 18.9804 20.4445C19.0443 20.3801 19.1219 20.3311 19.2076 20.3012C19.2932 20.2712 19.3845 20.2612 19.4746 20.2719H21.0633C22.0416 20.2719 22.7992 20.5206 23.336 21.018C23.6148 21.2935 23.8313 21.6257 23.9707 21.992C24.1102 22.3583 24.1694 22.7503 24.1443 23.1415C24.1519 23.5592 24.0812 23.9747 23.936 24.3665C23.8076 24.7106 23.6012 25.0203 23.3329 25.2712C23.0562 25.524 22.7286 25.7148 22.3722 25.8308C21.949 25.9644 21.507 26.0285 21.0633 26.0204H19.4746C19.3853 26.0273 19.2957 26.0157 19.2111 25.9862C19.1266 25.9568 19.0491 25.9102 18.9834 25.8494ZM20.0777 24.9852H20.9825C21.2576 24.9909 21.5318 24.951 21.7939 24.867C22.0084 24.7987 22.2043 24.6817 22.366 24.525C22.5257 24.3664 22.6442 24.171 22.7111 23.956C22.79 23.6929 22.8277 23.4192 22.823 23.1446C22.844 22.8925 22.8135 22.6387 22.7333 22.3987C22.6531 22.1587 22.525 21.9375 22.3567 21.7487C22.1668 21.5853 21.9466 21.4612 21.7087 21.3833C21.4707 21.3054 21.2197 21.2753 20.97 21.2947H20.0777V24.9727V24.9852ZM32.3055 16.6312C32.2921 16.6824 32.2817 16.7343 32.2744 16.7867C32.2996 16.8344 32.3103 16.8884 32.3055 16.9421V27.5128C32.3055 28.1724 32.0435 28.8051 31.577 29.2715C31.1106 29.738 30.4779 30 29.8183 30H6.81156C6.15191 30 5.51927 29.738 5.05283 29.2715C4.58639 28.8051 4.32434 28.1724 4.32434 27.5128V16.9421C4.3195 16.8884 4.3303 16.8344 4.35543 16.7867C4.32723 16.7401 4.31623 16.6851 4.32434 16.6312V13.2113C4.31623 13.1574 4.32723 13.1024 4.35543 13.0558C4.27766 12.944 4.22466 12.8167 4.19998 12.6827L3.70254 9.29391C3.68506 9.1732 3.6926 9.0502 3.72469 8.93253C3.75678 8.81486 3.81274 8.70506 3.88908 8.60994C3.96041 8.50728 4.05272 8.42092 4.15991 8.35661C4.26711 8.29229 4.38673 8.2515 4.51088 8.23687L30.3468 4.50605C30.5933 4.47827 30.841 4.54689 31.038 4.69755C31.235 4.84822 31.3661 5.06925 31.4039 5.31438L31.9013 8.70322C31.9371 8.94627 31.8755 9.1936 31.73 9.39152C31.5845 9.58944 31.3667 9.72193 31.1241 9.76026L13.4649 12.2786H31.3728C31.6202 12.2786 31.8574 12.3769 32.0323 12.5518C32.2072 12.7267 32.3055 12.9639 32.3055 13.2113V16.6312ZM27.2067 13.5222L25.7144 16.3203H28.0462L29.5385 13.5222H27.2067ZM23.4759 13.5222L21.9836 16.3203H24.3153L25.8077 13.5222H23.4759ZM19.7451 13.5222L18.2527 16.3203H20.5845L22.0768 13.5222H19.7451ZM16.0143 13.5222L14.5219 16.3203H16.8537L18.346 13.5222H16.0143ZM12.2834 13.5222L10.7911 16.3203H13.1229L14.6152 13.5222H12.2834ZM7.06028 16.3203H9.39204L10.8844 13.5222H8.55261L7.06028 16.3203ZM7.18464 13.5222H5.56795V16.3203H5.69231L7.18464 13.5222ZM28.6369 5.99835L30.5334 8.54777H30.6266L30.2225 5.78074L28.6369 5.99835ZM24.9371 6.55799L26.8336 9.10737L29.1343 8.76539L27.2378 6.21601L24.9371 6.55799ZM21.2374 7.08651L23.1339 9.63593L25.4346 9.29391L23.5381 6.74452L21.2374 7.08651ZM17.5688 7.61507L19.4342 10.1644L21.7348 9.82246L19.8383 7.27304L17.5688 7.61507ZM13.869 8.14358L15.7655 10.693L18.0662 10.351L16.1697 7.8016L13.869 8.14358ZM10.1693 8.6721L12.0658 11.2215L14.3665 10.8795L12.47 8.33012L10.1693 8.6721ZM6.46956 9.20066L8.36607 11.75L10.6667 11.4081L8.77024 8.85867L6.46956 9.20066ZM5.38141 12.1853L6.96701 11.9677L5.07051 9.41827H4.97724L5.38141 12.1853ZM31.0619 17.5639H5.56795V27.5128C5.56795 27.8426 5.69897 28.1589 5.93219 28.3921C6.16541 28.6254 6.48173 28.7564 6.81156 28.7564H29.8183C30.1481 28.7564 30.4644 28.6254 30.6977 28.3921C30.9309 28.1589 31.0619 27.8426 31.0619 27.5128V17.5639ZM31.0619 13.5222H30.9686L29.4452 16.3203H31.0619V13.5222Z" fill="#69696F"/>
</svg>
