<svg width="36" height="36" viewBox="0 0 36 36" fill="none" xmlns="http://www.w3.org/2000/svg">
<path d="M32.773 16.1249L28.9079 12.6286V3.68333C28.9079 3.50258 28.8361 3.32923 28.7082 3.20142C28.5804 3.0736 28.407 3.00179 28.2262 3.00179H25.4995C25.3187 3.00179 25.1453 3.0736 25.0174 3.20142C24.8896 3.32923 24.8178 3.50258 24.8178 3.68333V8.92783L18.4577 3.17559C18.3324 3.06256 18.1697 3 18.0009 3C17.8322 3 17.6695 3.06256 17.5442 3.17559L3.22883 16.1249C3.09324 16.246 3.01131 16.416 3.00109 16.5975C2.99086 16.779 3.05316 16.9572 3.1743 17.0927C3.29543 17.2283 3.46546 17.3102 3.647 17.3204C3.82853 17.3307 4.00669 17.2684 4.14229 17.1473L7.09398 14.479V31.6369C7.09398 31.9984 7.23762 32.3451 7.4933 32.6007C7.74899 32.8564 8.09576 33 8.45735 33H14.5925C14.9541 33 15.3009 32.8564 15.5566 32.6007C15.8122 32.3451 15.9559 31.9984 15.9559 31.6369V24.8215H20.046V31.6369C20.046 31.9984 20.1896 32.3451 20.4453 32.6007C20.701 32.8564 21.0478 33 21.4094 33H27.5445C27.9061 33 28.2529 32.8564 28.5086 32.6007C28.7642 32.3451 28.9079 31.9984 28.9079 31.6369V14.479L31.8596 17.1473C31.9846 17.2609 32.1474 17.324 32.3163 17.3245C32.4545 17.3249 32.5896 17.2833 32.7036 17.2052C32.8176 17.1271 32.9052 17.0162 32.9547 16.8872C33.0042 16.7582 33.0134 16.6172 32.9809 16.4829C32.9485 16.3486 32.876 16.2273 32.773 16.1352V16.1249ZM26.1811 10.158V4.36488H27.5445V11.395L26.1811 10.1614V10.158ZM27.5445 31.6267H21.4094V24.8112C21.4094 24.4497 21.2657 24.103 21.01 23.8474C20.7544 23.5918 20.4076 23.4481 20.046 23.4481H15.9559C15.5943 23.4481 15.2475 23.5918 14.9918 23.8474C14.7362 24.103 14.5925 24.4497 14.5925 24.8112V31.6267H8.45735V13.225L18.0009 4.5898L27.5445 13.225V31.6267Z" fill="#69696F"/>
</svg>
