<svg width="36" height="36" viewBox="0 0 36 36" fill="none" xmlns="http://www.w3.org/2000/svg">
<path d="M28.9369 15.6424L18.2674 9.44675L20.9413 3L16.9891 8.70979L8.87605 4.00764C8.57909 3.80592 8.23378 3.68691 7.8756 3.66284C7.51741 3.63877 7.15928 3.7105 6.83801 3.87067C6.26083 4.19675 5.92822 4.87829 5.92822 5.72286V28.9761C5.92822 29.8207 6.25431 30.4957 6.83801 30.8283C7.09257 30.972 7.38047 31.0462 7.67279 31.0435C8.09785 31.0338 8.51287 30.9124 8.87605 30.6913L11.7619 29.0152L10.1804 33L13.8424 27.8153L28.9369 19.0565C29.2604 18.8977 29.536 18.6558 29.7354 18.3556C29.9347 18.0554 30.0508 17.7076 30.0717 17.3478C30.0717 16.6859 29.6576 16.0631 28.9369 15.6424ZM12.5608 27.0554L8.22387 29.5631C8.12178 29.6423 8.00212 29.6958 7.87498 29.7191C7.74785 29.7424 7.61699 29.7347 7.49344 29.6967C7.3304 29.6054 7.23583 29.3348 7.23583 28.9761V5.72286C7.23583 5.36416 7.3304 5.09348 7.49344 5.00218C7.55024 4.97071 7.6144 4.95495 7.67931 4.95652C7.87303 4.96956 8.06032 5.03126 8.22387 5.13589L16.2358 9.78589L9.20214 19.9565H15.3978L12.5608 27.0554ZM11.6902 18.6587L15.0521 13.8065L13.4413 17.6739H19.4021L15.5119 23.1881L17.325 18.6522L11.6902 18.6587ZM28.2815 17.9348L15.6456 25.2718L21.9195 16.3696H15.3978L17.7619 10.6663L28.2815 16.7707C28.5847 16.95 28.7674 17.1652 28.7674 17.3478C28.7674 17.5304 28.5847 17.7489 28.2815 17.9283V17.9348Z" fill="#69696F"/>
</svg>
