<svg width="21" height="20" viewBox="0 0 21 20" fill="none" xmlns="http://www.w3.org/2000/svg">
<rect x="0.5" width="20" height="20" rx="10" fill="#11100E"/>
<path fill-rule="evenodd" clip-rule="evenodd" d="M7.86 5.2C7.28713 5.2 6.73773 5.42757 6.33265 5.83265C5.92757 6.23773 5.7 6.78713 5.7 7.36V12.64C5.7 13.834 6.666 14.8 7.86 14.8H13.14C13.7129 14.8 14.2623 14.5724 14.6674 14.1674C15.0724 13.7623 15.3 13.2129 15.3 12.64V7.36C15.3 6.166 14.334 5.2 13.14 5.2H7.86ZM14.1803 6.31967C14.0397 6.17902 13.8489 6.1 13.65 6.1C13.4511 6.1 13.2603 6.17902 13.1197 6.31967C12.979 6.46032 12.9 6.65109 12.9 6.85C12.9 7.04891 12.979 7.23968 13.1197 7.38033C13.2603 7.52098 13.4511 7.6 13.65 7.6C13.8489 7.6 14.0397 7.52098 14.1803 7.38033C14.321 7.23968 14.4 7.04891 14.4 6.85C14.4 6.65109 14.321 6.46032 14.1803 6.31967ZM12.6213 7.87868C12.0587 7.31607 11.2956 7 10.5 7C9.70435 7 8.94129 7.31607 8.37868 7.87868C7.81607 8.44129 7.5 9.20435 7.5 10C7.5 10.7956 7.81607 11.5587 8.37868 12.1213C8.94129 12.6839 9.70435 13 10.5 13C11.2956 13 12.0587 12.6839 12.6213 12.1213C13.1839 11.5587 13.5 10.7956 13.5 10C13.5 9.20435 13.1839 8.44129 12.6213 7.87868Z" fill="white"/>
<path d="M10.5 8.2C10.0226 8.2 9.56477 8.38964 9.22721 8.72721C8.88964 9.06477 8.7 9.52261 8.7 10C8.7 10.4774 8.88964 10.9352 9.22721 11.2728C9.56477 11.6104 10.0226 11.8 10.5 11.8C10.9774 11.8 11.4352 11.6104 11.7728 11.2728C12.1104 10.9352 12.3 10.4774 12.3 10C12.3 9.52261 12.1104 9.06477 11.7728 8.72721C11.4352 8.38964 10.9774 8.2 10.5 8.2Z" fill="white"/>
<path fill-rule="evenodd" clip-rule="evenodd" d="M7.98 4H13.02C14.94 4 16.5 5.56 16.5 7.48V12.52C16.5 13.443 16.1334 14.3281 15.4807 14.9807C14.8281 15.6334 13.943 16 13.02 16H7.98C6.06 16 4.5 14.44 4.5 12.52V7.48C4.5 6.55705 4.86664 5.6719 5.51927 5.01927C6.1719 4.36664 7.05705 4 7.98 4ZM7.86 5.2C7.28713 5.2 6.73773 5.42757 6.33265 5.83265C5.92757 6.23773 5.7 6.78713 5.7 7.36V12.64C5.7 13.834 6.666 14.8 7.86 14.8H13.14C13.7129 14.8 14.2623 14.5724 14.6674 14.1674C15.0724 13.7623 15.3 13.2129 15.3 12.64V7.36C15.3 6.166 14.334 5.2 13.14 5.2H7.86Z" fill="white"/>
</svg>
