<svg width="24" height="25" viewBox="0 0 24 25" fill="none" xmlns="http://www.w3.org/2000/svg">
<path d="M18.5 20H14.5" stroke="#1D7B1E" stroke-width="1.5" stroke-linecap="round" stroke-linejoin="round"/>
<path d="M16.5 22V18" stroke="#1D7B1E" stroke-width="1.5" stroke-linecap="round" stroke-linejoin="round"/>
<path d="M12.1601 11.37C12.0601 11.36 11.9401 11.36 11.8301 11.37C9.4501 11.29 7.5601 9.34 7.5601 6.94C7.5501 4.49 9.5401 2.5 11.9901 2.5C14.4401 2.5 16.4301 4.49 16.4301 6.94C16.4301 9.34 14.5301 11.29 12.1601 11.37Z" stroke="#1D7B1E" stroke-width="1.5" stroke-linecap="round" stroke-linejoin="round"/>
<path d="M11.99 22.3097C10.17 22.3097 8.36004 21.8497 6.98004 20.9297C4.56004 19.3097 4.56004 16.6697 6.98004 15.0597C9.73004 13.2197 14.24 13.2197 16.99 15.0597" stroke="#1D7B1E" stroke-width="1.5" stroke-linecap="round" stroke-linejoin="round"/>
</svg>
