<svg width="21" height="20" viewBox="0 0 21 20" fill="none" xmlns="http://www.w3.org/2000/svg">
<rect x="0.5" width="20" height="20" rx="10" fill="#11100E"/>
<path d="M7.01836 6.16982C7.0182 6.47993 6.88537 6.77727 6.64911 6.99643C6.41285 7.2156 6.09251 7.33864 5.75855 7.33848C5.4246 7.33833 5.10438 7.21499 4.86836 6.9956C4.63234 6.77622 4.49983 6.47876 4.5 6.16866C4.50017 5.85855 4.63299 5.56121 4.86925 5.34205C5.10551 5.12288 5.42586 4.99985 5.75981 5C6.09377 5.00016 6.41398 5.12349 6.65 5.34288C6.88603 5.56226 7.01853 5.85972 7.01836 6.16982ZM7.05614 8.2043H4.53778V15.5237H7.05614V8.2043ZM11.0352 8.2043H8.52938V15.5237H11.01V11.6828C11.01 9.54308 14.0131 9.34431 14.0131 11.6828V15.5237H16.5V10.8877C16.5 7.2806 12.0551 7.41507 11.01 9.18646L11.0352 8.2043Z" fill="white"/>
</svg>
