<svg width="36" height="36" viewBox="0 0 36 36" fill="none" xmlns="http://www.w3.org/2000/svg">
<path d="M32.9962 14.5197L32.9766 14.4218V14.3729C32.9766 14.3305 32.9603 14.2847 32.9538 14.2423C31.476 5.45072 23.3923 3.38574 21.7971 3.06279L21.6601 3.03674L21.4904 3.00735C21.4299 2.99755 21.3682 2.99755 21.3077 3.00735C20.962 2.99508 20.6174 3.05393 20.2954 3.18018C19.9733 3.30643 19.6805 3.4974 19.4352 3.74135C19.1556 4.02417 18.9457 4.36818 18.8219 4.74613C18.7921 4.79808 18.7702 4.85415 18.7567 4.91251L16.1763 15.3515L3.78974 28.2926C3.40478 28.6792 3.143 29.1711 3.03748 29.7063C2.93195 30.2415 2.98742 30.796 3.19686 31.2997C3.40631 31.8035 3.76034 32.2338 4.21424 32.5364C4.66813 32.8391 5.20153 33.0003 5.74706 33C6.10688 33.0017 6.46345 32.9319 6.79609 32.7947C7.12873 32.6575 7.43081 32.4556 7.6848 32.2007L20.6618 19.8044L31.1008 17.2208C31.1455 17.2079 31.1892 17.1915 31.2313 17.1718C31.7607 17.0117 32.2224 16.6812 32.5445 16.2317C32.8666 15.7821 33.0311 15.2388 33.0125 14.686C33.0144 14.6301 33.009 14.5742 32.9962 14.5197ZM6.76812 31.2808C6.6335 31.4163 6.4734 31.5239 6.29705 31.5973C6.12069 31.6707 5.93155 31.7085 5.74053 31.7085C5.54951 31.7085 5.36038 31.6707 5.18402 31.5973C5.00766 31.5239 4.84756 31.4163 4.71294 31.2808C4.43943 31.0068 4.28581 30.6355 4.28581 30.2484C4.28581 29.8612 4.43943 29.4899 4.71294 29.2159L13.56 19.9512L16.0328 22.4207L6.76812 31.2808ZM16.9886 21.5268L14.4702 19.0052L16.7537 16.6009L19.383 19.227L16.9886 21.5268ZM31.3422 15.6549C31.183 15.8141 30.9834 15.9268 30.7648 15.9811C30.7269 15.9912 30.6898 16.0043 30.6539 16.0202L20.5411 18.5256L20.1366 18.1211L24.6189 15.146C24.7633 15.0504 24.8639 14.9013 24.8985 14.7315C24.9331 14.5617 24.8988 14.3852 24.8032 14.2407C24.7076 14.0963 24.5585 13.9957 24.3887 13.9611C24.219 13.9266 24.0424 13.9608 23.8979 14.0565L19.1938 17.1783L18.8383 16.8228L21.9602 12.1186C22.0118 12.0474 22.0484 11.9666 22.068 11.8808C22.0875 11.7951 22.0895 11.7063 22.0739 11.6198C22.0582 11.5332 22.0252 11.4507 21.9769 11.3772C21.9286 11.3038 21.8659 11.2409 21.7926 11.1922C21.7193 11.1436 21.637 11.1104 21.5505 11.0944C21.4641 11.0784 21.3753 11.0799 21.2894 11.0991C21.2036 11.1183 21.1226 11.1547 21.0512 11.206C20.9797 11.2573 20.9194 11.3225 20.8739 11.3977L17.8987 15.88L17.491 15.4755L19.9833 5.39204C20.0074 5.34805 20.025 5.30082 20.0355 5.25179C20.1023 4.96465 20.2719 4.71188 20.5123 4.54121C20.7527 4.37053 21.0472 4.29372 21.3404 4.32529H21.4056H21.4317L21.5198 4.34162C22.9812 4.63848 30.3277 6.51418 31.6619 14.4739C31.6635 14.4848 31.6635 14.4958 31.6619 14.5066C31.6635 14.5316 31.6635 14.5566 31.6619 14.5816V14.6045V14.6664C31.6825 14.845 31.6633 15.0259 31.6058 15.1962C31.5483 15.3665 31.4538 15.5221 31.3292 15.6516L31.3422 15.6549ZM7.55105 10.8268C7.82181 10.8268 10.1608 10.9247 10.1608 13.4366C10.1608 13.6096 10.2295 13.7756 10.3519 13.898C10.4743 14.0203 10.6402 14.089 10.8132 14.089C10.9863 14.089 11.1522 14.0203 11.2746 13.898C11.3969 13.7756 11.4657 13.6096 11.4657 13.4366C11.4657 13.1658 11.5636 10.8268 14.0754 10.8268C14.2485 10.8268 14.4144 10.7581 14.5368 10.6358C14.6591 10.5134 14.7279 10.3474 14.7279 10.1744C14.7279 10.0014 14.6591 9.83545 14.5368 9.7131C14.4144 9.59074 14.2485 9.52195 14.0754 9.52195C13.8047 9.52195 11.4657 9.42409 11.4657 6.91219C11.4657 6.73916 11.3969 6.57326 11.2746 6.4509C11.1522 6.32854 10.9863 6.25975 10.8132 6.25975C10.6402 6.25975 10.4743 6.32854 10.3519 6.4509C10.2295 6.57326 10.1608 6.73916 10.1608 6.91219C10.1608 7.01658 10.1314 9.52195 7.55105 9.52195C7.37801 9.52195 7.21206 9.59074 7.08971 9.7131C6.96735 9.83545 6.89861 10.0014 6.89861 10.1744C6.89861 10.3474 6.96735 10.5134 7.08971 10.6358C7.21206 10.7581 7.37801 10.8268 7.55105 10.8268ZM10.8132 9.19573C11.0802 9.58116 11.4247 9.90667 11.8245 10.1515C11.4319 10.4147 11.0986 10.7569 10.8459 11.1563C10.5832 10.7656 10.2435 10.4326 9.84764 10.1777C10.2247 9.91598 10.5462 9.58226 10.7937 9.19573H10.8132ZM30.7355 24.5281C30.5756 24.5281 26.8208 24.4856 26.8208 20.6134C26.8208 20.4404 26.7521 20.2745 26.6298 20.1521C26.5074 20.0298 26.3414 19.961 26.1684 19.961C25.9954 19.961 25.8294 20.0298 25.7071 20.1521C25.5847 20.2745 25.516 20.4404 25.516 20.6134C25.516 20.7733 25.4703 24.5281 21.6013 24.5281C21.4283 24.5281 21.2623 24.5968 21.14 24.7192C21.0176 24.8416 20.9489 25.0075 20.9489 25.1805C20.9489 25.3535 21.0176 25.5195 21.14 25.6419C21.2623 25.7642 21.4283 25.8329 21.6013 25.8329C22.3067 25.8637 22.9978 26.0415 23.6304 26.3549C24.8831 27.0074 25.5192 28.1393 25.5192 29.7508C25.5192 29.9239 25.588 30.0899 25.7103 30.2122C25.8327 30.3346 25.9986 30.4033 26.1717 30.4033C26.3447 30.4033 26.5107 30.3346 26.633 30.2122C26.7554 30.0899 26.8241 29.9239 26.8241 29.7508C26.8241 29.591 26.8665 25.8362 30.7387 25.8362C30.9118 25.8362 31.0777 25.7675 31.2001 25.6451C31.3224 25.5228 31.3912 25.3568 31.3912 25.1838C31.3912 25.0107 31.3224 24.8448 31.2001 24.7225C31.0777 24.6001 30.9118 24.5313 30.7387 24.5313L30.7355 24.5281ZM26.1945 27.0726C25.7538 26.2784 25.0889 25.6317 24.2829 25.2131C25.0782 24.7689 25.7207 24.0945 26.126 23.2786C26.5736 24.0851 27.2564 24.736 28.0833 25.1447C27.2694 25.583 26.6049 26.2543 26.1749 27.0726H26.1945Z" fill="#69696F"/>
</svg>
