<svg width="24" height="24" viewBox="0 0 24 24" fill="none" xmlns="http://www.w3.org/2000/svg">
<g clip-path="url(#clip0_6321_30922)">
<path d="M12 2C6.486 2 2 6.486 2 12C2 17.514 6.486 22 12 22C17.514 22 22 17.514 22 12C22 6.486 17.514 2 12 2ZM12 20.667C7.221 20.667 3.333 16.779 3.333 12C3.333 7.221 7.221 3.333 12 3.333C16.779 3.333 20.667 7.221 20.667 12C20.667 16.779 16.779 20.667 12 20.667Z" fill="#69696F"/>
<path d="M15.4024 8.59502C15.1424 8.33502 14.7204 8.33502 14.4594 8.59502L11.9984 11.057L9.53644 8.59502C9.27644 8.33502 8.85444 8.33502 8.59344 8.59502C8.33344 8.85502 8.33344 9.27702 8.59344 9.53802L11.0554 12L8.59344 14.462C8.33344 14.722 8.33344 15.144 8.59344 15.405C8.72344 15.535 8.89444 15.6 9.06444 15.6C9.23544 15.6 9.40544 15.535 9.53544 15.405L11.9984 12.943L14.4604 15.405C14.5904 15.535 14.7614 15.6 14.9314 15.6C15.1024 15.6 15.2724 15.535 15.4024 15.405C15.6624 15.145 15.6624 14.723 15.4024 14.462L12.9414 12L15.4034 9.53802C15.6634 9.27802 15.6634 8.85602 15.4024 8.59502Z" fill="#69696F"/>
</g>
<defs>
<clipPath id="clip0_6321_30922">
<rect width="24" height="24" fill="white"/>
</clipPath>
</defs>
</svg>
