<svg width="80" height="80" viewBox="0 0 80 80" fill="none" xmlns="http://www.w3.org/2000/svg">
<circle cx="40" cy="40" r="31" stroke="#DCDCDC" stroke-width="2"/>
<path d="M40 45.0001C45.5229 45.0001 50 40.523 50 35.0001C50 29.4773 45.5229 25.0001 40 25.0001C34.4772 25.0001 30 29.4773 30 35.0001C30 40.523 34.4772 45.0001 40 45.0001Z" fill="#DCDCDC"/>
<path d="M40.0001 49.9998C29.9801 49.9998 21.8201 56.7198 21.8201 64.9998C21.8201 65.5598 22.2601 65.9998 22.8201 65.9998C22.8201 65.9998 33.0933 70.2 40.0001 70.2C46.9069 70.2 57.1801 65.9998 57.1801 65.9998C57.7401 65.9998 58.1801 65.5598 58.1801 64.9998C58.1801 56.7198 50.0201 49.9998 40.0001 49.9998Z" fill="#DCDCDC"/>
</svg>
