<svg width="36" height="36" viewBox="0 0 36 36" fill="none" xmlns="http://www.w3.org/2000/svg">
<rect width="36" height="36" rx="6" fill="white"/>
<path d="M26 14.6486V26C26 27.1046 25.1046 28 24 28H12C10.8954 28 10 27.1046 10 26V10C10 8.89543 10.8954 8 12 8H20.2162M26 14.6486L20.2162 8M26 14.6486H22.2162C21.1116 14.6486 20.2162 13.7532 20.2162 12.6486V8" stroke="#69696F" stroke-width="1.5" stroke-linecap="round" stroke-linejoin="round"/>
<rect x="7" y="17" width="15" height="8" rx="1" fill="#69696F"/>
<path d="M8.4304 23V18.6364H10.0668C10.402 18.6364 10.6832 18.6989 10.9105 18.8239C11.1392 18.9489 11.3118 19.1207 11.4283 19.3395C11.5462 19.5568 11.6051 19.804 11.6051 20.081C11.6051 20.3608 11.5462 20.6094 11.4283 20.8267C11.3104 21.044 11.1364 21.2152 10.9062 21.3402C10.6761 21.4638 10.3928 21.5256 10.0561 21.5256H8.97159V20.8757H9.94957C10.1456 20.8757 10.3061 20.8416 10.4311 20.7734C10.5561 20.7053 10.6484 20.6115 10.7081 20.4922C10.7692 20.3729 10.7997 20.2358 10.7997 20.081C10.7997 19.9261 10.7692 19.7898 10.7081 19.6719C10.6484 19.554 10.5554 19.4624 10.429 19.397C10.304 19.3303 10.1428 19.2969 9.94531 19.2969H9.22088V23H8.4304ZM15.8777 18.6364V23H15.1745L13.1184 20.0277H13.0822V23H12.2917V18.6364H12.9991L15.0531 21.6108H15.0914V18.6364H15.8777ZM19.6623 20.0298C19.6268 19.9148 19.5778 19.8118 19.5153 19.7209C19.4542 19.6286 19.3803 19.5497 19.2937 19.4844C19.2085 19.419 19.1104 19.37 18.9996 19.3374C18.8888 19.3033 18.7681 19.2862 18.6374 19.2862C18.4031 19.2862 18.1942 19.3452 18.011 19.4631C17.8278 19.581 17.6836 19.7543 17.5785 19.983C17.4748 20.2102 17.4229 20.4872 17.4229 20.8139C17.4229 21.1435 17.4748 21.4226 17.5785 21.6513C17.6822 21.88 17.8263 22.054 18.011 22.1733C18.1957 22.2912 18.4102 22.3501 18.6545 22.3501C18.8761 22.3501 19.0678 22.3075 19.2298 22.2223C19.3931 22.1371 19.5188 22.0163 19.6069 21.8601C19.695 21.7024 19.739 21.5178 19.739 21.3061L19.918 21.3338H18.7333V20.7159H20.5039V21.2401C20.5039 21.6136 20.4244 21.9368 20.2653 22.2095C20.1062 22.4822 19.8874 22.6925 19.609 22.8402C19.3306 22.9865 19.011 23.0597 18.6502 23.0597C18.2482 23.0597 17.8952 22.9695 17.5913 22.7891C17.2887 22.6072 17.0522 22.3494 16.8817 22.0156C16.7127 21.6804 16.6282 21.2827 16.6282 20.8224C16.6282 20.4702 16.6779 20.1555 16.7773 19.8786C16.8782 19.6016 17.0188 19.3665 17.1992 19.1733C17.3796 18.9787 17.5913 18.831 17.8342 18.7301C18.0771 18.6278 18.3413 18.5767 18.6268 18.5767C18.8683 18.5767 19.0934 18.6122 19.3022 18.6832C19.511 18.7528 19.6964 18.8523 19.8583 18.9815C20.0217 19.1108 20.1559 19.2642 20.261 19.4418C20.3661 19.6193 20.435 19.8153 20.4677 20.0298H19.6623Z" fill="white"/>
</svg>
