<?xml version="1.0" encoding="utf-8"?>
<!-- Generator: Adobe Illustrator 28.0.0, SVG Export Plug-In . SVG Version: 6.00 Build 0)  -->
<svg version="1.1" id="Layer_1" xmlns="http://www.w3.org/2000/svg" xmlns:xlink="http://www.w3.org/1999/xlink" x="0px" y="0px"
	 viewBox="0 0 24 24" style="enable-background:new 0 0 24 24;" xml:space="preserve">
<style type="text/css">
	.st0{fill:#323232;}
</style>
<g>
	<path class="st0" d="M11.357,8.667c-2.218,0-4.023,1.805-4.023,4.023s1.805,4.023,4.023,4.023c0.869,0,1.672-0.28,2.33-0.75
		l1.842,1.842C15.659,17.935,15.83,18,16,18c0.171,0,0.341-0.065,0.471-0.195c0.26-0.26,0.26-0.682,0-0.943L14.63,15.02
		c0.47-0.658,0.75-1.461,0.75-2.33C15.38,10.472,13.575,8.667,11.357,8.667z M8.667,12.69c0-1.483,1.207-2.69,2.69-2.69
		s2.69,1.207,2.69,2.69s-1.207,2.689-2.69,2.689C9.873,15.38,8.667,14.173,8.667,12.69z"/>
	<path class="st0" d="M19.519,6.625C19.47,6.548,19.413,6.47,19.333,6.39L15.61,2.667c-0.001-0.001-0.002-0.002-0.003-0.003
		c-0.079-0.078-0.156-0.135-0.231-0.183C14.983,2.197,14.452,2,14,2H5.333C4.598,2,4,2.598,4,3.333v17.333
		C4,21.402,4.598,22,5.333,22h13.333C19.402,22,20,21.402,20,20.667V8C20,7.549,19.804,7.017,19.519,6.625z M17.723,6.667h-2.39
		l0.001-2.39L17.723,6.667z M18.667,20.667H5.333V3.333H14v3.333C14,7.402,14.598,8,15.333,8h3.333L18.667,20.667L18.667,20.667z"/>
</g>
</svg>
