<?xml version="1.0" encoding="utf-8"?>
<!-- Generator: Adobe Illustrator 28.0.0, SVG Export Plug-In . SVG Version: 6.00 Build 0)  -->
<svg version="1.1" id="Layer_1" xmlns="http://www.w3.org/2000/svg" xmlns:xlink="http://www.w3.org/1999/xlink" x="0px" y="0px"
	 viewBox="0 0 24 24" style="enable-background:new 0 0 24 24;" xml:space="preserve">
<style type="text/css">
	.st0{fill:#323232;}
</style>
<g>
	<path class="st0" d="M14.205,12.827l-1.538,1.476V9.467C12.667,9.099,12.368,8.8,12,8.8s-0.667,0.299-0.667,0.667v4.836
		l-1.538-1.476c-0.266-0.255-0.688-0.245-0.943,0.02c-0.255,0.266-0.246,0.688,0.02,0.943l2.667,2.558
		c0.129,0.124,0.295,0.186,0.462,0.186c0.166,0,0.333-0.062,0.462-0.186l2.667-2.558c0.266-0.255,0.274-0.677,0.02-0.943
		C14.893,12.581,14.47,12.573,14.205,12.827z"/>
	<path class="st0" d="M16.89,8.671C15.942,6.256,13.635,4.667,11,4.667c-3.492,0-6.333,2.841-6.333,6.333c0,0.001,0,0.002,0,0.003
		C3.073,11.668,2,13.242,2,15c0,2.389,1.944,4.333,4.333,4.333h10.333C19.607,19.333,22,16.941,22,14
		C22,11.134,19.728,8.789,16.89,8.671z M16.667,18H6.333c-1.654,0-3-1.346-3-3c0-1.343,0.905-2.531,2.201-2.888
		c0.309-0.085,0.513-0.378,0.487-0.697C6.01,11.278,6,11.14,6,11c0-2.757,2.243-5,5-5c2.215,0,4.137,1.423,4.782,3.54
		c0.09,0.294,0.364,0.492,0.675,0.471l0.084-0.006C16.582,10.003,16.624,10,16.667,10c2.206,0,4,1.794,4,4S18.872,18,16.667,18z"/>
</g>
</svg>
