<svg width="24" height="25" viewBox="0 0 24 25" fill="none" xmlns="http://www.w3.org/2000/svg">
<circle cx="12" cy="17" r="0.6" fill="#69696F" stroke="#69696F" stroke-width="0.2"/>
<path d="M12 14.5V14.065C12 13.5121 12.3048 13.0041 12.7927 12.7439L13.3971 12.4216C14.0759 12.0595 14.5 11.3527 14.5 10.5833V10.5833C14.5 9.43274 13.5673 8.5 12.4167 8.5H11.5C10.3954 8.5 9.5 9.39543 9.5 10.5V10.5" stroke="#69696F" stroke-width="1.2" stroke-linecap="round"/>
<path d="M12 4.5C7.5888 4.5 4 8.0888 4 12.5C4 16.9112 7.5888 20.5 12 20.5C16.4112 20.5 20 16.9112 20 12.5C20 8.0888 16.4112 4.5 12 4.5ZM12 19.7C8.0304 19.7 4.8 16.4704 4.8 12.5C4.8 8.5304 8.0304 5.3 12 5.3C15.9704 5.3 19.2 8.5304 19.2 12.5C19.2 16.4704 15.9704 19.7 12 19.7Z" fill="#69696F"/>
</svg>
