<svg width="36" height="36" viewBox="0 0 36 36" fill="none" xmlns="http://www.w3.org/2000/svg">
<path d="M14.7857 23.1079C14.6973 22.9262 14.5619 22.7716 14.3934 22.66C14.3173 22.6133 14.2347 22.578 14.1482 22.5554C14.2425 22.5296 14.3344 22.4956 14.4229 22.454C14.6746 22.3415 14.8857 22.1543 15.0277 21.9179C15.1706 21.6638 15.2418 21.3757 15.2336 21.0842C15.2455 20.8694 15.2104 20.6546 15.1308 20.4548C15.0511 20.2549 14.929 20.0748 14.7727 19.9269C14.4039 19.6301 13.9374 19.482 13.465 19.5117H11.7094C11.62 19.506 11.5303 19.518 11.4455 19.5472C11.3608 19.5764 11.2827 19.6221 11.2157 19.6817C11.1536 19.7484 11.1061 19.8274 11.0762 19.9135C11.0464 19.9996 11.0349 20.0911 11.0425 20.1819V23.9317C11.0319 24.1122 11.093 24.2896 11.2125 24.4254C11.2777 24.4869 11.355 24.5342 11.4393 24.5646C11.5237 24.595 11.6134 24.6077 11.7029 24.6019C11.7909 24.6077 11.8791 24.595 11.9619 24.5646C12.0446 24.5342 12.1201 24.4868 12.1834 24.4254C12.3005 24.2884 12.3602 24.1116 12.3502 23.9317V22.6567H12.7425C12.8471 22.6558 12.9507 22.677 13.0465 22.7189C13.1392 22.7633 13.215 22.8368 13.2623 22.9281L13.9161 24.1311C13.9896 24.2731 14.0961 24.3953 14.2267 24.4875C14.3607 24.5679 14.5152 24.6076 14.6713 24.6019C14.8261 24.6152 14.9802 24.5697 15.1029 24.4744C15.1487 24.4329 15.1857 24.3825 15.2115 24.3263C15.2374 24.2702 15.2516 24.2093 15.2532 24.1475C15.2566 24.0044 15.218 23.8635 15.1421 23.7421L14.7857 23.1079ZM13.2198 21.7315H12.3502V20.5154H13.2198C13.4219 20.501 13.623 20.5539 13.7919 20.6658C13.8594 20.721 13.9126 20.7918 13.9467 20.8721C13.9809 20.9524 13.9951 21.0398 13.9881 21.1267C13.9948 21.2127 13.9805 21.2991 13.9463 21.3783C13.9121 21.4575 13.8591 21.5271 13.7919 21.5811C13.623 21.693 13.4219 21.7459 13.2198 21.7315ZM18.9802 19.9792C18.9082 19.8171 18.7956 19.6764 18.6532 19.5706C18.5296 19.4819 18.3804 19.436 18.2282 19.4398C18.0741 19.436 17.9228 19.4819 17.7967 19.5706C17.6536 19.6756 17.5408 19.8166 17.4698 19.9792L15.7109 23.7977C15.6495 23.9245 15.6279 24.067 15.6488 24.2063C15.6695 24.3226 15.7353 24.426 15.8319 24.494C15.9416 24.5685 16.0721 24.6062 16.2046 24.6019C16.3535 24.6121 16.5008 24.5654 16.6165 24.4712C16.7297 24.3484 16.8165 24.2038 16.8715 24.0462L17.1004 23.5198H19.3529L19.5784 24.0462C19.6391 24.2054 19.7339 24.3493 19.8563 24.4679C19.9788 24.5617 20.1305 24.6092 20.2846 24.6019C20.4136 24.6067 20.5408 24.57 20.6475 24.4973C20.6945 24.4638 20.7342 24.4209 20.764 24.3714C20.7938 24.322 20.8131 24.2669 20.8207 24.2096C20.8401 24.0678 20.8138 23.9235 20.7456 23.7977L18.9802 19.9792ZM18.2315 20.8783L18.9148 22.5129H17.5352L18.2315 20.8783ZM28.134 19.6687C28.1844 19.7499 28.2135 19.8424 28.2186 19.9379C28.2238 20.0333 28.2048 20.1285 28.1634 20.2146L26.774 24.0887C26.7253 24.2396 26.636 24.3742 26.5158 24.4777C26.3883 24.5589 26.2403 24.602 26.0891 24.602C25.938 24.602 25.79 24.5589 25.6625 24.4777C25.5405 24.3737 25.4519 24.2361 25.4075 24.0821L24.4921 21.5092L23.5571 24.0887C23.5083 24.2387 23.4202 24.373 23.3021 24.4777C23.1783 24.568 23.0267 24.612 22.8738 24.6019C22.7213 24.6088 22.5707 24.5652 22.4456 24.4777C22.3214 24.3738 22.2295 24.2365 22.1807 24.0821L20.7946 20.2146C20.7571 20.1268 20.7417 20.0311 20.7496 19.936C20.7576 19.8408 20.7888 19.749 20.8404 19.6687C20.9026 19.5877 20.9846 19.5241 21.0785 19.4841C21.1724 19.444 21.275 19.4287 21.3765 19.4398C21.5276 19.4322 21.6767 19.4773 21.7982 19.5673C21.9102 19.6748 21.9914 19.8102 22.0336 19.9596L22.9359 22.6665L23.8971 19.9596C23.9443 19.8085 24.0299 19.6722 24.1456 19.564C24.2556 19.4788 24.3922 19.4348 24.5313 19.4398C24.6676 19.4337 24.8015 19.4779 24.9073 19.564C25.0198 19.675 25.1011 19.8137 25.1427 19.9661L26.0809 22.7515L27.0257 19.9694C27.0669 19.8203 27.147 19.6849 27.2579 19.5771C27.3738 19.4859 27.5193 19.4406 27.6665 19.4496C27.7567 19.4426 27.8472 19.459 27.9292 19.4974C28.0111 19.5358 28.0817 19.5948 28.134 19.6687ZM31.0763 12.5385H29.7686V11.5577C29.7686 11.0375 29.562 10.5385 29.1941 10.1707C28.8263 9.8028 28.3273 9.59615 27.8071 9.59615H16.3092L12.9027 6.19287C12.7806 6.07009 12.6148 6.00073 12.4417 6H4.92248C4.40224 6 3.90332 6.20665 3.53546 6.57451C3.1676 6.94237 2.96094 7.44131 2.96094 7.96154V29.2115C2.96094 29.8185 3.20204 30.4006 3.63121 30.8297C4.06038 31.2589 4.64246 31.5 5.2494 31.5H31.0763C31.5966 31.5 32.0955 31.2933 32.4633 30.9255C32.8312 30.5576 33.0379 30.0587 33.0379 29.5385V14.5C33.0379 13.9798 32.8312 13.4808 32.4633 13.113C32.0955 12.7451 31.5966 12.5385 31.0763 12.5385ZM6.23017 14.5V29.2115C6.23017 29.4717 6.12684 29.7211 5.94291 29.9051C5.75898 30.089 5.50952 30.1923 5.2494 30.1923C4.98928 30.1923 4.73982 30.089 4.55589 29.9051C4.37196 29.7211 4.26863 29.4717 4.26863 29.2115V7.96154C4.26863 7.78813 4.33752 7.62181 4.46014 7.49919C4.58276 7.37657 4.74907 7.30769 4.92248 7.30769H12.1704L15.5769 10.7142C15.6995 10.8358 15.8652 10.904 16.0379 10.9038H27.8071C27.9805 10.9038 28.1468 10.9727 28.2694 11.0953C28.3921 11.218 28.4609 11.3843 28.4609 11.5577V12.5385H8.19171C7.67148 12.5385 7.17255 12.7451 6.80469 13.113C6.43683 13.4808 6.23017 13.9798 6.23017 14.5ZM31.7302 29.5385C31.7302 29.7119 31.6613 29.8782 31.5387 30.0008C31.416 30.1234 31.2497 30.1923 31.0763 30.1923H7.31555C7.46146 29.8859 7.5374 29.5509 7.53786 29.2115V14.5C7.53786 14.3266 7.60675 14.1603 7.72937 14.0377C7.85199 13.915 8.0183 13.8462 8.19171 13.8462H31.0763C31.2497 13.8462 31.416 13.915 31.5387 14.0377C31.6613 14.1603 31.7302 14.3266 31.7302 14.5V29.5385Z" fill="#69696F"/>
</svg>
