<svg width="24" height="24" viewBox="0 0 24 24" fill="none" xmlns="http://www.w3.org/2000/svg">
<path d="M12 2C6.486 2 2 6.486 2 12C2 17.514 6.486 22 12 22C17.514 22 22 17.514 22 12C22 6.486 17.514 2 12 2ZM12 20.667C7.221 20.667 3.333 16.779 3.333 12C3.333 7.221 7.221 3.333 12 3.333C16.779 3.333 20.667 7.221 20.667 12C20.667 16.779 16.779 20.667 12 20.667Z" fill="#9F1616"/>
<path d="M15.4024 8.59344C15.1424 8.33344 14.7204 8.33344 14.4594 8.59344L11.9984 11.0554L9.53644 8.59344C9.27644 8.33344 8.85444 8.33344 8.59344 8.59344C8.33344 8.85344 8.33344 9.27544 8.59344 9.53644L11.0554 11.9984L8.59344 14.4604C8.33344 14.7204 8.33344 15.1424 8.59344 15.4034C8.72344 15.5334 8.89444 15.5984 9.06444 15.5984C9.23544 15.5984 9.40544 15.5334 9.53544 15.4034L11.9984 12.9414L14.4604 15.4034C14.5904 15.5334 14.7614 15.5984 14.9314 15.5984C15.1024 15.5984 15.2724 15.5334 15.4024 15.4034C15.6624 15.1434 15.6624 14.7214 15.4024 14.4604L12.9414 11.9984L15.4034 9.53644C15.6634 9.27644 15.6634 8.85444 15.4024 8.59344Z" fill="#9F1616"/>
</svg>
