<svg width="36" height="36" viewBox="0 0 36 36" fill="none" xmlns="http://www.w3.org/2000/svg">
<path d="M33.0107 3.65263C33.0107 3.47954 32.942 3.31359 32.8196 3.1912C32.6972 3.06881 32.5312 3 32.3581 3C32.0057 3 23.6945 3.05548 18.927 7.82294L16.075 10.6782L10.9682 11.3308C10.826 11.3499 10.6942 11.4153 10.5929 11.5168L5.72756 16.3789C5.64423 16.463 5.58533 16.5681 5.55717 16.6831C5.529 16.798 5.53263 16.9185 5.56766 17.0315C5.60347 17.1455 5.66987 17.2475 5.75964 17.3263C5.8494 17.4051 5.95907 17.4578 6.07671 17.4786L9.31376 18.0497C9.34372 18.1139 9.38457 18.1724 9.43449 18.2226L10.433 19.2244L8.21081 20.4481C8.12312 20.4975 8.04803 20.5665 7.99142 20.6497C7.93482 20.7329 7.89822 20.8281 7.8845 20.9278C7.87019 21.0284 7.87956 21.1309 7.91185 21.2272C7.94414 21.3235 7.99846 21.4109 8.0705 21.4825L14.5544 27.9696C14.6767 28.091 14.8421 28.159 15.0145 28.1589H15.1091C15.2094 28.1457 15.3052 28.1093 15.389 28.0526C15.4728 27.996 15.5423 27.9207 15.5921 27.8326L16.7962 25.594L17.7979 26.5958C17.8487 26.6452 17.9071 26.686 17.9709 26.7166L18.5419 29.9536C18.5632 30.0708 18.616 30.1799 18.6948 30.2692C18.7736 30.3585 18.8752 30.4245 18.9888 30.4601C19.1024 30.4957 19.2236 30.4995 19.3392 30.4712C19.4549 30.4429 19.5606 30.3836 19.6449 30.2996L24.5102 25.4374C24.6106 25.3357 24.6748 25.2039 24.693 25.0622L25.3456 19.9554L28.1976 17.1001C32.9553 12.3164 33.0107 4.00505 33.0107 3.65263ZM14.8317 26.4262L9.58786 21.1823L11.3989 20.2034L15.8042 24.6119L14.8317 26.4262ZM30.8212 9.53283L26.4844 5.18964C28.1836 4.72863 29.9253 4.44213 31.6826 4.33466C31.574 6.09229 31.2853 7.83412 30.8212 9.53283ZM11.3565 12.61L14.5609 12.1923L9.90439 16.8489L7.5386 16.4279L11.3565 12.61ZM17.0735 24.0311L11.9765 18.9372L10.8213 17.7788L11.5196 17.0838L18.9335 24.4977L18.2352 25.1959L17.0735 24.0311ZM23.404 24.651L19.5829 28.4722L19.1652 26.1031L23.8217 21.4466L23.404 24.651ZM24.2557 19.1689L19.8537 23.5709L12.4529 16.1701L14.7697 13.8532L19.8635 8.75624C21.3535 7.34613 23.1362 6.28206 25.0846 5.63992L30.3806 10.9491C29.7426 12.8993 28.678 14.6828 27.2643 16.1701L24.2557 19.1689ZM19.8537 11.0633C19.1787 11.7383 18.7994 12.6538 18.7994 13.6085C18.7994 14.5632 19.1787 15.4787 19.8537 16.1538C20.5288 16.8288 21.4443 17.2081 22.399 17.2081C23.3536 17.2081 24.2692 16.8288 24.9442 16.1538C25.2797 15.8202 25.5459 15.4236 25.7275 14.9868C25.9092 14.55 26.0027 14.0816 26.0027 13.6085C26.0027 13.1354 25.9092 12.6671 25.7275 12.2303C25.5459 11.7935 25.2797 11.3969 24.9442 11.0633C24.6105 10.7281 24.2137 10.4621 23.7768 10.2807C23.3398 10.0994 22.8714 10.0061 22.3983 10.0064C21.9252 10.0068 21.4569 10.1006 21.0202 10.2825C20.5835 10.4644 20.1871 10.7309 19.8537 11.0666V11.0633ZM24.024 15.2304C23.6501 15.6028 23.1589 15.8342 22.6336 15.8854C22.1084 15.9366 21.5817 15.8043 21.1429 15.5111C20.7042 15.2179 20.3805 14.7818 20.2268 14.277C20.0732 13.7721 20.0991 13.2297 20.3001 12.7418C20.5011 12.2539 20.8649 11.8506 21.3295 11.6005C21.7942 11.3504 22.3312 11.269 22.8491 11.3699C23.3671 11.4709 23.8341 11.748 24.1708 12.1543C24.5075 12.5606 24.6932 13.0711 24.6962 13.5988C24.6984 13.9023 24.6401 14.2031 24.5247 14.4838C24.4093 14.7645 24.2391 15.0194 24.024 15.2335V15.2304ZM10.358 26.5795L4.10251 32.8318C3.97816 32.944 3.81541 33.0042 3.64793 32.9998C3.48046 32.9954 3.3211 32.9267 3.20285 32.808C3.08459 32.6893 3.01651 32.5298 3.01268 32.3623C3.00886 32.1948 3.06959 32.0322 3.1823 31.9083L9.43449 25.6561C9.49513 25.5955 9.56712 25.5473 9.64634 25.5145C9.72556 25.4817 9.81048 25.4648 9.89623 25.4648C9.98198 25.4648 10.0669 25.4817 10.1461 25.5145C10.2253 25.5473 10.2973 25.5955 10.358 25.6561C10.4186 25.7167 10.4667 25.7887 10.4995 25.8679C10.5323 25.9472 10.5492 26.0321 10.5492 26.1178C10.5492 26.2036 10.5323 26.2885 10.4995 26.3677C10.4667 26.4469 10.4186 26.5189 10.358 26.5795ZM3.17904 29.5882C3.05748 29.4659 2.98926 29.3005 2.98926 29.1281C2.98926 28.9556 3.05748 28.7903 3.17904 28.668L7.80945 24.0343C7.87008 23.9737 7.94207 23.9256 8.02129 23.8928C8.10052 23.8599 8.18543 23.843 8.27118 23.843C8.35693 23.843 8.44185 23.8599 8.52107 23.8928C8.6003 23.9256 8.67228 23.9737 8.73292 24.0343C8.79355 24.095 8.84165 24.1669 8.87447 24.2462C8.90728 24.3254 8.92417 24.4102 8.92417 24.496C8.92417 24.5817 8.90728 24.6667 8.87447 24.7459C8.84165 24.8251 8.79355 24.8971 8.73292 24.9577L4.09925 29.5882C3.97697 29.7098 3.81156 29.778 3.63914 29.778C3.46673 29.778 3.30132 29.7098 3.17904 29.5882ZM11.9895 27.2779C12.0502 27.3385 12.0984 27.4105 12.1312 27.4897C12.164 27.5689 12.1809 27.6539 12.1809 27.7396C12.1809 27.8254 12.164 27.9103 12.1312 27.9895C12.0984 28.0688 12.0502 28.1408 11.9895 28.2014L8.28587 31.905C8.22523 31.9656 8.15324 32.0137 8.07402 32.0466C7.99479 32.0794 7.90988 32.0963 7.82413 32.0963C7.73838 32.0963 7.65347 32.0794 7.57424 32.0466C7.49502 32.0137 7.42303 31.9656 7.36239 31.905C7.30176 31.8444 7.25366 31.7724 7.22084 31.6932C7.18803 31.6139 7.17114 31.529 7.17114 31.4432C7.17114 31.3575 7.18803 31.2726 7.22084 31.1934C7.25366 31.1142 7.30176 31.0421 7.36239 30.9815L11.053 27.2648C11.1136 27.2041 11.1856 27.156 11.2648 27.1232C11.3441 27.0903 11.429 27.0734 11.5148 27.0734C11.6005 27.0734 11.6854 27.0903 11.7647 27.1232C11.8439 27.156 11.9159 27.2041 11.9765 27.2648L11.9895 27.2779Z" fill="#69696F"/>
</svg>
