<svg width="36" height="36" viewBox="0 0 36 36" fill="none" xmlns="http://www.w3.org/2000/svg">
<path d="M6.66253 5.6973H8.01967V7.05445H6.66253V5.6973ZM6.66253 9.76873H8.01967V8.41159H6.66253V9.76873ZM6.66253 12.483H8.01967V11.1259H6.66253V12.483ZM6.66253 15.1973H8.01967V13.8402H6.66253V15.1973ZM6.66253 17.9116H8.01967V16.5544H6.66253V17.9116ZM6.66253 20.6259H8.01967V19.2687H6.66253V20.6259ZM6.66253 23.3402H8.01967V21.983H6.66253V23.3402ZM6.66253 26.0544H8.01967V24.6973H6.66253V26.0544ZM6.66253 28.7687H8.01967V27.4116H6.66253V28.7687ZM22.9482 5.6973H21.5911V7.05445H22.9482V5.6973ZM22.9482 8.41159H21.5911V9.76873H22.9482V8.41159ZM22.9482 11.1259H21.5911V12.483H22.9482V11.1259ZM22.9482 13.8402H21.5911V15.1973H22.9482V13.8402ZM21.5911 26.0544H22.9482V24.6973H21.5911V26.0544ZM21.5911 28.7687H22.9482V27.4116H21.5911V28.7687ZM34.484 12.1437L25.6625 20.9652V28.7857C25.6625 29.5056 25.3766 30.1959 24.8675 30.705C24.3585 31.214 23.6681 31.5 22.9482 31.5H6.66253C5.94265 31.5 5.25227 31.214 4.74324 30.705C4.23421 30.1959 3.94824 29.5056 3.94824 28.7857V5.71429C3.94824 4.99441 4.23421 4.30398 4.74324 3.79495C5.25227 3.28593 5.94265 3 6.66253 3H22.9482C23.6681 3 24.3585 3.28593 24.8675 3.79495C25.3766 4.30398 25.6625 4.99441 25.6625 5.71429V14.2609L31.1182 8.80853C31.5718 8.41426 32.158 8.20662 32.7586 8.22745C33.3593 8.24829 33.9297 8.4961 34.3548 8.92085C34.78 9.3456 35.0284 9.9157 35.0498 10.5163C35.0712 11.1169 34.8642 11.7033 34.4704 12.1573L34.484 12.1437ZM32.0886 9.76873L31.8511 10.0062L33.2863 11.4414L33.5238 11.2039C33.7134 11.0132 33.8198 10.7552 33.8198 10.4863C33.8198 10.2174 33.7134 9.95944 33.5238 9.76873C33.3317 9.57875 33.0736 9.47052 32.8035 9.46672C32.5334 9.46293 32.2723 9.56384 32.075 9.74836L32.0886 9.76873ZM32.3261 12.4016L30.8909 10.9664L30.0088 11.852L31.4406 13.2838L32.3261 12.4016ZM30.4804 14.2439L29.0486 12.8121L21.3129 20.5139L22.0288 21.2298L22.7447 21.9491L30.4804 14.2439ZM21.0822 22.2103L20.5665 21.6946L19.6402 23.6523L21.5979 22.726L21.0822 22.2103ZM24.319 22.3257L23.2366 23.408L23.2061 23.4318L23.162 23.4691C23.1364 23.4885 23.1092 23.5055 23.0806 23.52L23.05 23.5404L18.5036 25.6948C18.4123 25.7377 18.3127 25.7598 18.2118 25.7593C18.0321 25.7586 17.8601 25.6865 17.7334 25.5591C17.6341 25.4604 17.5678 25.3334 17.5435 25.1955C17.5192 25.0577 17.5381 24.9156 17.5977 24.7889L19.7522 20.2425C19.759 20.2343 19.7647 20.2251 19.7691 20.2154C19.7852 20.1859 19.8034 20.1575 19.8234 20.1305L19.8607 20.0864L19.8845 20.0559L22.0084 17.932H21.5911V16.5748H22.9482V16.9786L24.3054 15.6214V5.71768C24.3054 5.35775 24.1624 5.01257 23.9079 4.75806C23.6534 4.50354 23.3082 4.36054 22.9482 4.36054H6.66253C6.30259 4.36054 5.9574 4.50354 5.70288 4.75806C5.44837 5.01257 5.30539 5.35775 5.30539 5.71768V28.7891C5.30539 29.149 5.44837 29.4942 5.70288 29.7487C5.9574 30.0032 6.30259 30.1463 6.66253 30.1463H22.9482C23.3082 30.1463 23.6534 30.0032 23.9079 29.7487C24.1624 29.4942 24.3054 29.149 24.3054 28.7891V22.3257H24.319ZM10.4082 9.78911H19.2161C19.3961 9.78911 19.5687 9.71757 19.6959 9.59031C19.8232 9.46305 19.8947 9.29051 19.8947 9.11054C19.8947 8.93057 19.8232 8.75794 19.6959 8.63068C19.5687 8.50343 19.3961 8.43197 19.2161 8.43197H10.3947C10.2147 8.43197 10.0421 8.50343 9.91485 8.63068C9.78759 8.75794 9.7161 8.93057 9.7161 9.11054C9.7161 9.29051 9.78759 9.46305 9.91485 9.59031C10.0421 9.71757 10.2147 9.78911 10.3947 9.78911H10.4082ZM10.4082 15.2177H19.2161C19.3961 15.2177 19.5687 15.1461 19.6959 15.0189C19.8232 14.8916 19.8947 14.7191 19.8947 14.5391C19.8947 14.3591 19.8232 14.1865 19.6959 14.0593C19.5687 13.932 19.3961 13.8605 19.2161 13.8605H10.3947C10.2147 13.8605 10.0421 13.932 9.91485 14.0593C9.78759 14.1865 9.7161 14.3591 9.7161 14.5391C9.7161 14.7191 9.78759 14.8916 9.91485 15.0189C10.0421 15.1461 10.2147 15.2177 10.3947 15.2177H10.4082ZM18.2118 19.9677C18.2118 19.7877 18.1403 19.6151 18.0131 19.4878C17.8858 19.3606 17.7132 19.2891 17.5332 19.2891H10.3947C10.2147 19.2891 10.0421 19.3606 9.91485 19.4878C9.78759 19.6151 9.7161 19.7877 9.7161 19.9677C9.7161 20.1476 9.78759 20.3202 9.91485 20.4475C10.0421 20.5747 10.2147 20.6463 10.3947 20.6463H17.5197C17.6105 20.6463 17.7005 20.6281 17.7841 20.5927C17.8678 20.5574 17.9436 20.5055 18.0068 20.4403C18.0701 20.3751 18.1197 20.298 18.1526 20.2133C18.1854 20.1286 18.201 20.0381 18.1982 19.9473L18.2118 19.9677ZM15.8368 24.7177H10.3947C10.2147 24.7177 10.0421 24.7891 9.91485 24.9164C9.78759 25.0437 9.7161 25.2163 9.7161 25.3963C9.7161 25.5762 9.78759 25.7488 9.91485 25.876C10.0421 26.0033 10.2147 26.0748 10.3947 26.0748H15.8232C16.0032 26.0748 16.1758 26.0033 16.3031 25.876C16.4303 25.7488 16.5018 25.5762 16.5018 25.3963C16.5018 25.2163 16.4303 25.0437 16.3031 24.9164C16.1758 24.7891 16.0032 24.7177 15.8232 24.7177H15.8368Z" fill="#69696F"/>
</svg>
