<svg width="36" height="36" viewBox="0 0 36 36" fill="none" xmlns="http://www.w3.org/2000/svg">
<path d="M32.1434 12.6149C31.8974 12.4768 31.6194 12.4059 31.3373 12.4093C31.0551 12.4127 30.7789 12.4903 30.5363 12.6343L24.4291 15.6846V12.4286C24.4291 11.7466 24.1582 11.0925 23.676 10.6103C23.1937 10.128 22.5397 9.85714 21.8577 9.85714H20.572V7.92857C20.572 7.41708 20.3688 6.92653 20.0071 6.56485C19.6454 6.20318 19.1549 6 18.6434 6H7.71484C7.54435 6 7.38083 6.0677 7.26028 6.18826C7.13972 6.30882 7.07199 6.47236 7.07199 6.64286C7.07199 6.81335 7.13972 6.97682 7.26028 7.09738C7.38083 7.21794 7.54435 7.28571 7.71484 7.28571H18.6434C18.8139 7.28571 18.9774 7.35341 19.098 7.47397C19.2185 7.59453 19.2863 7.75808 19.2863 7.92857V9.85714H5.78627C5.10429 9.85714 4.45023 10.128 3.968 10.6103C3.48576 11.0925 3.21484 11.7466 3.21484 12.4286V25.9286C3.21484 26.6106 3.48576 27.2646 3.968 27.7468C4.45023 28.229 5.10429 28.5 5.78627 28.5H21.8577C22.5397 28.5 23.1937 28.229 23.676 27.7468C24.1582 27.2646 24.4291 26.6106 24.4291 25.9286V22.6725L30.5363 25.7099C30.8051 25.8481 31.102 25.9229 31.4041 25.9286C31.6637 25.9322 31.919 25.8619 32.1402 25.726C32.3474 25.5898 32.5156 25.4019 32.6283 25.181C32.741 24.9601 32.7943 24.7138 32.7831 24.4661V13.891C32.7972 13.641 32.7456 13.3916 32.6334 13.1677C32.5211 12.9438 32.3522 12.7532 32.1434 12.6149ZM23.1434 25.9125C23.1434 26.2535 23.008 26.5805 22.7668 26.8216C22.5257 27.0627 22.1987 27.1982 21.8577 27.1982H5.78627C5.44528 27.1982 5.11825 27.0627 4.87713 26.8216C4.63602 26.5805 4.50056 26.2535 4.50056 25.9125V12.4125C4.50056 12.0715 4.63602 11.7444 4.87713 11.5033C5.11825 11.2622 5.44528 11.1268 5.78627 11.1268H21.8577C22.1987 11.1268 22.5257 11.2622 22.7668 11.5033C23.008 11.7444 23.1434 12.0715 23.1434 12.4125V25.9125ZM31.5006 24.45C31.5063 24.5076 31.4951 24.5657 31.4684 24.6171C31.4523 24.6171 31.3334 24.6525 31.1116 24.54L24.4291 21.2196V17.1053L31.1116 13.785C31.3334 13.6725 31.4523 13.6982 31.4652 13.7079C31.4781 13.7175 31.5006 13.7625 31.5006 13.875V24.45ZM17.6791 19.1625C17.6791 19.333 17.6114 19.4964 17.4908 19.617C17.3703 19.7376 17.2068 19.8053 17.0363 19.8053H14.4648V22.3768C14.4648 22.5473 14.3971 22.7107 14.2766 22.8313C14.156 22.9518 13.9925 23.0196 13.822 23.0196C13.6515 23.0196 13.488 22.9518 13.3674 22.8313C13.2469 22.7107 13.1791 22.5473 13.1791 22.3768V19.8053H10.6077C10.4372 19.8053 10.2737 19.7376 10.1531 19.617C10.0326 19.4964 9.96484 19.333 9.96484 19.1625C9.96484 18.992 10.0326 18.8284 10.1531 18.7079C10.2737 18.5873 10.4372 18.5196 10.6077 18.5196H13.1791V15.9482C13.1791 15.7777 13.2469 15.6142 13.3674 15.4936C13.488 15.373 13.6515 15.3053 13.822 15.3053C13.9925 15.3053 14.156 15.373 14.2766 15.4936C14.3971 15.6142 14.4648 15.7777 14.4648 15.9482V18.5196H17.0363C17.1207 18.5196 17.2043 18.5362 17.2823 18.5685C17.3603 18.6008 17.4311 18.6482 17.4908 18.7079C17.5505 18.7676 17.5979 18.8385 17.6302 18.9165C17.6625 18.9945 17.6791 19.0781 17.6791 19.1625Z" fill="#69696F"/>
</svg>
