<?xml version="1.0" encoding="utf-8"?>
<!-- Generator: Adobe Illustrator 28.0.0, SVG Export Plug-In . SVG Version: 6.00 Build 0)  -->
<svg version="1.1" id="Layer_1" xmlns="http://www.w3.org/2000/svg" xmlns:xlink="http://www.w3.org/1999/xlink" x="0px" y="0px"
	 viewBox="0 0 24 24" style="enable-background:new 0 0 24 24;" xml:space="preserve">
<style type="text/css">
	.st0{fill:#323232;}
</style>
<g>
	<path class="st0" d="M20.667,2H3.333C2.598,2,2,2.598,2,3.333v12c0,0.735,0.598,1.333,1.333,1.333h2v4.667
		c0,0.27,0.162,0.513,0.411,0.616C5.827,21.984,5.914,22,6,22c0.173,0,0.344-0.068,0.471-0.195l5.138-5.138h9.057
		c0.735,0,1.333-0.598,1.333-1.333v-12C22,2.598,21.402,2,20.667,2z M20.667,15.333h-9.333c-0.087,0-0.173,0.018-0.255,0.051
		c-0.082,0.034-0.156,0.083-0.218,0.145l-4.194,4.194V16c0-0.368-0.298-0.667-0.667-0.667H3.333v-12h17.333V15.333z"/>
	<path class="st0" d="M7.15,10.592c0.697,0,1.264-0.565,1.264-1.259c0-0.694-0.567-1.259-1.264-1.259S5.885,8.639,5.885,9.333
		C5.885,10.027,6.452,10.592,7.15,10.592z"/>
	<path class="st0" d="M12,10.592c0.697,0,1.264-0.565,1.264-1.259c0-0.694-0.567-1.259-1.264-1.259s-1.264,0.565-1.264,1.259
		C10.736,10.027,11.303,10.592,12,10.592z"/>
	<path class="st0" d="M16.851,10.592c0.697,0,1.264-0.565,1.264-1.259c0-0.694-0.567-1.259-1.264-1.259s-1.264,0.565-1.264,1.259
		C15.587,10.027,16.154,10.592,16.851,10.592z"/>
</g>
</svg>
