<svg width="25" height="24" viewBox="0 0 25 24" fill="none" xmlns="http://www.w3.org/2000/svg">
<path d="M4.5871 15.5408C4.4361 15.2038 4.0411 15.0558 3.7071 15.2038C3.3711 15.3538 3.2201 15.7488 3.3711 16.0848C3.6381 16.6808 3.9651 17.2538 4.3441 17.7868C4.4741 17.9688 4.6791 18.0668 4.8881 18.0668C5.0211 18.0668 5.1571 18.0268 5.2741 17.9428C5.5741 17.7298 5.6441 17.3128 5.4311 17.0128C5.1021 16.5528 4.8181 16.0568 4.5871 15.5408Z" fill="#69696F"/>
<path d="M4.39681 6.14148C4.01381 6.67148 3.68181 7.24048 3.40881 7.83348C3.25481 8.16848 3.40181 8.56348 3.73581 8.71748C3.82581 8.75848 3.92081 8.77848 4.01381 8.77848C4.26581 8.77848 4.50781 8.63448 4.61981 8.39048C4.85581 7.87548 5.14381 7.38248 5.47681 6.92348C5.69181 6.62548 5.62581 6.20848 5.32681 5.99248C5.02881 5.77748 4.61281 5.84348 4.39681 6.14148Z" fill="#69696F"/>
<path d="M3.871 12.7947C3.846 12.5237 3.834 12.2547 3.834 11.9877C3.834 11.6967 3.849 11.4017 3.879 11.1107C3.916 10.7447 3.649 10.4177 3.283 10.3797C2.918 10.3407 2.59 10.6087 2.552 10.9757C2.517 11.3117 2.5 11.6517 2.5 11.9877C2.5 12.2947 2.514 12.6047 2.54 12.8557C2.54 12.8807 2.543 12.9227 2.546 12.9467C2.584 13.2867 2.87 13.5317 3.205 13.5317C3.228 13.5317 3.252 13.5307 3.276 13.5277C3.639 13.4907 3.905 13.1587 3.871 12.7947Z" fill="#69696F"/>
<path d="M22.4487 13.041C22.4837 12.699 22.5017 12.353 22.5017 12.011C22.5017 11.703 22.4877 11.394 22.4617 11.143C22.4617 11.118 22.4577 11.058 22.4547 11.033C22.4547 11.03 22.4527 11.028 22.4527 11.025C22.3467 9.937 22.0617 8.902 21.6347 7.944C21.6287 7.929 21.6307 7.913 21.6247 7.898C21.5587 7.751 21.4777 7.61 21.4047 7.465C21.3547 7.368 21.3087 7.269 21.2567 7.174C21.1447 6.97 21.0207 6.774 20.8947 6.578C20.8477 6.506 20.8047 6.432 20.7557 6.361C20.7187 6.307 20.6877 6.25 20.6507 6.197C20.6347 6.174 20.6107 6.162 20.5917 6.142C19.9777 5.301 19.2407 4.56 18.4017 3.945C18.3827 3.928 18.3727 3.906 18.3517 3.89C18.2957 3.85 18.2357 3.817 18.1787 3.778C18.0807 3.71 17.9787 3.647 17.8787 3.583C17.7097 3.475 17.5397 3.368 17.3647 3.27C17.2517 3.207 17.1347 3.15 17.0187 3.09C16.8977 3.029 16.7817 2.959 16.6587 2.903C16.6417 2.895 16.6227 2.897 16.6057 2.89C15.6467 2.456 14.6127 2.162 13.5227 2.051C13.5197 2.051 13.5177 2.049 13.5157 2.049C13.1867 2.016 12.8557 2.001 12.5247 2.001C12.5167 2.001 12.5087 2 12.5017 2C12.4967 2 12.4937 2.002 12.4887 2.003C12.1877 2.004 11.8877 2.015 11.5917 2.042C11.5847 2.043 11.5527 2.046 11.5447 2.047C11.1807 2.087 10.9307 2.412 10.9677 2.775C11.0047 3.139 11.3387 3.403 11.7047 3.37C11.9767 3.345 12.2467 3.334 12.5157 3.334C13.9237 3.336 15.2497 3.682 16.4247 4.283C16.5207 4.332 16.6177 4.379 16.7117 4.432C16.8647 4.518 17.0127 4.61 17.1607 4.705C17.2477 4.761 17.3357 4.816 17.4217 4.875C18.2947 5.48 19.0527 6.239 19.6527 7.115C19.6927 7.174 19.7297 7.235 19.7687 7.295C19.8807 7.468 19.9897 7.642 20.0897 7.823C20.1307 7.897 20.1657 7.972 20.2037 8.047C20.8157 9.234 21.1667 10.575 21.1667 12C21.1667 13.42 20.8167 14.758 20.2087 15.943C20.1627 16.033 20.1177 16.123 20.0687 16.212C19.9767 16.376 19.8787 16.535 19.7767 16.692C19.7287 16.767 19.6807 16.843 19.6307 16.916C19.0207 17.798 18.2537 18.564 17.3667 19.168C17.3297 19.193 17.2917 19.215 17.2537 19.24C17.0597 19.367 16.8627 19.49 16.6587 19.602C16.6087 19.629 16.5567 19.653 16.5057 19.679C15.3737 20.272 14.0947 20.618 12.7397 20.656C12.3577 20.667 11.9777 20.662 11.6067 20.623C11.2367 20.594 10.9127 20.852 10.8747 21.217C10.8367 21.584 11.1027 21.911 11.4687 21.949C11.8047 21.982 12.1487 22 12.4907 22C12.7977 22 13.1067 21.986 13.4187 21.958C13.4287 21.957 13.4387 21.956 13.4477 21.955C13.4517 21.955 13.4547 21.952 13.4587 21.951C14.5437 21.847 15.5767 21.567 16.5327 21.144C16.5477 21.138 16.5637 21.141 16.5787 21.134C16.7517 21.057 16.9187 20.963 17.0877 20.876C17.1597 20.838 17.2337 20.805 17.3057 20.766C17.5247 20.646 17.7357 20.513 17.9457 20.377C18.0057 20.338 18.0677 20.302 18.1267 20.262C18.1767 20.228 18.2307 20.199 18.2807 20.164C18.3027 20.148 18.3147 20.125 18.3347 20.107C19.1807 19.496 19.9257 18.757 20.5447 17.917C20.5597 17.9 20.5807 17.893 20.5947 17.875C20.6397 17.813 20.6767 17.745 20.7207 17.682C20.7847 17.589 20.8447 17.494 20.9057 17.399C21.0187 17.224 21.1277 17.048 21.2297 16.867C21.2897 16.76 21.3437 16.651 21.3997 16.542C21.4607 16.422 21.5307 16.306 21.5867 16.185C21.5957 16.166 21.5937 16.146 21.6007 16.127C22.0347 15.174 22.3297 14.145 22.4437 13.062C22.4447 13.053 22.4487 13.047 22.4487 13.041Z" fill="#69696F"/>
<path d="M8.40578 2.87305C7.80978 3.14105 7.23778 3.46805 6.70578 3.84805C6.40578 4.06205 6.33578 4.47805 6.54978 4.77805C6.67978 4.96105 6.88478 5.05805 7.09378 5.05805C7.22778 5.05805 7.36278 5.01805 7.47978 4.93405C7.93978 4.60505 8.43478 4.32205 8.95078 4.09005C9.28678 3.93905 9.43678 3.54505 9.28678 3.20905C9.13578 2.87305 8.74078 2.72205 8.40578 2.87305Z" fill="#69696F"/>
<path d="M8.88342 19.8781C8.36942 19.6411 7.87642 19.3531 7.41742 19.0201C7.11842 18.8031 6.70142 18.8701 6.48642 19.1681C6.27042 19.4661 6.33642 19.8831 6.63442 20.0991C7.16342 20.4821 7.73242 20.8151 8.32542 21.0891C8.41542 21.1311 8.51042 21.1501 8.60442 21.1501C8.85642 21.1501 9.09742 21.0061 9.21042 20.7631C9.36442 20.4281 9.21842 20.0321 8.88342 19.8781Z" fill="#69696F"/>
<path d="M12.499 7.33301C12.131 7.33301 11.832 7.63101 11.832 8.00001V12C11.832 12.177 11.902 12.346 12.027 12.471L16.027 16.471C16.157 16.601 16.328 16.666 16.498 16.666C16.669 16.666 16.839 16.601 16.969 16.471C17.229 16.211 17.229 15.789 16.969 15.528L13.165 11.723V8.00001C13.166 7.63201 12.867 7.33301 12.499 7.33301Z" fill="#69696F"/>
</svg>
