<svg width="24" height="24" viewBox="0 0 24 24" fill="none" xmlns="http://www.w3.org/2000/svg">
<path d="M12 2C6.486 2 2 6.486 2 12C2 17.514 6.486 22 12 22C17.514 22 22 17.514 22 12C22 6.486 17.514 2 12 2ZM12 20.667C7.221 20.667 3.333 16.779 3.333 12C3.333 7.221 7.221 3.333 12 3.333C16.779 3.333 20.667 7.221 20.667 12C20.667 16.779 16.779 20.667 12 20.667Z" fill="black"/>
<path d="M12 13.833C12.368 13.833 12.667 13.535 12.667 13.166V7.33302C12.667 6.96502 12.368 6.66602 12 6.66602C11.632 6.66602 11.333 6.96502 11.333 7.33302V13.166C11.333 13.535 11.632 13.833 12 13.833Z" fill="black"/>
<path d="M12.0001 15.2822C11.4351 15.2822 10.9741 15.7422 10.9741 16.3082C10.9741 16.8732 11.4341 17.3332 12.0001 17.3332C12.5651 17.3332 13.0251 16.8732 13.0251 16.3082C13.0251 15.7422 12.5651 15.2822 12.0001 15.2822Z" fill="black"/>
</svg>
