<svg width="36" height="36" viewBox="0 0 36 36" fill="none" xmlns="http://www.w3.org/2000/svg">
<path d="M32.9994 21.5268V5.7907C32.9994 5.05056 32.7054 4.34077 32.1821 3.81742C31.6587 3.29406 30.9489 3 30.2087 3H5.79013C5.04999 3 4.34017 3.29406 3.81681 3.81742C3.29345 4.34077 2.99943 5.05056 2.99943 5.7907V21.5268C2.8144 21.5268 2.63694 21.6003 2.5061 21.7311C2.37526 21.8619 2.30176 22.0394 2.30176 22.2245C2.30176 22.4095 2.37526 22.587 2.5061 22.7178C2.63694 22.8487 2.8144 22.9221 2.99943 22.9221V30.2093C2.99943 30.9494 3.29345 31.6593 3.81681 32.1827C4.34017 32.706 5.04999 33 5.79013 33H30.2087C30.9489 33 31.6587 32.706 32.1821 32.1827C32.7054 31.6593 32.9994 30.9494 32.9994 30.2093V22.9221C33.1845 22.9221 33.3619 22.8487 33.4928 22.7178C33.6236 22.587 33.6971 22.4095 33.6971 22.2245C33.6971 22.0394 33.6236 21.8619 33.4928 21.7311C33.3619 21.6003 33.1845 21.5268 32.9994 21.5268ZM14.7971 4.39535C14.0506 10.2159 11.2617 15.5825 6.92734 19.5384C10.2518 13.1756 11.3611 6.45349 11.6401 4.39535H14.7971ZM24.3587 4.39535C24.6378 6.45349 25.7541 13.1756 29.0715 19.5384C24.7372 15.5825 21.9482 10.2159 21.2018 4.39535H24.3587ZM25.7541 4.39535H28.4785C28.6006 6.63837 29.1378 14.0198 31.1855 20.4873C27.4355 14.1454 26.1134 6.75698 25.7715 4.39535H25.7541ZM20.0262 6.13953H15.9552C16.0913 5.41047 16.1645 4.81395 16.2064 4.39535H19.7925C19.8343 4.81395 19.9076 5.41047 20.0436 6.13953H20.0262ZM4.7785 20.4873C6.82618 14.0198 7.36339 6.63837 7.48548 4.39535H10.2099C9.88548 6.75698 8.58083 14.1454 4.79594 20.4873H4.7785ZM6.52269 22.9291H6.83664C7.02168 22.9291 7.19913 22.8556 7.32997 22.7247C7.46081 22.5939 7.53432 22.4165 7.53432 22.2314C7.53432 22.0464 7.46081 21.8689 7.32997 21.7381C7.19913 21.6072 7.02168 21.5338 6.83664 21.5338H6.73897C11.1806 17.9878 14.3173 13.0656 15.6552 7.54187H20.3436C21.6816 13.0656 24.8182 17.9878 29.2599 21.5338H29.1622C28.9772 21.5338 28.7997 21.6072 28.6689 21.7381C28.5381 21.8689 28.4646 22.0464 28.4646 22.2314C28.4646 22.4165 28.5381 22.5939 28.6689 22.7247C28.7997 22.8556 28.9772 22.9291 29.1622 22.9291H29.4762C28.0599 24.7605 25.9529 28.0465 25.7018 31.6116H10.2971C10.0459 28.0395 7.93897 24.7535 6.52269 22.9221V22.9291ZM8.89827 31.6116H7.50292C7.34594 28.9605 6.33432 25.978 5.49013 23.8954C6.7878 25.5907 8.64362 28.5244 8.89827 31.6047V31.6116ZM30.5018 23.8954C29.6576 25.9884 28.6459 28.9605 28.489 31.6116H27.0936C27.3552 28.5244 29.2111 25.5907 30.5018 23.8884V23.8954ZM31.6041 5.7907V16.6396C30.711 12.6099 30.1395 8.51556 29.8948 4.39535H30.2087C30.5788 4.39535 30.9337 4.54238 31.1954 4.80406C31.4571 5.06574 31.6041 5.42063 31.6041 5.7907ZM5.79013 4.39535H6.10408C5.85939 8.51556 5.28783 12.6099 4.39478 16.6396V5.7907C4.39478 5.42063 4.54179 5.06574 4.80347 4.80406C5.06515 4.54238 5.42006 4.39535 5.79013 4.39535ZM4.39478 30.2093V24.907C5.14478 26.8326 5.96455 29.3756 6.11455 31.6047H5.79013C5.42006 31.6047 5.06515 31.4577 4.80347 31.196C4.54179 30.9343 4.39478 30.5794 4.39478 30.2093ZM30.2087 31.6047H29.8878C30.0378 29.3791 30.8541 26.8361 31.6041 24.9105V30.2093C31.6041 30.5794 31.4571 30.9343 31.1954 31.196C30.9337 31.4577 30.5788 31.6047 30.2087 31.6047Z" fill="#69696F"/>
</svg>
