<svg width="112" height="85" viewBox="0 0 112 85" fill="none" xmlns="http://www.w3.org/2000/svg">
<path d="M100.618 0C106.909 0 112 5.04728 112 11.284V73.716C112 79.9527 106.909 85 100.618 85H11.3816C5.09092 85 0 79.9527 0 73.716V11.284C0 5.04728 5.09092 0 11.3816 0H100.618ZM33.2693 43.3037L5.28546 67.0934V73.716C5.28546 77.0594 8.0417 79.792 11.414 79.792H100.651C104.023 79.792 106.779 77.0594 106.779 73.716V67.1577L86.6427 51.0514L65.5333 67.9293C64.5605 68.733 63.1338 68.7008 62.161 67.865L33.2368 43.3037H33.2693ZM100.618 5.20802H11.3816C8.00928 5.20802 5.25304 7.94062 5.25304 11.284V60.278L31.5507 37.9349C32.1668 37.4206 32.5883 37.3563 33.3665 37.3563H33.7232C34.2096 37.4527 34.5987 37.6456 34.9879 37.9349L63.9444 62.5605L84.989 45.7148C85.9618 44.9433 87.3237 44.9433 88.2965 45.7148L106.779 60.503V11.3162C106.779 7.97277 104.023 5.24016 100.651 5.24016L100.618 5.20802ZM67.3816 14.756C74.6126 14.756 80.5142 20.5749 80.5142 27.7761C80.5142 34.9773 74.6451 40.7961 67.3816 40.7961C60.1181 40.7961 54.249 34.9773 54.249 27.7761C54.249 20.5749 60.1181 14.756 67.3816 14.756ZM67.3816 19.9319C63.0365 19.9319 59.502 23.4361 59.502 27.7439C59.502 32.0518 63.0365 35.556 67.3816 35.556C71.7267 35.556 75.2612 32.0518 75.2612 27.7439C75.2612 23.4361 71.7267 19.9319 67.3816 19.9319Z" fill="white"/>
</svg>
