<svg width="57" height="57" viewBox="0 0 57 57" fill="none" xmlns="http://www.w3.org/2000/svg">
<path d="M50.4996 33.7002C50.4996 42.9881 42.9876 50.5 33.6997 50.5L36.2197 46.3001" stroke="#B3B4B8" stroke-width="2" stroke-linecap="round" stroke-linejoin="round"/>
<path d="M6.50024 23.2998C6.50024 14.0119 14.0122 6.5 23.3001 6.5L20.7801 10.7" stroke="#B3B4B8" stroke-width="2" stroke-linecap="round" stroke-linejoin="round"/>
<path d="M28.9999 22.2539C25.8303 22.2539 23.2529 24.8313 23.2529 28.0009C23.2529 31.1705 25.8303 33.7479 28.9999 33.7479C32.1695 33.7479 34.7469 31.1691 34.7469 28.0009C34.7469 24.8327 32.1695 22.2539 28.9999 22.2539ZM28.9999 31.8817C26.8607 31.8817 25.1191 30.1415 25.1191 28.0009C25.1191 25.8617 26.8593 24.1201 28.9999 24.1201C31.1405 24.1201 32.8807 25.8603 32.8807 28.0009C32.8807 30.1415 31.1405 31.8817 28.9999 31.8817Z" fill="#B3B4B8"/>
<path d="M42.0662 25.004H41.228C40.4105 25.004 39.7083 24.4536 39.3947 23.6986C39.0807 22.9427 39.1857 22.0521 39.7644 21.4734L40.3582 20.8796C40.5332 20.7046 40.6312 20.4666 40.6312 20.2202C40.6312 19.9738 40.5332 19.7358 40.3582 19.5608L37.4392 16.6432C37.0752 16.2792 36.4844 16.2792 36.119 16.6432L35.5243 17.2379C34.9461 17.8161 34.0558 17.9205 33.3009 17.6065C32.5462 17.2925 31.996 16.5907 31.996 15.7733V14.9338C31.9974 14.4186 31.5788 14 31.0636 14H26.9364C26.4212 14 26.004 14.4186 26.004 14.9338V15.7709C26.004 16.5889 25.4528 17.2911 24.6976 17.6052C23.9424 17.9192 23.0524 17.8146 22.4741 17.2363L21.8796 16.6418C21.5156 16.2778 20.9248 16.2778 20.5594 16.6418L17.6418 19.5594C17.2778 19.9234 17.2778 20.5142 17.6418 20.8796L18.2363 21.4741C18.8146 22.0524 18.9192 22.9424 18.6052 23.6976C18.2911 24.4528 17.5888 25.004 16.7709 25.004H15.9338C15.4186 25.004 15 25.4212 15 25.9364V30.0636C15 30.5788 15.4186 30.9974 15.9338 30.9974H16.7719C17.5893 30.9974 18.2911 31.5476 18.6051 32.3023C18.9191 33.0572 18.8147 33.9475 18.2365 34.5257L17.6418 35.1204C17.2778 35.4844 17.2778 36.0752 17.6418 36.4406L20.5594 39.3596C20.9094 39.7096 21.5296 39.7096 21.8796 39.3596L22.473 38.7662C23.0519 38.1873 23.9424 38.0824 24.6986 38.3963C25.4533 38.7096 26.004 39.4116 26.004 40.2288V41.0676C26.004 41.5828 26.4212 42 26.9364 42H31.0636C31.5788 42 31.9974 41.5828 31.9974 41.0662V40.2268C31.9974 39.41 32.5478 38.7083 33.3021 38.3949C34.0578 38.0809 34.9479 38.1857 35.5266 38.7644L36.1204 39.3582C36.2954 39.5332 36.532 39.6312 36.7798 39.6312C37.0276 39.6312 37.2642 39.5332 37.4392 39.3582L40.3582 36.4392C40.5332 36.2642 40.6312 36.0276 40.6312 35.7798C40.6312 35.532 40.5332 35.2954 40.3582 35.1204L39.7646 34.5268C39.1858 33.948 39.0811 33.0572 39.395 32.3013C39.7082 31.5471 40.4098 30.9974 41.2265 30.9974H42.0662C42.5814 30.9974 43 30.5802 43 30.0636V25.9364C43 25.4212 42.5828 25.004 42.0662 25.004ZM41.1338 28.0007C41.1338 28.6243 40.6283 29.1298 40.0047 29.1298H39.1094C38.6656 29.1298 38.2834 29.442 38.1952 29.8774C37.9558 31.052 37.4952 32.1594 36.8246 33.1702C36.5796 33.5412 36.63 34.0326 36.9436 34.3462L37.5792 34.9818C38.0207 35.4233 38.0207 36.1391 37.5792 36.5806C37.1377 37.0221 36.4219 37.0221 35.9804 36.5806L35.3448 35.945C35.0298 35.63 34.5384 35.581 34.1688 35.8274C33.1594 36.4966 32.052 36.9572 30.876 37.1966C30.4406 37.2848 30.1284 37.667 30.1284 38.1108V39.0061C30.1284 39.6297 29.6229 40.1352 28.9993 40.1352C28.3757 40.1352 27.8702 39.6297 27.8702 39.0061V38.1108C27.8702 37.667 27.558 37.2848 27.1226 37.1966C25.948 36.9572 24.8392 36.4966 23.8284 35.826C23.4588 35.5824 22.966 35.6314 22.6524 35.945L22.0168 36.5806C21.5754 37.022 20.8596 37.0219 20.4183 36.5802C19.9774 36.1389 19.9775 35.4237 20.4187 34.9825L21.055 34.3462C21.3686 34.0326 21.4176 33.5412 21.174 33.1716C20.5034 32.1594 20.0428 31.052 19.8048 29.8788C19.7166 29.4434 19.3344 29.1312 18.8906 29.1312H17.9967C17.3723 29.1312 16.8662 28.6251 16.8662 28.0007C16.8662 27.3763 17.3723 26.8702 17.9967 26.8702H18.892C19.3358 26.8702 19.718 26.558 19.8062 26.1226C20.0442 24.9494 20.5048 23.8406 21.1754 22.8298C21.4204 22.4602 21.3714 21.9674 21.0564 21.6538L20.4201 21.0175C19.979 20.5764 19.979 19.8612 20.4201 19.4201C20.8612 18.979 21.5764 18.979 22.0175 19.4201L22.6538 20.0564C22.9688 20.37 23.4602 20.419 23.8298 20.174C24.8406 19.5048 25.9494 19.0442 27.1226 18.8062C27.558 18.718 27.8702 18.3358 27.8702 17.892V16.996C27.8702 16.372 28.376 15.8662 29 15.8662C29.624 15.8662 30.1298 16.372 30.1298 16.996V17.892C30.1298 18.3358 30.442 18.718 30.8774 18.8062C32.0506 19.0442 33.158 19.5048 34.1702 20.1754C34.5384 20.419 35.0312 20.3714 35.3448 20.0564L35.9811 19.4201C36.4223 18.9789 37.1375 18.9788 37.5788 19.4198C38.0205 19.861 38.0206 20.5768 37.5792 21.0182L36.9436 21.6538C36.63 21.9674 36.5796 22.4588 36.8246 22.8298C37.4952 23.8406 37.9544 24.948 38.1952 26.124C38.2834 26.5594 38.6656 26.8716 39.1094 26.8716H40.0047C40.6283 26.8716 41.1338 27.3771 41.1338 28.0007Z" fill="#B3B4B8"/>
</svg>
