<svg width="36" height="36" viewBox="0 0 36 36" fill="none" xmlns="http://www.w3.org/2000/svg">
<path d="M13.7394 9.54255C13.7394 9.38475 13.7862 9.23049 13.8739 9.09928C13.9616 8.96807 14.0862 8.86577 14.232 8.80538C14.3778 8.74499 14.5382 8.72924 14.693 8.76003C14.8477 8.79082 14.9899 8.86677 15.1015 8.97835C15.2131 9.08994 15.2891 9.2321 15.3198 9.38687C15.3506 9.54165 15.3348 9.70212 15.2744 9.84791C15.214 9.9937 15.1118 10.1183 14.9806 10.2059C14.8494 10.2936 14.6951 10.3404 14.5373 10.3404C14.3257 10.3404 14.1227 10.2564 13.9731 10.1068C13.8235 9.95712 13.7394 9.75416 13.7394 9.54255ZM17.2501 10.3404C17.4079 10.3404 17.5621 10.2936 17.6933 10.2059C17.8245 10.1183 17.9268 9.9937 17.9872 9.84791C18.0476 9.70212 18.0634 9.54165 18.0326 9.38687C18.0018 9.2321 17.9258 9.08994 17.8142 8.97835C17.7027 8.86677 17.5605 8.79082 17.4057 8.76003C17.2509 8.72924 17.0905 8.74499 16.9447 8.80538C16.7989 8.86577 16.6743 8.96807 16.5867 9.09928C16.499 9.23049 16.4522 9.38475 16.4522 9.54255C16.4522 9.75416 16.5363 9.95712 16.6859 10.1068C16.8355 10.2564 17.0385 10.3404 17.2501 10.3404ZM15.8139 11.2979C15.6561 11.2979 15.5018 11.3447 15.3706 11.4324C15.2394 11.52 15.1371 11.6446 15.0768 11.7904C15.0164 11.9362 15.0006 12.0967 15.0314 12.2514C15.0621 12.4062 15.1381 12.5484 15.2497 12.6599C15.3613 12.7715 15.5035 12.8475 15.6582 12.8783C15.813 12.9091 15.9734 12.8933 16.1192 12.8329C16.265 12.7725 16.3896 12.6702 16.4773 12.539C16.565 12.4078 16.6118 12.2535 16.6118 12.0957C16.6118 11.991 16.5911 11.8872 16.551 11.7904C16.5109 11.6936 16.4522 11.6056 16.3781 11.5315C16.304 11.4575 16.216 11.3987 16.1192 11.3586C16.0224 11.3185 15.9187 11.2979 15.8139 11.2979ZM13.1011 12.8936C13.2589 12.8936 13.4132 12.8468 13.5444 12.7591C13.6756 12.6715 13.7779 12.5469 13.8383 12.4011C13.8987 12.2553 13.9145 12.0948 13.8837 11.9401C13.8529 11.7853 13.7769 11.6431 13.6653 11.5315C13.5537 11.42 13.4116 11.344 13.2568 11.3132C13.102 11.2824 12.9416 11.2982 12.7958 11.3586C12.65 11.419 12.5254 11.5213 12.4377 11.6525C12.35 11.7837 12.3033 11.9379 12.3033 12.0957C12.3033 12.3074 12.3873 12.5103 12.5369 12.6599C12.6866 12.8096 12.8895 12.8936 13.1011 12.8936ZM19.3245 12.0957C19.3245 11.9379 19.2777 11.7837 19.1901 11.6525C19.1024 11.5213 18.9778 11.419 18.832 11.3586C18.6862 11.2982 18.5258 11.2824 18.371 11.3132C18.2162 11.344 18.0741 11.42 17.9625 11.5315C17.8509 11.6431 17.7749 11.7853 17.7441 11.9401C17.7133 12.0948 17.7291 12.2553 17.7895 12.4011C17.8499 12.5469 17.9522 12.6715 18.0834 12.7591C18.2146 12.8468 18.3689 12.8936 18.5267 12.8936C18.7383 12.8936 18.9412 12.8096 19.0908 12.6599C19.2405 12.5103 19.3245 12.3074 19.3245 12.0957ZM20.4416 12.0957C20.4416 12.2535 20.4883 12.4078 20.576 12.539C20.6637 12.6702 20.7883 12.7725 20.9341 12.8329C21.0799 12.8933 21.2403 12.9091 21.3951 12.8783C21.5499 12.8475 21.692 12.7715 21.8036 12.6599C21.9152 12.5484 21.9912 12.4062 22.022 12.2514C22.0528 12.0967 22.037 11.9362 21.9766 11.7904C21.9162 11.6446 21.8139 11.52 21.6827 11.4324C21.5515 11.3447 21.3972 11.2979 21.2394 11.2979C21.0278 11.2979 20.8249 11.3819 20.6752 11.5315C20.5256 11.6812 20.4416 11.8841 20.4416 12.0957ZM15.8139 7.78723C15.9717 7.78723 16.126 7.74042 16.2572 7.65275C16.3884 7.56508 16.4906 7.44051 16.551 7.29472C16.6114 7.14893 16.6272 6.98846 16.5964 6.83368C16.5656 6.67891 16.4897 6.53675 16.3781 6.42516C16.2665 6.31358 16.1243 6.23763 15.9695 6.20684C15.8148 6.17605 15.6544 6.1918 15.5086 6.25219C15.3628 6.31258 15.2382 6.41488 15.1505 6.54609C15.0628 6.6773 15.016 6.83156 15.016 6.98936C15.016 7.20097 15.1001 7.40393 15.2497 7.55356C15.3993 7.70319 15.6023 7.78723 15.8139 7.78723ZM18.5267 7.78723C18.6845 7.78723 18.8387 7.74042 18.9699 7.65275C19.1011 7.56508 19.2034 7.44051 19.2638 7.29472C19.3242 7.14893 19.34 6.98846 19.3092 6.83368C19.2784 6.67891 19.2024 6.53675 19.0908 6.42516C18.9793 6.31358 18.8371 6.23763 18.6823 6.20684C18.5275 6.17605 18.3671 6.1918 18.2213 6.25219C18.0755 6.31258 17.9509 6.41488 17.8633 6.54609C17.7756 6.6773 17.7288 6.83156 17.7288 6.98936C17.7288 7.20097 17.8128 7.40393 17.9625 7.55356C18.1121 7.70319 18.3151 7.78723 18.5267 7.78723ZM19.9628 10.3404C20.1206 10.3404 20.2749 10.2936 20.4061 10.2059C20.5373 10.1183 20.6396 9.9937 20.7 9.84791C20.7604 9.70212 20.7762 9.54165 20.7454 9.38687C20.7146 9.2321 20.6386 9.08994 20.527 8.97835C20.4154 8.86677 20.2733 8.79082 20.1185 8.76003C19.9637 8.72924 19.8033 8.74499 19.6575 8.80538C19.5117 8.86577 19.3871 8.96807 19.2994 9.09928C19.2118 9.23049 19.165 9.38475 19.165 9.54255C19.165 9.75416 19.249 9.95712 19.3986 10.1068C19.5483 10.2564 19.7512 10.3404 19.9628 10.3404ZM17.2501 15.4468C17.0808 15.4468 16.9184 15.514 16.7987 15.6337C16.679 15.7534 16.6118 15.9158 16.6118 16.0851V20.8723C16.6118 21.0416 16.679 21.204 16.7987 21.3237C16.9184 21.4434 17.0808 21.5106 17.2501 21.5106C17.4193 21.5106 17.5817 21.4434 17.7014 21.3237C17.8211 21.204 17.8884 21.0416 17.8884 20.8723V16.0851C17.8884 15.9158 17.8211 15.7534 17.7014 15.6337C17.5817 15.514 17.4193 15.4468 17.2501 15.4468ZM15.016 16.7234C14.8467 16.7234 14.6844 16.7906 14.5647 16.9103C14.445 17.03 14.3777 17.1924 14.3777 17.3617V19.5957C14.3777 19.765 14.445 19.9274 14.5647 20.0471C14.6844 20.1668 14.8467 20.234 15.016 20.234C15.1853 20.234 15.3477 20.1668 15.4674 20.0471C15.5871 19.9274 15.6543 19.765 15.6543 19.5957V17.3617C15.6543 17.1924 15.5871 17.03 15.4674 16.9103C15.3477 16.7906 15.1853 16.7234 15.016 16.7234ZM12.782 19.2766C12.9513 19.2766 13.1136 19.2094 13.2333 19.0897C13.353 18.97 13.4203 18.8076 13.4203 18.6383V18.3191C13.4203 18.1499 13.353 17.9875 13.2333 17.8678C13.1136 17.7481 12.9513 17.6809 12.782 17.6809C12.6127 17.6809 12.4503 17.7481 12.3306 17.8678C12.2109 17.9875 12.1437 18.1499 12.1437 18.3191V18.6383C12.1437 18.8076 12.2109 18.97 12.3306 19.0897C12.4503 19.2094 12.6127 19.2766 12.782 19.2766ZM21.0799 18.3191V18.6383C21.0799 18.8076 21.1471 18.97 21.2668 19.0897C21.3865 19.2094 21.5489 19.2766 21.7181 19.2766C21.8874 19.2766 22.0498 19.2094 22.1695 19.0897C22.2892 18.97 22.3564 18.8076 22.3564 18.6383V18.3191C22.3564 18.1499 22.2892 17.9875 22.1695 17.8678C22.0498 17.7481 21.8874 17.6809 21.7181 17.6809C21.5489 17.6809 21.3865 17.7481 21.2668 17.8678C21.1471 17.9875 21.0799 18.1499 21.0799 18.3191ZM19.4841 16.7234C19.3148 16.7234 19.1525 16.7906 19.0328 16.9103C18.9131 17.03 18.8458 17.1924 18.8458 17.3617V19.5957C18.8458 19.765 18.9131 19.9274 19.0328 20.0471C19.1525 20.1668 19.3148 20.234 19.4841 20.234C19.6534 20.234 19.8157 20.1668 19.9355 20.0471C20.0552 19.9274 20.1224 19.765 20.1224 19.5957V17.3617C20.1224 17.1924 20.0552 17.03 19.9355 16.9103C19.8157 16.7906 19.6534 16.7234 19.4841 16.7234ZM27.1437 14.4894V18C27.1424 20.5126 26.1852 22.9306 24.4664 24.7633C22.7475 26.596 20.3957 27.706 17.8884 27.8681V31.7234H21.399C21.5683 31.7234 21.7306 31.7906 21.8503 31.9103C21.97 32.03 22.0373 32.1924 22.0373 32.3617C22.0373 32.531 21.97 32.6934 21.8503 32.8131C21.7306 32.9328 21.5683 33 21.399 33H13.1011C12.9318 33 12.7695 32.9328 12.6498 32.8131C12.5301 32.6934 12.4628 32.531 12.4628 32.3617C12.4628 32.1924 12.5301 32.03 12.6498 31.9103C12.7695 31.7906 12.9318 31.7234 13.1011 31.7234H16.6118V27.8681C14.1044 27.706 11.7526 26.596 10.0338 24.7633C8.31489 22.9306 7.35769 20.5126 7.35645 18V14.4894C7.35645 14.3201 7.42369 14.1577 7.5434 14.038C7.6631 13.9183 7.82546 13.8511 7.99474 13.8511C8.16403 13.8511 8.32638 13.9183 8.44609 14.038C8.56579 14.1577 8.63304 14.3201 8.63304 14.4894V15.4468H9.90964V10.3404C9.90964 8.39362 10.683 6.52657 12.0596 5.14997C13.4362 3.77337 15.3033 3 17.2501 3C19.1969 3 21.0639 3.77337 22.4405 5.14997C23.8171 6.52657 24.5905 8.39362 24.5905 10.3404V15.4468H25.8671V14.4894C25.8671 14.3201 25.9343 14.1577 26.054 14.038C26.1737 13.9183 26.3361 13.8511 26.5054 13.8511C26.6747 13.8511 26.837 13.9183 26.9567 14.038C27.0764 14.1577 27.1437 14.3201 27.1437 14.4894ZM11.1862 18C11.1862 19.6082 11.8251 21.1506 12.9623 22.2878C14.0995 23.425 15.6418 24.0638 17.2501 24.0638C18.8583 24.0638 20.4006 23.425 21.5378 22.2878C22.675 21.1506 23.3139 19.6082 23.3139 18V10.3404C23.3139 8.7322 22.675 7.18983 21.5378 6.05264C20.4006 4.91545 18.8583 4.2766 17.2501 4.2766C15.6418 4.2766 14.0995 4.91545 12.9623 6.05264C11.8251 7.18983 11.1862 8.7322 11.1862 10.3404V18ZM25.8671 18V16.7234H24.5905V18C24.5905 19.9468 23.8171 21.8139 22.4405 23.1905C21.0639 24.5671 19.1969 25.3404 17.2501 25.3404C15.3033 25.3404 13.4362 24.5671 12.0596 23.1905C10.683 21.8139 9.90964 19.9468 9.90964 18V16.7234H8.63304V18C8.63304 20.2854 9.5409 22.4771 11.1569 24.0931C12.7729 25.7091 14.9647 26.617 17.2501 26.617C19.5354 26.617 21.7272 25.7091 23.3432 24.0931C24.9592 22.4771 25.8671 20.2854 25.8671 18Z" fill="#69696F"/>
</svg>
