<svg width="28" height="28" viewBox="0 0 28 28" fill="none" xmlns="http://www.w3.org/2000/svg">
<path d="M18.4104 25.2139C18.5364 25.5919 18.2844 25.8439 18.0324 25.9699C16.7724 26.3479 15.3864 26.5999 14.0004 26.5999C7.07039 26.5999 1.40039 20.9299 1.40039 13.9999C1.40039 7.0699 7.07039 1.3999 14.0004 1.3999C20.9304 1.3999 26.6004 7.0699 26.6004 13.9999C26.6004 15.3859 26.3484 16.7719 25.9704 18.0319C25.8444 18.4099 25.4664 18.5359 25.2144 18.4099C24.8364 18.2839 24.7104 17.9059 24.8364 17.6539C25.0884 16.5199 25.3404 15.2599 25.3404 13.9999C25.3404 7.6999 20.3004 2.6599 14.0004 2.6599C7.70039 2.6599 2.66039 7.6999 2.66039 13.9999C2.66039 20.2999 7.70039 25.3399 14.0004 25.3399C15.2604 25.3399 16.3944 25.0879 17.5284 24.7099C17.9064 24.7099 18.2844 24.8359 18.4104 25.2139ZM25.9704 21.5599H22.8204V18.4099C22.8204 18.0319 22.5684 17.7799 22.1904 17.7799C21.8124 17.7799 21.5604 18.0319 21.5604 18.4099V21.5599H18.4104C18.0324 21.5599 17.7804 21.8119 17.7804 22.1899C17.7804 22.5679 18.0324 22.8199 18.4104 22.8199H21.5604V25.9699C21.5604 26.3479 21.8124 26.5999 22.1904 26.5999C22.5684 26.5999 22.8204 26.3479 22.8204 25.9699V22.8199H25.9704C26.3484 22.8199 26.6004 22.5679 26.6004 22.1899C26.6004 21.8119 26.3484 21.5599 25.9704 21.5599ZM11.8584 9.7159L18.1584 13.4959C18.4104 13.6219 18.4104 13.8739 18.4104 13.9999C18.4104 14.1259 18.2844 14.3779 18.1584 14.5039L11.8584 18.2839C11.7324 18.2839 11.6064 18.4099 11.4804 18.4099C11.3544 18.4099 11.2284 18.4099 11.2284 18.2839C10.9764 18.1579 10.8504 17.9059 10.8504 17.7799V10.2199C10.8504 9.9679 10.9764 9.8419 11.2284 9.7159C11.3544 9.5899 11.6064 9.5899 11.8584 9.7159ZM12.1104 16.6459L16.5204 13.9999L12.1104 11.3539V16.6459Z" fill="#646464"/>
</svg>
