<svg width="20" height="20" viewBox="0 0 20 20" fill="none" xmlns="http://www.w3.org/2000/svg">
<path d="M13.15 18.01C13.24 18.28 13.06 18.46 12.88 18.55C11.98 18.82 10.99 19 10 19C5.05 19 1 14.95 1 10C1 5.05 5.05 1 10 1C14.95 1 19 5.05 19 10C19 10.99 18.82 11.98 18.55 12.88C18.46 13.15 18.19 13.24 18.01 13.15C17.74 13.06 17.65 12.79 17.74 12.61C17.92 11.8 18.1 10.9 18.1 10C18.1 5.5 14.5 1.9 10 1.9C5.5 1.9 1.9 5.5 1.9 10C1.9 14.5 5.5 18.1 10 18.1C10.9 18.1 11.71 17.92 12.52 17.65C12.79 17.65 13.06 17.74 13.15 18.01ZM18.55 15.4H16.3V13.15C16.3 12.88 16.12 12.7 15.85 12.7C15.58 12.7 15.4 12.88 15.4 13.15V15.4H13.15C12.88 15.4 12.7 15.58 12.7 15.85C12.7 16.12 12.88 16.3 13.15 16.3H15.4V18.55C15.4 18.82 15.58 19 15.85 19C16.12 19 16.3 18.82 16.3 18.55V16.3H18.55C18.82 16.3 19 16.12 19 15.85C19 15.58 18.82 15.4 18.55 15.4ZM8.47 6.94L12.97 9.64C13.15 9.73 13.15 9.91 13.15 10C13.15 10.09 13.06 10.27 12.97 10.36L8.47 13.06C8.38 13.06 8.29 13.15 8.2 13.15C8.11 13.15 8.02 13.15 8.02 13.06C7.84 12.97 7.75 12.79 7.75 12.7V7.3C7.75 7.12 7.84 7.03 8.02 6.94C8.11 6.85 8.29 6.85 8.47 6.94ZM8.65 11.89L11.8 10L8.65 8.11V11.89Z" fill="#646464"/>
</svg>
