<svg width="30" height="27" viewBox="0 0 30 27" fill="none" xmlns="http://www.w3.org/2000/svg">
<path d="M22.3897 1.99617C22.1313 0.6622 20.814 -0.213218 19.4633 0.0452391C18.8047 0.170299 18.2294 0.545478 17.8542 1.10408C17.5458 1.55429 17.4124 2.08788 17.4457 2.62147C17.0288 3.42185 15.1196 6.70675 11.5512 7.38207L4.98977 8.62433C4.33112 8.74939 3.75585 9.12457 3.38067 9.68317C3.17224 9.98331 3.05551 10.3251 2.99715 10.6753L2.03003 10.8587C1.37138 10.9838 0.796103 11.359 0.420924 11.9176C0.0540825 12.4678 -0.0793146 13.1181 0.0457451 13.7601L0.679381 16.97C0.912826 18.1455 1.96333 18.9709 3.13889 18.9709C3.2973 18.9709 3.45571 18.9543 3.61411 18.9292L4.58958 18.7458C5.03146 19.4879 5.85685 19.9631 6.74061 19.9631C6.89902 19.9631 7.05742 19.9464 7.21583 19.9214L7.38258 19.888L10.1839 26.2077C10.3173 26.5162 10.6175 26.6996 10.9426 26.6996C10.9926 26.6996 11.0427 26.6913 11.101 26.683L15.203 25.9076C15.4531 25.8576 15.6699 25.6991 15.7866 25.474C15.9033 25.2489 15.9116 24.9821 15.8116 24.7487L13.1687 18.7875L13.7773 18.6708C17.3457 17.9955 20.3721 20.3466 21.0641 20.9385C21.4059 21.9474 22.3647 22.631 23.4319 22.631C23.5903 22.631 23.7487 22.6143 23.9071 22.5893C24.5658 22.4643 25.1411 22.0891 25.5162 21.5305C25.8831 20.9802 26.0165 20.3299 25.8914 19.6879L22.3897 1.99617ZM3.2973 17.2701C2.85542 17.3535 2.39687 17.0617 2.31349 16.6282L1.67986 13.4183C1.63817 13.2182 1.67986 13.0098 1.80492 12.8347C1.92998 12.6513 2.12174 12.5262 2.34684 12.4845L3.17224 12.3261L4.11435 17.1201L3.2973 17.2701ZM5.90688 17.6203L4.6396 11.1922C4.59792 10.9921 4.6396 10.7837 4.76466 10.6086C4.88972 10.4252 5.08148 10.3001 5.30659 10.2584L10.2339 9.32467L11.8097 17.3285L6.89068 18.2539C6.4488 18.3373 5.99025 18.0455 5.90688 17.6203ZM13.844 24.4402L11.4262 24.8988L9.05004 19.5462L11.4345 19.096L11.4679 19.0877L13.844 24.4402ZM13.4521 17.0117L11.8681 9.00785C14.8111 8.44925 16.7704 6.52333 17.8876 5.02261L20.5472 18.5124C18.9381 17.5286 16.3952 16.4531 13.4521 17.0117ZM24.2406 19.9964C24.2823 20.1965 24.2406 20.405 24.1156 20.58C23.9905 20.7635 23.7987 20.8885 23.5736 20.9302C23.1234 21.0136 22.6732 20.7218 22.5898 20.2882L19.1048 2.61313C19.0632 2.41304 19.1048 2.2046 19.2299 2.02952C19.355 1.8461 19.5467 1.72104 19.7718 1.67935C19.8218 1.67101 19.8802 1.66268 19.9302 1.66268C20.3221 1.66268 20.6806 1.93781 20.7556 2.31299L24.2406 19.9964Z" fill="#4DBD38"/>
<path d="M8.08389 11.3591L7.26683 11.5175C6.81662 11.6009 6.51647 12.0428 6.59985 12.493C6.67488 12.8932 7.02505 13.1683 7.4169 13.1683C7.46693 13.1683 7.51695 13.16 7.57531 13.1517L8.39237 12.9932C8.84258 12.9099 9.14273 12.468 9.05935 12.0178C8.97598 11.5759 8.5341 11.2758 8.08389 11.3591Z" fill="#4DBD38"/>
<path d="M27.4169 11.0504C27.4669 11.0504 27.517 11.042 27.5753 11.0337L29.2178 10.7252C29.668 10.6418 29.9681 10.2 29.8847 9.74974C29.8014 9.29953 29.3678 8.99938 28.9093 9.08276L27.2668 9.39124C26.8166 9.47461 26.5165 9.91649 26.5998 10.3667C26.6749 10.7752 27.025 11.0504 27.4169 11.0504Z" fill="#4DBD38"/>
<path d="M27.9684 4.75563C27.7599 4.34711 27.2514 4.18036 26.8428 4.39713L25.3838 5.15582C24.9753 5.36426 24.8169 5.87283 25.0253 6.28136C25.1754 6.56483 25.4672 6.73158 25.7673 6.73158C25.8924 6.73158 26.0258 6.69823 26.1508 6.63987L27.6099 5.88117C28.0184 5.6644 28.1851 5.16416 27.9684 4.75563Z" fill="#4DBD38"/>
<path d="M29.2598 14.1688L27.6174 14.002C27.1588 13.952 26.7503 14.2855 26.7003 14.7441C26.6503 15.2026 26.9837 15.6111 27.4423 15.6612L29.0848 15.8279C29.1098 15.8279 29.1431 15.8279 29.1681 15.8279C29.5933 15.8279 29.9518 15.5111 29.9935 15.0776C30.0519 14.6273 29.7184 14.2188 29.2598 14.1688Z" fill="#4DBD38"/>
</svg>
