<svg width="24" height="24" viewBox="0 0 24 24" fill="none" xmlns="http://www.w3.org/2000/svg">
<path fill-rule="evenodd" clip-rule="evenodd" d="M15.7803 2.38867C14.984 2.38867 14.2204 2.70498 13.6574 3.268L4.4674 12.458C3.52909 13.3963 3.00195 14.6689 3.00195 15.9959C3.00195 17.3229 3.52909 18.5955 4.4674 19.5338C5.4057 20.4721 6.67832 20.9992 8.00529 20.9992C9.33226 20.9992 10.6049 20.4721 11.5432 19.5338L20.7332 10.3438C21.1237 9.95327 21.7569 9.95327 22.1474 10.3438C22.5379 10.7343 22.5379 11.3675 22.1474 11.758L12.9574 20.948C11.644 22.2614 9.86269 22.9992 8.00529 22.9992C6.14789 22.9992 4.36656 22.2614 3.05318 20.948C1.7398 19.6346 1.00195 17.8533 1.00195 15.9959C1.00195 14.1385 1.7398 12.3572 3.05318 11.0438L12.2432 1.85379C13.1813 0.91569 14.4536 0.388672 15.7803 0.388672C17.107 0.388672 18.3793 0.91569 19.3174 1.85379C20.2555 2.79189 20.7825 4.06422 20.7825 5.3909C20.7825 6.71757 20.2555 7.9899 19.3174 8.928L10.1174 18.118C9.55458 18.6808 8.79124 18.997 7.99529 18.997C7.19934 18.997 6.436 18.6808 5.87318 18.118C5.31037 17.5552 4.99418 16.7918 4.99418 15.9959C4.99418 15.2 5.31037 14.4366 5.87318 13.8738L14.3636 5.39337C14.7544 5.00308 15.3875 5.00345 15.7778 5.39421C16.1681 5.78496 16.1677 6.41813 15.777 6.80842L7.2874 15.288C7.09991 15.4757 6.99418 15.7306 6.99418 15.9959C6.99418 16.2614 7.09965 16.516 7.2874 16.7038C7.47514 16.8915 7.72978 16.997 7.99529 16.997C8.2608 16.997 8.51544 16.8915 8.70318 16.7038L17.9032 7.51379C18.466 6.9508 18.7825 6.18695 18.7825 5.3909C18.7825 4.59466 18.4662 3.83103 17.9032 3.268C17.3402 2.70498 16.5765 2.38867 15.7803 2.38867Z" fill="#646464"/>
</svg>
