<svg width="36" height="36" viewBox="0 0 36 36" fill="none" xmlns="http://www.w3.org/2000/svg">
<path d="M11.5926 31.794C11.5773 31.787 11.5619 31.7803 11.5463 31.774C11.5217 31.7641 11.497 31.7542 11.4722 31.7442C10.6601 31.4169 9.7669 31.0569 8.87073 31.0569L8.8648 31.0569C8.2373 31.0606 7.61636 31.2133 7.07378 31.3789C6.79802 31.4631 6.52473 31.5565 6.2696 31.6441L6.21634 31.6625C5.97625 31.745 5.75358 31.8215 5.53658 31.8897C5.05732 32.0402 4.7027 32.1169 4.43337 32.117C4.19948 32.1172 4.09673 32.0618 4.01772 31.9829C3.93879 31.9038 3.8833 31.801 3.8833 31.5666C3.8833 31.2966 3.95986 30.9412 4.10996 30.4604C4.17671 30.2466 4.25142 30.0275 4.33192 29.7914L4.3546 29.7249C4.44189 29.4687 4.53468 29.1944 4.61818 28.9173C4.78252 28.3719 4.93279 27.7479 4.93279 27.1168C4.93279 26.2083 4.57517 25.3184 4.24081 24.4864L4.22738 24.453C4.22099 24.4371 4.2142 24.4214 4.20701 24.4058C1.60105 18.7745 2.60884 11.894 7.25288 7.25102L7.25308 7.25081C13.1827 1.319 22.8177 1.319 28.7473 7.24927C34.6879 13.1906 34.6774 22.8171 28.7473 28.7479C24.1033 33.3924 17.2251 34.3989 11.5926 31.794Z" stroke="#1D7B1E" stroke-width="2" stroke-linecap="round" stroke-linejoin="round"/>
<path d="M24.3808 18.6723H24.3954" stroke="#1D7B1E" stroke-width="2" stroke-linecap="round" stroke-linejoin="round"/>
<path d="M17.8886 18.6723H17.9032" stroke="#1D7B1E" stroke-width="2" stroke-linecap="round" stroke-linejoin="round"/>
<path d="M11.3906 18.6723H11.4052" stroke="#1D7B1E" stroke-width="2" stroke-linecap="round" stroke-linejoin="round"/>
</svg>
