<svg width="24" height="24" viewBox="0 0 24 24" fill="none" xmlns="http://www.w3.org/2000/svg">
<path d="M2.20725 21.7935L2.71639 21.2844C2.67604 21.2441 2.6422 21.1904 2.6422 21.0444C2.6422 20.8729 2.6911 20.6424 2.79088 20.3228C2.83516 20.181 2.88473 20.0356 2.93844 19.8781L2.95355 19.8338C3.01173 19.663 3.07388 19.4793 3.12985 19.2936C3.23988 18.9284 3.34186 18.5065 3.34186 18.0778C3.34186 17.4618 3.10007 16.8602 2.87848 16.3088L2.86774 16.2821C2.86314 16.2707 2.85825 16.2594 2.85308 16.2482C1.12483 12.5135 1.7933 7.95071 4.87296 4.87173L4.87311 4.87158C8.80537 0.937873 15.1949 0.937873 19.1271 4.87056C23.0667 8.81057 23.0598 15.1945 19.1271 19.1275C16.0475 22.2075 11.4862 22.8751 7.75077 21.1476C7.73979 21.1425 7.72868 21.1377 7.71746 21.1332C7.69982 21.1261 7.6821 21.119 7.66431 21.1118C7.12596 20.8948 6.52186 20.6513 5.91382 20.6512L5.90955 20.6513C5.48339 20.6538 5.06351 20.7574 4.70028 20.8683C4.51545 20.9247 4.33244 20.9872 4.1624 21.0457L4.12718 21.0578C3.96689 21.1129 3.81906 21.1637 3.67508 21.2089C3.35652 21.3089 3.12657 21.3579 2.95555 21.358C2.80993 21.3581 2.75638 21.3244 2.71606 21.2841L2.20725 21.7935ZM2.20725 21.7935C2.71795 22.3036 3.51931 22.0281 4.35903 21.7394C4.88277 21.5594 5.42144 21.3742 5.91382 21.3713L7.44855 21.8011C11.4482 23.6508 16.3356 22.9376 19.6363 19.6366C23.8497 15.4227 23.8573 8.58298 19.6363 4.36147C15.4228 0.147559 8.57734 0.147558 4.3639 4.36255C1.06326 7.66247 0.349076 12.5516 2.19965 16.5505C2.43735 17.1421 2.62186 17.6176 2.62186 18.0778C2.62186 18.5757 2.43646 19.1194 2.25654 19.647C1.97043 20.486 1.69816 21.2844 2.20725 21.7935Z" stroke="#646464" stroke-width="1.44" stroke-linecap="round" stroke-linejoin="round"/>
<path d="M16.2539 12.4482H16.2636" stroke="#646464" stroke-width="2.4" stroke-linecap="round" stroke-linejoin="round"/>
<path d="M11.9258 12.4482H11.9355" stroke="#646464" stroke-width="2.4" stroke-linecap="round" stroke-linejoin="round"/>
<path d="M7.59373 12.4482H7.60345" stroke="#646464" stroke-width="2.4" stroke-linecap="round" stroke-linejoin="round"/>
</svg>
