<svg width="60" height="60" viewBox="0 0 60 60" fill="none" xmlns="http://www.w3.org/2000/svg">
<path d="M0 10C0 4.47715 4.47715 0 10 0H50C55.5228 0 60 4.47715 60 10V59C60 59.5523 59.5523 60 59 60H10C4.47715 60 0 55.5228 0 50V10Z" fill="#4DBD38"/>
<path d="M49.9918 27.734C49.9669 24.5992 47.888 22.5015 44.7351 22.4825C42.3098 22.4678 39.8848 22.4627 37.4595 22.4641C37.4605 22.505 37.4626 22.5451 37.4626 22.586V24.1332C39.8239 24.1328 42.1848 24.1349 44.5461 24.1414C47.0623 24.1482 48.352 25.4514 48.3748 28.0076C48.3935 30.127 48.3813 32.2471 48.3782 34.3669C48.3738 37.3191 47.1972 38.5195 44.2497 38.5935C44.0041 38.5996 43.7592 38.6309 43.3818 38.6612C43.3423 39.4229 43.3086 40.0715 43.2745 40.7303C43.1427 40.7003 43.0275 40.705 43.0091 40.6652C42.1552 38.8207 40.6918 38.4133 38.7618 38.5546C36.4465 38.7239 34.1094 38.602 31.7822 38.5924C30.0041 38.5849 28.8289 38.0089 28.2321 36.8559H26.457C27.1383 38.932 28.9358 40.1801 31.434 40.1975C33.9704 40.2149 36.5095 40.2701 39.0421 40.172C40.2193 40.1263 40.9463 40.4789 41.5812 41.4711C42.5445 42.9774 43.6666 44.3819 44.7212 45.8295C44.8033 45.7883 44.8857 45.7471 44.9678 45.7062C44.9678 43.9329 44.9678 42.1599 44.9678 40.315C48.6456 39.5755 49.9949 37.9323 49.9969 34.3454C49.9972 32.1415 50.0095 29.9376 49.9918 27.734Z" fill="white"/>
<path d="M30.9364 16H15.5009C12.4628 16 10 18.4628 10 21.5009V30.2695C10 33.3076 12.4628 35.7704 15.5009 35.7704H15.6021V42.0122L19.4805 35.7704H30.9361C33.9742 35.7704 36.437 33.3076 36.437 30.2695V21.5009C36.437 18.4628 33.9742 16 30.9364 16ZM17.8625 27.4872C17.1312 27.4872 16.5385 26.8945 16.5385 26.1632C16.5385 25.4318 17.1312 24.8391 17.8625 24.8391C18.5939 24.8391 19.1866 25.4318 19.1866 26.1632C19.1866 26.8945 18.5939 27.4872 17.8625 27.4872ZM23.2445 27.4872C22.5132 27.4872 21.9205 26.8945 21.9205 26.1632C21.9205 25.4318 22.5132 24.8391 23.2445 24.8391C23.9759 24.8391 24.5686 25.4318 24.5686 26.1632C24.5686 26.8945 23.9759 27.4872 23.2445 27.4872ZM28.5744 27.4872C27.8431 27.4872 27.2504 26.8945 27.2504 26.1632C27.2504 25.4318 27.8431 24.8391 28.5744 24.8391C29.3058 24.8391 29.8985 25.4318 29.8985 26.1632C29.8985 26.8945 29.3058 27.4872 28.5744 27.4872Z" fill="white"/>
</svg>
