<svg width="18" height="18" viewBox="0 0 18 18" fill="none" xmlns="http://www.w3.org/2000/svg">
<path d="M15.6111 15.2222H14.8333V2.38889C14.8333 2.175 14.6583 2 14.4444 2H8.22222C8.00833 2 7.83333 2.175 7.83333 2.38889V4.33333H5.11111C4.89722 4.33333 4.72222 4.50833 4.72222 4.72222V5.88889H3.55556C3.34167 5.88889 3.16667 6.06389 3.16667 6.27778V15.2222H2.38889C2.175 15.2222 2 15.3972 2 15.6111C2 15.825 2.175 16 2.38889 16H3.55556H8.22222H10.1667H12.5H14.4444H15.6111C15.825 16 16 15.825 16 15.6111C16 15.3972 15.825 15.2222 15.6111 15.2222ZM5.5 5.11111H7.83333V5.88889H5.5V5.11111ZM3.94444 6.66667H5.11111H7.83333V15.2222H3.94444V6.66667ZM10.5556 15.2222V12.8889H12.1111V15.2222H10.5556ZM12.8889 15.2222V12.5C12.8889 12.2861 12.7139 12.1111 12.5 12.1111H10.1667C9.95278 12.1111 9.77778 12.2861 9.77778 12.5V15.2222H8.61111V6.27778V4.72222V2.77778H14.0556V15.2222H12.8889Z" fill="white"/>
<path d="M12.8906 3.94336H9.77951C9.56562 3.94336 9.39062 4.11836 9.39062 4.33225C9.39062 4.54614 9.56562 4.72114 9.77951 4.72114H12.8906C13.1045 4.72114 13.2795 4.54614 13.2795 4.33225C13.2795 4.11836 13.1045 3.94336 12.8906 3.94336Z" fill="white"/>
<path d="M12.8906 5.89014H9.77951C9.56562 5.89014 9.39062 6.06514 9.39062 6.27903C9.39062 6.49291 9.56562 6.66791 9.77951 6.66791H12.8906C13.1045 6.66791 13.2795 6.49291 13.2795 6.27903C13.2795 6.06514 13.1045 5.89014 12.8906 5.89014Z" fill="white"/>
<path d="M12.8906 7.8335H9.77951C9.56562 7.8335 9.39062 8.0085 9.39062 8.22238C9.39062 8.43627 9.56562 8.61127 9.77951 8.61127H12.8906C13.1045 8.61127 13.2795 8.43627 13.2795 8.22238C13.2795 8.0085 13.1045 7.8335 12.8906 7.8335Z" fill="white"/>
<path d="M12.8906 9.77637H9.77951C9.56562 9.77637 9.39062 9.95137 9.39062 10.1653C9.39062 10.3791 9.56562 10.5541 9.77951 10.5541H12.8906C13.1045 10.5541 13.2795 10.3791 13.2795 10.1653C13.2795 9.95137 13.1045 9.77637 12.8906 9.77637Z" fill="white"/>
<path d="M6.6671 7.8335H5.11155C4.89766 7.8335 4.72266 8.0085 4.72266 8.22238C4.72266 8.43627 4.89766 8.61127 5.11155 8.61127H6.6671C6.88099 8.61127 7.05599 8.43627 7.05599 8.22238C7.05599 8.0085 6.88099 7.8335 6.6671 7.8335Z" fill="white"/>
<path d="M6.6671 9.77637H5.11155C4.89766 9.77637 4.72266 9.95137 4.72266 10.1653C4.72266 10.3791 4.89766 10.5541 5.11155 10.5541H6.6671C6.88099 10.5541 7.05599 10.3791 7.05599 10.1653C7.05599 9.95137 6.88099 9.77637 6.6671 9.77637Z" fill="white"/>
<path d="M6.6671 11.7236H5.11155C4.89766 11.7236 4.72266 11.8986 4.72266 12.1125C4.72266 12.3264 4.89766 12.5014 5.11155 12.5014H6.6671C6.88099 12.5014 7.05599 12.3264 7.05599 12.1125C7.05599 11.8986 6.88099 11.7236 6.6671 11.7236Z" fill="white"/>
</svg>
