<svg width="30" height="30" viewBox="0 0 30 30" fill="none" xmlns="http://www.w3.org/2000/svg">
<path d="M29.1667 28.3333H27.5V0.833333C27.5 0.375 27.125 0 26.6667 0H13.3333C12.875 0 12.5 0.375 12.5 0.833333V5H6.66667C6.20833 5 5.83333 5.375 5.83333 5.83333V8.33333H3.33333C2.875 8.33333 2.5 8.70833 2.5 9.16667V28.3333H0.833333C0.375 28.3333 0 28.7083 0 29.1667C0 29.625 0.375 30 0.833333 30H3.33333H13.3333H17.5H22.5H26.6667H29.1667C29.625 30 30 29.625 30 29.1667C30 28.7083 29.625 28.3333 29.1667 28.3333ZM7.5 6.66667H12.5V8.33333H7.5V6.66667ZM4.16667 10H6.66667H12.5V28.3333H4.16667V10ZM18.3333 28.3333V23.3333H21.6667V28.3333H18.3333ZM23.3333 28.3333V22.5C23.3333 22.0417 22.9583 21.6667 22.5 21.6667H17.5C17.0417 21.6667 16.6667 22.0417 16.6667 22.5V28.3333H14.1667V9.16667V5.83333V1.66667H25.8333V28.3333H23.3333Z" fill="#4DBD38"/>
<path d="M23.334 4.1665H16.6673C16.209 4.1665 15.834 4.5415 15.834 4.99984C15.834 5.45817 16.209 5.83317 16.6673 5.83317H23.334C23.7923 5.83317 24.1673 5.45817 24.1673 4.99984C24.1673 4.5415 23.7923 4.1665 23.334 4.1665Z" fill="#4DBD38"/>
<path d="M23.334 8.3335H16.6673C16.209 8.3335 15.834 8.7085 15.834 9.16683C15.834 9.62516 16.209 10.0002 16.6673 10.0002H23.334C23.7923 10.0002 24.1673 9.62516 24.1673 9.16683C24.1673 8.7085 23.7923 8.3335 23.334 8.3335Z" fill="#4DBD38"/>
<path d="M23.334 12.5H16.6673C16.209 12.5 15.834 12.875 15.834 13.3333C15.834 13.7917 16.209 14.1667 16.6673 14.1667H23.334C23.7923 14.1667 24.1673 13.7917 24.1673 13.3333C24.1673 12.875 23.7923 12.5 23.334 12.5Z" fill="#4DBD38"/>
<path d="M23.334 16.6665H16.6673C16.209 16.6665 15.834 17.0415 15.834 17.4998C15.834 17.9582 16.209 18.3332 16.6673 18.3332H23.334C23.7923 18.3332 24.1673 17.9582 24.1673 17.4998C24.1673 17.0415 23.7923 16.6665 23.334 16.6665Z" fill="#4DBD38"/>
<path d="M10.0007 12.5H6.66732C6.20898 12.5 5.83398 12.875 5.83398 13.3333C5.83398 13.7917 6.20898 14.1667 6.66732 14.1667H10.0007C10.459 14.1667 10.834 13.7917 10.834 13.3333C10.834 12.875 10.459 12.5 10.0007 12.5Z" fill="#4DBD38"/>
<path d="M10.0007 16.6665H6.66732C6.20898 16.6665 5.83398 17.0415 5.83398 17.4998C5.83398 17.9582 6.20898 18.3332 6.66732 18.3332H10.0007C10.459 18.3332 10.834 17.9582 10.834 17.4998C10.834 17.0415 10.459 16.6665 10.0007 16.6665Z" fill="#4DBD38"/>
<path d="M10.0007 20.8335H6.66732C6.20898 20.8335 5.83398 21.2085 5.83398 21.6668C5.83398 22.1252 6.20898 22.5002 6.66732 22.5002H10.0007C10.459 22.5002 10.834 22.1252 10.834 21.6668C10.834 21.2085 10.459 20.8335 10.0007 20.8335Z" fill="#4DBD38"/>
</svg>
