<svg width="36" height="36" viewBox="0 0 36 36" fill="none" xmlns="http://www.w3.org/2000/svg">
<path d="M32.1667 31.3333H30.5V3.83333C30.5 3.375 30.125 3 29.6667 3H16.3333C15.875 3 15.5 3.375 15.5 3.83333V8H9.66667C9.20833 8 8.83333 8.375 8.83333 8.83333V11.3333H6.33333C5.875 11.3333 5.5 11.7083 5.5 12.1667V31.3333H3.83333C3.375 31.3333 3 31.7083 3 32.1667C3 32.625 3.375 33 3.83333 33H6.33333H16.3333H20.5H25.5H29.6667H32.1667C32.625 33 33 32.625 33 32.1667C33 31.7083 32.625 31.3333 32.1667 31.3333ZM10.5 9.66667H15.5V11.3333H10.5V9.66667ZM7.16667 13H9.66667H15.5V31.3333H7.16667V13ZM21.3333 31.3333V26.3333H24.6667V31.3333H21.3333ZM26.3333 31.3333V25.5C26.3333 25.0417 25.9583 24.6667 25.5 24.6667H20.5C20.0417 24.6667 19.6667 25.0417 19.6667 25.5V31.3333H17.1667V12.1667V8.83333V4.66667H28.8333V31.3333H26.3333Z" fill="#69696F"/>
<path d="M26.332 7.1665H19.6654C19.207 7.1665 18.832 7.5415 18.832 7.99984C18.832 8.45817 19.207 8.83317 19.6654 8.83317H26.332C26.7904 8.83317 27.1654 8.45817 27.1654 7.99984C27.1654 7.5415 26.7904 7.1665 26.332 7.1665Z" fill="#69696F"/>
<path d="M26.332 11.3335H19.6654C19.207 11.3335 18.832 11.7085 18.832 12.1668C18.832 12.6252 19.207 13.0002 19.6654 13.0002H26.332C26.7904 13.0002 27.1654 12.6252 27.1654 12.1668C27.1654 11.7085 26.7904 11.3335 26.332 11.3335Z" fill="#69696F"/>
<path d="M26.332 15.5H19.6654C19.207 15.5 18.832 15.875 18.832 16.3333C18.832 16.7917 19.207 17.1667 19.6654 17.1667H26.332C26.7904 17.1667 27.1654 16.7917 27.1654 16.3333C27.1654 15.875 26.7904 15.5 26.332 15.5Z" fill="#69696F"/>
<path d="M26.332 19.6665H19.6654C19.207 19.6665 18.832 20.0415 18.832 20.4998C18.832 20.9582 19.207 21.3332 19.6654 21.3332H26.332C26.7904 21.3332 27.1654 20.9582 27.1654 20.4998C27.1654 20.0415 26.7904 19.6665 26.332 19.6665Z" fill="#69696F"/>
<path d="M12.9987 15.5H9.66536C9.20703 15.5 8.83203 15.875 8.83203 16.3333C8.83203 16.7917 9.20703 17.1667 9.66536 17.1667H12.9987C13.457 17.1667 13.832 16.7917 13.832 16.3333C13.832 15.875 13.457 15.5 12.9987 15.5Z" fill="#69696F"/>
<path d="M12.9987 19.6665H9.66536C9.20703 19.6665 8.83203 20.0415 8.83203 20.4998C8.83203 20.9582 9.20703 21.3332 9.66536 21.3332H12.9987C13.457 21.3332 13.832 20.9582 13.832 20.4998C13.832 20.0415 13.457 19.6665 12.9987 19.6665Z" fill="#69696F"/>
<path d="M12.9987 23.8335H9.66536C9.20703 23.8335 8.83203 24.2085 8.83203 24.6668C8.83203 25.1252 9.20703 25.5002 9.66536 25.5002H12.9987C13.457 25.5002 13.832 25.1252 13.832 24.6668C13.832 24.2085 13.457 23.8335 12.9987 23.8335Z" fill="#69696F"/>
</svg>
