<svg width="24" height="24" viewBox="0 0 24 24" fill="none" xmlns="http://www.w3.org/2000/svg">
<path d="M17.9782 9.5979C17.9782 9.5979 17.5257 15.2104 17.2632 17.5746C17.1382 18.7037 16.4407 19.3654 15.2982 19.3862C13.124 19.4254 10.9473 19.4279 8.77401 19.3821C7.67484 19.3596 6.98901 18.6896 6.86651 17.5804C6.60234 15.1954 6.15234 9.5979 6.15234 9.5979" stroke="#9F1616" stroke-width="1.5" stroke-linecap="round" stroke-linejoin="round"/>
<path d="M19.1317 6.90751H5" stroke="#9F1616" stroke-width="1.5" stroke-linecap="round" stroke-linejoin="round"/>
<path d="M16.4085 6.9075C15.7543 6.9075 15.191 6.445 15.0627 5.80417L14.8602 4.79083C14.7352 4.32333 14.3118 4 13.8293 4H10.3018C9.81932 4 9.39599 4.32333 9.27099 4.79083L9.06849 5.80417C8.94016 6.445 8.37682 6.9075 7.72266 6.9075" stroke="#9F1616" stroke-width="1.5" stroke-linecap="round" stroke-linejoin="round"/>
</svg>
