<svg width="24" height="24" viewBox="0 0 24 24" fill="none" xmlns="http://www.w3.org/2000/svg">
<path d="M19.3238 9.46875C19.3238 9.46875 18.7808 16.2037 18.4658 19.0407C18.3158 20.3957 17.4788 21.1897 16.1078 21.2147C13.4988 21.2617 10.8868 21.2647 8.27881 21.2097C6.95981 21.1827 6.13681 20.3787 5.98981 19.0477C5.67281 16.1858 5.13281 9.46875 5.13281 9.46875" stroke="#69696F" stroke-width="1.5" stroke-linecap="round" stroke-linejoin="round"/>
<path d="M20.708 6.23975H3.75" stroke="#69696F" stroke-width="1.5" stroke-linecap="round" stroke-linejoin="round"/>
<path d="M17.4406 6.23998C16.6556 6.23998 15.9796 5.68498 15.8256 4.91598L15.5826 3.69998C15.4326 3.13898 14.9246 2.75098 14.3456 2.75098H10.1126C9.53358 2.75098 9.02558 3.13898 8.87558 3.69998L8.63258 4.91598C8.47858 5.68498 7.80258 6.23998 7.01758 6.23998" stroke="#69696F" stroke-width="1.5" stroke-linecap="round" stroke-linejoin="round"/>
</svg>
