<svg width="36" height="36" viewBox="0 0 36 36" fill="none" xmlns="http://www.w3.org/2000/svg">
<path d="M29.8341 14.6701L32.8591 10.1293C32.9924 9.93762 33.0341 9.696 32.9757 9.46271C32.9174 9.23775 32.7674 9.04612 32.5591 8.92947L21.7257 3.09722C21.3424 2.89726 20.8757 3.01391 20.6341 3.37217L18.0007 7.3381L15.3591 3.3805C15.1174 3.02224 14.6507 2.90559 14.2674 3.10556L3.43406 8.9378C3.23406 9.04612 3.08406 9.23775 3.02573 9.47104C2.9674 9.696 3.00906 9.93762 3.1424 10.1376L6.1674 14.6701L3.1424 19.2109C3.00906 19.4025 2.9674 19.6441 3.02573 19.8774C3.08406 20.1024 3.23406 20.294 3.4424 20.4107L6.33406 21.9604V26.3346C6.33406 26.6428 6.50073 26.9261 6.77573 27.0678L17.6091 32.9C17.6257 32.9083 17.6424 32.9084 17.6591 32.9167C17.6757 32.925 17.7007 32.9333 17.7174 32.9417C17.8091 32.975 17.9007 33 18.0007 33C18.1007 33 18.1924 32.975 18.2924 32.9417C18.3091 32.9333 18.3341 32.925 18.3507 32.9167C18.3674 32.9084 18.3841 32.9083 18.4007 32.9L29.2341 27.0678C29.5007 26.9261 29.6674 26.6428 29.6674 26.3346V21.9604L32.5591 20.4023C32.7674 20.294 32.9174 20.0941 32.9757 19.8691C33.0341 19.6441 32.9924 19.4025 32.8591 19.2026L29.8341 14.6701ZM27.0757 14.6701L18.0007 19.5525L8.92573 14.6701L18.0007 9.78765L27.0757 14.6701ZM21.6091 4.93022L30.9674 9.97095L28.5591 13.5786L25.0591 11.6956H25.0507L19.2007 8.54621L21.6091 4.93022ZM14.3924 4.93022L16.8007 8.53788L7.4424 13.5786L5.03406 9.97095L14.3924 4.93022ZM7.4424 15.7615L16.8007 20.8023L14.3924 24.4099L5.03406 19.3692L7.4424 15.7615ZM8.00073 22.8602L14.2757 26.2346C14.4007 26.3012 14.5341 26.3346 14.6674 26.3346C14.9341 26.3346 15.2007 26.2013 15.3591 25.9596L17.1674 23.2518V30.7671L8.00073 25.8347V22.8602ZM28.0007 25.8347L18.8341 30.7671V23.2518L20.6424 25.9596C20.8007 26.2013 21.0674 26.3346 21.3341 26.3346C21.4674 26.3346 21.6007 26.3012 21.7257 26.2346L28.0007 22.8602V25.8347ZM21.6091 24.4099L19.2007 20.8023L28.5591 15.7615L30.9674 19.3692L21.6091 24.4099Z" fill="#69696F"/>
</svg>
