<svg width="36" height="36" viewBox="0 0 36 36" fill="none" xmlns="http://www.w3.org/2000/svg">
<path d="M32.1667 7.71429H28.8333V6.85714C28.8333 6.38571 28.4583 6 28 6C27.5417 6 27.1667 6.38571 27.1667 6.85714V7.71429H23.8333C23.375 7.71429 23 8.1 23 8.57143C23 9.04286 23.375 9.42857 23.8333 9.42857H27.1667V12H26.3333C25.875 12 25.5 12.3857 25.5 12.8571V15.4286H25.2917C24.5583 15.4286 23.4 15.0257 22.8167 14.5543C22.7333 14.4857 20.6583 12.8571 18 12.8571C15.3417 12.8571 13.2667 14.4857 13.1833 14.5543C12.6 15.0257 11.45 15.4286 10.7083 15.4286H10.5V12.8571C10.5 12.3857 10.125 12 9.66667 12H8.83333V9.42857H12.1667C12.625 9.42857 13 9.04286 13 8.57143C13 8.1 12.625 7.71429 12.1667 7.71429H8.83333V6.85714C8.83333 6.38571 8.45833 6 8 6C7.54167 6 7.16667 6.38571 7.16667 6.85714V7.71429H3.83333C3.375 7.71429 3 8.1 3 8.57143C3 9.04286 3.375 9.42857 3.83333 9.42857H7.16667V12H6.33333C5.875 12 5.5 12.3857 5.5 12.8571V21.4286C5.5 22.8429 6.625 24 8 24C9.375 24 10.5 22.8429 10.5 21.4286V20.64C11.6083 20.9143 12.1667 22.0371 12.1667 24C12.1667 27.3086 14.7833 30 18 30C21.2167 30 23.8333 27.3086 23.8333 24C23.8333 22.0371 24.3917 20.9143 25.5 20.64V21.4286C25.5 22.8429 26.625 24 28 24C29.375 24 30.5 22.8429 30.5 21.4286V12.8571C30.5 12.3857 30.125 12 29.6667 12H28.8333V9.42857H32.1667C32.625 9.42857 33 9.04286 33 8.57143C33 8.1 32.625 7.71429 32.1667 7.71429ZM8.83333 21.4286C8.83333 21.9 8.45833 22.2857 8 22.2857C7.54167 22.2857 7.16667 21.9 7.16667 21.4286V13.7143H8.83333V16.2857V19.7143V21.4286ZM22.1667 24C22.1667 26.3657 20.3 28.2857 18 28.2857C15.7 28.2857 13.8333 26.3657 13.8333 24C13.8333 19.98 11.7167 19.08 10.5 18.9V17.1429H10.7083C11.8 17.1429 13.3417 16.6029 14.2 15.9086C14.2167 15.9 15.925 14.5714 18 14.5714C20.075 14.5714 21.7833 15.9 21.8 15.9086C22.6667 16.6029 24.2 17.1429 25.2917 17.1429H25.5V18.9C24.2833 19.08 22.1667 19.98 22.1667 24ZM28.8333 21.4286C28.8333 21.9 28.4583 22.2857 28 22.2857C27.5417 22.2857 27.1667 21.9 27.1667 21.4286V19.7143V16.2857V13.7143H28.8333V21.4286Z" fill="#69696F"/>
<path d="M18 21.4287C16.625 21.4287 15.5 22.5859 15.5 24.0001C15.5 25.4144 16.625 26.5716 18 26.5716C19.375 26.5716 20.5 25.4144 20.5 24.0001C20.5 22.5859 19.375 21.4287 18 21.4287ZM18 24.8573C17.5417 24.8573 17.1667 24.4716 17.1667 24.0001C17.1667 23.5287 17.5417 23.143 18 23.143C18.4583 23.143 18.8333 23.5287 18.8333 24.0001C18.8333 24.4716 18.4583 24.8573 18 24.8573Z" fill="#69696F"/>
<path d="M15.0423 17.2886C14.659 17.5544 14.559 18.0858 14.809 18.4801C15.0673 18.8744 15.584 18.9772 15.9673 18.7201C15.984 18.7029 18.0257 17.3401 20.0423 18.7201C20.184 18.8144 20.3423 18.8572 20.5007 18.8572C20.7673 18.8572 21.034 18.7201 21.1923 18.4715C21.4507 18.0772 21.3423 17.5458 20.959 17.2801C18.034 15.2744 15.159 17.2029 15.0423 17.2886Z" fill="#69696F"/>
</svg>
