<svg width="30" height="24" viewBox="0 0 30 24" fill="none" xmlns="http://www.w3.org/2000/svg">
<path d="M29.1667 1.71429H25.8333V0.857143C25.8333 0.385714 25.4583 0 25 0C24.5417 0 24.1667 0.385714 24.1667 0.857143V1.71429H20.8333C20.375 1.71429 20 2.1 20 2.57143C20 3.04286 20.375 3.42857 20.8333 3.42857H24.1667V6H23.3333C22.875 6 22.5 6.38571 22.5 6.85714V9.42857H22.2917C21.5583 9.42857 20.4 9.02571 19.8167 8.55429C19.7333 8.48571 17.6583 6.85714 15 6.85714C12.3417 6.85714 10.2667 8.48571 10.1833 8.55429C9.6 9.02571 8.45 9.42857 7.70833 9.42857H7.5V6.85714C7.5 6.38571 7.125 6 6.66667 6H5.83333V3.42857H9.16667C9.625 3.42857 10 3.04286 10 2.57143C10 2.1 9.625 1.71429 9.16667 1.71429H5.83333V0.857143C5.83333 0.385714 5.45833 0 5 0C4.54167 0 4.16667 0.385714 4.16667 0.857143V1.71429H0.833333C0.375 1.71429 0 2.1 0 2.57143C0 3.04286 0.375 3.42857 0.833333 3.42857H4.16667V6H3.33333C2.875 6 2.5 6.38571 2.5 6.85714V15.4286C2.5 16.8429 3.625 18 5 18C6.375 18 7.5 16.8429 7.5 15.4286V14.64C8.60833 14.9143 9.16667 16.0371 9.16667 18C9.16667 21.3086 11.7833 24 15 24C18.2167 24 20.8333 21.3086 20.8333 18C20.8333 16.0371 21.3917 14.9143 22.5 14.64V15.4286C22.5 16.8429 23.625 18 25 18C26.375 18 27.5 16.8429 27.5 15.4286V6.85714C27.5 6.38571 27.125 6 26.6667 6H25.8333V3.42857H29.1667C29.625 3.42857 30 3.04286 30 2.57143C30 2.1 29.625 1.71429 29.1667 1.71429ZM5.83333 15.4286C5.83333 15.9 5.45833 16.2857 5 16.2857C4.54167 16.2857 4.16667 15.9 4.16667 15.4286V7.71429H5.83333V10.2857V13.7143V15.4286ZM19.1667 18C19.1667 20.3657 17.3 22.2857 15 22.2857C12.7 22.2857 10.8333 20.3657 10.8333 18C10.8333 13.98 8.71667 13.08 7.5 12.9V11.1429H7.70833C8.8 11.1429 10.3417 10.6029 11.2 9.90857C11.2167 9.9 12.925 8.57143 15 8.57143C17.075 8.57143 18.7833 9.9 18.8 9.90857C19.6667 10.6029 21.2 11.1429 22.2917 11.1429H22.5V12.9C21.2833 13.08 19.1667 13.98 19.1667 18ZM25.8333 15.4286C25.8333 15.9 25.4583 16.2857 25 16.2857C24.5417 16.2857 24.1667 15.9 24.1667 15.4286V13.7143V10.2857V7.71429H25.8333V15.4286Z" fill="#4DBD38"/>
<path d="M15 15.4287C13.625 15.4287 12.5 16.5859 12.5 18.0001C12.5 19.4144 13.625 20.5716 15 20.5716C16.375 20.5716 17.5 19.4144 17.5 18.0001C17.5 16.5859 16.375 15.4287 15 15.4287ZM15 18.8573C14.5417 18.8573 14.1667 18.4716 14.1667 18.0001C14.1667 17.5287 14.5417 17.143 15 17.143C15.4583 17.143 15.8333 17.5287 15.8333 18.0001C15.8333 18.4716 15.4583 18.8573 15 18.8573Z" fill="#4DBD38"/>
<path d="M12.0423 11.2886C11.659 11.5544 11.559 12.0858 11.809 12.4801C12.0673 12.8744 12.584 12.9772 12.9673 12.7201C12.984 12.7029 15.0257 11.3401 17.0423 12.7201C17.184 12.8144 17.3423 12.8572 17.5007 12.8572C17.7673 12.8572 18.034 12.7201 18.1923 12.4715C18.4507 12.0772 18.3423 11.5458 17.959 11.2801C15.034 9.27435 12.159 11.2029 12.0423 11.2886Z" fill="#4DBD38"/>
</svg>
