<svg width="21" height="21" viewBox="0 0 21 21" fill="none" xmlns="http://www.w3.org/2000/svg">
<g clip-path="url(#clip0_3310_4510)">
<path d="M17.8 10.5224V18.1534C17.8 18.8716 17.17 19.5 16.45 19.5H3.85C3.13 19.5 2.5 18.8716 2.5 18.1534V5.58479C2.5 4.86658 3.13 4.23815 3.85 4.23815H11.5C11.77 4.23815 11.95 4.41771 11.95 4.68703C11.95 4.95636 11.77 5.13591 11.5 5.13591H3.85C3.58 5.13591 3.4 5.31546 3.4 5.58479V18.1534C3.4 18.4227 3.58 18.6022 3.85 18.6022H16.45C16.72 18.6022 16.9 18.4227 16.9 18.1534V10.5224C16.9 10.2531 17.08 10.0736 17.35 10.0736C17.62 10.0736 17.8 10.2531 17.8 10.5224ZM20.5 4.14838C20.5 4.50748 20.32 4.86658 20.14 5.13591L18.88 6.39277L10.87 14.3828C10.78 14.4726 10.78 14.4726 10.69 14.4726L7.27 15.3703H7.18C7.09 15.3703 6.91 15.2805 6.82 15.2805C6.73 15.1908 6.64 15.0112 6.73 14.8317L7.63 11.4202C7.63 11.3304 7.72 11.2406 7.72 11.2406L15.73 3.25062L16.27 2.71197L16.9 1.90399C17.44 1.36534 18.34 1.36534 18.79 1.90399L20.05 3.16085C20.32 3.43017 20.5 3.78928 20.5 4.14838ZM17.35 6.57232C17.26 6.57232 17.26 6.48254 17.26 6.48254L15.55 4.77681L15.46 4.68703L8.35 11.7793L7.72 14.293L10.24 13.6646L17.35 6.57232ZM19.6 4.14838C19.6 4.0586 19.51 3.87905 19.51 3.78928L18.25 2.53242C18.07 2.35287 17.8 2.35287 17.62 2.53242L16.9 3.25062L16.36 3.78928L16 4.14838C16.09 4.14838 16.09 4.23815 16.09 4.23815L17.8 5.85412L17.89 5.94389L18.79 5.13591L19.51 4.41771C19.51 4.41771 19.6 4.23815 19.6 4.14838Z" fill="#11100E"/>
</g>
<defs>
<clipPath id="clip0_3310_4510">
<rect width="20" height="20" fill="white" transform="translate(0.5 0.5)"/>
</clipPath>
</defs>
</svg>
