<svg width="18" height="18" viewBox="0 0 18 18" fill="none" xmlns="http://www.w3.org/2000/svg">
<path d="M7.33333 9.42278C7.33333 8.48778 6.5875 7.73047 5.66667 7.73047C4.74583 7.73047 4 8.48778 4 9.42278C4 10.3578 4.74583 11.1151 5.66667 11.1151C6.5875 11.1151 7.33333 10.3578 7.33333 9.42278ZM5.66667 10.2689C5.20833 10.2689 4.83333 9.88816 4.83333 9.42278C4.83333 8.95739 5.20833 8.57662 5.66667 8.57662C6.125 8.57662 6.5 8.95739 6.5 9.42278C6.5 9.88816 6.125 10.2689 5.66667 10.2689Z" fill="white"/>
<path d="M15.25 3.5H2.75C2.0625 3.5 1.5 4.07115 1.5 4.76923V13.2308C1.5 13.9288 2.0625 14.5 2.75 14.5H3.19583H8.1375H15.25C15.9375 14.5 16.5 13.9288 16.5 13.2308V4.76923C16.5 4.07115 15.9375 3.5 15.25 3.5ZM3.5875 13.6538C3.65 12.7104 4.55833 11.9615 5.66667 11.9615L5.79583 11.9658C5.8125 11.9658 5.85833 11.9615 5.875 11.9615H8.77083C8.95417 11.9615 9.1125 11.8431 9.16667 11.6654L9.77083 9.74885C9.80417 9.63885 9.925 9.57539 10.0333 9.61346C10.1042 9.63462 10.1417 9.68962 10.1542 9.71923C10.1708 9.74885 10.1917 9.80808 10.1667 9.88L9.425 12.2365C9.39583 12.3338 9.30417 12.3804 9.22917 12.3804C9.21667 12.3804 9.2 12.3804 9.1875 12.3846H7.925C7.77917 12.3846 7.64167 12.465 7.56667 12.5919C7.49167 12.7188 7.4875 12.8796 7.55833 13.0108C7.67083 13.2181 7.73333 13.4338 7.74583 13.6538H3.5875ZM15.6667 13.2308C15.6667 13.4635 15.4792 13.6538 15.25 13.6538H8.57917C8.57083 13.51 8.55833 13.3704 8.525 13.2308H9.20833C9.22083 13.2308 9.24583 13.2308 9.26667 13.2265C9.70417 13.2096 10.0833 12.9177 10.2167 12.4946L10.9583 10.1381C11.0417 9.86731 11.0208 9.58385 10.8917 9.33C10.7625 9.08039 10.5458 8.89423 10.2833 8.80962C10.2792 8.80962 10.2792 8.80962 10.275 8.80962V5.61538C10.275 5.38269 10.0875 5.19231 9.85833 5.19231C9.62917 5.19231 9.44167 5.38269 9.44167 5.61538V8.90692C9.22917 9.03385 9.05417 9.23692 8.975 9.495L8.46667 11.1154H5.875C5.85 11.1154 5.825 11.1154 5.79583 11.1196H5.78333C5.74583 11.1154 5.70833 11.1154 5.66667 11.1154C4.09583 11.1154 2.81667 12.245 2.75417 13.6538H2.75C2.52083 13.6538 2.33333 13.4635 2.33333 13.2308V4.76923C2.33333 4.53654 2.52083 4.34615 2.75 4.34615H15.25C15.4792 4.34615 15.6667 4.53654 15.6667 4.76923V13.2308Z" fill="white"/>
<path d="M14.4193 5.19238H11.5026C11.2734 5.19238 11.0859 5.38277 11.0859 5.61546C11.0859 5.84815 11.2734 6.03854 11.5026 6.03854H14.4193C14.6484 6.03854 14.8359 5.84815 14.8359 5.61546C14.8359 5.38277 14.6484 5.19238 14.4193 5.19238Z" fill="white"/>
<path d="M14.4167 6.88477H11.9167C11.6875 6.88477 11.5 7.07515 11.5 7.30784C11.5 7.54053 11.6875 7.73092 11.9167 7.73092H14.4167C14.6458 7.73092 14.8333 7.54053 14.8333 7.30784C14.8333 7.07515 14.6458 6.88477 14.4167 6.88477Z" fill="white"/>
<path d="M14.4141 8.57715H12.3307C12.1016 8.57715 11.9141 8.76753 11.9141 9.00023C11.9141 9.23292 12.1016 9.4233 12.3307 9.4233H14.4141C14.6432 9.4233 14.8307 9.23292 14.8307 9.00023C14.8307 8.76753 14.6432 8.57715 14.4141 8.57715Z" fill="white"/>
</svg>
