<svg width="36" height="36" viewBox="0 0 36 36" fill="none" xmlns="http://www.w3.org/2000/svg">
<path d="M24.3012 20.1705L20.4894 19.6452L18.7865 16.3643C18.4865 15.7874 17.5159 15.7874 17.2071 16.3643L15.5041 19.6452L11.6924 20.1705C11.3571 20.2135 11.0835 20.446 10.9777 20.7646C10.8718 21.0832 10.96 21.4191 11.2071 21.6516L13.9512 24.2005L13.3071 27.7999C13.2453 28.1185 13.3865 28.4457 13.6512 28.6438C13.9247 28.8418 14.2777 28.8677 14.5777 28.7127L18.0012 26.9991L21.4159 28.7127C21.5394 28.773 21.6806 28.8074 21.8218 28.8074C22.0071 28.8074 22.1924 28.7471 22.3424 28.6352C22.6159 28.4457 22.7482 28.1185 22.6865 27.7913L22.0424 24.1918L24.7865 21.643C25.0335 21.4191 25.1218 21.0746 25.0159 20.756C24.9188 20.446 24.6365 20.2135 24.3012 20.1705ZM20.4806 23.2705C20.2688 23.4685 20.1718 23.7613 20.2159 24.0455L20.6394 26.3877L18.3982 25.2682C18.2747 25.208 18.1335 25.1735 17.9924 25.1735C17.8512 25.1735 17.7188 25.208 17.5865 25.2682L15.3453 26.3877L15.7688 24.0455C15.8218 23.7613 15.7247 23.4685 15.5041 23.2705L13.7394 21.6257L16.2012 21.2813C16.4835 21.2382 16.7306 21.066 16.8629 20.8163L18.0012 18.6549L19.1218 20.8163C19.2541 21.066 19.5012 21.2382 19.7835 21.2813L22.2453 21.6257L20.4806 23.2705Z" fill="#69696F"/>
<path d="M28.5882 5.58333H26.8235V3.86111C26.8235 3.3875 26.4265 3 25.9412 3C25.4559 3 25.0588 3.3875 25.0588 3.86111V5.58333H10.9412V3.86111C10.9412 3.3875 10.5441 3 10.0588 3C9.57353 3 9.17647 3.3875 9.17647 3.86111V5.58333H7.41176C4.97647 5.58333 3 7.51222 3 9.88889V29.6944C3 32.0711 4.97647 34 7.41176 34H28.5882C31.0235 34 33 32.0711 33 29.6944V9.88889C33 7.51222 31.0235 5.58333 28.5882 5.58333ZM7.41176 7.30556H9.17647V9.02778C9.17647 9.50139 9.57353 9.88889 10.0588 9.88889C10.5441 9.88889 10.9412 9.50139 10.9412 9.02778V7.30556H25.0588V9.02778C25.0588 9.50139 25.4559 9.88889 25.9412 9.88889C26.4265 9.88889 26.8235 9.50139 26.8235 9.02778V7.30556H28.5882C30.0441 7.30556 31.2353 8.46806 31.2353 9.88889V12.4722H4.76471V9.88889C4.76471 8.46806 5.95588 7.30556 7.41176 7.30556ZM28.5882 32.2778H7.41176C5.95588 32.2778 4.76471 31.1153 4.76471 29.6944V14.1944H31.2353V29.6944C31.2353 31.1153 30.0441 32.2778 28.5882 32.2778Z" fill="#69696F"/>
</svg>
