<svg width="48" height="44" viewBox="0 0 48 44" fill="none" xmlns="http://www.w3.org/2000/svg">
<path fill-rule="evenodd" clip-rule="evenodd" d="M19.1267 21.4266C19.6236 21.4364 20.1364 21.8472 20.1267 22.3441L20.1357 26.8329L24.6245 26.8427C25.1215 26.833 25.5323 27.3458 25.542 27.8427C25.5518 28.3397 25.1568 28.833 24.6598 28.8427L19.2352 28.8427C18.9904 28.8475 18.5996 28.7159 18.4265 28.5427C18.2534 28.3696 18.1217 28.0875 18.1265 27.8427L18.1265 22.3088C18.1362 21.8119 18.6297 21.4169 19.1267 21.4266Z" fill="white"/>
<path fill-rule="evenodd" clip-rule="evenodd" d="M29.8401 23.5416C29.3432 23.5319 28.8304 23.1211 28.8401 22.6241L28.8311 18.1353L24.3423 18.1255C23.8453 18.1353 23.4345 17.6225 23.4248 17.1255C23.415 16.6286 23.81 16.1353 24.307 16.1255L29.7316 16.1255C29.9764 16.1207 30.3672 16.2524 30.5403 16.4255C30.7134 16.5986 30.8451 16.8808 30.8403 17.1255L30.8403 22.6594C30.8306 23.1564 30.3371 23.5514 29.8401 23.5416Z" fill="white"/>
</svg>
