<svg width="36" height="36" viewBox="0 0 36 36" fill="none" xmlns="http://www.w3.org/2000/svg">
<path d="M28 8.11768H16.3333C15.875 8.11768 15.5 8.48826 15.5 8.94121C15.5 9.39415 15.875 9.76473 16.3333 9.76473H28C28.4583 9.76473 28.8333 9.39415 28.8333 8.94121C28.8333 8.48826 28.4583 8.11768 28 8.11768Z" fill="#4DBD38"/>
<path d="M28 11.4116H26.3333C25.875 11.4116 25.5 11.7822 25.5 12.2352C25.5 12.6881 25.875 13.0587 26.3333 13.0587H28C28.4583 13.0587 28.8333 12.6881 28.8333 12.2352C28.8333 11.7822 28.4583 11.4116 28 11.4116Z" fill="#4DBD38"/>
<path d="M30.5 4H13.8333C12.4583 4 11.3333 5.11176 11.3333 6.47059V11.4118H5.5C4.125 11.4118 3 12.5235 3 13.8824V25.4118C3 26.7706 4.125 27.8824 5.5 27.8824H7.16667V31.1765C7.16667 31.4976 7.35833 31.7941 7.65833 31.9259C7.76667 31.9753 7.88333 32 8 32C8.2 32 8.39167 31.9341 8.55 31.7941L13.075 27.8824H22.1667C23.5417 27.8824 24.6667 26.7706 24.6667 25.4118V21.9776L27.45 24.3824C27.6083 24.5224 27.8 24.5882 28 24.5882C28.1167 24.5882 28.2333 24.5635 28.3417 24.5141C28.6417 24.3824 28.8333 24.0859 28.8333 23.7647V20.4706H30.5C31.875 20.4706 33 19.3588 33 18V6.47059C33 5.11176 31.875 4 30.5 4ZM23 25.4118C23 25.8647 22.625 26.2353 22.1667 26.2353H12.7583C12.5583 26.2353 12.3583 26.3094 12.2083 26.4412L8.83333 29.3647V27.0588C8.83333 26.6059 8.45833 26.2353 8 26.2353H5.5C5.04167 26.2353 4.66667 25.8647 4.66667 25.4118V13.8824C4.66667 13.4294 5.04167 13.0588 5.5 13.0588H22.1667C22.625 13.0588 23 13.4294 23 13.8824V25.4118ZM31.3333 18C31.3333 18.4529 30.9583 18.8235 30.5 18.8235H28C27.5417 18.8235 27.1667 19.1941 27.1667 19.6471V21.9529L24.6667 19.7871V16.3529H28C28.4583 16.3529 28.8333 15.9824 28.8333 15.5294C28.8333 15.0765 28.4583 14.7059 28 14.7059H24.6667V13.8824C24.6667 12.5235 23.5417 11.4118 22.1667 11.4118H13V6.47059C13 6.01765 13.375 5.64706 13.8333 5.64706H30.5C30.9583 5.64706 31.3333 6.01765 31.3333 6.47059V18Z" fill="#4DBD38"/>
<path d="M13.8912 14.7061C11.6079 14.7061 10.8329 16.5672 10.7495 17.5555C10.7079 18.0084 11.0495 18.4119 11.5079 18.4449C11.9745 18.4861 12.3745 18.1484 12.4079 17.6955C12.4162 17.5555 12.5662 16.3449 13.8912 16.3449C14.6245 16.3449 15.1162 16.9131 15.2245 17.4731C15.2829 17.7696 15.2829 18.3131 14.5829 18.6013C13.1329 19.1861 12.8245 20.5037 12.8662 21.1872C12.8995 21.6237 13.2662 21.9531 13.6995 21.9531C13.7162 21.9531 13.7329 21.9531 13.7579 21.9531C14.2162 21.9202 14.5662 21.5331 14.5329 21.0802C14.5329 21.0719 14.4995 20.4213 15.2162 20.1331C16.4745 19.6225 17.1162 18.4613 16.8579 17.1684C16.6245 15.9413 15.5245 14.7061 13.8912 14.7061Z" fill="#4DBD38"/>
<path d="M13.7421 22.6528C13.2087 22.6528 12.7754 23.0811 12.7754 23.6081C12.7754 24.1352 13.2087 24.5634 13.7421 24.5634C14.2754 24.5634 14.7087 24.1352 14.7087 23.6081C14.7087 23.0811 14.2754 22.6528 13.7421 22.6528Z" fill="#4DBD38"/>
</svg>
