<svg width="36" height="36" viewBox="0 0 36 36" fill="none" xmlns="http://www.w3.org/2000/svg">
<path d="M24.3 20.1706L20.4882 19.6453L18.7853 16.3645C18.4853 15.7875 17.5147 15.7875 17.2059 16.3645L15.5029 19.6453L11.6912 20.1706C11.3559 20.2136 11.0824 20.4461 10.9765 20.7647C10.8706 21.0834 10.9588 21.4192 11.2059 21.6517L13.95 24.2006L13.3059 27.8C13.2441 28.1186 13.3853 28.4459 13.65 28.6439C13.9235 28.842 14.2765 28.8678 14.5765 28.7128L18 26.9992L21.4147 28.7128C21.5382 28.7731 21.6794 28.8075 21.8206 28.8075C22.0059 28.8075 22.1912 28.7472 22.3412 28.6353C22.6147 28.4459 22.7471 28.1186 22.6853 27.7914L22.0412 24.192L24.7853 21.6431C25.0324 21.4192 25.1206 21.0747 25.0147 20.7561C24.9176 20.4461 24.6353 20.2136 24.3 20.1706ZM20.4794 23.2706C20.2676 23.4686 20.1706 23.7614 20.2147 24.0456L20.6382 26.3878L18.3971 25.2684C18.2735 25.2081 18.1324 25.1736 17.9912 25.1736C17.85 25.1736 17.7176 25.2081 17.5853 25.2684L15.3441 26.3878L15.7676 24.0456C15.8206 23.7614 15.7235 23.4686 15.5029 23.2706L13.7382 21.6259L16.2 21.2814C16.4824 21.2384 16.7294 21.0661 16.8618 20.8164L18 18.655L19.1206 20.8164C19.2529 21.0661 19.5 21.2384 19.7824 21.2814L22.2441 21.6259L20.4794 23.2706Z" fill="#69696f"/>
<path d="M28.5882 5.58333H26.8235V3.86111C26.8235 3.3875 26.4265 3 25.9412 3C25.4559 3 25.0588 3.3875 25.0588 3.86111V5.58333H10.9412V3.86111C10.9412 3.3875 10.5441 3 10.0588 3C9.57353 3 9.17647 3.3875 9.17647 3.86111V5.58333H7.41176C4.97647 5.58333 3 7.51222 3 9.88889V29.6944C3 32.0711 4.97647 34 7.41176 34H28.5882C31.0235 34 33 32.0711 33 29.6944V9.88889C33 7.51222 31.0235 5.58333 28.5882 5.58333ZM7.41176 7.30556H9.17647V9.02778C9.17647 9.50139 9.57353 9.88889 10.0588 9.88889C10.5441 9.88889 10.9412 9.50139 10.9412 9.02778V7.30556H25.0588V9.02778C25.0588 9.50139 25.4559 9.88889 25.9412 9.88889C26.4265 9.88889 26.8235 9.50139 26.8235 9.02778V7.30556H28.5882C30.0441 7.30556 31.2353 8.46806 31.2353 9.88889V12.4722H4.76471V9.88889C4.76471 8.46806 5.95588 7.30556 7.41176 7.30556ZM28.5882 32.2778H7.41176C5.95588 32.2778 4.76471 31.1153 4.76471 29.6944V14.1944H31.2353V29.6944C31.2353 31.1153 30.0441 32.2778 28.5882 32.2778Z" fill="#69696f"/>
</svg>
