<?xml version="1.0" encoding="utf-8"?>
<!-- Generator: Adobe Illustrator 27.6.1, SVG Export Plug-In . SVG Version: 6.00 Build 0)  -->
<svg version="1.1" id="Layer_1" xmlns="http://www.w3.org/2000/svg" xmlns:xlink="http://www.w3.org/1999/xlink" x="0px" y="0px"
	 viewBox="0 0 500 500" style="enable-background:new 0 0 500 500;" xml:space="preserve">
<style type="text/css">
	.st0{fill:#32CD32;}
</style>
<g>
	<path class="st0" d="M247.87,2.31c-3.72-0.16-7.45-0.28-11.21-0.28H46.62c-24.42,0-44.2,19.79-44.2,44.21v190.04
		c0,3.76,0.13,7.49,0.28,11.21C179.29,236.11,236.5,178.91,247.87,2.31"/>
	<path class="st0" d="M497.47,247.46c-7.91-131.65-113.25-236.99-244.9-244.9C263.97,178.88,321.15,236.06,497.47,247.46"/>
	<path class="st0" d="M2.94,252.18c7.91,131.65,113.25,237,244.9,244.9C236.45,320.76,179.27,263.58,2.94,252.18"/>
	<path class="st0" d="M252.55,497.33c3.72,0.16,7.45,0.28,11.21,0.28H453.8c24.41,0,44.2-19.79,44.2-44.21V263.37
		c0-3.76-0.13-7.49-0.28-11.21C321.12,263.54,263.92,320.73,252.55,497.33"/>
</g>
</svg>
