<svg width="24" height="24" viewBox="0 0 24 24" fill="none" xmlns="http://www.w3.org/2000/svg">
<g clip-path="url(#clip0_3770_2302)">
<path d="M22.8001 9.00027V8.88027V8.76027C22.8001 8.76027 22.8001 8.76027 22.8001 8.64027C22.8001 8.64027 22.8001 8.52027 22.6801 8.52027L12.4801 0.120273C12.1201 0.000273438 11.8801 0.000273438 11.6401 0.120273L1.44006 8.52027C1.44006 8.52027 1.44006 8.64027 1.32006 8.64027C1.32006 8.64027 1.32006 8.64027 1.32006 8.76027V8.88027V9.00027V22.2003C1.20006 23.1603 2.04006 24.0003 3.00006 24.0003H21.0001C21.9601 24.0003 22.8001 23.1603 22.8001 22.2003V9.00027ZM21.0001 22.8003H3.00006C2.64006 22.8003 2.40006 22.5603 2.40006 22.2003V9.24027L12.0001 1.32027L21.6001 9.24027V22.2003C21.6001 22.5603 21.3601 22.8003 21.0001 22.8003ZM18.0001 19.8003C18.0001 20.1603 17.7601 20.4003 17.4001 20.4003H6.60006C6.24006 20.4003 6.00006 20.1603 6.00006 19.8003C6.00006 19.4403 6.24006 19.2003 6.60006 19.2003H17.4001C17.7601 19.2003 18.0001 19.4403 18.0001 19.8003Z" fill="#646464"/>
</g>
<defs>
<clipPath id="clip0_3770_2302">
<rect width="24" height="24" fill="white"/>
</clipPath>
</defs>
</svg>
