<svg width="20" height="20" viewBox="0 0 20 20" fill="none" xmlns="http://www.w3.org/2000/svg">
<path d="M18 7.73592V7.64581V7.55569C18 7.55569 18 7.55569 18 7.46558C18 7.46558 18 7.37547 17.9107 7.37547L10.3169 1.06758C10.0489 0.977472 9.87026 0.977472 9.69159 1.06758L2.09787 7.37547C2.09787 7.37547 2.09787 7.46558 2.00853 7.46558C2.00853 7.46558 2.00853 7.46558 2.00853 7.55569V7.64581V7.73592V17.6483C1.9192 18.3692 2.54456 19 3.25926 19H16.6599C17.3746 19 18 18.3692 18 17.6483V7.73592ZM16.6599 18.0989H3.25926C2.99125 18.0989 2.81257 17.9186 2.81257 17.6483V7.91614L9.9596 1.96871L17.1066 7.91614V17.6483C17.1066 17.9186 16.9279 18.0989 16.6599 18.0989ZM14.4265 15.8461C14.4265 16.1164 14.2478 16.2966 13.9798 16.2966H5.9394C5.67138 16.2966 5.49271 16.1164 5.49271 15.8461C5.49271 15.5757 5.67138 15.3955 5.9394 15.3955H13.9798C14.2478 15.3955 14.4265 15.5757 14.4265 15.8461Z" fill="white"/>
</svg>
