<svg width="18" height="19" viewBox="0 0 18 19" fill="none" xmlns="http://www.w3.org/2000/svg">
<path d="M9.00039 1.3999C4.53405 1.3999 0.900391 5.03356 0.900391 9.4999C0.900391 13.9662 4.53405 17.5999 9.00039 17.5999C13.4667 17.5999 17.1004 13.9662 17.1004 9.4999C17.1004 5.03356 13.4667 1.3999 9.00039 1.3999ZM9.00039 16.7899C4.98117 16.7899 1.71039 13.5199 1.71039 9.4999C1.71039 5.48068 4.98117 2.2099 9.00039 2.2099C13.0204 2.2099 16.2904 5.48068 16.2904 9.4999C16.2904 13.5199 13.0204 16.7899 9.00039 16.7899ZM8.26572 5.72368C8.09238 5.55115 8.00652 5.34541 8.00652 5.10646C8.00652 4.86751 8.09319 4.6642 8.26572 4.49491C8.43825 4.32724 8.64399 4.24219 8.88294 4.24219C9.12108 4.24219 9.3252 4.32643 9.49368 4.49491C9.66216 4.66339 9.74721 4.86751 9.74721 5.10646C9.74721 5.34541 9.66297 5.55115 9.49368 5.72368C9.3252 5.89702 9.12108 5.98288 8.88294 5.98288C8.64399 5.98288 8.43825 5.89621 8.26572 5.72368ZM9.82092 12.9829C10.0096 13.0728 10.2859 13.1182 10.6479 13.1182V13.5499H7.35123V13.1182C8.07537 13.1182 8.43744 12.9335 8.43744 12.5641V8.24035C8.43744 7.86289 8.07537 7.67416 7.35123 7.67416V7.27888H9.54876V12.5649C9.54147 12.7537 9.63138 12.893 9.82092 12.9829Z" fill="#646464"/>
</svg>
