<svg width="20" height="20" viewBox="0 0 20 20" fill="none" xmlns="http://www.w3.org/2000/svg">
<path d="M7.50065 3.33333C7.50065 2.8731 7.87375 2.5 8.33398 2.5H15.834C16.2942 2.5 16.6673 2.8731 16.6673 3.33333C16.6673 3.79357 16.2942 4.16667 15.834 4.16667H12.5339L9.2006 15.8333H11.6673C12.1276 15.8333 12.5007 16.2064 12.5007 16.6667C12.5007 17.1269 12.1276 17.5 11.6673 17.5H4.16732C3.70708 17.5 3.33398 17.1269 3.33398 16.6667C3.33398 16.2064 3.70708 15.8333 4.16732 15.8333H7.46724L10.8006 4.16667H8.33398C7.87375 4.16667 7.50065 3.79357 7.50065 3.33333Z" fill="#646464"/>
</svg>
