<svg width="25" height="24" viewBox="0 0 25 24" fill="none" xmlns="http://www.w3.org/2000/svg">
<path d="M10.8462 14.3466C10.9542 14.3466 11.0622 14.4532 11.0622 14.4532C11.1702 14.4532 11.2782 14.4532 11.3862 14.3466L14.1942 12.4266C14.3022 12.3199 14.4102 12.2132 14.4102 11.9999C14.4102 11.7866 14.4102 11.6799 14.3022 11.5732L11.3862 9.65324C11.1702 9.54657 10.9542 9.54657 10.8462 9.65324C10.6302 9.7599 10.5222 9.97324 10.5222 10.0799V13.8132C10.5222 14.0266 10.6302 14.2399 10.8462 14.3466ZM11.6022 11.1466L12.8982 11.9999L11.6022 12.8532V11.1466ZM22.5102 6.66657H20.8902V2.93324C20.8902 2.61324 20.6742 2.3999 20.3502 2.3999C20.1342 2.3999 15.4902 2.3999 12.2502 4.9599C9.0102 2.3999 4.3662 2.3999 4.1502 2.3999C3.8262 2.3999 3.6102 2.61324 3.6102 2.93324V6.66657H1.9902C1.6662 6.66657 1.4502 6.8799 1.4502 7.1999V21.0666C1.4502 21.3866 1.6662 21.5999 1.9902 21.5999H22.5102C22.8342 21.5999 23.0502 21.3866 23.0502 21.0666V7.1999C23.0502 6.8799 22.8342 6.66657 22.5102 6.66657ZM12.2502 7.73324C14.6262 7.73324 16.5702 9.65324 16.5702 11.9999C16.5702 14.3466 14.6262 16.2666 12.2502 16.2666C9.8742 16.2666 7.9302 14.3466 7.9302 11.9999C7.9302 9.65324 9.8742 7.73324 12.2502 7.73324ZM12.7902 17.3332C15.4902 17.0132 17.6502 14.7732 17.6502 11.9999C17.6502 9.22657 15.4902 6.98657 12.7902 6.66657V5.81324C15.0582 3.9999 18.5142 3.57324 19.8102 3.46657V17.3332C18.5142 17.4399 15.2742 17.7599 12.7902 19.4666V17.3332ZM4.6902 3.46657C5.9862 3.57324 9.4422 3.9999 11.7102 5.81324V6.66657C9.0102 6.98657 6.8502 9.22657 6.8502 11.9999C6.8502 14.7732 9.0102 17.0132 11.7102 17.3332V19.4666C9.2262 17.7599 5.9862 17.4399 4.6902 17.3332V3.46657ZM2.5302 7.73324H3.6102V17.8666C3.6102 18.1866 3.8262 18.3999 4.1502 18.3999C4.1502 18.3999 8.4702 18.3999 11.3862 20.5332H2.5302V7.73324ZM21.9702 20.5332H13.1142C16.0302 18.3999 20.3502 18.3999 20.3502 18.3999C20.6742 18.3999 20.8902 18.1866 20.8902 17.8666V7.73324H21.9702V20.5332Z" fill="#646464"/>
</svg>
