<svg width="20" height="20" viewBox="0 0 20 20" fill="none" xmlns="http://www.w3.org/2000/svg">
<path d="M8.83 11.9556C8.92 11.9556 9.01 12.0444 9.01 12.0444C9.1 12.0444 9.19 12.0444 9.28 11.9556L11.62 10.3556C11.71 10.2667 11.8 10.1778 11.8 10C11.8 9.82222 11.8 9.73333 11.71 9.64444L9.28 8.04444C9.1 7.95556 8.92 7.95556 8.83 8.04444C8.65 8.13333 8.56 8.31111 8.56 8.4V11.5111C8.56 11.6889 8.65 11.8667 8.83 11.9556ZM9.46 9.28889L10.54 10L9.46 10.7111V9.28889ZM18.55 5.55556H17.2V2.44444C17.2 2.17778 17.02 2 16.75 2C16.57 2 12.7 2 10 4.13333C7.3 2 3.43 2 3.25 2C2.98 2 2.8 2.17778 2.8 2.44444V5.55556H1.45C1.18 5.55556 1 5.73333 1 6V17.5556C1 17.8222 1.18 18 1.45 18H18.55C18.82 18 19 17.8222 19 17.5556V6C19 5.73333 18.82 5.55556 18.55 5.55556ZM10 6.44444C11.98 6.44444 13.6 8.04444 13.6 10C13.6 11.9556 11.98 13.5556 10 13.5556C8.02 13.5556 6.4 11.9556 6.4 10C6.4 8.04444 8.02 6.44444 10 6.44444ZM10.45 14.4444C12.7 14.1778 14.5 12.3111 14.5 10C14.5 7.68889 12.7 5.82222 10.45 5.55556V4.84444C12.34 3.33333 15.22 2.97778 16.3 2.88889V14.4444C15.22 14.5333 12.52 14.8 10.45 16.2222V14.4444ZM3.7 2.88889C4.78 2.97778 7.66 3.33333 9.55 4.84444V5.55556C7.3 5.82222 5.5 7.68889 5.5 10C5.5 12.3111 7.3 14.1778 9.55 14.4444V16.2222C7.48 14.8 4.78 14.5333 3.7 14.4444V2.88889ZM1.9 6.44444H2.8V14.8889C2.8 15.1556 2.98 15.3333 3.25 15.3333C3.25 15.3333 6.85 15.3333 9.28 17.1111H1.9V6.44444ZM18.1 17.1111H10.72C13.15 15.3333 16.75 15.3333 16.75 15.3333C17.02 15.3333 17.2 15.1556 17.2 14.8889V6.44444H18.1V17.1111Z" fill="#646464"/>
</svg>
