<svg width="20" height="20" viewBox="0 0 20 20" fill="none" xmlns="http://www.w3.org/2000/svg">
<path d="M2.49935 4.16699C2.03911 4.16699 1.66602 4.54009 1.66602 5.00033C1.66602 5.46056 2.03911 5.83366 2.49935 5.83366H17.4993C17.9596 5.83366 18.3327 5.46056 18.3327 5.00033C18.3327 4.54009 17.9596 4.16699 17.4993 4.16699H2.49935Z" fill="#646464"/>
<path d="M5.83268 7.50033C5.37244 7.50033 4.99935 7.87342 4.99935 8.33366C4.99935 8.7939 5.37244 9.16699 5.83268 9.16699H17.4993C17.9596 9.16699 18.3327 8.7939 18.3327 8.33366C18.3327 7.87342 17.9596 7.50033 17.4993 7.50033H5.83268Z" fill="#646464"/>
<path d="M1.66602 11.667C1.66602 11.2068 2.03911 10.8337 2.49935 10.8337H17.4993C17.9596 10.8337 18.3327 11.2068 18.3327 11.667C18.3327 12.1272 17.9596 12.5003 17.4993 12.5003H2.49935C2.03911 12.5003 1.66602 12.1272 1.66602 11.667Z" fill="#646464"/>
<path d="M5.83268 14.167C5.37244 14.167 4.99935 14.5401 4.99935 15.0003C4.99935 15.4606 5.37244 15.8337 5.83268 15.8337H17.4993C17.9596 15.8337 18.3327 15.4606 18.3327 15.0003C18.3327 14.5401 17.9596 14.167 17.4993 14.167H5.83268Z" fill="#646464"/>
</svg>
