<svg width="20" height="20" viewBox="0 0 20 20" fill="none" xmlns="http://www.w3.org/2000/svg">
<g clip-path="url(#clip0_3054_3377)">
<path d="M2.64298 7.64298C3.2681 7.01786 4.11594 6.66667 5 6.66667H7.5C7.96024 6.66667 8.33333 6.29357 8.33333 5.83333C8.33333 5.3731 7.96024 5 7.5 5H5C3.67392 5 2.40215 5.52678 1.46447 6.46447C0.526784 7.40215 0 8.67392 0 10C0 11.3261 0.526784 12.5979 1.46447 13.5355C1.92876 13.9998 2.47995 14.3681 3.08658 14.6194C3.69321 14.8707 4.34339 15 5 15H7.5C7.96024 15 8.33333 14.6269 8.33333 14.1667C8.33333 13.7064 7.96024 13.3333 7.5 13.3333H5C4.56226 13.3333 4.12881 13.2471 3.72439 13.0796C3.31997 12.9121 2.95251 12.6666 2.64298 12.357C2.01786 11.7319 1.66667 10.8841 1.66667 10C1.66667 9.11594 2.01786 8.2681 2.64298 7.64298Z" fill="#646464"/>
<path d="M12.5 5C12.0398 5 11.6667 5.3731 11.6667 5.83333C11.6667 6.29357 12.0398 6.66667 12.5 6.66667H15C15.4377 6.66667 15.8712 6.75289 16.2756 6.9204C16.68 7.08792 17.0475 7.33345 17.357 7.64298C17.6666 7.95251 17.9121 8.31997 18.0796 8.72439C18.2471 9.12881 18.3333 9.56226 18.3333 10C18.3333 10.4377 18.2471 10.8712 18.0796 11.2756C17.9121 11.68 17.6666 12.0475 17.357 12.357C17.0475 12.6666 16.68 12.9121 16.2756 13.0796C15.8712 13.2471 15.4377 13.3333 15 13.3333H12.5C12.0398 13.3333 11.6667 13.7064 11.6667 14.1667C11.6667 14.6269 12.0398 15 12.5 15H15C15.6566 15 16.3068 14.8707 16.9134 14.6194C17.52 14.3681 18.0712 13.9998 18.5355 13.5355C18.9998 13.0712 19.3681 12.52 19.6194 11.9134C19.8707 11.3068 20 10.6566 20 10C20 9.34339 19.8707 8.69321 19.6194 8.08658C19.3681 7.47995 18.9998 6.92876 18.5355 6.46447C18.0712 6.00017 17.52 5.63188 16.9134 5.3806C16.3068 5.12933 15.6566 5 15 5H12.5Z" fill="#646464"/>
<path d="M6.66667 9.16667C6.20643 9.16667 5.83333 9.53976 5.83333 10C5.83333 10.4602 6.20643 10.8333 6.66667 10.8333H13.3333C13.7936 10.8333 14.1667 10.4602 14.1667 10C14.1667 9.53976 13.7936 9.16667 13.3333 9.16667H6.66667Z" fill="#646464"/>
</g>
<defs>
<clipPath id="clip0_3054_3377">
<rect width="20" height="20" fill="white"/>
</clipPath>
</defs>
</svg>
