<svg width="36" height="36" viewBox="0 0 36 36" fill="none" xmlns="http://www.w3.org/2000/svg">
<path d="M18 3C9.725 3 3 9.73333 3 18C3 26.2667 9.725 33 18 33C26.275 33 33 26.2667 33 18C33 9.73333 26.275 3 18 3ZM18 31.3333C10.65 31.3333 4.66667 25.35 4.66667 18C4.66667 10.65 10.65 4.66667 18 4.66667C25.35 4.66667 31.3333 10.65 31.3333 18C31.3333 25.35 25.35 31.3333 18 31.3333Z" fill="#69696f"/>
<path d="M10.5 15.5C9.125 15.5 8 16.625 8 18C8 19.375 9.125 20.5 10.5 20.5C11.875 20.5 13 19.375 13 18C13 16.625 11.875 15.5 10.5 15.5ZM10.5 18.8333C10.0417 18.8333 9.66667 18.4583 9.66667 18C9.66667 17.5417 10.0417 17.1667 10.5 17.1667C10.9583 17.1667 11.3333 17.5417 11.3333 18C11.3333 18.4583 10.9583 18.8333 10.5 18.8333Z" fill="#69696f"/>
<path d="M18 15.5C16.625 15.5 15.5 16.625 15.5 18C15.5 19.375 16.625 20.5 18 20.5C19.375 20.5 20.5 19.375 20.5 18C20.5 16.625 19.375 15.5 18 15.5ZM18 18.8333C17.5417 18.8333 17.1667 18.4583 17.1667 18C17.1667 17.5417 17.5417 17.1667 18 17.1667C18.4583 17.1667 18.8333 17.5417 18.8333 18C18.8333 18.4583 18.4583 18.8333 18 18.8333Z" fill="#69696f"/>
<path d="M25.5 15.5C24.125 15.5 23 16.625 23 18C23 19.375 24.125 20.5 25.5 20.5C26.875 20.5 28 19.375 28 18C28 16.625 26.875 15.5 25.5 15.5ZM25.5 18.8333C25.0417 18.8333 24.6667 18.4583 24.6667 18C24.6667 17.5417 25.0417 17.1667 25.5 17.1667C25.9583 17.1667 26.3333 17.5417 26.3333 18C26.3333 18.4583 25.9583 18.8333 25.5 18.8333Z" fill="#69696f"/>
</svg>
