<?xml version="1.0" encoding="utf-8"?>
<!-- Generator: Adobe Illustrator 28.0.0, SVG Export Plug-In . SVG Version: 6.00 Build 0)  -->
<svg version="1.1" id="Notifications" xmlns="http://www.w3.org/2000/svg" xmlns:xlink="http://www.w3.org/1999/xlink" x="0px" y="0px"
	 viewBox="0 0 24 24" style="enable-background:new 0 0 24 24;" xml:space="preserve">
<style type="text/css">
</style>
<g>
	<path class="st0" d="M20.341,18.206c-0.023-0.024-2.271-2.469-2.271-8.171c0-2.6-1.646-4.817-3.948-5.68
		c0.007-0.072,0.018-0.143,0.018-0.215c0-1.18-0.96-2.14-2.141-2.14c-1.18,0-2.14,0.96-2.14,2.14c0,0.073,0.011,0.143,0.018,0.215
		c-2.302,0.863-3.948,3.08-3.948,5.68c0,5.702-2.248,8.146-2.269,8.168c-0.186,0.192-0.239,0.477-0.135,0.724
		c0.104,0.246,0.346,0.406,0.614,0.406h15.719c0.266,0,0.506-0.159,0.611-0.404C20.575,18.684,20.524,18.399,20.341,18.206z
		 M11.999,3.333c0.403,0,0.723,0.302,0.783,0.688c-0.257-0.033-0.517-0.056-0.783-0.056s-0.526,0.023-0.783,0.056
		C11.276,3.635,11.597,3.333,11.999,3.333z M7.262,10.035c0-2.612,2.125-4.737,4.737-4.737s4.737,2.125,4.737,4.737
		c0,1.852,0.225,3.377,0.538,4.631H6.725C7.038,13.412,7.262,11.887,7.262,10.035z M5.424,18c0.288-0.493,0.614-1.157,0.911-2h11.33
		c0.297,0.843,0.623,1.507,0.911,2H5.424z"/>
	<path class="st0" d="M14.165,20.667H9.832c-0.368,0-0.667,0.298-0.667,0.667S9.464,22,9.832,22h4.333
		c0.368,0,0.667-0.298,0.667-0.667S14.534,20.667,14.165,20.667z"/>
</g>
</svg>
