<svg width="36" height="36" viewBox="0 0 36 36" fill="none" xmlns="http://www.w3.org/2000/svg">
<path d="M27.4286 6.33333H24C24 5.41667 23.2286 4.66667 22.2857 4.66667H21.2743C21.0771 4.66667 20.7086 4.49167 20.58 4.33333C20.4771 4.2 19.5 3 18 3C16.5 3 15.5229 4.2 15.42 4.33333C15.3 4.49167 14.9314 4.66667 14.7257 4.66667H13.7143C12.7714 4.66667 12 5.41667 12 6.33333H8.57143C7.15714 6.33333 6 7.45833 6 8.83333V30.5C6 31.875 7.15714 33 8.57143 33H27.4286C28.8429 33 30 31.875 30 30.5V8.83333C30 7.45833 28.8429 6.33333 27.4286 6.33333ZM13.7143 6.33333H14.7257C15.4714 6.33333 16.3371 5.91667 16.7829 5.34167C16.9371 5.15833 17.4429 4.66667 18 4.66667C18.5571 4.66667 19.0629 5.15833 19.2171 5.34167C19.6629 5.91667 20.5286 6.33333 21.2743 6.33333H22.2857V8H13.7143V6.33333ZM28.2857 30.5C28.2857 30.9583 27.9 31.3333 27.4286 31.3333H8.57143C8.1 31.3333 7.71429 30.9583 7.71429 30.5V8.83333C7.71429 8.375 8.1 8 8.57143 8H12C12 8.91667 12.7714 9.66667 13.7143 9.66667H22.2857C23.2286 9.66667 24 8.91667 24 8H27.4286C27.9 8 28.2857 8.375 28.2857 8.83333V30.5Z" fill="#4DBD38"/>
<path d="M25.714 15.5H17.9997C17.5283 15.5 17.1426 15.875 17.1426 16.3333C17.1426 16.7917 17.5283 17.1667 17.9997 17.1667H25.714C26.1854 17.1667 26.5711 16.7917 26.5711 16.3333C26.5711 15.875 26.1854 15.5 25.714 15.5Z" fill="#4DBD38"/>
<path d="M14.7773 13.6749L12.1973 16.5916L10.8687 15.3916C10.5259 15.0749 9.97732 15.0999 9.66018 15.4332C9.34303 15.7666 9.36018 16.2999 9.70303 16.6082L11.683 18.3916C11.8459 18.5332 12.0516 18.6166 12.2659 18.6166C12.283 18.6166 12.3002 18.6166 12.3173 18.6166C12.5487 18.6082 12.763 18.4999 12.9173 18.3249L16.0802 14.7499C16.3887 14.3999 16.3459 13.8749 15.9859 13.5749C15.6259 13.2832 15.0859 13.3249 14.7773 13.6749Z" fill="#4DBD38"/>
<path d="M25.714 23.8335H17.9997C17.5283 23.8335 17.1426 24.2085 17.1426 24.6668C17.1426 25.1252 17.5283 25.5002 17.9997 25.5002H25.714C26.1854 25.5002 26.5711 25.1252 26.5711 24.6668C26.5711 24.2085 26.1854 23.8335 25.714 23.8335Z" fill="#4DBD38"/>
<path d="M14.7773 22.0084L12.1973 24.9251L10.8687 23.7251C10.5259 23.4167 9.97732 23.4334 9.66018 23.7667C9.34303 24.1001 9.36018 24.6334 9.70303 24.9417L11.683 26.7251C11.8459 26.8667 12.0516 26.9501 12.2659 26.9501C12.283 26.9501 12.3002 26.9501 12.3173 26.9501C12.5487 26.9417 12.763 26.8334 12.9173 26.6584L16.0802 23.0834C16.3887 22.7334 16.3459 22.2084 15.9859 21.9084C15.6259 21.6167 15.0859 21.6584 14.7773 22.0084Z" fill="#4DBD38"/>
</svg>
