<svg width="24" height="24" viewBox="0 0 24 24" fill="none" xmlns="http://www.w3.org/2000/svg">
<path d="M5.9252 5.46005C5.9252 5.09573 6.2276 4.80005 6.6002 4.80005H22.1252C22.4978 4.80005 22.8002 5.09573 22.8002 5.46005C22.8002 5.82437 22.4978 6.12005 22.1252 6.12005H6.6002C6.2276 6.12005 5.9252 5.82437 5.9252 5.46005ZM22.1252 10.74H6.6002C6.2276 10.74 5.9252 11.0357 5.9252 11.4C5.9252 11.7644 6.2276 12.06 6.6002 12.06H22.1252C22.4978 12.06 22.8002 11.7644 22.8002 11.4C22.8002 11.0357 22.4978 10.74 22.1252 10.74ZM22.1252 16.68H6.6002C6.2276 16.68 5.9252 16.9757 5.9252 17.34C5.9252 17.7044 6.2276 18 6.6002 18H22.1252C22.4978 18 22.8002 17.7044 22.8002 17.34C22.8002 16.9757 22.4978 16.68 22.1252 16.68ZM3.2252 4.80005H1.8752C1.5026 4.80005 1.2002 5.09573 1.2002 5.46005C1.2002 5.82437 1.5026 6.12005 1.8752 6.12005H3.2252C3.5978 6.12005 3.9002 5.82437 3.9002 5.46005C3.9002 5.09573 3.5978 4.80005 3.2252 4.80005ZM3.2252 10.74H1.8752C1.5026 10.74 1.2002 11.0357 1.2002 11.4C1.2002 11.7644 1.5026 12.06 1.8752 12.06H3.2252C3.5978 12.06 3.9002 11.7644 3.9002 11.4C3.9002 11.0357 3.5978 10.74 3.2252 10.74ZM3.2252 16.68H1.8752C1.5026 16.68 1.2002 16.9757 1.2002 17.34C1.2002 17.7044 1.5026 18 1.8752 18H3.2252C3.5978 18 3.9002 17.7044 3.9002 17.34C3.9002 16.9757 3.5978 16.68 3.2252 16.68Z" fill="white"/>
</svg>
