<svg width="28" height="28" viewBox="0 0 28 28" fill="none" xmlns="http://www.w3.org/2000/svg">
<path d="M11.4804 13.5102C11.4804 14.0492 11.0268 14.4902 10.4724 14.4902C9.91799 14.4902 9.46439 14.0492 9.46439 13.5102C9.46439 12.9712 9.91799 12.5302 10.4724 12.5302C11.0268 12.5302 11.4804 12.9712 11.4804 13.5102ZM15.0084 13.5102C15.0084 12.9712 14.5548 12.5302 14.0004 12.5302C13.446 12.5302 12.9924 12.9712 12.9924 13.5102C12.9924 14.0492 13.446 14.4902 14.0004 14.4902C14.5548 14.4902 15.0084 14.0492 15.0084 13.5102ZM17.5284 14.4902C18.0828 14.4902 18.5364 14.0492 18.5364 13.5102C18.5364 12.9712 18.0828 12.5302 17.5284 12.5302C16.974 12.5302 16.5204 12.9712 16.5204 13.5102C16.5204 14.0492 16.974 14.4902 17.5284 14.4902ZM26.6004 11.7952V15.7152C26.6004 17.0627 25.4664 18.1652 24.0804 18.1652H22.7196C21.4092 20.5907 19.0404 22.4282 16.2432 23.0652C16.1424 23.4817 15.7392 23.8002 15.2604 23.8002H12.7404C12.186 23.8002 11.7324 23.3592 11.7324 22.8202C11.7324 22.2812 12.186 21.8402 12.7404 21.8402H15.2604C15.5376 21.8402 15.7644 21.9382 15.966 22.1097C19.872 21.2522 22.8204 17.8222 22.8204 13.7552C22.8204 9.0267 18.864 5.1802 14.0004 5.1802C9.13679 5.1802 5.18039 9.0267 5.18039 13.7552C5.18039 15.0537 5.48279 16.3032 6.03719 17.4547C6.03719 17.4792 6.06239 17.4792 6.06239 17.5037C6.06239 17.5282 6.06239 17.5282 6.08759 17.5527C6.08759 17.5772 6.08759 17.5772 6.08759 17.6017C6.08759 17.6262 6.08759 17.6262 6.08759 17.6507V17.6752C6.08759 17.6997 6.08759 17.6997 6.08759 17.7242C6.08759 17.7487 6.08759 17.7487 6.08759 17.7732C6.08759 17.7977 6.08759 17.7977 6.06239 17.8222C6.06239 17.8467 6.03719 17.8467 6.03719 17.8712C6.03719 17.8957 6.01199 17.8957 6.01199 17.9202C6.01199 17.9447 5.98679 17.9447 5.98679 17.9692C5.98679 17.9937 5.96159 17.9937 5.96159 18.0182L5.93639 18.0427L5.91119 18.0672C5.88599 18.0672 5.88599 18.0917 5.86079 18.0917C5.86079 18.0917 5.83559 18.0917 5.83559 18.1162C5.81039 18.1162 5.81039 18.1407 5.78519 18.1407C5.75999 18.1407 5.75999 18.1407 5.73479 18.1652C5.70959 18.1652 5.70959 18.1652 5.68439 18.1652C5.65919 18.1652 5.63399 18.1652 5.63399 18.1652H3.92039C2.53439 18.1652 1.40039 17.0627 1.40039 15.7152V11.7952C1.40039 10.4477 2.53439 9.3452 3.92039 9.3452H5.28119C6.91919 6.2827 10.2204 4.2002 14.0004 4.2002C17.7804 4.2002 21.0816 6.2827 22.7196 9.3452H24.0804C25.4664 9.3452 26.6004 10.4477 26.6004 11.7952ZM3.92039 17.1852H4.82759C4.39919 16.0827 4.17239 14.9557 4.17239 13.7552C4.17239 12.5547 4.39919 11.3787 4.82759 10.3252H3.92039C3.08879 10.3252 2.40839 10.9867 2.40839 11.7952V15.7152C2.40839 16.5237 3.08879 17.1852 3.92039 17.1852ZM25.5924 11.7952C25.5924 10.9867 24.912 10.3252 24.0804 10.3252H23.1732C23.6016 11.3787 23.8284 12.5547 23.8284 13.7552C23.8284 14.9557 23.6016 16.1317 23.1732 17.1852H24.0804C24.912 17.1852 25.5924 16.5237 25.5924 15.7152V11.7952ZM14.0004 21.3502C13.0176 21.3502 12.06 21.1787 11.1528 20.8357L7.42319 22.5262C7.34759 22.5507 7.27199 22.5752 7.19639 22.5752C7.07039 22.5752 6.96959 22.5262 6.86879 22.4527C6.71759 22.3302 6.66719 22.1342 6.71759 21.9382L7.82639 18.4102C6.76799 17.0872 6.18839 15.4457 6.18839 13.7552C6.18839 9.5657 9.69119 6.1602 14.0004 6.1602C18.3096 6.1602 21.8124 9.5657 21.8124 13.7552C21.8124 17.9447 18.3096 21.3502 14.0004 21.3502ZM11.3292 19.8312C12.186 20.1987 13.068 20.3702 14.0004 20.3702C17.7552 20.3702 20.8044 17.4057 20.8044 13.7552C20.8044 10.1047 17.7552 7.1402 14.0004 7.1402C10.2456 7.1402 7.19639 10.1047 7.19639 13.7552C7.19639 15.2987 7.75079 16.8177 8.78399 17.9937C8.88479 18.1162 8.93519 18.2877 8.88479 18.4592L8.02799 21.1787L10.926 19.8557C11.052 19.7822 11.2032 19.7822 11.3292 19.8312Z" fill="#646464"/>
</svg>
