<?xml version="1.0" encoding="utf-8"?>
<!-- Generator: Adobe Illustrator 28.0.0, SVG Export Plug-In . SVG Version: 6.00 Build 0)  -->
<svg version="1.1" id="Layer_1" xmlns="http://www.w3.org/2000/svg" xmlns:xlink="http://www.w3.org/1999/xlink" x="0px" y="0px"
	 viewBox="0 0 24 24" style="enable-background:new 0 0 24 24;" xml:space="preserve">
<style type="text/css">
	.st0{fill:#323232;}
</style>
<g>
	<path class="st0" d="M12.334,2c-5.33,0-9.666,4.336-9.666,9.665c0,1.715,0.458,3.393,1.327,4.875l-1.942,4.531
		c-0.107,0.25-0.051,0.541,0.141,0.734C2.323,21.932,2.493,22,2.667,22c0.089,0,0.178-0.018,0.263-0.054l4.532-1.942
		c1.482,0.869,3.159,1.327,4.873,1.327c5.33,0,9.666-4.336,9.666-9.665S17.664,2,12.334,2z M12.334,19.997
		c-1.578,0-3.121-0.451-4.462-1.304c-0.186-0.118-0.418-0.138-0.621-0.05l-3.316,1.421l1.421-3.315
		c0.087-0.202,0.068-0.434-0.05-0.62c-0.854-1.34-1.305-2.884-1.305-4.463c0-4.594,3.738-8.332,8.332-8.332
		c4.595,0,8.332,3.738,8.332,8.332S16.929,19.997,12.334,19.997z"/>
	<path class="st0" d="M8.149,10.408c-0.697,0-1.264,0.565-1.264,1.259s0.567,1.259,1.264,1.259s1.264-0.565,1.264-1.259
		S8.847,10.408,8.149,10.408z"/>
	<path class="st0" d="M12.333,10.408c-0.697,0-1.264,0.565-1.264,1.259s0.567,1.259,1.264,1.259c0.697,0,1.264-0.565,1.264-1.259
		S13.031,10.408,12.333,10.408z"/>
	<path class="st0" d="M16.518,10.408c-0.697,0-1.264,0.565-1.264,1.259s0.567,1.259,1.264,1.259c0.697,0,1.264-0.565,1.264-1.259
		S17.215,10.408,16.518,10.408z"/>
</g>
</svg>
