<svg width="36" height="36" viewBox="0 0 36 36" fill="none" xmlns="http://www.w3.org/2000/svg">
<path d="M30.5 7H8.83333C7.45833 7 6.33333 8.10893 6.33333 9.46429V10.2857H5.5C4.125 10.2857 3 11.3946 3 12.75V27.5357C3 28.8911 4.125 30 5.5 30H27.1667C28.5417 30 29.6667 28.8911 29.6667 27.5357V26.7143H30.5C31.875 26.7143 33 25.6054 33 24.25V9.46429C33 8.10893 31.875 7 30.5 7ZM5.5 11.9286H27.1667C27.625 11.9286 28 12.2982 28 12.75V22.2704L21.925 16.2821C21.6 15.9618 21.075 15.9618 20.75 16.2821L13.8333 23.0918L10.2583 19.5679C9.95 19.2639 9.45833 19.2475 9.125 19.5268L4.66667 23.2889V12.75C4.66667 12.2982 5.04167 11.9286 5.5 11.9286ZM28 27.5357C28 27.9875 27.625 28.3571 27.1667 28.3571H5.5C5.04167 28.3571 4.66667 27.9875 4.66667 27.5357V25.4493L9.625 21.26L13.25 24.825C13.575 25.1454 14.1 25.1454 14.425 24.825L21.3333 18.0154L28 24.5868V27.5357ZM31.3333 24.25C31.3333 24.7018 30.9583 25.0714 30.5 25.0714H29.6667V12.75C29.6667 11.3946 28.5417 10.2857 27.1667 10.2857H8V9.46429C8 9.0125 8.375 8.64286 8.83333 8.64286H30.5C30.9583 8.64286 31.3333 9.0125 31.3333 9.46429V24.25Z" fill="#4DBD38"/>
<path d="M14.2507 19.3213C15.859 19.3213 17.1673 18.0316 17.1673 16.4463C17.1673 14.8609 15.859 13.5713 14.2507 13.5713C12.6423 13.5713 11.334 14.8609 11.334 16.4463C11.334 18.0316 12.6423 19.3213 14.2507 19.3213ZM14.2507 15.2141C14.9423 15.2141 15.5007 15.7645 15.5007 16.4463C15.5007 17.1281 14.9423 17.6784 14.2507 17.6784C13.559 17.6784 13.0007 17.1281 13.0007 16.4463C13.0007 15.7645 13.559 15.2141 14.2507 15.2141Z" fill="#4DBD38"/>
</svg>
