<svg width="24" height="25" viewBox="0 0 24 25" fill="none" xmlns="http://www.w3.org/2000/svg">
<path d="M2.75 4.25L4.83 4.61L5.793 16.083C5.87 17.02 6.653 17.739 7.593 17.736H18.502C19.399 17.738 20.16 17.078 20.287 16.19L21.236 9.632C21.342 8.899 20.833 8.219 20.101 8.113C20.037 8.104 5.164 8.099 5.164 8.099" stroke="#69696F" stroke-width="1.5" stroke-linecap="round" stroke-linejoin="round"/>
<path fill-rule="evenodd" clip-rule="evenodd" d="M7.15338 21.2026C7.45438 21.2026 7.69738 21.4466 7.69738 21.7466C7.69738 22.0476 7.45438 22.2916 7.15338 22.2916C6.85238 22.2916 6.60938 22.0476 6.60938 21.7466C6.60938 21.4466 6.85238 21.2026 7.15338 21.2026Z" fill="#69696F" stroke="#69696F" stroke-width="1.5" stroke-linecap="round" stroke-linejoin="round"/>
<path fill-rule="evenodd" clip-rule="evenodd" d="M18.4346 21.2026C18.7356 21.2026 18.9796 21.4466 18.9796 21.7466C18.9796 22.0476 18.7356 22.2916 18.4346 22.2916C18.1336 22.2916 17.8906 22.0476 17.8906 21.7466C17.8906 21.4466 18.1336 21.2026 18.4346 21.2026Z" fill="#69696F" stroke="#69696F" stroke-width="1.5" stroke-linecap="round" stroke-linejoin="round"/>
<circle cx="17" cy="7.5" r="7" fill="#D12C2C"/>
<path d="M16.9032 11.2321C16.6072 11.2321 16.2952 11.2161 15.9672 11.1841C15.6472 11.1521 15.3392 11.1121 15.0432 11.0641C14.7552 11.0081 14.5152 10.9601 14.3232 10.9201L14.3952 9.6361C14.5872 9.6601 14.8152 9.6881 15.0792 9.7201C15.3512 9.7521 15.6272 9.7801 15.9072 9.8041C16.1952 9.8201 16.4592 9.8281 16.6992 9.8281C17.1552 9.8281 17.4952 9.7441 17.7192 9.5761C17.9432 9.4081 18.0552 9.1361 18.0552 8.7601C18.0552 8.5041 18.0032 8.3041 17.8992 8.1601C17.8032 8.0081 17.6592 7.8961 17.4672 7.8241C17.2832 7.7521 17.0672 7.7121 16.8192 7.7041H15.1872V6.3841H16.7832C16.9672 6.3841 17.1432 6.3441 17.3112 6.2641C17.4872 6.1841 17.6272 6.0681 17.7312 5.9161C17.8432 5.7641 17.8992 5.5801 17.8992 5.3641C17.8992 5.0281 17.7952 4.7921 17.5872 4.6561C17.3872 4.5121 17.0592 4.4401 16.6032 4.4401C16.3632 4.4401 16.1112 4.4521 15.8472 4.4761C15.5832 4.5001 15.3312 4.5281 15.0912 4.5601C14.8512 4.5841 14.6512 4.6121 14.4912 4.6441L14.4192 3.3841C14.5952 3.3361 14.8112 3.2881 15.0672 3.2401C15.3232 3.1841 15.5952 3.1401 15.8832 3.1081C16.1712 3.0681 16.4432 3.0481 16.6992 3.0481C17.3792 3.0481 17.9272 3.1201 18.3432 3.2641C18.7672 3.4001 19.0752 3.6281 19.2672 3.9481C19.4592 4.2601 19.5552 4.6721 19.5552 5.1841C19.5552 5.4641 19.5192 5.7001 19.4472 5.8921C19.3832 6.0841 19.2952 6.2481 19.1832 6.3841C19.0792 6.5201 18.9712 6.6321 18.8592 6.7201C18.7472 6.8001 18.6432 6.8721 18.5472 6.9361C18.7872 7.0481 18.9952 7.1721 19.1712 7.3081C19.3472 7.4441 19.4832 7.6241 19.5792 7.8481C19.6752 8.0721 19.7232 8.3721 19.7232 8.7481C19.7232 9.3481 19.6192 9.8321 19.4112 10.2001C19.2032 10.5601 18.8912 10.8241 18.4752 10.9921C18.0592 11.1521 17.5352 11.2321 16.9032 11.2321Z" fill="white"/>
</svg>
