<svg width="20" height="20" viewBox="0 0 20 20" fill="none" xmlns="http://www.w3.org/2000/svg">
<path d="M17.65 5.55556H2.35C1.63 5.55556 1 6.17778 1 6.88889V16.6667C1 17.3778 1.63 18 2.35 18H17.65C18.37 18 19 17.3778 19 16.6667V6.88889C19 6.17778 18.37 5.55556 17.65 5.55556ZM18.1 16.6667C18.1 16.9333 17.92 17.1111 17.65 17.1111H2.35C2.08 17.1111 1.9 16.9333 1.9 16.6667V6.88889C1.9 6.62222 2.08 6.44444 2.35 6.44444H17.65C17.92 6.44444 18.1 6.62222 18.1 6.88889V16.6667ZM8.92 9.2C8.74 9.11111 8.56 9.11111 8.47 9.2C8.29 9.28889 8.2 9.37778 8.2 9.55556V14C8.2 14.1778 8.29 14.2667 8.47 14.3556C8.47 14.4444 8.56 14.4444 8.65 14.4444C8.74 14.4444 8.83 14.4444 8.92 14.3556L12.52 12.1333C12.61 12.0444 12.7 11.8667 12.7 11.7778C12.7 11.6889 12.61 11.5111 12.52 11.4222L8.92 9.2ZM9.1 13.2V10.3556L11.44 11.7778L9.1 13.2ZM2.8 4.22222C2.8 3.95556 2.98 3.77778 3.25 3.77778H16.75C17.02 3.77778 17.2 3.95556 17.2 4.22222C17.2 4.48889 17.02 4.66667 16.75 4.66667H3.25C2.98 4.66667 2.8 4.48889 2.8 4.22222ZM4.6 2.44444C4.6 2.17778 4.78 2 5.05 2H14.95C15.22 2 15.4 2.17778 15.4 2.44444C15.4 2.71111 15.22 2.88889 14.95 2.88889H5.05C4.78 2.88889 4.6 2.71111 4.6 2.44444Z" fill="#646464"/>
</svg>
