<svg width="24" height="24" viewBox="0 0 24 24" fill="none" xmlns="http://www.w3.org/2000/svg">
<circle cx="12" cy="16.5" r="0.6" fill="#69696F" stroke="#69696F" stroke-width="0.2"/>
<path d="M12 14V13.565C12 13.0121 12.3048 12.5041 12.7927 12.2439L13.3971 11.9216C14.0759 11.5595 14.5 10.8527 14.5 10.0833V10.0833C14.5 8.93274 13.5673 8 12.4167 8H11.5C10.3954 8 9.5 8.89543 9.5 10V10" stroke="#69696F" stroke-width="1.2" stroke-linecap="round"/>
<path d="M12 4C7.5888 4 4 7.5888 4 12C4 16.4112 7.5888 20 12 20C16.4112 20 20 16.4112 20 12C20 7.5888 16.4112 4 12 4ZM12 19.2C8.0304 19.2 4.8 15.9704 4.8 12C4.8 8.0304 8.0304 4.8 12 4.8C15.9704 4.8 19.2 8.0304 19.2 12C19.2 15.9704 15.9704 19.2 12 19.2Z" fill="#69696F"/>
</svg>
