<svg width="16" height="17" viewBox="0 0 16 17" fill="none" xmlns="http://www.w3.org/2000/svg">
<path fill-rule="evenodd" clip-rule="evenodd" d="M4.18414 9.6675C4.423 9.43782 4.80282 9.44527 5.0325 9.68414L8 12.8343L10.9675 9.68414C11.1972 9.44527 11.577 9.43782 11.8159 9.6675C12.0547 9.89718 12.0622 10.277 11.8325 10.5159L8.4325 14.1159C8.31938 14.2335 8.16321 14.3 8 14.3C7.83679 14.3 7.68062 14.2335 7.5675 14.1159L4.1675 10.5159C3.93782 10.277 3.94527 9.89718 4.18414 9.6675Z" fill="#646464"/>
<path fill-rule="evenodd" clip-rule="evenodd" d="M11.8159 7.1323C11.577 7.36198 11.1972 7.35453 10.9675 7.11567L8 3.96547L5.0325 7.11567C4.80282 7.35453 4.423 7.36198 4.18413 7.1323C3.94527 6.90263 3.93782 6.5228 4.1675 6.28394L7.5675 2.68394C7.68062 2.56629 7.83679 2.4998 8 2.4998C8.16321 2.4998 8.31938 2.56629 8.4325 2.68394L11.8325 6.28394C12.0622 6.5228 12.0547 6.90263 11.8159 7.1323Z" fill="#B3B4B8"/>
</svg>
