<svg width="28" height="28" viewBox="0 0 28 28" fill="none" xmlns="http://www.w3.org/2000/svg">
<path d="M18.9308 13.5343L11.2613 8.87773C11.0969 8.76816 10.8778 8.76816 10.7134 8.87773C10.5491 8.98729 10.4395 9.15164 10.4395 9.34338V18.6564C10.4395 18.8482 10.5491 19.0399 10.7134 19.1221C10.7956 19.1769 10.8778 19.2043 10.9873 19.2043C11.0969 19.2043 11.1791 19.1769 11.2613 19.1221L18.9308 14.4656C19.0952 14.356 19.2047 14.1916 19.2047 13.9999C19.2047 13.8082 19.0952 13.6438 18.9308 13.5343ZM11.5352 17.6703V10.3295L17.5887 13.9999L11.5352 17.6703ZM14.0004 1.3999C7.043 1.3999 1.40039 7.04251 1.40039 13.9999C1.40039 20.9573 7.043 26.5999 14.0004 26.5999C20.9578 26.5999 26.6004 20.9573 26.6004 13.9999C26.6004 7.04251 20.9578 1.3999 14.0004 1.3999ZM14.0004 25.5043C7.64561 25.5043 2.49604 20.3547 2.49604 13.9999C2.49604 7.64512 7.64561 2.49555 14.0004 2.49555C20.3552 2.49555 25.5047 7.64512 25.5047 13.9999C25.5047 20.3547 20.3552 25.5043 14.0004 25.5043Z" fill="#646464"/>
</svg>
