<svg width="28" height="28" viewBox="0 0 28 28" fill="none" xmlns="http://www.w3.org/2000/svg">
<path d="M16.7696 18.7276L12.9358 16.2698C12.7715 16.1606 12.5525 16.1606 12.3882 16.2425C12.2239 16.3518 12.1143 16.5156 12.1143 16.7341V21.6497C12.1143 21.8408 12.2239 22.032 12.3882 22.1412C12.4703 22.1958 12.5525 22.1958 12.662 22.1958C12.7715 22.1958 12.8811 22.1685 12.9632 22.1139L16.797 19.6561C16.9613 19.5469 17.0434 19.383 17.0434 19.1919C17.0434 19.0007 16.9339 18.8369 16.7696 18.7276ZM13.1823 20.6392V17.7445L15.4552 19.1919L13.1823 20.6392ZM26.6004 10.4531C26.6004 9.98883 26.2444 9.63382 25.7789 9.63382H10.0058L25.5598 7.42181C25.9979 7.36719 26.3266 6.93025 26.2444 6.49331L25.8063 3.51666C25.7789 3.29819 25.6693 3.10703 25.4777 2.97048C25.3134 2.83394 25.0943 2.77932 24.8752 2.80663L2.11922 6.08368C1.90015 6.11099 1.70846 6.22023 1.57154 6.41139C1.43462 6.57524 1.37985 6.79371 1.40724 7.01218L1.84538 9.98883C1.87276 10.0981 1.90015 10.2073 1.9823 10.3165C1.95491 10.3438 1.95491 10.3985 1.95491 10.4531V13.457C1.95491 13.5117 1.95491 13.5663 1.9823 13.5936C1.95491 13.6482 1.95491 13.6755 1.95491 13.7301V23.0151C1.95491 24.2167 2.94073 25.1998 4.14562 25.1998H24.4097C25.6146 25.1998 26.6004 24.2167 26.6004 23.0151V13.7301C26.6004 13.6755 26.6004 13.6482 26.573 13.5936C26.573 13.539 26.6004 13.4844 26.6004 13.457V10.4531ZM20.795 13.184L22.1094 10.7262H24.1632L22.8488 13.184H20.795ZM17.5089 13.184L18.8234 10.7262H20.8772L19.5627 13.184H17.5089ZM14.2229 13.184L15.5373 10.7262H17.5911L16.2767 13.184H14.2229ZM10.9368 13.184L12.2512 10.7262H14.305L12.9906 13.184H10.9368ZM7.65076 13.184L8.96518 10.7262H11.019L9.70455 13.184H7.65076ZM4.36469 13.184L5.67912 10.7262H7.73291L6.41848 13.184H4.36469ZM5.87081 6.62986L7.54122 8.86917L5.51482 9.16957L3.8444 6.93025L5.87081 6.62986ZM9.12949 6.16561L10.7999 8.40493L8.7735 8.70532L7.10308 6.466L9.12949 6.16561ZM12.3882 5.70136L14.0586 7.94068L12.0322 8.24107L10.3618 6.00176L12.3882 5.70136ZM15.6195 5.23711L17.2899 7.47643L15.2635 7.77682L13.6204 5.53751L15.6195 5.23711ZM18.8781 4.77286L20.5486 7.01218L18.5222 7.31258L16.8517 5.07326L18.8781 4.77286ZM22.1368 4.30861L23.8072 6.54793L21.7808 6.84833L20.1104 4.60901L22.1368 4.30861ZM4.28254 9.36073L2.88597 9.55189L2.52998 7.12141H2.61213L4.28254 9.36073ZM3.05027 13.184V10.7262H4.47423L3.1598 13.184H3.05027ZM25.4229 10.7262H25.505V13.184H24.0811L25.4229 10.7262ZM25.1217 6.35677H25.0395L23.3691 4.11745L24.7657 3.92629L25.1217 6.35677ZM25.505 23.0151C25.505 23.6159 25.0121 24.1075 24.4097 24.1075H4.14562C3.54318 24.1075 3.05027 23.6159 3.05027 23.0151V14.2763H25.505V23.0151Z" fill="#646464"/>
</svg>
