<?xml version="1.0" encoding="utf-8"?>
<!-- Generator: Adobe Illustrator 28.0.0, SVG Export Plug-In . SVG Version: 6.00 Build 0)  -->
<svg version="1.1" id="Layer_1" xmlns="http://www.w3.org/2000/svg" xmlns:xlink="http://www.w3.org/1999/xlink" x="0px" y="0px"
	 viewBox="0 0 24 24" style="enable-background:new 0 0 24 24;" xml:space="preserve">
<style type="text/css">
	.st0{fill:#323232;}
</style>
<g>
	<path class="st0" d="M12,9c-2.206,0-4,1.794-4,4s1.794,4,4,4s4-1.794,4-4S14.206,9,12,9z M12,15.667
		c-1.47,0-2.667-1.196-2.667-2.667c0-1.47,1.196-2.667,2.667-2.667s2.667,1.196,2.667,2.667S13.471,15.667,12,15.667z"/>
	<path class="st0" d="M20,6h-3.643l-1.135-1.703C15.098,4.111,14.889,4,14.667,4H9.333C9.11,4,8.902,4.111,8.779,4.297L7.643,6H4
		C2.897,6,2,6.897,2,8v10c0,1.103,0.897,2,2,2h16c1.103,0,2-0.897,2-2V8C22,6.897,21.103,6,20,6z M20.667,18
		c0,0.368-0.299,0.667-0.667,0.667H4c-0.368,0-0.667-0.299-0.667-0.667V8c0-0.368,0.299-0.667,0.667-0.667h4
		c0.223,0,0.431-0.111,0.555-0.297L9.69,5.333h4.62l1.135,1.703C15.569,7.222,15.777,7.333,16,7.333h4
		c0.368,0,0.667,0.299,0.667,0.667V18z"/>
</g>
</svg>
