<svg width="36" height="36" viewBox="0 0 36 36" fill="none" xmlns="http://www.w3.org/2000/svg">
<path d="M23.5583 13.2667C23.1583 13.3333 22.8667 13.6833 22.8667 14.0917C22.8667 15.8917 22.45 16.8917 21.9917 17.45C22.5917 11.975 17.725 7.78335 17.4917 7.59168C17.2583 7.40001 16.95 7.34168 16.6667 7.45001C16.3833 7.55001 16.1833 7.80001 16.1333 8.10001C15.5417 11.6833 14.6333 12.875 13.4833 14.3917C12.8417 15.2333 12.1083 16.1917 11.3917 17.65C8.85 22.8083 12.3583 26.9917 14.5583 28.4833C14.7 28.5833 14.8667 28.625 15.025 28.625C15.2083 28.625 15.3833 28.5667 15.5333 28.45C15.8167 28.225 15.925 27.85 15.8083 27.5083C14.725 24.4917 15.7583 22.4167 16.6583 21.3083C17 22.675 17.4333 23.625 18.2333 24.4333C19.025 25.225 19.0583 27.075 19.0083 27.7167C18.9833 28 19.1083 28.275 19.3417 28.45C19.5667 28.625 19.8667 28.6667 20.1417 28.5667C26.8417 26.0167 25.9083 17.8 24.4833 13.8167C24.35 13.425 23.9583 13.2 23.5583 13.2667ZM20.6667 26.4667C20.5833 25.45 20.2917 24.1167 19.4167 23.25C18.725 22.5583 18.3917 21.6917 17.9833 19.5167C17.9333 19.2417 17.7417 19.0083 17.4833 18.9C17.3833 18.85 17.275 18.8333 17.1667 18.8333C17 18.8333 16.8333 18.8833 16.7 18.975C16.6583 19 13.525 21.2083 13.7 25.3417C12.5083 23.8167 11.4083 21.3833 12.9 18.3667C13.55 17.05 14.1917 16.2083 14.8167 15.3833C15.8417 14.0417 16.8083 12.775 17.4833 9.91668C18.9417 11.5667 21.2667 14.9583 20.0333 18.7083C19.95 18.9583 19.9917 19.2417 20.15 19.4583C20.3083 19.675 20.5583 19.8 20.825 19.8C20.85 19.8 22.625 19.7667 23.7167 17.8667C23.7917 18.4917 23.85 19.1667 23.8417 19.8583C23.825 23.0083 22.7583 25.2167 20.6667 26.4667Z" fill="#69696f"/>
<path d="M18 3C9.725 3 3 9.73333 3 18C3 26.2667 9.725 33 18 33C26.275 33 33 26.2667 33 18C33 9.73333 26.275 3 18 3ZM18 31.3333C10.65 31.3333 4.66667 25.35 4.66667 18C4.66667 10.65 10.65 4.66667 18 4.66667C25.35 4.66667 31.3333 10.65 31.3333 18C31.3333 25.35 25.35 31.3333 18 31.3333Z" fill="#69696f"/>
</svg>
