<svg width="18" height="18" viewBox="0 0 18 18" fill="none" xmlns="http://www.w3.org/2000/svg">
<path d="M13.4688 11.5C12.7009 11.5 12.0133 11.8417 11.5492 12.375L7.38953 9.90833C7.49922 9.62917 7.5625 9.32083 7.5625 9C7.5625 8.67917 7.49922 8.37083 7.38531 8.09167L11.545 5.625C12.0091 6.15833 12.6967 6.5 13.4645 6.5C14.8609 6.5 15.9958 5.37917 15.9958 4C15.9958 2.62083 14.8609 1.5 13.4645 1.5C12.0681 1.5 10.9333 2.62083 10.9333 4C10.9333 4.32083 10.9966 4.62917 11.1105 4.90833L6.95078 7.375C6.48672 6.84167 5.79906 6.5 5.03125 6.5C3.63484 6.5 2.5 7.62083 2.5 9C2.5 10.3792 3.63484 11.5 5.03125 11.5C5.79906 11.5 6.48672 11.1583 6.95078 10.625L11.1105 13.0917C11.0008 13.3708 10.9375 13.6792 10.9375 14C10.9375 15.3792 12.0723 16.5 13.4688 16.5C14.8652 16.5 16 15.3792 16 14C16 12.6208 14.8652 11.5 13.4688 11.5ZM13.4688 2.33333C14.4011 2.33333 15.1562 3.07917 15.1562 4C15.1562 4.92083 14.4011 5.66667 13.4688 5.66667C12.5364 5.66667 11.7812 4.92083 11.7812 4C11.7812 3.07917 12.5364 2.33333 13.4688 2.33333ZM5.03125 10.6667C4.09891 10.6667 3.34375 9.92083 3.34375 9C3.34375 8.07917 4.09891 7.33333 5.03125 7.33333C5.96359 7.33333 6.71875 8.07917 6.71875 9C6.71875 9.92083 5.96359 10.6667 5.03125 10.6667ZM13.4688 15.6667C12.5364 15.6667 11.7812 14.9208 11.7812 14C11.7812 13.0792 12.5364 12.3333 13.4688 12.3333C14.4011 12.3333 15.1562 13.0792 15.1562 14C15.1562 14.9208 14.4011 15.6667 13.4688 15.6667Z" fill="white"/>
</svg>
