<svg width="36" height="36" viewBox="0 0 36 36" fill="none" xmlns="http://www.w3.org/2000/svg">
<path d="M26.9375 23C25.4019 23 24.0266 23.6833 23.0984 24.75L14.7791 19.8167C14.9984 19.2583 15.125 18.6417 15.125 18C15.125 17.3583 14.9984 16.7417 14.7706 16.1833L23.09 11.25C24.0181 12.3167 25.3934 13 26.9291 13C29.7219 13 31.9916 10.7583 31.9916 8C31.9916 5.24167 29.7219 3 26.9291 3C24.1362 3 21.8666 5.24167 21.8666 8C21.8666 8.64167 21.9931 9.25833 22.2209 9.81667L13.9016 14.75C12.9734 13.6833 11.5981 13 10.0625 13C7.26969 13 5 15.2417 5 18C5 20.7583 7.26969 23 10.0625 23C11.5981 23 12.9734 22.3167 13.9016 21.25L22.2209 26.1833C22.0016 26.7417 21.875 27.3583 21.875 28C21.875 30.7583 24.1447 33 26.9375 33C29.7303 33 32 30.7583 32 28C32 25.2417 29.7303 23 26.9375 23ZM26.9375 4.66667C28.8022 4.66667 30.3125 6.15833 30.3125 8C30.3125 9.84167 28.8022 11.3333 26.9375 11.3333C25.0728 11.3333 23.5625 9.84167 23.5625 8C23.5625 6.15833 25.0728 4.66667 26.9375 4.66667ZM10.0625 21.3333C8.19781 21.3333 6.6875 19.8417 6.6875 18C6.6875 16.1583 8.19781 14.6667 10.0625 14.6667C11.9272 14.6667 13.4375 16.1583 13.4375 18C13.4375 19.8417 11.9272 21.3333 10.0625 21.3333ZM26.9375 31.3333C25.0728 31.3333 23.5625 29.8417 23.5625 28C23.5625 26.1583 25.0728 24.6667 26.9375 24.6667C28.8022 24.6667 30.3125 26.1583 30.3125 28C30.3125 29.8417 28.8022 31.3333 26.9375 31.3333Z" fill="#4DBD38"/>
</svg>
