<svg width="20" height="20" viewBox="0 0 20 20" fill="none" xmlns="http://www.w3.org/2000/svg">
<path d="M12.1984 11.17C13.5372 10.45 14.4298 9.01 14.4298 7.3C14.4298 4.78 12.4661 2.8 9.96698 2.8C7.64633 2.8 5.77196 4.6 5.50419 6.85V5.95C5.50419 5.59 5.32568 5.23 5.14717 5.05C6.03973 3.16 7.9141 1.9 9.96698 1.9C12.0199 1.9 13.8942 3.16 14.7868 5.05C14.519 5.32 14.4298 5.59 14.4298 5.95V7.3V8.65C14.4298 9.37 15.0546 10 15.7686 10C16.4827 10 17.1074 9.37 17.1074 8.65V5.95C17.1074 5.23 16.4827 4.6 15.7686 4.6C15.6794 4.6 15.6793 4.6 15.5901 4.6C14.519 2.44 12.3769 1 9.96698 1C7.55708 1 5.32568 2.44 4.34387 4.6C4.25461 4.6 4.25461 4.6 4.16536 4.6C3.45131 4.6 2.82652 5.23 2.82652 5.95V8.65C2.82652 9.37 3.45131 10 4.16536 10C4.8794 10 5.50419 9.37 5.50419 8.65V7.93C5.50419 7.93 5.59345 7.93 5.59345 8.02C5.77196 9.37 6.66452 10.54 7.82484 11.17C4.43312 12.07 2.02322 15.04 2.02322 18.55C1.93396 18.82 2.11247 19 2.38024 19H17.5537C17.8215 19 18 18.82 18 18.55C18 15.04 15.5008 12.07 12.1984 11.17ZM16.2149 5.95V8.65C16.2149 8.92 16.0364 9.1 15.7686 9.1C15.5008 9.1 15.3223 8.92 15.3223 8.65V5.95C15.3223 5.68 15.5008 5.5 15.7686 5.5C16.0364 5.5 16.2149 5.68 16.2149 5.95ZM4.61164 8.65C4.61164 8.92 4.43312 9.1 4.16536 9.1C3.89759 9.1 3.71908 8.92 3.71908 8.65V5.95C3.71908 5.68 3.89759 5.5 4.16536 5.5C4.43312 5.5 4.61164 5.68 4.61164 5.95V8.65ZM6.75377 8.83C7.28931 9.1 7.9141 9.28 8.7174 9.46C8.80666 9.73 9.16368 10 9.5207 10H10.4133C10.9488 10 11.3058 9.64 11.3058 9.1C11.3058 8.56 10.9488 8.2 10.4133 8.2H9.5207C9.25294 8.2 8.98517 8.38 8.80666 8.56C7.64633 8.38 6.93229 7.93 6.39675 7.57C6.39675 7.48 6.39675 7.39 6.39675 7.3C6.39675 5.32 8.00335 3.7 9.96698 3.7C11.9306 3.7 13.5372 5.32 13.5372 7.3C13.5372 9.28 11.9306 10.9 9.96698 10.9C8.53889 10.9 7.28931 10 6.75377 8.83ZM2.82652 18.1C3.09429 14.59 6.21824 11.8 9.96698 11.8C13.7157 11.8 16.8397 14.59 17.1074 18.1H2.82652Z" fill="white"/>
</svg>
