<svg width="30" height="30" viewBox="0 0 30 30" fill="none" xmlns="http://www.w3.org/2000/svg">
<path d="M19.1678 9.99951H4.16734C3.709 9.99951 3.33398 10.3745 3.33398 10.8329V25.8333C3.33398 26.2917 3.709 26.6667 4.16734 26.6667H19.1678C19.6261 26.6667 20.0011 26.2917 20.0011 25.8333V10.8329C20.0011 10.3745 19.6261 9.99951 19.1678 9.99951ZM18.3344 25H5.0007V11.6662H18.3344V25Z" fill="#4DBD38"/>
<path d="M27.5008 6.66597H16.6672L20.6673 1.33248C20.9423 0.965805 20.8673 0.44079 20.5006 0.165781C20.1339 -0.109227 19.6089 -0.0342245 19.3339 0.332453L15.0004 6.10762L10.667 0.332453C10.392 -0.0342245 9.86696 -0.109227 9.50028 0.165781C9.1336 0.44079 9.0586 0.965805 9.33361 1.33248L13.3337 6.66597H2.50007C1.12503 6.66597 0 7.79101 0 9.16605V27.4999C0 28.875 1.12503 30 2.50007 30H27.5008C28.8759 30 30.0009 28.875 30.0009 27.4999V9.16605C30.0009 7.79101 28.8759 6.66597 27.5008 6.66597ZM28.3342 27.4999C28.3342 27.9583 27.9592 28.3333 27.5008 28.3333H2.50007C2.04173 28.3333 1.66672 27.9583 1.66672 27.4999V9.16605C1.66672 8.7077 2.04173 8.33269 2.50007 8.33269H27.5008C27.9592 8.33269 28.3342 8.7077 28.3342 9.16605V27.4999Z" fill="#4DBD38"/>
<path d="M25.8348 11.666H22.5013C22.043 11.666 21.668 12.041 21.668 12.4994C21.668 12.9577 22.043 13.3327 22.5013 13.3327H25.8348C26.2931 13.3327 26.6681 12.9577 26.6681 12.4994C26.6681 12.041 26.2931 11.666 25.8348 11.666Z" fill="#4DBD38"/>
<path d="M25.8348 14.9995H22.5013C22.043 14.9995 21.668 15.3745 21.668 15.8329C21.668 16.2912 22.043 16.6662 22.5013 16.6662H25.8348C26.2931 16.6662 26.6681 16.2912 26.6681 15.8329C26.6681 15.3745 26.2931 14.9995 25.8348 14.9995Z" fill="#4DBD38"/>
<path d="M24.168 19.9995C22.793 19.9995 21.668 21.1245 21.668 22.4996C21.668 23.8746 22.793 24.9997 24.168 24.9997C25.5431 24.9997 26.6681 23.8746 26.6681 22.4996C26.6681 21.1245 25.5431 19.9995 24.168 19.9995ZM24.168 23.3329C23.7097 23.3329 23.3347 22.9579 23.3347 22.4996C23.3347 22.0412 23.7097 21.6662 24.168 21.6662C24.6264 21.6662 25.0014 22.0412 25.0014 22.4996C25.0014 22.9579 24.6264 23.3329 24.168 23.3329Z" fill="#4DBD38"/>
</svg>
