<svg width="36" height="36" viewBox="0 0 36 36" fill="none" xmlns="http://www.w3.org/2000/svg">
<path d="M26.8243 17.1802H9.17727C8.69198 17.1802 8.29492 17.5547 8.29492 18.0124C8.29492 18.4701 8.69198 18.8445 9.17727 18.8445H26.8243C27.3096 18.8445 27.7067 18.4701 27.7067 18.0124C27.7067 17.5547 27.3096 17.1802 26.8243 17.1802Z" fill="#4DBD38"/>
<path d="M24.6176 21.3413H11.3824C10.8971 21.3413 10.5 21.7158 10.5 22.1735C10.5 22.6312 10.8971 23.0057 11.3824 23.0057H24.6176C25.1029 23.0057 25.5 22.6312 25.5 22.1735C25.5 21.7158 25.1029 21.3413 24.6176 21.3413Z" fill="#4DBD38"/>
<path d="M30.3529 9.69071H23.5324L24.7853 8.55895C25.0324 8.34258 25.1206 8.00971 25.0147 7.7018C24.9088 7.3939 24.6353 7.18585 24.3 7.13592L20.4882 6.61997L18.7853 3.42441C18.4853 2.85853 17.5059 2.85853 17.2059 3.42441L15.5029 6.61997L11.6912 7.13592C11.3647 7.18585 11.0912 7.41054 10.9853 7.71012C10.8794 8.00971 10.9676 8.34258 11.2147 8.56727L12.4676 9.69903H5.64706C4.19118 9.69903 3 10.8225 3 12.1956V25.5104C3 26.8835 4.19118 28.0069 5.64706 28.0069H8.29412V32.1678C8.29412 32.4924 8.49706 32.7836 8.80588 32.9251C8.92059 32.975 9.05294 33 9.17647 33C9.37941 33 9.58235 32.9334 9.74118 32.8086L15.7941 28.0069H30.3529C31.8088 28.0069 33 26.8835 33 25.5104V12.1956C33 10.8141 31.8088 9.69071 30.3529 9.69071ZM16.2176 8.21775C16.5 8.17614 16.7559 8.00971 16.8794 7.76838L18 5.66297L19.1206 7.76838C19.2529 8.00971 19.5 8.17614 19.7824 8.21775L22.2529 8.55062L20.4794 10.1567C20.2676 10.3481 20.1706 10.6311 20.2235 10.8974L20.6471 13.1859L18.4059 12.0957C18.2824 12.0374 18.1412 12.0042 18 12.0042C17.8588 12.0042 17.7265 12.0374 17.5941 12.0957L15.3529 13.1859L15.7765 10.8974C15.8294 10.6227 15.7324 10.3481 15.5206 10.1567L13.7471 8.55062L16.2176 8.21775ZM31.2353 25.5021C31.2353 25.9598 30.8382 26.3343 30.3529 26.3343H15.4765C15.2647 26.3343 15.0706 26.4008 14.9118 26.5257L10.0588 30.3786V27.1748C10.0588 26.7171 9.66176 26.3426 9.17647 26.3426H5.64706C5.16176 26.3426 4.76471 25.9681 4.76471 25.5104V12.1956C4.76471 11.7379 5.16176 11.3634 5.64706 11.3634H13.9059L13.3147 14.5506C13.2529 14.8585 13.3941 15.1748 13.6588 15.3662C13.9324 15.5492 14.2853 15.5825 14.5853 15.4327L18 13.7684L21.4147 15.4327C21.5382 15.491 21.6794 15.5243 21.8206 15.5243C22.0059 15.5243 22.1912 15.466 22.3412 15.3662C22.6147 15.1831 22.7471 14.8669 22.6853 14.5506L22.0941 11.3634H30.3529C30.8382 11.3634 31.2353 11.7379 31.2353 12.1956V25.5021Z" fill="#4DBD38"/>
</svg>
