<svg width="21" height="20" viewBox="0 0 21 20" fill="none" xmlns="http://www.w3.org/2000/svg">
<rect x="0.5" width="20" height="20" rx="10" fill="#11100E"/>
<path d="M17 6.64723C16.5583 6.84799 16.0822 6.97992 15.5889 7.04302C16.0937 6.73901 16.4837 6.25717 16.6673 5.67782C16.1912 5.96463 15.6635 6.16539 15.1071 6.28011C14.6539 5.78681 14.0172 5.5 13.2945 5.5C11.9465 5.5 10.8451 6.60134 10.8451 7.9608C10.8451 8.15583 10.8681 8.34512 10.9082 8.52295C8.86616 8.41969 7.0478 7.43881 5.83748 5.95315C5.62524 6.31453 5.50478 6.73901 5.50478 7.18642C5.50478 8.04111 5.93499 8.79828 6.60038 9.22849C6.19312 9.22849 5.81453 9.11377 5.48184 8.94168V8.95889C5.48184 10.152 6.33078 11.1501 7.45507 11.3738C7.09411 11.4726 6.71516 11.4863 6.34799 11.414C6.50379 11.903 6.80891 12.3308 7.22047 12.6374C7.63202 12.944 8.12932 13.114 8.64245 13.1233C7.77264 13.8119 6.69445 14.1841 5.58509 14.1788C5.39006 14.1788 5.19503 14.1673 5 14.1444C6.08987 14.8442 7.38623 15.2514 8.77438 15.2514C13.2945 15.2514 15.7782 11.5 15.7782 8.24761C15.7782 8.13862 15.7782 8.03537 15.7725 7.92639C16.2543 7.58222 16.6673 7.14627 17 6.64723Z" fill="white"/>
</svg>
