<svg width="20" height="20" viewBox="0 0 20 20" fill="none" xmlns="http://www.w3.org/2000/svg">
<path d="M5.83333 2.50033C5.83333 2.04009 5.46024 1.66699 5 1.66699C4.53976 1.66699 4.16667 2.04009 4.16667 2.50033V8.33366C4.16667 9.88076 4.78125 11.3645 5.87521 12.4584C6.96917 13.5524 8.4529 14.167 10 14.167C11.5471 14.167 13.0308 13.5524 14.1248 12.4584C15.2188 11.3645 15.8333 9.88075 15.8333 8.33366V2.50033C15.8333 2.04009 15.4602 1.66699 15 1.66699C14.5398 1.66699 14.1667 2.04009 14.1667 2.50033V8.33366C14.1667 9.43873 13.7277 10.4985 12.9463 11.2799C12.1649 12.0613 11.1051 12.5003 10 12.5003C8.89493 12.5003 7.83512 12.0613 7.05372 11.2799C6.27232 10.4985 5.83333 9.43873 5.83333 8.33366V2.50033Z" fill="#646464"/>
<path d="M3.33333 16.667C2.8731 16.667 2.5 17.0401 2.5 17.5003C2.5 17.9606 2.8731 18.3337 3.33333 18.3337H16.6667C17.1269 18.3337 17.5 17.9606 17.5 17.5003C17.5 17.0401 17.1269 16.667 16.6667 16.667H3.33333Z" fill="#646464"/>
</svg>
