<svg width="20" height="20" viewBox="0 0 20 20" fill="none" xmlns="http://www.w3.org/2000/svg">
<path d="M2.49935 4.16699C2.03911 4.16699 1.66602 4.54009 1.66602 5.00033C1.66602 5.46056 2.03911 5.83366 2.49935 5.83366H2.50768C2.96792 5.83366 3.34102 5.46056 3.34102 5.00033C3.34102 4.54009 2.96792 4.16699 2.50768 4.16699H2.49935Z" fill="#646464"/>
<path d="M6.66602 4.16699C6.20578 4.16699 5.83268 4.54009 5.83268 5.00033C5.83268 5.46056 6.20578 5.83366 6.66602 5.83366H17.4993C17.9596 5.83366 18.3327 5.46056 18.3327 5.00033C18.3327 4.54009 17.9596 4.16699 17.4993 4.16699H6.66602Z" fill="#646464"/>
<path d="M6.66602 9.16699C6.20578 9.16699 5.83268 9.54009 5.83268 10.0003C5.83268 10.4606 6.20578 10.8337 6.66602 10.8337H17.4993C17.9596 10.8337 18.3327 10.4606 18.3327 10.0003C18.3327 9.54009 17.9596 9.16699 17.4993 9.16699H6.66602Z" fill="#646464"/>
<path d="M5.83268 15.0003C5.83268 14.5401 6.20578 14.167 6.66602 14.167H17.4993C17.9596 14.167 18.3327 14.5401 18.3327 15.0003C18.3327 15.4606 17.9596 15.8337 17.4993 15.8337H6.66602C6.20578 15.8337 5.83268 15.4606 5.83268 15.0003Z" fill="#646464"/>
<path d="M1.66602 10.0003C1.66602 9.54009 2.03911 9.16699 2.49935 9.16699H2.50768C2.96792 9.16699 3.34102 9.54009 3.34102 10.0003C3.34102 10.4606 2.96792 10.8337 2.50768 10.8337H2.49935C2.03911 10.8337 1.66602 10.4606 1.66602 10.0003Z" fill="#646464"/>
<path d="M2.49935 14.167C2.03911 14.167 1.66602 14.5401 1.66602 15.0003C1.66602 15.4606 2.03911 15.8337 2.49935 15.8337H2.50768C2.96792 15.8337 3.34102 15.4606 3.34102 15.0003C3.34102 14.5401 2.96792 14.167 2.50768 14.167H2.49935Z" fill="#646464"/>
</svg>
