<svg width="36" height="36" viewBox="0 0 36 36" fill="none" xmlns="http://www.w3.org/2000/svg">
<path d="M20.9577 17.8081L15.9577 14.4748C15.6993 14.2998 15.3743 14.2915 15.0993 14.4331C14.8327 14.5748 14.666 14.8581 14.666 15.1665V21.8331C14.666 22.1415 14.8327 22.4248 15.1077 22.5665C15.2327 22.6331 15.366 22.6665 15.4993 22.6665C15.6577 22.6665 15.8243 22.6165 15.9577 22.5248L20.9577 19.1915C21.191 19.0415 21.3327 18.7748 21.3327 18.4998C21.3327 18.2248 21.191 17.9581 20.9577 17.8081ZM16.3327 20.2748V16.7248L18.9993 18.4998L16.3327 20.2748Z" fill="#69696f"/>
<path d="M30.5 6H5.5C4.125 6 3 7.125 3 8.5V28.5C3 29.875 4.125 31 5.5 31H30.5C31.875 31 33 29.875 33 28.5V8.5C33 7.125 31.875 6 30.5 6ZM31.3333 8.5V10.1667H29.6667V7.66667H30.5C30.9583 7.66667 31.3333 8.04167 31.3333 8.5ZM11.3333 26.8333V29.3333H8.83333V26.8333H11.3333ZM13 26.8333H15.5V29.3333H13V26.8333ZM17.1667 26.8333H19.6667V29.3333H17.1667V26.8333ZM21.3333 26.8333H23.8333V29.3333H21.3333V26.8333ZM25.5 26.8333H28V29.3333H25.5V26.8333ZM4.66667 25.1667V11.8333H31.3333V25.1667H4.66667ZM25.5 10.1667V7.66667H28V10.1667H25.5ZM23.8333 10.1667H21.3333V7.66667H23.8333V10.1667ZM19.6667 10.1667H17.1667V7.66667H19.6667V10.1667ZM15.5 10.1667H13V7.66667H15.5V10.1667ZM11.3333 10.1667H8.83333V7.66667H11.3333V10.1667ZM5.5 7.66667H7.16667V10.1667H4.66667V8.5C4.66667 8.04167 5.04167 7.66667 5.5 7.66667ZM4.66667 28.5V26.8333H7.16667V29.3333H5.5C5.04167 29.3333 4.66667 28.9583 4.66667 28.5ZM30.5 29.3333H29.6667V26.8333H31.3333V28.5C31.3333 28.9583 30.9583 29.3333 30.5 29.3333Z" fill="#69696f"/>
</svg>
