<svg width="36" height="36" viewBox="0 0 36 36" fill="none" xmlns="http://www.w3.org/2000/svg">
<path d="M20.9577 21.1748L15.9577 17.7998C15.6993 17.6226 15.3743 17.6142 15.0993 17.7576C14.8327 17.901 14.666 18.1879 14.666 18.5001V25.2501C14.666 25.5623 14.8327 25.8492 15.1077 25.9926C15.2327 26.0601 15.366 26.0939 15.4993 26.0939C15.6577 26.0939 15.8243 26.0432 15.9577 25.9504L20.9577 22.5754C21.191 22.4235 21.3327 22.1535 21.3327 21.8751C21.3327 21.5967 21.191 21.3267 20.9577 21.1748ZM16.3327 23.6723V20.0779L18.9993 21.8751L16.3327 23.6723Z" fill="#4DBD38"/>
<path d="M30.5 5H5.5C4.125 5 3 6.13906 3 7.53125V29.4688C3 30.8609 4.125 32 5.5 32H30.5C31.875 32 33 30.8609 33 29.4688V7.53125C33 6.13906 31.875 5 30.5 5ZM4.66667 7.53125C4.66667 7.06719 5.04167 6.6875 5.5 6.6875H30.5C30.9583 6.6875 31.3333 7.06719 31.3333 7.53125V11.75H4.66667V7.53125ZM30.5 30.3125H5.5C5.04167 30.3125 4.66667 29.9328 4.66667 29.4688V13.4375H31.3333V29.4688C31.3333 29.9328 30.9583 30.3125 30.5 30.3125Z" fill="#4DBD38"/>
<path d="M7.16732 10.0625C7.62756 10.0625 8.00065 9.68474 8.00065 9.21875C8.00065 8.75276 7.62756 8.375 7.16732 8.375C6.70708 8.375 6.33398 8.75276 6.33398 9.21875C6.33398 9.68474 6.70708 10.0625 7.16732 10.0625Z" fill="#4DBD38"/>
<path d="M10.4993 10.0625C10.9596 10.0625 11.3327 9.68474 11.3327 9.21875C11.3327 8.75276 10.9596 8.375 10.4993 8.375C10.0391 8.375 9.66602 8.75276 9.66602 9.21875C9.66602 9.68474 10.0391 10.0625 10.4993 10.0625Z" fill="#4DBD38"/>
<path d="M13.8333 10.0625C14.2936 10.0625 14.6667 9.68474 14.6667 9.21875C14.6667 8.75276 14.2936 8.375 13.8333 8.375C13.3731 8.375 13 8.75276 13 9.21875C13 9.68474 13.3731 10.0625 13.8333 10.0625Z" fill="#4DBD38"/>
</svg>
