<svg width="21" height="20" viewBox="0 0 21 20" fill="none" xmlns="http://www.w3.org/2000/svg">
<rect x="0.5" width="20" height="20" rx="10" fill="#11100E"/>
<path d="M9.3 12L12.414 10.2L9.3 8.4V12ZM16.236 7.302C16.314 7.584 16.368 7.962 16.404 8.442C16.446 8.922 16.464 9.336 16.464 9.696L16.5 10.2C16.5 11.514 16.404 12.48 16.236 13.098C16.086 13.638 15.738 13.986 15.198 14.136C14.916 14.214 14.4 14.268 13.608 14.304C12.828 14.346 12.114 14.364 11.454 14.364L10.5 14.4C7.986 14.4 6.42 14.304 5.802 14.136C5.262 13.986 4.914 13.638 4.764 13.098C4.686 12.816 4.632 12.438 4.596 11.958C4.554 11.478 4.536 11.064 4.536 10.704L4.5 10.2C4.5 8.886 4.596 7.92 4.764 7.302C4.914 6.762 5.262 6.414 5.802 6.264C6.084 6.186 6.6 6.132 7.392 6.096C8.172 6.054 8.886 6.036 9.546 6.036L10.5 6C13.014 6 14.58 6.096 15.198 6.264C15.738 6.414 16.086 6.762 16.236 7.302Z" fill="white"/>
</svg>
