<svg width="36" height="36" viewBox="0 0 36 36" fill="none" xmlns="http://www.w3.org/2000/svg">
<path d="M25.3897 6.99617C25.1313 5.6622 23.814 4.78678 22.4633 5.04524C21.8047 5.1703 21.2294 5.54548 20.8542 6.10408C20.5458 6.55429 20.4124 7.08788 20.4457 7.62147C20.0288 8.42185 18.1196 11.7068 14.5512 12.3821L7.98977 13.6243C7.33112 13.7494 6.75585 14.1246 6.38067 14.6832C6.17224 14.9833 6.05551 15.3251 5.99715 15.6753L5.03003 15.8587C4.37138 15.9838 3.7961 16.359 3.42092 16.9176C3.05408 17.4678 2.92069 18.1181 3.04575 18.7601L3.67938 21.97C3.91283 23.1455 4.96333 23.9709 6.13889 23.9709C6.2973 23.9709 6.45571 23.9543 6.61411 23.9292L7.58958 23.7458C8.03146 24.4879 8.85685 24.9631 9.74061 24.9631C9.89902 24.9631 10.0574 24.9464 10.2158 24.9214L10.3826 24.888L13.1839 31.2077C13.3173 31.5162 13.6175 31.6996 13.9426 31.6996C13.9926 31.6996 14.0427 31.6913 14.101 31.683L18.203 30.9076C18.4531 30.8576 18.6699 30.6991 18.7866 30.474C18.9033 30.2489 18.9116 29.9821 18.8116 29.7487L16.1687 23.7875L16.7773 23.6708C20.3457 22.9955 23.3721 25.3466 24.0641 25.9385C24.4059 26.9474 25.3647 27.631 26.4319 27.631C26.5903 27.631 26.7487 27.6143 26.9071 27.5893C27.5658 27.4643 28.1411 27.0891 28.5162 26.5305C28.8831 25.9802 29.0165 25.3299 28.8914 24.6879L25.3897 6.99617ZM6.2973 22.2701C5.85542 22.3535 5.39687 22.0617 5.31349 21.6282L4.67986 18.4183C4.63817 18.2182 4.67986 18.0098 4.80492 17.8347C4.92998 17.6513 5.12174 17.5262 5.34684 17.4845L6.17224 17.3261L7.11435 22.1201L6.2973 22.2701ZM8.90688 22.6203L7.6396 16.1922C7.59792 15.9921 7.6396 15.7837 7.76466 15.6086C7.88972 15.4252 8.08148 15.3001 8.30659 15.2584L13.2339 14.3247L14.8097 22.3285L9.89068 23.2539C9.4488 23.3373 8.99025 23.0455 8.90688 22.6203ZM16.844 29.4402L14.4262 29.8988L12.05 24.5462L14.4345 24.096L14.4679 24.0877L16.844 29.4402ZM16.4521 22.0117L14.8681 14.0078C17.8111 13.4492 19.7704 11.5233 20.8876 10.0226L23.5472 23.5124C21.9381 22.5286 19.3952 21.4531 16.4521 22.0117ZM27.2406 24.9964C27.2823 25.1965 27.2406 25.405 27.1156 25.58C26.9905 25.7635 26.7987 25.8885 26.5736 25.9302C26.1234 26.0136 25.6732 25.7218 25.5898 25.2882L22.1048 7.61313C22.0632 7.41304 22.1048 7.2046 22.2299 7.02952C22.355 6.8461 22.5467 6.72104 22.7718 6.67935C22.8218 6.67101 22.8802 6.66268 22.9302 6.66268C23.3221 6.66268 23.6806 6.93781 23.7556 7.31299L27.2406 24.9964Z" fill="#69696F"/>
<path d="M11.0839 16.3591L10.2668 16.5175C9.81662 16.6009 9.51647 17.0428 9.59985 17.493C9.67488 17.8932 10.025 18.1683 10.4169 18.1683C10.4669 18.1683 10.517 18.16 10.5753 18.1517L11.3924 17.9932C11.8426 17.9099 12.1427 17.468 12.0594 17.0178C11.976 16.5759 11.5341 16.2758 11.0839 16.3591Z" fill="#69696F"/>
<path d="M30.4169 16.0504C30.4669 16.0504 30.517 16.042 30.5753 16.0337L32.2178 15.7252C32.668 15.6418 32.9681 15.2 32.8847 14.7497C32.8014 14.2995 32.3678 13.9994 31.9093 14.0828L30.2668 14.3912C29.8166 14.4746 29.5165 14.9165 29.5998 15.3667C29.6749 15.7752 30.025 16.0504 30.4169 16.0504Z" fill="#69696F"/>
<path d="M30.9684 9.75563C30.7599 9.34711 30.2514 9.18036 29.8428 9.39713L28.3838 10.1558C27.9753 10.3643 27.8169 10.8728 28.0253 11.2814C28.1754 11.5648 28.4672 11.7316 28.7673 11.7316C28.8924 11.7316 29.0258 11.6982 29.1508 11.6399L30.6099 10.8812C31.0184 10.6644 31.1851 10.1642 30.9684 9.75563Z" fill="#69696F"/>
<path d="M32.2598 19.1688L30.6174 19.002C30.1588 18.952 29.7503 19.2855 29.7003 19.7441C29.6503 20.2026 29.9837 20.6111 30.4423 20.6612L32.0848 20.8279C32.1098 20.8279 32.1431 20.8279 32.1681 20.8279C32.5933 20.8279 32.9518 20.5111 32.9935 20.0776C33.0519 19.6273 32.7184 19.2188 32.2598 19.1688Z" fill="#69696F"/>
</svg>
