<svg width="36" height="36" viewBox="0 0 36 36" fill="none" xmlns="http://www.w3.org/2000/svg">
<path d="M14.6667 18.846C14.6667 16.976 13.175 15.4614 11.3333 15.4614C9.49167 15.4614 8 16.976 8 18.846C8 20.716 9.49167 22.2307 11.3333 22.2307C13.175 22.2307 14.6667 20.716 14.6667 18.846ZM11.3333 20.5383C10.4167 20.5383 9.66667 19.7768 9.66667 18.846C9.66667 17.9153 10.4167 17.1537 11.3333 17.1537C12.25 17.1537 13 17.9153 13 18.846C13 19.7768 12.25 20.5383 11.3333 20.5383Z" fill="#4DBD38"/>
<path d="M30.5 7H5.5C4.125 7 3 8.14231 3 9.53846V26.4615C3 27.8577 4.125 29 5.5 29H6.39167H16.275H30.5C31.875 29 33 27.8577 33 26.4615V9.53846C33 8.14231 31.875 7 30.5 7ZM7.175 27.3077C7.3 25.4208 9.11667 23.9231 11.3333 23.9231L11.5917 23.9315C11.625 23.9315 11.7167 23.9231 11.75 23.9231H17.5417C17.9083 23.9231 18.225 23.6862 18.3333 23.3308L19.5417 19.4977C19.6083 19.2777 19.85 19.1508 20.0667 19.2269C20.2083 19.2692 20.2833 19.3792 20.3083 19.4385C20.3417 19.4977 20.3833 19.6162 20.3333 19.76L18.85 24.4731C18.7917 24.6677 18.6083 24.7608 18.4583 24.7608C18.4333 24.7608 18.4 24.7608 18.375 24.7692H15.85C15.5583 24.7692 15.2833 24.93 15.1333 25.1838C14.9833 25.4377 14.975 25.7592 15.1167 26.0215C15.3417 26.4362 15.4667 26.8677 15.4917 27.3077H7.175ZM31.3333 26.4615C31.3333 26.9269 30.9583 27.3077 30.5 27.3077H17.1583C17.1417 27.02 17.1167 26.7408 17.05 26.4615H18.4167C18.4417 26.4615 18.4917 26.4615 18.5333 26.4531C19.4083 26.4192 20.1667 25.8354 20.4333 24.9892L21.9167 20.2762C22.0833 19.7346 22.0417 19.1677 21.7833 18.66C21.525 18.1608 21.0917 17.7885 20.5667 17.6192C20.5583 17.6192 20.5583 17.6192 20.55 17.6192V11.2308C20.55 10.7654 20.175 10.3846 19.7167 10.3846C19.2583 10.3846 18.8833 10.7654 18.8833 11.2308V17.8138C18.4583 18.0677 18.1083 18.4738 17.95 18.99L16.9333 22.2308H11.75C11.7 22.2308 11.65 22.2308 11.5917 22.2392H11.5667C11.4917 22.2308 11.4167 22.2308 11.3333 22.2308C8.19167 22.2308 5.63333 24.49 5.50833 27.3077H5.5C5.04167 27.3077 4.66667 26.9269 4.66667 26.4615V9.53846C4.66667 9.07308 5.04167 8.69231 5.5 8.69231H30.5C30.9583 8.69231 31.3333 9.07308 31.3333 9.53846V26.4615Z" fill="#4DBD38"/>
<path d="M28.8327 10.3848H22.9993C22.541 10.3848 22.166 10.7655 22.166 11.2309C22.166 11.6963 22.541 12.0771 22.9993 12.0771H28.8327C29.291 12.0771 29.666 11.6963 29.666 11.2309C29.666 10.7655 29.291 10.3848 28.8327 10.3848Z" fill="#4DBD38"/>
<path d="M28.8333 13.769H23.8333C23.375 13.769 23 14.1498 23 14.6152C23 15.0806 23.375 15.4614 23.8333 15.4614H28.8333C29.2917 15.4614 29.6667 15.0806 29.6667 14.6152C29.6667 14.1498 29.2917 13.769 28.8333 13.769Z" fill="#4DBD38"/>
<path d="M28.834 17.1538H24.6673C24.209 17.1538 23.834 17.5346 23.834 18C23.834 18.4653 24.209 18.8461 24.6673 18.8461H28.834C29.2923 18.8461 29.6673 18.4653 29.6673 18C29.6673 17.5346 29.2923 17.1538 28.834 17.1538Z" fill="#4DBD38"/>
</svg>
