<svg width="36" height="36" viewBox="0 0 36 36" fill="none" xmlns="http://www.w3.org/2000/svg">
<rect width="36" height="36" fill="#3C3C3C"/>
<path d="M403 -7595C403 -7596.1 403.895 -7597 405 -7597H21847C21848.1 -7597 21849 -7596.1 21849 -7595V25043C21849 25044.1 21848.1 25045 21847 25045H405.001C403.896 25045 403 25044.1 403 25043V-7595Z" fill="#404040"/>
<path d="M405 -7596H21847V-7598H405V-7596ZM21848 -7595V25043H21850V-7595H21848ZM21847 25044H405.001V25046H21847V25044ZM404 25043V-7595H402V25043H404ZM405.001 25044C404.448 25044 404 25043.6 404 25043H402C402 25044.7 403.344 25046 405.001 25046V25044ZM21848 25043C21848 25043.6 21847.6 25044 21847 25044V25046C21848.7 25046 21850 25044.7 21850 25043H21848ZM21847 -7596C21847.6 -7596 21848 -7595.55 21848 -7595H21850C21850 -7596.66 21848.7 -7598 21847 -7598V-7596ZM405 -7598C403.343 -7598 402 -7596.66 402 -7595H404C404 -7595.55 404.448 -7596 405 -7596V-7598Z" fill="white" fill-opacity="0.1"/>
<rect x="-1183.5" y="-31.5" width="1363" height="763" rx="4.5" fill="#F2F2F6"/>
<rect x="-1183.5" y="-31.5" width="1363" height="763" rx="4.5" stroke="#9747FF" stroke-dasharray="10 5"/>
<rect x="-12" y="-12" width="172" height="172" rx="16" fill="white"/>
<path d="M26.8243 10.125H9.17727C8.69198 10.125 8.29492 10.5187 8.29492 11C8.29492 11.4813 8.69198 11.875 9.17727 11.875H26.8243C27.3096 11.875 27.7067 11.4813 27.7067 11C27.7067 10.5187 27.3096 10.125 26.8243 10.125Z" fill="#4DBD38"/>
<path d="M9.17727 16.25H20.6479C21.1332 16.25 21.5302 15.8563 21.5302 15.375C21.5302 14.8937 21.1332 14.5 20.6479 14.5H9.17727C8.69198 14.5 8.29492 14.8937 8.29492 15.375C8.29492 15.8563 8.69198 16.25 9.17727 16.25Z" fill="#4DBD38"/>
<path d="M26.8243 14.5H24.1773C23.692 14.5 23.2949 14.8937 23.2949 15.375C23.2949 15.8563 23.692 16.25 24.1773 16.25H26.8243C27.3096 16.25 27.7067 15.8563 27.7067 15.375C27.7067 14.8937 27.3096 14.5 26.8243 14.5Z" fill="#4DBD38"/>
<path d="M22.4126 18.875H9.17727C8.69198 18.875 8.29492 19.2687 8.29492 19.75C8.29492 20.2313 8.69198 20.625 9.17727 20.625H22.4126C22.8979 20.625 23.2949 20.2313 23.2949 19.75C23.2949 19.2687 22.8979 18.875 22.4126 18.875Z" fill="#4DBD38"/>
<path d="M30.3529 4H5.64706C4.19118 4 3 5.18125 3 6.625V24.125C3 25.5688 4.19118 26.75 5.64706 26.75H8.29412V31.125C8.29412 31.4662 8.49706 31.7725 8.80588 31.9212C8.92059 31.9737 9.05294 32 9.17647 32C9.37941 32 9.58235 31.93 9.74118 31.7987L15.8029 26.75H30.3529C31.8088 26.75 33 25.5688 33 24.125V6.625C33 5.18125 31.8088 4 30.3529 4ZM31.2353 24.125C31.2353 24.6063 30.8382 25 30.3529 25H15.4765C15.2647 25 15.0706 25.07 14.9118 25.2013L10.0588 29.2437V25.875C10.0588 25.3937 9.66176 25 9.17647 25H5.64706C5.16176 25 4.76471 24.6063 4.76471 24.125V6.625C4.76471 6.14375 5.16176 5.75 5.64706 5.75H30.3529C30.8382 5.75 31.2353 6.14375 31.2353 6.625V24.125Z" fill="#4DBD38"/>
</svg>
