<svg width="36" height="36" viewBox="0 0 36 36" fill="none" xmlns="http://www.w3.org/2000/svg">
<path d="M32.1667 26.125H31.3333V12.3125V12.3044C31.3333 12.2069 31.3083 12.1175 31.275 12.0281C31.2667 12.0037 31.2583 11.9794 31.2417 11.9631C31.225 11.9387 31.225 11.9062 31.2083 11.8819L27.0417 5.38188C26.8917 5.14625 26.6167 5 26.3333 5H9.66667C9.38333 5 9.10833 5.14625 8.95833 5.38188L4.79167 11.8819C4.775 11.9062 4.76667 11.9306 4.75833 11.9631C4.75 11.9875 4.73333 12.0037 4.725 12.0281C4.69167 12.1175 4.66667 12.2069 4.66667 12.3044V12.3125V26.125H3.83333C3.375 26.125 3 26.4906 3 26.9375V30.1875C3 30.6344 3.375 31 3.83333 31H32.1667C32.625 31 33 30.6344 33 30.1875V26.9375C33 26.4906 32.625 26.125 32.1667 26.125ZM10.125 6.625H25.8667L28.9917 11.5H7L10.125 6.625ZM6.33333 13.125H29.6667V26.125H6.33333V13.125ZM31.3333 29.375H4.66667V27.75H5.5H30.5H31.3333V29.375Z" fill="#4DBD38"/>
<path d="M22.1667 8.25H13.8333C13.375 8.25 13 8.61562 13 9.0625C13 9.50937 13.375 9.875 13.8333 9.875H22.1667C22.625 9.875 23 9.50937 23 9.0625C23 8.61562 22.625 8.25 22.1667 8.25Z" fill="#4DBD38"/>
<path d="M20.8339 14.8396C19.5756 14.5633 18.6256 14.9777 18.0006 15.5139C17.3756 14.9777 16.4256 14.5633 15.1673 14.8396C14.2589 15.0427 13.5839 15.5627 13.2006 16.3671C12.6673 17.4883 12.8839 18.8533 13.3006 19.6577C13.6673 20.3402 17.1923 24.0371 17.8506 24.1508C17.9006 24.1589 17.9423 24.1589 17.9923 24.1589C18.0423 24.1589 18.0923 24.1589 18.1339 24.1508C18.7923 24.0371 22.3256 20.3402 22.6839 19.6577C23.1089 18.8533 23.3173 17.4883 22.7839 16.3671C22.4173 15.5627 21.7339 15.0427 20.8339 14.8396ZM21.2173 18.9102C20.9089 19.4871 18.9756 21.3639 18.0006 22.2577C17.0339 21.3639 15.0923 19.4871 14.7839 18.9102C14.5339 18.4389 14.4423 17.6183 14.7089 17.0496C14.8673 16.7083 15.1339 16.5133 15.5339 16.4239C15.6839 16.3914 15.8173 16.3752 15.9506 16.3752C16.7923 16.3752 17.1756 17.0171 17.2506 17.1552C17.3839 17.4314 17.6756 17.6102 17.9923 17.6102C18.3339 17.6021 18.6006 17.4396 18.7506 17.1633C18.8339 16.9927 19.3256 16.1721 20.4673 16.4239C20.8673 16.5133 21.1256 16.7083 21.2923 17.0496C21.5589 17.6183 21.4589 18.4389 21.2173 18.9102Z" fill="#4DBD38"/>
</svg>
