<svg width="36" height="36" viewBox="0 0 36 36" fill="none" xmlns="http://www.w3.org/2000/svg">
<path d="M32.1667 26.125H31.3333V12.3125V12.3044C31.3333 12.2069 31.3083 12.1175 31.275 12.0281C31.2667 12.0037 31.2583 11.9794 31.2417 11.9631C31.225 11.9387 31.225 11.9062 31.2083 11.8819L27.0417 5.38188C26.8917 5.14625 26.6167 5 26.3333 5H9.66667C9.38333 5 9.10833 5.14625 8.95833 5.38188L4.79167 11.8819C4.775 11.9062 4.76667 11.9306 4.75833 11.9631C4.75 11.9875 4.73333 12.0037 4.725 12.0281C4.69167 12.1175 4.66667 12.2069 4.66667 12.3044V12.3125V26.125H3.83333C3.375 26.125 3 26.4906 3 26.9375V30.1875C3 30.6344 3.375 31 3.83333 31H32.1667C32.625 31 33 30.6344 33 30.1875V26.9375C33 26.4906 32.625 26.125 32.1667 26.125ZM10.125 6.625H25.8667L28.9917 11.5H7L10.125 6.625ZM6.33333 13.125H29.6667V26.125H6.33333V13.125ZM31.3333 29.375H4.66667V27.75H5.5H30.5H31.3333V29.375Z" fill="#69696f"/>
<path d="M22.1667 8.25H13.8333C13.375 8.25 13 8.61562 13 9.0625C13 9.50937 13.375 9.875 13.8333 9.875H22.1667C22.625 9.875 23 9.50937 23 9.0625C23 8.61562 22.625 8.25 22.1667 8.25Z" fill="#69696f"/>
<path d="M20.8333 14.8394C19.575 14.5631 18.625 14.9775 18 15.5138C17.375 14.9775 16.425 14.5631 15.1667 14.8394C14.2583 15.0425 13.5833 15.5625 13.2 16.3669C12.6667 17.4881 12.8833 18.8531 13.3 19.6575C13.6667 20.34 17.1917 24.0369 17.85 24.1506C17.9 24.1588 17.9417 24.1588 17.9917 24.1588C18.0417 24.1588 18.0917 24.1588 18.1333 24.1506C18.7917 24.0369 22.325 20.34 22.6833 19.6575C23.1083 18.8531 23.3167 17.4881 22.7833 16.3669C22.4167 15.5625 21.7333 15.0425 20.8333 14.8394ZM21.2167 18.91C20.9083 19.4869 18.975 21.3638 18 22.2575C17.0333 21.3638 15.0917 19.4869 14.7833 18.91C14.5333 18.4388 14.4417 17.6181 14.7083 17.0494C14.8667 16.7081 15.1333 16.5131 15.5333 16.4238C15.6833 16.3913 15.8167 16.375 15.95 16.375C16.7917 16.375 17.175 17.0169 17.25 17.155C17.3833 17.4313 17.675 17.61 17.9917 17.61C18.3333 17.6019 18.6 17.4394 18.75 17.1631C18.8333 16.9925 19.325 16.1719 20.4667 16.4238C20.8667 16.5131 21.125 16.7081 21.2917 17.0494C21.5583 17.6181 21.4583 18.4388 21.2167 18.91Z" fill="#69696f"/>
</svg>
