<svg width="36" height="36" viewBox="0 0 36 36" fill="none" xmlns="http://www.w3.org/2000/svg">
<path d="M23 10.5C23 6.36667 19.6333 3 15.5 3C11.3667 3 8 6.36667 8 10.5C8 14.6333 11.3667 18 15.5 18C19.6333 18 23 14.6333 23 10.5ZM15.5 16.3333C12.2833 16.3333 9.66667 13.7167 9.66667 10.5C9.66667 7.28333 12.2833 4.66667 15.5 4.66667C18.7167 4.66667 21.3333 7.28333 21.3333 10.5C21.3333 13.7167 18.7167 16.3333 15.5 16.3333Z" fill="#4DBD38"/>
<path d="M25.5 18C23.8917 18 22.4083 18.5083 21.1917 19.375C19.4333 18.475 17.4833 18 15.5 18C8.60833 18 3 23.6083 3 30.5C3 31.0417 3.05 31.6083 3.15 32.2917C3.20833 32.7 3.55833 33 3.96667 33H24.6667V32.95C24.9417 32.9833 25.2167 33 25.5 33C29.6333 33 33 29.6333 33 25.5C33 21.3667 29.6333 18 25.5 18ZM4.70833 31.3333C4.68333 31.0333 4.66667 30.7667 4.66667 30.5C4.66667 24.525 9.525 19.6667 15.5 19.6667C17 19.6667 18.4833 19.9917 19.85 20.5917C18.7 21.9083 18 23.6167 18 25.5C18 27.8583 19.0917 29.9583 20.8 31.3333H4.70833ZM25.5 31.3333C22.2833 31.3333 19.6667 28.7167 19.6667 25.5C19.6667 22.2833 22.2833 19.6667 25.5 19.6667C28.7167 19.6667 31.3333 22.2833 31.3333 25.5C31.3333 28.7167 28.7167 31.3333 25.5 31.3333Z" fill="#4DBD38"/>
<path d="M27.8249 22.6832L24.7415 26.5416L23.1082 24.9082C22.7832 24.5832 22.2582 24.5832 21.9332 24.9082C21.6082 25.2332 21.6082 25.7582 21.9332 26.0832L24.2249 28.3749C24.3832 28.5332 24.5915 28.6166 24.8165 28.6166C24.8332 28.6166 24.8499 28.6166 24.8665 28.6166C25.0999 28.5999 25.3249 28.4916 25.4749 28.3082L29.1415 23.7249C29.4332 23.3666 29.3749 22.8416 29.0082 22.5499C28.6415 22.2666 28.1165 22.3249 27.8249 22.6832Z" fill="#4DBD38"/>
</svg>
