<svg width="36" height="36" viewBox="0 0 36 36" fill="none" xmlns="http://www.w3.org/2000/svg">
<path d="M26.8235 10.125H9.17647C8.69118 10.125 8.29412 10.5187 8.29412 11C8.29412 11.4813 8.69118 11.875 9.17647 11.875H26.8235C27.3088 11.875 27.7059 11.4813 27.7059 11C27.7059 10.5187 27.3088 10.125 26.8235 10.125Z" fill="#69696f"/>
<path d="M9.17647 16.25H20.6471C21.1324 16.25 21.5294 15.8563 21.5294 15.375C21.5294 14.8937 21.1324 14.5 20.6471 14.5H9.17647C8.69118 14.5 8.29412 14.8937 8.29412 15.375C8.29412 15.8563 8.69118 16.25 9.17647 16.25Z" fill="#69696f"/>
<path d="M26.8235 14.5H24.1765C23.6912 14.5 23.2941 14.8937 23.2941 15.375C23.2941 15.8563 23.6912 16.25 24.1765 16.25H26.8235C27.3088 16.25 27.7059 15.8563 27.7059 15.375C27.7059 14.8937 27.3088 14.5 26.8235 14.5Z" fill="#69696f"/>
<path d="M22.4118 18.875H9.17647C8.69118 18.875 8.29412 19.2687 8.29412 19.75C8.29412 20.2313 8.69118 20.625 9.17647 20.625H22.4118C22.8971 20.625 23.2941 20.2313 23.2941 19.75C23.2941 19.2687 22.8971 18.875 22.4118 18.875Z" fill="#69696f"/>
<path d="M30.3529 4H5.64706C4.19118 4 3 5.18125 3 6.625V24.125C3 25.5688 4.19118 26.75 5.64706 26.75H8.29412V31.125C8.29412 31.4662 8.49706 31.7725 8.80588 31.9212C8.92059 31.9737 9.05294 32 9.17647 32C9.37941 32 9.58235 31.93 9.74118 31.7987L15.8029 26.75H30.3529C31.8088 26.75 33 25.5688 33 24.125V6.625C33 5.18125 31.8088 4 30.3529 4ZM31.2353 24.125C31.2353 24.6063 30.8382 25 30.3529 25H15.4765C15.2647 25 15.0706 25.07 14.9118 25.2013L10.0588 29.2437V25.875C10.0588 25.3937 9.66176 25 9.17647 25H5.64706C5.16176 25 4.76471 24.6063 4.76471 24.125V6.625C4.76471 6.14375 5.16176 5.75 5.64706 5.75H30.3529C30.8382 5.75 31.2353 6.14375 31.2353 6.625V24.125Z" fill="#69696f"/>
</svg>
