<svg width="36" height="36" viewBox="0 0 36 36" fill="none" xmlns="http://www.w3.org/2000/svg">
<path d="M29.4688 23C29.4688 21.1584 27.9584 19.6667 26.0938 19.6667C24.2291 19.6667 22.7188 21.1584 22.7188 23C22.7188 24.8417 24.2291 26.3334 26.0938 26.3334C27.9584 26.3334 29.4688 24.8417 29.4688 23ZM26.0938 24.6667C25.1656 24.6667 24.4062 23.9167 24.4062 23C24.4062 22.0834 25.1656 21.3334 26.0938 21.3334C27.0219 21.3334 27.7812 22.0834 27.7812 23C27.7812 23.9167 27.0219 24.6667 26.0938 24.6667Z" fill="#69696f"/>
<path d="M26.0938 26.3333C22.8369 26.3333 20.1875 28.6666 20.1875 31.5416C20.1875 31.775 20.2128 32.025 20.255 32.3083C20.3225 32.7083 20.6769 33 21.0903 33H31.0972C31.5106 33 31.8566 32.7083 31.9325 32.3083C31.9831 32.025 32 31.7833 32 31.5416C32 28.6666 29.3506 26.3333 26.0938 26.3333ZM21.8834 31.3333C22.01 29.475 23.8494 28 26.0938 28C28.3381 28 30.1775 29.475 30.3041 31.3333H21.8834Z" fill="#69696f"/>
<path d="M15.9688 20.5C15.9688 18.2 14.0788 16.3333 11.75 16.3333C9.42125 16.3333 7.53125 18.2 7.53125 20.5C7.53125 22.8 9.42125 24.6666 11.75 24.6666C14.0788 24.6666 15.9688 22.8 15.9688 20.5ZM11.75 23C10.3578 23 9.21875 21.875 9.21875 20.5C9.21875 19.125 10.3578 18 11.75 18C13.1422 18 14.2812 19.125 14.2812 20.5C14.2812 21.875 13.1422 23 11.75 23Z" fill="#69696f"/>
<path d="M11.75 24.6667C8.02906 24.6667 5 27.6584 5 31.3334C5 31.625 5.02531 31.9334 5.07594 32.2917C5.14344 32.7 5.49781 33 5.91125 33H17.5803C18.0022 33 18.3566 32.7 18.4156 32.2917C18.4747 31.9334 18.5 31.625 18.5 31.3334C18.5 27.6584 15.4709 24.6667 11.75 24.6667ZM6.6875 31.3334C6.6875 28.575 8.95719 26.3334 11.75 26.3334C14.5428 26.3334 16.8125 28.575 16.8125 31.3334H6.6875Z" fill="#69696f"/>
<path d="M12.5938 14.6667H16.5088L21.335 18.6417C21.4869 18.7667 21.6809 18.8333 21.875 18.8333C21.9931 18.8333 22.1197 18.8083 22.2294 18.7583C22.5331 18.6167 22.7188 18.325 22.7188 18V14.6667H24.4062C25.7984 14.6667 26.9375 13.5417 26.9375 12.1667V5.5C26.9375 4.125 25.7984 3 24.4062 3H12.5938C11.2016 3 10.0625 4.125 10.0625 5.5V12.1667C10.0625 13.5417 11.2016 14.6667 12.5938 14.6667ZM11.75 5.5C11.75 5.04167 12.1297 4.66667 12.5938 4.66667H24.4062C24.8703 4.66667 25.25 5.04167 25.25 5.5V12.1667C25.25 12.625 24.8703 13 24.4062 13H21.875C21.4109 13 21.0312 13.375 21.0312 13.8333V16.225L17.3525 13.2C17.2006 13.0667 17.0066 13 16.8125 13H12.5938C12.1297 13 11.75 12.625 11.75 12.1667V5.5Z" fill="#69696f"/>
<path d="M21.875 9.66667C22.341 9.66667 22.7188 9.29357 22.7188 8.83333C22.7188 8.3731 22.341 8 21.875 8C21.409 8 21.0312 8.3731 21.0312 8.83333C21.0312 9.29357 21.409 9.66667 21.875 9.66667Z" fill="#69696f"/>
<path d="M18.5 9.66667C18.966 9.66667 19.3438 9.29357 19.3438 8.83333C19.3438 8.3731 18.966 8 18.5 8C18.034 8 17.6562 8.3731 17.6562 8.83333C17.6562 9.29357 18.034 9.66667 18.5 9.66667Z" fill="#69696f"/>
<path d="M15.125 9.66667C15.591 9.66667 15.9688 9.29357 15.9688 8.83333C15.9688 8.3731 15.591 8 15.125 8C14.659 8 14.2812 8.3731 14.2812 8.83333C14.2812 9.29357 14.659 9.66667 15.125 9.66667Z" fill="#69696f"/>
</svg>
