<svg width="27" height="30" viewBox="0 0 27 30" fill="none" xmlns="http://www.w3.org/2000/svg">
<path d="M24.4688 19.9998C24.4688 18.1582 22.9584 16.6665 21.0938 16.6665C19.2291 16.6665 17.7188 18.1582 17.7188 19.9998C17.7188 21.8415 19.2291 23.3332 21.0938 23.3332C22.9584 23.3332 24.4688 21.8415 24.4688 19.9998ZM21.0938 21.6665C20.1656 21.6665 19.4062 20.9165 19.4062 19.9998C19.4062 19.0832 20.1656 18.3332 21.0938 18.3332C22.0219 18.3332 22.7812 19.0832 22.7812 19.9998C22.7812 20.9165 22.0219 21.6665 21.0938 21.6665Z" fill="#4DBD38"/>
<path d="M21.0938 23.3335C17.8369 23.3335 15.1875 25.6668 15.1875 28.5418C15.1875 28.7752 15.2128 29.0252 15.255 29.3085C15.3225 29.7085 15.6769 30.0002 16.0903 30.0002H26.0972C26.5106 30.0002 26.8566 29.7085 26.9325 29.3085C26.9831 29.0252 27 28.7835 27 28.5418C27 25.6668 24.3506 23.3335 21.0938 23.3335ZM16.8834 28.3335C17.01 26.4752 18.8494 25.0002 21.0938 25.0002C23.3381 25.0002 25.1775 26.4752 25.3041 28.3335H16.8834Z" fill="#4DBD38"/>
<path d="M10.9688 17.5002C10.9688 15.2002 9.07875 13.3335 6.75 13.3335C4.42125 13.3335 2.53125 15.2002 2.53125 17.5002C2.53125 19.8002 4.42125 21.6668 6.75 21.6668C9.07875 21.6668 10.9688 19.8002 10.9688 17.5002ZM6.75 20.0002C5.35781 20.0002 4.21875 18.8752 4.21875 17.5002C4.21875 16.1252 5.35781 15.0002 6.75 15.0002C8.14219 15.0002 9.28125 16.1252 9.28125 17.5002C9.28125 18.8752 8.14219 20.0002 6.75 20.0002Z" fill="#4DBD38"/>
<path d="M6.75 21.6665C3.02906 21.6665 0 24.6582 0 28.3332C0 28.6248 0.0253124 28.9332 0.0759374 29.2915C0.143437 29.6998 0.497812 29.9998 0.91125 29.9998H12.5803C13.0022 29.9998 13.3566 29.6998 13.4156 29.2915C13.4747 28.9332 13.5 28.6248 13.5 28.3332C13.5 24.6582 10.4709 21.6665 6.75 21.6665ZM1.6875 28.3332C1.6875 25.5748 3.95719 23.3332 6.75 23.3332C9.54281 23.3332 11.8125 25.5748 11.8125 28.3332H1.6875Z" fill="#4DBD38"/>
<path d="M7.59375 11.6667H11.5088L16.335 15.6417C16.4869 15.7667 16.6809 15.8333 16.875 15.8333C16.9931 15.8333 17.1197 15.8083 17.2294 15.7583C17.5331 15.6167 17.7188 15.325 17.7188 15V11.6667H19.4062C20.7984 11.6667 21.9375 10.5417 21.9375 9.16667V2.5C21.9375 1.125 20.7984 0 19.4062 0H7.59375C6.20156 0 5.0625 1.125 5.0625 2.5V9.16667C5.0625 10.5417 6.20156 11.6667 7.59375 11.6667ZM6.75 2.5C6.75 2.04167 7.12969 1.66667 7.59375 1.66667H19.4062C19.8703 1.66667 20.25 2.04167 20.25 2.5V9.16667C20.25 9.625 19.8703 10 19.4062 10H16.875C16.4109 10 16.0312 10.375 16.0312 10.8333V13.225L12.3525 10.2C12.2006 10.0667 12.0066 10 11.8125 10H7.59375C7.12969 10 6.75 9.625 6.75 9.16667V2.5Z" fill="#4DBD38"/>
<path d="M16.875 6.66667C17.341 6.66667 17.7188 6.29357 17.7188 5.83333C17.7188 5.3731 17.341 5 16.875 5C16.409 5 16.0312 5.3731 16.0312 5.83333C16.0312 6.29357 16.409 6.66667 16.875 6.66667Z" fill="#4DBD38"/>
<path d="M13.5 6.66667C13.966 6.66667 14.3438 6.29357 14.3438 5.83333C14.3438 5.3731 13.966 5 13.5 5C13.034 5 12.6562 5.3731 12.6562 5.83333C12.6562 6.29357 13.034 6.66667 13.5 6.66667Z" fill="#4DBD38"/>
<path d="M10.125 6.66667C10.591 6.66667 10.9688 6.29357 10.9688 5.83333C10.9688 5.3731 10.591 5 10.125 5C9.65901 5 9.28125 5.3731 9.28125 5.83333C9.28125 6.29357 9.65901 6.66667 10.125 6.66667Z" fill="#4DBD38"/>
</svg>
