<svg width="36" height="36" viewBox="0 0 36 36" fill="none" xmlns="http://www.w3.org/2000/svg">
<path d="M31.8701 18.3917C31.7125 18.15 31.4325 18 31.1262 18H26.1995L25.0094 16.4583C25.2194 16.075 25.3857 15.6833 25.5257 15.275L27.7572 14.95C28.186 14.8917 28.501 14.5417 28.501 14.125V11.8667C28.501 11.4583 28.186 11.1 27.7572 11.0417L25.5257 10.725C25.3857 10.3167 25.2194 9.91667 25.0094 9.54167L26.3483 7.81667C26.6021 7.48333 26.5671 7.025 26.2608 6.73333L24.5806 5.13333C24.2743 4.84167 23.793 4.80833 23.443 5.05L21.6228 6.325C21.2203 6.125 20.809 5.96667 20.3802 5.83333L20.0389 3.70833C19.9864 3.3 19.6189 3 19.1814 3H16.8099C16.3811 3 16.0136 3.3 15.9436 3.70833L15.611 5.83333C15.1822 5.96667 14.7622 6.125 14.3684 6.325L12.5482 5.05C12.1982 4.80833 11.7169 4.84167 11.4106 5.13333L9.73922 6.725C9.43294 7.01667 9.39794 7.475 9.65171 7.80833L10.9906 9.53333C10.7806 9.91667 10.6056 10.3167 10.4743 10.725L8.24283 11.05C7.81404 11.1083 7.49901 11.4583 7.49901 11.875V14.1333C7.49901 14.5417 7.81404 14.9 8.24283 14.9583L10.4743 15.2833C10.6143 15.6917 10.7806 16.0917 10.9906 16.4667L9.80048 18H4.87376C4.56748 18 4.28746 18.15 4.12994 18.3917C3.97243 18.6333 3.95493 18.9417 4.09494 19.2L6.62393 24.0333V32.1667C6.62393 32.625 7.01771 33 7.49901 33H21.5003H28.501C28.9823 33 29.3761 32.625 29.3761 32.1667V24.0333L31.9051 19.2083C32.0451 18.95 32.0276 18.6417 31.8701 18.3917ZM21.5003 21.9667L20.529 20.1083C20.9053 19.9833 21.2816 19.85 21.6403 19.675L22.4192 20.225L21.5003 21.9667ZM12.7758 16.0833C12.4257 15.55 12.172 14.9583 12.0232 14.3417C11.9444 14.0083 11.6557 13.7583 11.3056 13.7083L9.24917 13.4083V12.5833L11.2969 12.2833C11.6469 12.2333 11.9357 11.9833 12.0144 11.65C12.1632 11.0333 12.417 10.45 12.767 9.90833C12.9595 9.61667 12.942 9.25 12.732 8.975L11.5069 7.39167L12.1194 6.80833L13.7909 7.975C14.0796 8.175 14.4647 8.19167 14.7709 8.00833C15.3398 7.675 15.9523 7.43333 16.5999 7.29167C16.9499 7.21667 17.2124 6.94167 17.2649 6.60833L17.5712 4.66667H18.4375L18.7438 6.61667C18.7963 6.95833 19.0589 7.225 19.4089 7.3C20.0564 7.44167 20.669 7.68333 21.2378 8.01667C21.5441 8.2 21.9291 8.18333 22.2179 7.98333L23.8893 6.81667L24.5019 7.4L23.2767 8.98333C23.0667 9.25833 23.0492 9.625 23.2417 9.91667C23.5918 10.45 23.8456 11.0417 23.9943 11.6583C24.0731 11.9917 24.3619 12.2417 24.7119 12.2917L26.7508 12.5917V13.4167L24.7031 13.7167C24.3531 13.7667 24.0643 14.0167 23.9856 14.35C23.8368 14.9667 23.583 15.55 23.233 16.0917C23.0405 16.3833 23.058 16.75 23.268 17.025L24.0381 18.025C23.7405 18.05 23.478 18.2167 23.3468 18.475L23.2155 18.725L22.2179 18.025C21.9291 17.825 21.5441 17.8083 21.2378 17.9917C20.7653 18.2667 20.2577 18.4667 19.7327 18.6167L19.6627 18.475C19.5139 18.175 19.2076 18 18.8751 18H14.7797C14.4822 17.8167 14.1146 17.8167 13.8259 18H11.9707L12.732 17.0167C12.9508 16.7417 12.9595 16.3667 12.7758 16.0833ZM18.3325 19.6667L20.0827 23H8.04156L6.2914 19.6667H18.3325ZM8.37409 24.6667H20.6252V31.3333H8.37409V24.6667ZM27.6259 31.3333H22.3754V24.6667H27.6259V31.3333ZM27.9584 23H22.918L24.6681 19.6667H29.7086L27.9584 23Z" fill="#69696f"/>
<path d="M17.9991 17.0335C20.3355 17.0335 22.2345 15.2251 22.2345 13.0001C22.2345 10.7751 20.3355 8.9668 17.9991 8.9668C15.6626 8.9668 13.7637 10.7751 13.7637 13.0001C13.7637 15.2251 15.6626 17.0335 17.9991 17.0335ZM17.9991 10.6335C19.373 10.6335 20.4843 11.6918 20.4843 13.0001C20.4843 14.3085 19.373 15.3668 17.9991 15.3668C16.6252 15.3668 15.5138 14.3085 15.5138 13.0001C15.5138 11.6918 16.6252 10.6335 17.9991 10.6335Z" fill="#69696f"/>
</svg>
