<svg width="14" height="14" viewBox="0 0 14 14" fill="none" xmlns="http://www.w3.org/2000/svg">
<g clip-path="url(#clip0_3685_6117)">
<path fill-rule="evenodd" clip-rule="evenodd" d="M0.699219 6.99995C0.699219 3.52056 3.51982 0.699951 6.99922 0.699951C10.4786 0.699951 13.2992 3.52056 13.2992 6.99995C13.2992 10.4793 10.4786 13.3 6.99922 13.3C3.51982 13.3 0.699219 10.4793 0.699219 6.99995ZM6.99922 1.84541C4.15244 1.84541 1.84467 4.15317 1.84467 6.99995C1.84467 9.84673 4.15244 12.1545 6.99922 12.1545C9.84599 12.1545 12.1538 9.84673 12.1538 6.99995C12.1538 4.15317 9.84599 1.84541 6.99922 1.84541Z" fill="#B3B3B3"/>
<path fill-rule="evenodd" clip-rule="evenodd" d="M1.84467 6.99995C1.84467 4.15317 4.15244 1.84541 6.99922 1.84541C9.84599 1.84541 12.1538 4.15317 12.1538 6.99995C12.1538 9.84673 9.84599 12.1545 6.99922 12.1545C4.15244 12.1545 1.84467 9.84673 1.84467 6.99995ZM7.14712 4.72298C6.8805 4.67725 6.6063 4.72735 6.37309 4.86442C6.13987 5.00148 5.96269 5.21666 5.87292 5.47184C5.76796 5.77022 5.44098 5.92702 5.14259 5.82206C4.84421 5.71709 4.68741 5.39011 4.79238 5.09173C4.97191 4.58136 5.32627 4.15101 5.7927 3.87688C6.25914 3.60276 6.80753 3.50255 7.34076 3.59402C7.874 3.68548 8.35765 3.96271 8.70607 4.3766C9.05442 4.79041 9.2451 5.31413 9.24438 5.85503C9.24412 6.73151 8.5943 7.31032 8.13025 7.61968C7.88075 7.78602 7.63533 7.90832 7.45454 7.98867C7.36333 8.02921 7.28653 8.05997 7.23118 8.08105C7.20346 8.09161 7.18099 8.09979 7.16463 8.10561L7.14474 8.11258L7.13841 8.11474L7.13617 8.11549L7.1353 8.11579C7.1353 8.11579 7.13458 8.11603 6.95347 7.57269L7.13458 8.11603C6.8345 8.21605 6.51016 8.05388 6.41013 7.7538C6.31017 7.45393 6.47206 7.12981 6.77176 7.02955L6.78089 7.02635C6.7897 7.02321 6.80414 7.01798 6.82341 7.01064C6.86203 6.99593 6.91946 6.97299 6.98933 6.94194C7.1307 6.87911 7.31482 6.78664 7.49487 6.66661C7.88982 6.40331 8.09892 6.1232 8.09892 5.85451L8.09892 5.85366C8.09933 5.58315 8.00398 5.32122 7.82977 5.11428C7.65556 4.90733 7.41373 4.76871 7.14712 4.72298ZM6.99922 9.29086C6.68291 9.29086 6.42649 9.54728 6.42649 9.86359C6.42649 10.1799 6.68291 10.4363 6.99922 10.4363H7.00495C7.32125 10.4363 7.57767 10.1799 7.57767 9.86359C7.57767 9.54728 7.32125 9.29086 7.00495 9.29086H6.99922Z" fill="#B3B3B3"/>
</g>
<defs>
<clipPath id="clip0_3685_6117">
<rect width="14" height="14" fill="white"/>
</clipPath>
</defs>
</svg>
