<svg width="36" height="36" viewBox="0 0 36 36" fill="none" xmlns="http://www.w3.org/2000/svg">
<path d="M23.5575 13.2667C23.1575 13.3333 22.8659 13.6833 22.8659 14.0917C22.8659 15.8917 22.4492 16.8917 21.9909 17.45C22.5909 11.975 17.7242 7.78335 17.4909 7.59168C17.2575 7.40001 16.9492 7.34168 16.6659 7.45001C16.3825 7.55001 16.1825 7.80001 16.1325 8.10001C15.5409 11.6833 14.6325 12.875 13.4825 14.3917C12.8409 15.2333 12.1075 16.1917 11.3909 17.65C8.84919 22.8083 12.3575 26.9917 14.5575 28.4833C14.6992 28.5833 14.8659 28.625 15.0242 28.625C15.2075 28.625 15.3825 28.5667 15.5325 28.45C15.8159 28.225 15.9242 27.85 15.8075 27.5083C14.7242 24.4917 15.7575 22.4167 16.6575 21.3083C16.9992 22.675 17.4325 23.625 18.2325 24.4333C19.0242 25.225 19.0575 27.075 19.0075 27.7167C18.9825 28 19.1075 28.275 19.3409 28.45C19.5659 28.625 19.8659 28.6667 20.1409 28.5667C26.8409 26.0167 25.9075 17.8 24.4825 13.8167C24.3492 13.425 23.9575 13.2 23.5575 13.2667ZM20.6659 26.4667C20.5825 25.45 20.2909 24.1167 19.4159 23.25C18.7242 22.5583 18.3909 21.6917 17.9825 19.5167C17.9325 19.2417 17.7409 19.0083 17.4825 18.9C17.3825 18.85 17.2742 18.8333 17.1659 18.8333C16.9992 18.8333 16.8325 18.8833 16.6992 18.975C16.6575 19 13.5242 21.2083 13.6992 25.3417C12.5075 23.8167 11.4075 21.3833 12.8992 18.3667C13.5492 17.05 14.1909 16.2083 14.8159 15.3833C15.8409 14.0417 16.8075 12.775 17.4825 9.91668C18.9409 11.5667 21.2659 14.9583 20.0325 18.7083C19.9492 18.9583 19.9909 19.2417 20.1492 19.4583C20.3075 19.675 20.5575 19.8 20.8242 19.8C20.8492 19.8 22.6242 19.7667 23.7159 17.8667C23.7909 18.4917 23.8492 19.1667 23.8409 19.8583C23.8242 23.0083 22.7575 25.2167 20.6659 26.4667Z" fill="#4DBD38"/>
<path d="M18 3C9.725 3 3 9.73333 3 18C3 26.2667 9.725 33 18 33C26.275 33 33 26.2667 33 18C33 9.73333 26.275 3 18 3ZM18 31.3333C10.65 31.3333 4.66667 25.35 4.66667 18C4.66667 10.65 10.65 4.66667 18 4.66667C25.35 4.66667 31.3333 10.65 31.3333 18C31.3333 25.35 25.35 31.3333 18 31.3333Z" fill="#4DBD38"/>
</svg>
