<svg width="36" height="36" viewBox="0 0 36 36" fill="none" xmlns="http://www.w3.org/2000/svg">
<path d="M22.1672 12.9994H7.16679C6.70845 12.9994 6.33344 13.3744 6.33344 13.8327V28.8332C6.33344 29.2915 6.70845 29.6666 7.16679 29.6666H22.1672C22.6256 29.6666 23.0006 29.2915 23.0006 28.8332V13.8327C23.0006 13.3744 22.6256 12.9994 22.1672 12.9994ZM21.3339 27.9998H8.00015V14.6661H21.3339V27.9998Z" fill="#69696f"/>
<path d="M30.5008 9.66597H19.6672L23.6673 4.33248C23.9423 3.96581 23.8673 3.44079 23.5006 3.16578C23.1339 2.89077 22.6089 2.96578 22.3339 3.33245L18.0004 9.10762L13.667 3.33245C13.392 2.96578 12.867 2.89077 12.5003 3.16578C12.1336 3.44079 12.0586 3.96581 12.3336 4.33248L16.3337 9.66597H5.50007C4.12503 9.66597 3 10.791 3 12.166V30.4999C3 31.875 4.12503 33 5.50007 33H30.5008C31.8759 33 33.0009 31.875 33.0009 30.4999V12.166C33.0009 10.791 31.8759 9.66597 30.5008 9.66597ZM31.3342 30.4999C31.3342 30.9583 30.9592 31.3333 30.5008 31.3333H5.50007C5.04173 31.3333 4.66672 30.9583 4.66672 30.4999V12.166C4.66672 11.7077 5.04173 11.3327 5.50007 11.3327H30.5008C30.9592 11.3327 31.3342 11.7077 31.3342 12.166V30.4999Z" fill="#69696f"/>
<path d="M28.8341 14.6661H25.5007C25.0423 14.6661 24.6673 15.0411 24.6673 15.4994C24.6673 15.9578 25.0423 16.3328 25.5007 16.3328H28.8341C29.2924 16.3328 29.6675 15.9578 29.6675 15.4994C29.6675 15.0411 29.2924 14.6661 28.8341 14.6661Z" fill="#69696f"/>
<path d="M28.8341 17.9995H25.5007C25.0423 17.9995 24.6673 18.3745 24.6673 18.8329C24.6673 19.2912 25.0423 19.6662 25.5007 19.6662H28.8341C29.2924 19.6662 29.6675 19.2912 29.6675 18.8329C29.6675 18.3745 29.2924 17.9995 28.8341 17.9995Z" fill="#69696f"/>
<path d="M27.1674 22.9997C25.7923 22.9997 24.6673 24.1247 24.6673 25.4998C24.6673 26.8748 25.7923 27.9998 27.1674 27.9998C28.5424 27.9998 29.6675 26.8748 29.6675 25.4998C29.6675 24.1247 28.5424 22.9997 27.1674 22.9997ZM27.1674 26.3331C26.709 26.3331 26.334 25.9581 26.334 25.4998C26.334 25.0414 26.709 24.6664 27.1674 24.6664C27.6257 24.6664 28.0007 25.0414 28.0007 25.4998C28.0007 25.9581 27.6257 26.3331 27.1674 26.3331Z" fill="#69696f"/>
</svg>
