<svg width="20" height="20" viewBox="0 0 20 20" fill="none" xmlns="http://www.w3.org/2000/svg">
<path fill-rule="evenodd" clip-rule="evenodd" d="M4.99935 2.5C4.53911 2.5 4.16602 2.8731 4.16602 3.33333V16.6667C4.16602 17.1269 4.53911 17.5 4.99935 17.5H12.4993C13.6044 17.5 14.6642 17.061 15.4456 16.2796C16.227 15.4982 16.666 14.4384 16.666 13.3333C16.666 12.2283 16.227 11.1685 15.4456 10.3871C15.171 10.1124 14.862 9.88009 14.5287 9.69424C14.5569 9.66757 14.5848 9.64047 14.6123 9.61294C15.3937 8.83154 15.8327 7.77174 15.8327 6.66667C15.8327 5.5616 15.3937 4.50179 14.6123 3.72039C13.8309 2.93899 12.7711 2.5 11.666 2.5H4.99935ZM11.666 9.16667C12.3291 9.16667 12.9649 8.90328 13.4338 8.43443C13.9026 7.96559 14.166 7.32971 14.166 6.66667C14.166 6.00363 13.9026 5.36774 13.4338 4.8989C12.9649 4.43006 12.3291 4.16667 11.666 4.16667H5.83268V9.16667H11.666ZM5.83268 10.8333V15.8333H12.4993C13.1624 15.8333 13.7983 15.5699 14.2671 15.1011C14.736 14.6323 14.9993 13.9964 14.9993 13.3333C14.9993 12.6703 14.736 12.0344 14.2671 11.5656C13.7983 11.0967 13.1624 10.8333 12.4993 10.8333H5.83268Z" fill="#646464"/>
</svg>
