<svg width="20" height="20" viewBox="0 0 20 20" fill="none" xmlns="http://www.w3.org/2000/svg">
<path d="M2.49935 4.16699C2.03911 4.16699 1.66602 4.54009 1.66602 5.00033C1.66602 5.46056 2.03911 5.83366 2.49935 5.83366H17.4993C17.9596 5.83366 18.3327 5.46056 18.3327 5.00033C18.3327 4.54009 17.9596 4.16699 17.4993 4.16699H2.49935Z" fill="#646464"/>
<path d="M4.99935 7.50033C4.53911 7.50033 4.16602 7.87342 4.16602 8.33366C4.16602 8.7939 4.53911 9.16699 4.99935 9.16699H14.9993C15.4596 9.16699 15.8327 8.7939 15.8327 8.33366C15.8327 7.87342 15.4596 7.50033 14.9993 7.50033H4.99935Z" fill="#646464"/>
<path d="M1.66602 11.667C1.66602 11.2068 2.03911 10.8337 2.49935 10.8337H17.4993C17.9596 10.8337 18.3327 11.2068 18.3327 11.667C18.3327 12.1272 17.9596 12.5003 17.4993 12.5003H2.49935C2.03911 12.5003 1.66602 12.1272 1.66602 11.667Z" fill="#646464"/>
<path d="M4.99935 14.167C4.53911 14.167 4.16602 14.5401 4.16602 15.0003C4.16602 15.4606 4.53911 15.8337 4.99935 15.8337H14.9993C15.4596 15.8337 15.8327 15.4606 15.8327 15.0003C15.8327 14.5401 15.4596 14.167 14.9993 14.167H4.99935Z" fill="#646464"/>
</svg>
