<svg width="18" height="18" viewBox="0 0 18 18" fill="none" xmlns="http://www.w3.org/2000/svg">
<g clip-path="url(#clip0_2996_3471)">
<path d="M9.00039 0.900024C4.53405 0.900024 0.900391 4.53368 0.900391 9.00002C0.900391 13.4664 4.53405 17.1 9.00039 17.1C13.4667 17.1 17.1004 13.4664 17.1004 9.00002C17.1004 4.53368 13.4667 0.900024 9.00039 0.900024ZM9.00039 16.29C4.98117 16.29 1.71039 13.0201 1.71039 9.00002C1.71039 4.9808 4.98117 1.71002 9.00039 1.71002C13.0204 1.71002 16.2904 4.9808 16.2904 9.00002C16.2904 13.0201 13.0204 16.29 9.00039 16.29ZM8.26572 5.2238C8.09238 5.05127 8.00652 4.84553 8.00652 4.60658C8.00652 4.36763 8.09319 4.16432 8.26572 3.99503C8.43825 3.82736 8.64399 3.74231 8.88294 3.74231C9.12108 3.74231 9.3252 3.82655 9.49368 3.99503C9.66216 4.16351 9.74721 4.36763 9.74721 4.60658C9.74721 4.84553 9.66297 5.05127 9.49368 5.2238C9.3252 5.39714 9.12108 5.483 8.88294 5.483C8.64399 5.483 8.43825 5.39633 8.26572 5.2238ZM9.82092 12.483C10.0096 12.5729 10.2859 12.6183 10.6479 12.6183V13.05H7.35123V12.6183C8.07537 12.6183 8.43744 12.4336 8.43744 12.0643V7.74047C8.43744 7.36301 8.07537 7.17428 7.35123 7.17428V6.779H9.54876V12.0651C9.54147 12.2538 9.63138 12.3931 9.82092 12.483Z" fill="#4072C2"/>
</g>
<defs>
<clipPath id="clip0_2996_3471">
<rect width="18" height="18" fill="white"/>
</clipPath>
</defs>
</svg>
