<svg width="20" height="20" viewBox="0 0 20 20" fill="none" xmlns="http://www.w3.org/2000/svg">
<path fill-rule="evenodd" clip-rule="evenodd" d="M4.5 13H2.5C2.22 13 2 13.22 2 13.5C2 13.78 2.22 14 2.5 14H4V14.5H3.5C3.22 14.5 3 14.72 3 15C3 15.28 3.22 15.5 3.5 15.5H4V16H2.5C2.22 16 2 16.22 2 16.5C2 16.78 2.22 17 2.5 17H4.5C4.78 17 5 16.78 5 16.5V13.5C5 13.22 4.78 13 4.5 13ZM2.5 4H3V6.5C3 6.78 3.22 7 3.5 7C3.78 7 4 6.78 4 6.5V3.5C4 3.22 3.78 3 3.5 3H2.5C2.22 3 2 3.22 2 3.5C2 3.78 2.22 4 2.5 4Z" fill="#646464"/>
<path d="M6.83333 4C6.3731 4 6 4.3731 6 4.83333C6 5.29357 6.3731 5.66667 6.83333 5.66667H18.1667C18.6269 5.66667 19 5.29357 19 4.83333C19 4.3731 18.6269 4 18.1667 4H6.83333Z" fill="#646464"/>
<path d="M6.83333 9C6.3731 9 6 9.3731 6 9.83333C6 10.2936 6.3731 10.6667 6.83333 10.6667H18.1667C18.6269 10.6667 19 10.2936 19 9.83333C19 9.3731 18.6269 9 18.1667 9H6.83333Z" fill="#646464"/>
<path d="M6 14.8333C6 14.3731 6.3731 14 6.83333 14H18.1667C18.6269 14 19 14.3731 19 14.8333C19 15.2936 18.6269 15.6667 18.1667 15.6667H6.83333C6.3731 15.6667 6 15.2936 6 14.8333Z" fill="#646464"/>
</svg>
