<svg width="20" height="20" viewBox="0 0 20 20" fill="none" xmlns="http://www.w3.org/2000/svg">
<path d="M2.49935 4.16699C2.03911 4.16699 1.66602 4.54009 1.66602 5.00033C1.66602 5.46056 2.03911 5.83366 2.49935 5.83366H17.4993C17.9596 5.83366 18.3327 5.46056 18.3327 5.00033C18.3327 4.54009 17.9596 4.16699 17.4993 4.16699H2.49935Z" fill="#646464"/>
<path d="M2.49935 7.50033C2.03911 7.50033 1.66602 7.87342 1.66602 8.33366C1.66602 8.7939 2.03911 9.16699 2.49935 9.16699H14.166C14.6263 9.16699 14.9993 8.7939 14.9993 8.33366C14.9993 7.87342 14.6263 7.50033 14.166 7.50033H2.49935Z" fill="#646464"/>
<path d="M1.66602 11.667C1.66602 11.2068 2.03911 10.8337 2.49935 10.8337H17.4993C17.9596 10.8337 18.3327 11.2068 18.3327 11.667C18.3327 12.1272 17.9596 12.5003 17.4993 12.5003H2.49935C2.03911 12.5003 1.66602 12.1272 1.66602 11.667Z" fill="#646464"/>
<path d="M2.49935 14.167C2.03911 14.167 1.66602 14.5401 1.66602 15.0003C1.66602 15.4606 2.03911 15.8337 2.49935 15.8337H14.166C14.6263 15.8337 14.9993 15.4606 14.9993 15.0003C14.9993 14.5401 14.6263 14.167 14.166 14.167H2.49935Z" fill="#646464"/>
</svg>
