<svg width="20" height="21" viewBox="0 0 20 21" fill="none" xmlns="http://www.w3.org/2000/svg">
<path d="M1.92017 9.86309C2.07908 9.70948 2.2925 9.6253 2.51348 9.62905C2.73446 9.6328 2.9449 9.72418 3.09851 9.88309L5.77017 12.6489L11.916 6.57475C12.0762 6.43688 12.2828 6.36503 12.494 6.37376C12.7052 6.38248 12.9051 6.47112 13.0534 6.62174C13.2017 6.77235 13.2872 6.97368 13.2927 7.18497C13.2981 7.39626 13.223 7.60172 13.0827 7.75975L6.34017 14.4264C6.18482 14.5801 5.97534 14.6666 5.75684 14.6673H5.74934C5.63937 14.6666 5.53061 14.6441 5.42935 14.6012C5.32809 14.5583 5.23632 14.4958 5.15934 14.4173L1.90017 11.0414C1.74657 10.8825 1.66239 10.6691 1.66614 10.4481C1.66989 10.2271 1.76127 10.0167 1.92017 9.86309ZM16.916 6.57475L10.7727 12.6489L10.5535 12.4214C10.4776 12.3423 10.3867 12.2789 10.2862 12.2349C10.1857 12.1909 10.0776 12.1672 9.96788 12.1652C9.8582 12.1631 9.74919 12.1827 9.64711 12.2229C9.54502 12.263 9.45188 12.3229 9.373 12.3992C9.29413 12.4754 9.23109 12.5665 9.18749 12.6671C9.14389 12.7678 9.12059 12.8761 9.11894 12.9858C9.11728 13.0954 9.13729 13.2044 9.17783 13.3063C9.21837 13.4082 9.27864 13.5012 9.35517 13.5798L10.1602 14.4131C10.2372 14.4916 10.3289 14.5542 10.4302 14.5971C10.5314 14.64 10.6402 14.6624 10.7502 14.6631H10.7593C10.9778 14.6624 11.1873 14.5759 11.3427 14.4223L18.0852 7.75559C18.2225 7.59685 18.2949 7.39213 18.2879 7.18234C18.2808 6.97255 18.1949 6.77314 18.0472 6.62398C17.8995 6.47482 17.7009 6.38688 17.4912 6.37776C17.2815 6.36863 17.0761 6.43898 16.916 6.57475Z" fill="#1D7B1E"/>
</svg>
