<svg width="57" height="56" viewBox="0 0 57 56" fill="none" xmlns="http://www.w3.org/2000/svg">
<g clip-path="url(#clip0_3561_1829)">
<path d="M28.5 56C43.964 56 56.5 43.464 56.5 28C56.5 12.536 43.964 0 28.5 0C13.036 0 0.5 12.536 0.5 28C0.5 43.464 13.036 56 28.5 56Z" fill="#D9D9D9"/>
<path d="M28.5004 55.3638C43.6129 55.3638 55.864 43.1126 55.864 28.0001C55.864 12.8876 43.6129 0.636475 28.5004 0.636475C13.3878 0.636475 1.13672 12.8876 1.13672 28.0001C1.13672 43.1126 13.3878 55.3638 28.5004 55.3638Z" fill="white"/>
</g>
<path d="M20.5 29H38.5" stroke="#11100E" stroke-width="3" stroke-linecap="round" stroke-linejoin="round"/>
<path d="M29.5 38V20" stroke="#11100E" stroke-width="3" stroke-linecap="round" stroke-linejoin="round"/>
<defs>
<clipPath id="clip0_3561_1829">
<rect width="56" height="56" fill="white" transform="translate(0.5)"/>
</clipPath>
</defs>
</svg>
