<?xml version="1.0" encoding="utf-8"?>
<!-- Generator: Adobe Illustrator 27.6.1, SVG Export Plug-In . SVG Version: 6.00 Build 0)  -->
<svg version="1.1" id="Layer_1" xmlns="http://www.w3.org/2000/svg" xmlns:xlink="http://www.w3.org/1999/xlink" x="0px" y="0px"
	 viewBox="0 0 2000 380" style="enable-background:new 0 0 2000 380;" xml:space="preserve">
<style type="text/css">
	.st0{fill:#FFFFFF;}
	.st1{fill:#32CD32;}
</style>
<g>
	<path class="st0" d="M1444.51,295.39c-11.08-0.46-32.59-2.66-37.28-23.01c-2.73-7.41-4.68-17.16-4.68-29.64l-0.32-218.41h-63.01
		l-0.07,219.97c0.21,7.02,0.6,13.65,0.6,20.28c2.32,54.48,28.39,88.27,89.92,90.41l-0.01,0.05h14.86L1444.51,295.39z"/>
	<path class="st0" d="M682.45,71.81c0.58,17.43-12.2,31.38-32.54,31.38c-18.01,0-30.8-13.95-30.8-31.38
		c0-18.01,13.37-31.96,31.96-31.96C670.24,39.85,682.45,53.79,682.45,71.81"/>
	<path class="st0" d="M1538.88,71.81c0.58,17.43-12.2,31.38-32.54,31.38c-18.01,0-30.8-13.95-30.8-31.38
		c0-18.01,13.37-31.96,31.96-31.96C1526.67,39.85,1538.88,53.79,1538.88,71.81"/>
	<path class="st0" d="M858.91,355.07l-0.39-130.27c-1.56-28.86-14.43-42.12-38.22-42.12c-23.79,0-37.44,13.26-38.61,40.56
		l-0.39,131.83h-64.75V129.24h54.6v10.92c12.87-7.8,28.47-12.87,49.14-12.87c28.47,0,51.87,6.24,70.21,29.25
		c20.67-23.01,41.73-29.25,70.21-29.25c60.06-0.39,99.06,35.1,101.8,88.53c0.39,5.46,0.78,11.31,0.78,17.16v122.08h-62.79v-105.3
		c0-9.36-0.39-17.94-1.17-26.53c-1.95-27.3-14.82-40.17-38.61-40.56c-23.79,0-36.66,13.26-38.61,41.73l0.39,130.66H858.91z"/>
	<path class="st0" d="M1307.87,295.78c-12.87,29.64-43.96,63.19-104.42,63.19c-57.72,0-114.78-44.46-114.78-115.84
		c0-69.03,53.15-115.84,110.49-115.84c70.14,0,112.61,51.09,110.49,133.78h-160.47c6.02,24.57,28.54,42.12,53.89,44.46
		c19.89,1.95,41.23-6.24,52.54-21.45L1307.87,295.78z M1249.76,218.17c-3.02-20.87-21.73-40.67-49.43-40.67
		c-26.13,0-46.77,17.54-49.98,40.67H1249.76z"/>
	<path class="st0" d="M1946.47,295.78c-12.87,29.64-43.96,63.19-104.42,63.19c-57.72,0-114.78-44.46-114.78-115.84
		c0-69.03,53.15-115.84,110.49-115.84c70.14,0,112.61,51.09,110.49,133.78h-160.47c6.02,24.57,28.54,42.12,53.89,44.46
		c19.89,1.95,41.23-6.24,52.54-21.45L1946.47,295.78z M1888.36,218.17c-3.02-20.87-21.73-40.67-49.43-40.67
		c-26.13,0-46.77,17.54-49.98,40.67H1888.36z"/>
	<rect x="1475.32" y="129.63" class="st0" width="63.57" height="225.44"/>
	<path class="st0" d="M1706.3,129.66h-43.29V67.23h-63.19v62.44h-31.21v53.01h31.2l-0.03,61.63c0.21,7.02,0.6,13.65,0.6,20.28
		c2.32,54.48,28.39,88.27,89.92,90.41l-0.01,0.05h14.86l-0.01-59.65c-11.08-0.46-32.59-2.66-37.28-23.01
		c-2.73-7.41-4.68-17.16-4.68-29.64l-0.12-60.07h43.23V129.66z"/>
	<rect x="619" y="129.63" class="st0" width="63.57" height="225.44"/>
	<g>
		<path class="st0" d="M1961.36,140.14c0.81,0.27,1.54,0.63,2.18,1.09c0.64,0.45,1.16,1.03,1.55,1.72c0.38,0.69,0.58,1.57,0.58,2.61
			c0,1.13-0.25,2.1-0.76,2.9c-0.5,0.8-1.16,1.46-1.95,1.96c-0.79,0.51-1.68,0.87-2.66,1.1c-0.98,0.22-1.96,0.34-2.93,0.34
			c-1.19,0-2.31-0.15-3.38-0.45c-1.06-0.3-1.99-0.75-2.79-1.35c-0.8-0.6-1.44-1.38-1.9-2.32c-0.47-0.94-0.7-2.06-0.7-3.34h2.67
			c0,0.89,0.17,1.66,0.52,2.3c0.34,0.65,0.8,1.17,1.37,1.59c0.56,0.42,1.22,0.72,1.97,0.92c0.76,0.2,1.53,0.3,2.32,0.3
			c0.63,0,1.27-0.06,1.92-0.18c0.64-0.12,1.22-0.32,1.74-0.61c0.51-0.29,0.93-0.68,1.25-1.17c0.32-0.5,0.48-1.13,0.48-1.9
			c0-0.73-0.19-1.33-0.58-1.78c-0.39-0.46-0.91-0.83-1.55-1.11c-0.64-0.29-1.37-0.52-2.18-0.7c-0.81-0.18-1.64-0.36-2.48-0.55
			c-0.84-0.19-1.67-0.4-2.48-0.65c-0.81-0.25-1.54-0.57-2.18-0.98c-0.64-0.41-1.16-0.93-1.54-1.57c-0.39-0.64-0.58-1.45-0.58-2.42
			c0-1.07,0.22-2,0.65-2.78c0.44-0.78,1.01-1.43,1.74-1.93c0.72-0.5,1.55-0.88,2.47-1.13c0.92-0.25,1.87-0.37,2.84-0.37
			c1.09,0,2.1,0.13,3.03,0.39c0.93,0.26,1.75,0.66,2.45,1.22c0.7,0.55,1.26,1.25,1.66,2.1c0.41,0.84,0.63,1.85,0.67,3.02h-2.68
			c-0.16-1.53-0.7-2.63-1.65-3.31c-0.94-0.68-2.15-1.03-3.61-1.03c-0.6,0-1.18,0.06-1.75,0.18c-0.58,0.12-1.09,0.32-1.53,0.6
			c-0.45,0.28-0.8,0.65-1.07,1.11c-0.27,0.47-0.4,1.05-0.4,1.74c0,0.65,0.19,1.18,0.58,1.59c0.39,0.41,0.9,0.74,1.55,0.99
			c0.65,0.26,1.37,0.47,2.18,0.64"/>
		<polyline class="st0" points="1987.34,130.17 1991.21,130.17 1991.21,151.39 1988.53,151.39 1988.53,133.74 1988.47,133.74 
			1981.84,151.39 1979.43,151.39 1972.81,133.74 1972.75,133.74 1972.75,151.39 1970.07,151.39 1970.07,130.17 1973.93,130.17 
			1980.62,148.01 		"/>
	</g>
	<path class="st0" d="M588.34,295.39c-11.08-0.46-32.57-2.66-37.26-23.01c-2.73-7.41-4.68-17.16-4.68-29.64l-0.32-218.41h-63.01
		l-0.07,219.97c0.21,7.02,0.6,13.65,0.6,20.28c2.32,54.48,28.39,88.27,89.92,90.41l-0.01,0.05h14.86L588.34,295.39z"/>
</g>
<g>
	<path class="st1" d="M191.58,5.73c-2.77-0.12-5.54-0.21-8.34-0.21H41.89C23.73,5.52,9.01,20.24,9.01,38.4v141.34
		c0,2.8,0.1,5.57,0.21,8.34C140.57,179.62,183.12,137.08,191.58,5.73"/>
	<path class="st1" d="M377.23,188.07C371.34,90.15,292.99,11.8,195.07,5.91C203.55,137.06,246.08,179.59,377.23,188.07"/>
	<path class="st1" d="M9.41,191.57c5.88,97.92,84.23,176.27,182.15,182.15C183.08,242.59,140.56,200.06,9.41,191.57"/>
	<path class="st1" d="M195.06,373.91c2.77,0.12,5.54,0.21,8.34,0.21h141.35c18.15,0,32.88-14.72,32.88-32.88V199.9
		c0-2.79-0.1-5.57-0.21-8.34C246.06,200.02,203.52,242.57,195.06,373.91"/>
</g>
</svg>
