<svg width="20" height="20" viewBox="0 0 20 20" fill="none" xmlns="http://www.w3.org/2000/svg">
<path d="M18.6724 16.75L14.1641 12.25C14.9756 11.08 15.4264 9.73 15.4264 8.2C15.4264 4.24 12.1805 1 8.21322 1C4.24595 1 1 4.24 1 8.2C1 12.16 4.24595 15.4 8.21322 15.4C9.74603 15.4 11.0985 14.95 12.2707 14.14L16.7789 18.64C17.0494 18.91 17.3199 19 17.6806 19C18.0412 19 18.4019 18.82 18.5822 18.64C19.1232 18.1 19.1232 17.29 18.6724 16.75ZM12.0903 13.15C11.0083 13.96 9.65586 14.5 8.21322 14.5C4.69677 14.5 1.90165 11.71 1.90165 8.2C1.90165 4.69 4.69677 1.9 8.21322 1.9C11.7297 1.9 14.5248 4.69 14.5248 8.2C14.5248 9.64 13.9838 10.99 13.1723 12.07C12.9018 12.43 12.5411 12.88 12.0903 13.15ZM18.0412 18.01C17.8609 18.19 17.5904 18.19 17.4101 18.01L12.992 13.6C12.992 13.6 12.992 13.51 13.0821 13.51C13.2625 13.33 13.4428 13.24 13.533 13.06C13.533 13.06 13.533 13.06 13.6231 12.97L18.0412 17.38C18.1314 17.47 18.1314 17.56 18.1314 17.65C18.1314 17.83 18.1314 17.92 18.0412 18.01Z" fill="white" fill-opacity="0.5"/>
</svg>
